<svg width="3333.3" height="2218.6" version="1.1" viewBox="0 0 3333.3 2218.6" xml:space="preserve" xmlns="http://www.w3.org/2000/svg"><g transform="matrix(1.3333 0 0 -1.3333 0 2218.6)"><path d="m1084.5 1153.7h-80.88v75.86h80.88v-75.86" fill="#00ccbe"/><path d="m1218.2 1214-203.22-114.34c-1.47-0.83-3.35-0.31-4.18 1.17l-25.911 46.06c-0.831 1.47-0.307 3.35 1.17 4.18l203.21 114.33c1.48 0.83 3.35 0.31 4.18-1.17l25.92-46.05c0.83-1.48 0.3-3.35-1.17-4.18" fill="#000061"/><g fill="#fff"><path d="m1049.1 1159.4-2.96-10.8 7.22-8.57-11.19-0.52-5.91-9.51-3.95 10.48-10.88 2.68 8.75 7-0.81 11.17 9.36-6.15 10.37 4.22"/><path d="m1080.2 1176.9-2.96-10.8 7.22-8.56-11.19-0.53-5.91-9.51-3.95 10.48-10.88 2.68 8.75 7-0.81 11.17 9.36-6.15 10.37 4.22"/><path d="m1111.3 1194.4-2.96-10.81 7.22-8.56-11.19-0.52-5.91-9.52-3.95 10.48-10.88 2.69 8.75 7-0.81 11.17 9.36-6.16 10.37 4.23"/><path d="m1142.4 1211.9-2.96-10.8 7.22-8.57-11.19-0.52-5.91-9.51-3.95 10.48-10.88 2.68 8.75 7-0.81 11.17 9.36-6.15 10.37 4.22"/><path d="m1173.6 1229.4-2.96-10.8 7.22-8.56-11.19-0.53-5.91-9.51-3.95 10.48-10.88 2.69 8.75 6.99-0.81 11.18 9.36-6.16 10.37 4.22"/></g><path d="m1028.2 1181.7c3.02-22.14-12.47-42.53-34.611-45.55-22.138-3.03-42.534 12.47-45.557 34.6-3.023 22.14 12.473 42.54 34.61 45.56 22.138 3.02 42.528-12.47 45.558-34.61" fill="#ff5776"/><path d="m975.24 1191.2 4.48-32.8 30.566 20.88z" fill="#fff"/><path d="m845.6 696.64c-9.58-52.551-34-99.921-68.76-137.63-4.52-4.91-9.23-9.67-14.1-14.24-14.89-13.99-31.34-26.36-49.04-36.8-41.21-24.32-89.27-38.28-140.58-38.28-109.74 0-204.58 63.82-249.43 156.37-17.66 36.46-27.57 77.391-27.57 120.63 0 152.99 124.02 277 277 277 26.99 0 53.08-3.86 77.75-11.07 15.09-4.39 29.65-10.05 43.55-16.839 4.55-2.22 9.03-4.56 13.44-7.02 19.84-11.06 38.18-24.5 54.63-39.93 0.43-0.38 0.85-0.79 1.28-1.2-15.22-9.49-30.63-5.38-39.24-1.56-0.36 0.1-0.71 0.21-1.07 0.32 0 0-6.96-19.5-15.68-42.09 8.29-6.53 30.4 0.72 42.32 5.38 2.51 4.42 6.7 7.72 10.88 10.3 2.39 1.47 6.25 2.9 11.1 4.22l7.15 7.55c1.48-1.64 2.94-3.31 4.38-4.99 5.88-6.87 11.45-14.04 16.64-21.49 5.65-8.05 10.87-16.42 15.63-25.08v-0.01c1.23-2.22 2.43-4.47 3.59-6.73 2.03-3.91 3.96-7.89 5.79-11.91 0.91-1.98 1.79-3.98 2.65-5.99 2.76-6.45 5.28-13.02 7.55-19.72 0.01-0.02 0.02-0.05 0.03-0.08 0.02-0.06 0.04-0.12 0.07-0.18-0.3-0.07-0.67-0.08-1.08 0.04-2.27-0.29-6.52-0.53-12.35 0.34v-0.07c0.04-2.38-0.04-4.85-0.24-7.37-0.03-0.42-0.06-0.85-0.1-1.27-0.19-2.18-0.46-4.4-0.79-6.62-0.18-1.22-0.38-2.44-0.6-3.67-0.29-1.68-0.61-3.36-0.96-5.02l-0.03-0.15c-0.36-1.71-0.74-3.42-1.14-5.09-0.2-0.84-0.4-1.67-0.61-2.5-0.4-1.59-0.81-3.151-1.23-4.68-1.11-4.05-2.27-7.85-3.36-11.23-0.21-0.64-0.41-1.26-0.61-1.86-0.21-0.631-0.41-1.24-0.61-1.83-0.1-0.29-0.2-0.58-0.3-0.86l-0.03-0.09c-0.14-0.41-0.28-0.81-0.41-1.2-0.79-2.27-1.49-4.16-2.02-5.58-0.06-0.15-0.11-0.3-0.16-0.44-0.6-1.57-0.95-2.44-0.95-2.44s-1.17-5.43-5.08-7.84c1.17-15.84 4.66-33.47 7.88-47.101l3.31 0.621 2.89-23.68 28.62 0.66" fill="#ffe9e9"/><path d="m297.66 548.99c-3.241 41.11 23.895 78.04 53.447 103.8 26.407 23.018 62.341 42.119 98.428 35.779 18.61-3.27 35.197-13.436 47.924-27.229 14.137-15.33 23.192-34.55 37.357-49.86 22.133-23.93 53.821-36.28 86.194-36 36.75 0.31 72.83 15.82 98.69 41.84 1.362 1.37-0.758 3.5-2.122 2.12-49.658-49.97-138.52-57.97-185.59-0.13-13.262 16.3-22.594 35.6-38.23 49.949-12.919 11.859-28.794 20.174-46.245 22.646-34.186 4.842-67.741-11.758-93.573-32.815-32.363-26.38-62.742-66.2-59.281-110.1 0.151-1.92 3.153-1.93 3 0" fill="#fff"/><path d="m285.08 943.38c21.803-11.626 45.287-19.356 68.219-28.364 22.413-8.804 43.152-19.697 62.458-34.126 32.646-24.4 60.32-55.12 82.587-89.18 45.062-68.927 69.271-151.65 71.388-233.8 1.353-52.48-7.733-104.19-23.217-154.24-0.572-1.85 2.323-2.64 2.893-0.8 14.153 45.75 23.206 93.12 23.467 141.1 0.223 41.1-5.237 82.26-15.828 121.97-21.169 79.363-63.533 155.15-127.43 207.85-19.307 15.924-40.104 29.236-63.159 39.072-26.518 11.314-54.342 19.501-79.859 33.107-1.704 0.908-3.221-1.68-1.515-2.59" fill="#fff"/><path d="m1549 1176c-7.01-2.95-21.04-13.05-48.59 11.74-27.56 24.79-25.41 33.26-25.41 33.26l34.87 15.58 32.9-20.82 6.23-39.76" fill="#000061"/><path d="m2038 1176c0-52.48-14.58-101.55-39.95-143.37l-420.88-1.15-0.17 41.52 51.69 106.83c-7.06-3.42-13.73-5.62-19.69-5.83-29-1-45 39-45 39l-15-37s-20.12 27.67-61.9 41.54v0.01c10.06 66.85 44 125.88 92.86 168.11 48.56 41.96 111.84 67.34 181.04 67.34 152.99 0 277-124.02 277-277" fill="#ffe9e9"/><path d="m2028.8 1301.6c-50.41-32.25-153.63-85.91-193.17-11.26-11.15 21.04-14.08 45.6-29.86 64.19-12.7 14.95-31.03 22.49-50.51 22.33-28.62-0.25-55.81-12.76-84.49-11.88-13.91 0.43-27.25 5.08-35.24 17.07-7.03 10.53-8.82 23.48-8.72 35.9 0.47 54.33 44.1 94.72 76.07 133.79 1.21 1.48-0.9 3.62-2.13 2.12-29.1-35.57-66.59-70.75-75.2-117.94-3.93-21.52-2.89-49.75 15.71-64.57 20.6-16.41 51.57-8.13 74.73-3.2 25.01 5.32 52.53 10.85 75.21-4.47 21.88-14.77 27.23-40.06 36.46-63.05 7.39-18.44 19.07-34.95 37.49-43.55 15.62-7.29 33.3-8.2 50.18-6.05 41.23 5.27 80.4 25.86 114.98 47.98 1.62 1.04 0.12 3.64-1.51 2.59" fill="#fff"/><path d="m2073.1 1039.7v-6.75l-119.16 1.77v23.24l19.91 17.86 6.7 5.99c3.55 3.19 8.42 3.98 12.67 2.07l23.48-10.6c4.08-1.85 7.61-4.94 10.13-8.9l3.47-5.47 22.61-2.64c2.71-0.31 5.35-1 7.89-2.04l4.17-1.7c4.9-2.01 8.13-7.12 8.13-12.83" fill="#ffb149"/><path d="m1755.9 1109.2c19.05 97.73 69.13 186 129.82 263.81 17.12 21.95 35.15 43.18 53.77 63.86 1.29 1.43-0.82 3.56-2.12 2.12-66.29-73.62-126.3-155.48-161.5-248.81-9.82-26.05-17.53-52.85-22.86-80.18-0.37-1.89 2.52-2.69 2.89-0.8" fill="#fff"/><path d="m1842.8 1295.9c0-6.33-5.13-11.47-11.46-11.47s-11.46 5.14-11.46 11.47 5.13 11.46 11.46 11.46 11.46-5.13 11.46-11.46" fill="#fff"/><g fill="#00ccbe"><path d="m1161.5 489.35c27.12 59.58 82.74 32.09 82.74 32.09-8.69-71.04-82.74-32.09-82.74-32.09"/><path d="m1167.4 487.35c5.36-4.14 33.02-24.25 56.46-17.64 12.46 3.51 21.86 14.04 27.94 31.3-3.81 2.74-22.65 15.22-44.61 12.24-15.01-2.03-28.35-10.75-39.79-25.9zm52.71-20.97c-10.43-1.58-22.69 0.97-35.81 7.49-11.26 5.6-19.08 12.03-19.4 12.3l-0.9 0.75 0.69 0.94c12.01 16.31 26.22 25.66 42.19 27.84 25.55 3.47 46.29-12.58 47.16-13.26l0.68-0.54-0.28-0.83c-6.35-18.59-16.42-29.94-29.91-33.74-1.43-0.41-2.91-0.72-4.42-0.95"/><path d="m1299.3 644.03c-33.18-31.13-61.29-4.49-61.29-4.49 24.49 41.381 61.29 4.49 61.29 4.49"/><path d="m1293.2 706.94c2.51-30.561-23.34-34.221-23.34-34.221-11.56 30.28 23.34 34.221 23.34 34.221"/></g><path d="m1240.4 640.47c2.4-1.2 9.5-4.34 18.49-4.46 14.43-0.18 26.85 7.09 36.94 21.63-4.39 2.45-20.97 10.767-35.44 5.95-0.25-0.09-0.51-0.18-0.77-0.27-8.76-3.23-15.23-10.92-19.22-22.85zm31.83-4.88c-4.09-1.36-8.58-2.13-13.48-2.05-11.71 0.18-20.12 5.05-20.47 5.25l-0.85 0.5 0.29 0.94c4.21 13.27 11.29 21.82 21.06 25.412 0.28 0.104 0.57 0.204 0.85 0.299 17.86 5.953 37.78-6.311 38.63-6.841l1.08-0.68-0.71-1.06c-5.53-8.27-14.17-17.7-26.4-21.77" fill="#000061"/><path d="m1276.6 716.31c-3.63-1.553-14.42-6.867-17.54-16.311-1.91-5.775-0.64-12.193 3.77-19.089 4.19 1.979 20.74 11.472 13.77 35.4zm-14.71-38.462-0.55 0.819c-5.31 7.896-6.87 15.337-4.63 22.12 4.14 12.511 19.61 18.108 20.27 18.34l1.2 0.425 0.39-1.216c9.58-29.971-15.51-40.035-15.76-40.132l-0.92-0.356" fill="#000061"/><path d="m1159.2 573.38c-30.17-34.04-2.74-61.39-2.74-61.39 40.66 25.65 2.74 61.39 2.74 61.39" fill="#00ccbe"/><path d="m1179.7 534.25c0.08 0.26 0.17 0.52 0.25 0.78 4.4 14.6-4.38 30.93-6.95 35.25-14.25-10.49-21.17-23.12-20.57-37.54 0.37-8.98 3.7-15.99 4.97-18.35 11.82 4.33 19.32 11.01 22.3 19.86zm-7.06 38.82 1.04 0.74 0.7-1.06c0.56-0.83 13.39-20.39 7.94-38.42-0.08-0.28-0.18-0.57-0.27-0.86-3.31-9.86-11.66-17.18-24.8-21.76l-0.94-0.33-0.52 0.84c-0.22 0.34-5.32 8.62-5.83 20.31-0.22 4.9 0.42 9.41 1.67 13.53 3.72 12.34 12.9 21.25 21.01 27.01" fill="#000061"/><path d="m1212.7 694.35c4.29-27.966-19.27-33.004-19.27-33.004-12.6 27.114 19.27 33.004 19.27 33.004" fill="#000061"/><g fill="#00ccbe"><path d="m1219.6 555.85c0.48-3.15-1.69-6.09-4.84-6.57-3.16-0.48-6.1 1.69-6.58 4.84-0.48 3.16 1.69 6.1 4.85 6.58 3.15 0.47 6.09-1.69 6.57-4.85"/><path d="m1060.5 453.34c2.04 21.69 5.72 43.61 13.29 64.44l0.72 1.95c0.26 0.7 0.53 1.39 0.83 2.07 0.56 1.31 1.11 2.55 1.68 3.82 1.15 2.52 2.37 5 3.63 7.46 0.63 1.22 1.28 2.44 1.94 3.65 0.66 1.25 1.39 2.44 2.11 3.6l4.32 7.04c6.03 9.15 12.66 17.87 19.89 26.06 7.34 8.08 15.22 15.64 23.61 22.56 8.5 6.79 17.47 12.94 26.86 18.34 9.49 5.23 19.36 9.69 29.52 13.29 10.24 3.41 20.73 5.9 31.34 7.47-10.51-2.19-20.77-5.27-30.68-9.22-9.83-4.15-19.27-9.1-28.25-14.75-8.87-5.83-17.26-12.33-25.12-19.39-7.75-7.2-14.93-14.95-21.55-23.13-12.82-16.6-24.09-34.89-30.17-54.37-5.95-19.91-8.25-40.83-9-61.86-0.15-4.14-3.62-7.38-7.76-7.23-4.15 0.15-7.38 3.62-7.24 7.76 0.01 0.14 0.02 0.31 0.03 0.44"/><path d="m1164 634.85c-0.43 4.83-0.49 9.69-0.16 14.53 0.09 1.2 0.19 2.41 0.33 3.61 0.11 1.37 0.39 2.49 0.62 3.7l0.71 3.56c0.25 1.18 0.43 2.39 0.8 3.52 2.29 9.288 6.14 18.067 10.8 26.188 4.68 8.125 10.26 15.58 16.34 22.459 6.06 6.902 12.7 13.162 19.53 19.087 6.84 5.923 13.92 11.488 21.09 16.864l5.4 3.988 0.67 0.497 0.6 0.479c0.39 0.325 0.81 0.624 1.19 0.969 0.76 0.698 1.53 1.384 2.22 2.159 1.42 1.507 2.7 3.168 3.78 4.963 1.11 1.779 2.04 3.679 2.79 5.664 3.03 7.935 3.3 17.022 0.96 25.419-2.32 8.391-7.45 16.216-14.92 21.169 7.8-4.409 13.68-12.02 16.7-20.599 3.05-8.582 3.52-18.221 0.8-27.201-0.66-2.245-1.55-4.435-2.66-6.528-1.08-2.107-2.4-4.104-3.91-5.956-0.73-0.947-1.56-1.808-2.39-2.679-0.42-0.431-0.88-0.823-1.32-1.236l-0.67-0.612-0.63-0.546-5.08-4.334c-6.72-5.81-13.28-11.76-19.52-17.973-12.48-12.363-23.61-26.062-31.04-41.328-3.67-7.62-6.51-15.576-7.92-23.763-0.26-1.01-0.33-2.03-0.47-3.04l-0.39-3.03c-0.12-1-0.31-2.06-0.3-2.93-0.04-1.02-0.06-2.04-0.06-3.06 0.01-4.09 0.35-8.16 1-12.19l-14.89-1.82"/><path d="m1251 548.8c24.9-5.56 47.47-18.56 64.3-36.37-19.09 15.36-42.42 24.54-65.83 26.49-2.76 0.23-4.81 2.65-4.58 5.41s2.65 4.81 5.41 4.58c0.22-0.02 0.44-0.05 0.65-0.1l0.05-0.01"/></g><path d="m1151.8 679.18c39.14-11.069 31.69-44.891 31.69-44.891-42.99-0.31-31.69 44.891-31.69 44.891" fill="#000061"/><g fill="#00ccbe"><path d="m1921 1141.4c27.12 59.57 82.75 32.09 82.75 32.09-8.69-71.04-82.75-32.09-82.75-32.09"/><path d="m1926.9 1139.4c5.36-4.14 33.03-24.25 56.47-17.63 12.46 3.51 21.85 14.04 27.94 31.3-3.82 2.74-22.66 15.22-44.62 12.23-15.01-2.02-28.35-10.74-39.79-25.9zm52.71-20.97c-10.42-1.57-22.69 0.98-35.8 7.49-11.26 5.6-19.08 12.04-19.41 12.31l-0.9 0.74 0.69 0.94c12.02 16.31 26.23 25.67 42.19 27.85 25.55 3.46 46.29-12.58 47.16-13.26l0.69-0.55-0.28-0.83c-6.36-18.58-16.42-29.93-29.91-33.74-1.44-0.4-2.91-0.72-4.43-0.95"/><path d="m2058.8 1296.1c-33.17-31.12-61.29-4.48-61.29-4.48 24.49 41.38 61.29 4.48 61.29 4.48"/><path d="m2052.6 1359c2.51-30.56-23.35-34.22-23.35-34.22-11.56 30.28 23.35 34.22 23.35 34.22"/></g><path d="m1999.8 1292.6c2.39-1.2 9.49-4.33 18.49-4.45 14.43-0.19 26.85 7.09 36.94 21.63-4.4 2.45-20.97 10.76-35.44 5.94-0.26-0.08-0.51-0.17-0.77-0.27-8.77-3.22-15.23-10.91-19.22-22.85zm31.82-4.87c-4.08-1.36-8.57-2.13-13.48-2.05-11.7 0.18-20.11 5.04-20.47 5.25l-0.85 0.5 0.3 0.94c4.21 13.27 11.29 21.82 21.05 25.41 0.29 0.1 0.57 0.2 0.86 0.3 17.86 5.95 37.77-6.31 38.63-6.85l1.08-0.67-0.71-1.06c-5.54-8.27-14.18-17.7-26.41-21.77" fill="#000061"/><path d="m2036.1 1368.4c-3.64-1.55-14.43-6.87-17.55-16.31-1.9-5.78-0.63-12.2 3.77-19.09 4.2 1.98 20.75 11.47 13.78 35.4zm-14.72-38.46-0.55 0.82c-5.31 7.89-6.86 15.33-4.62 22.12 4.14 12.51 19.61 18.1 20.26 18.34l1.2 0.42 0.39-1.21c9.58-29.98-15.5-40.04-15.76-40.14l-0.92-0.35" fill="#000061"/><path d="m1918.7 1225.5c-30.18-34.05-2.75-61.39-2.75-61.39 40.67 25.65 2.75 61.39 2.75 61.39" fill="#00ccbe"/><path d="m1939.1 1186.4c0.09 0.26 0.17 0.52 0.25 0.78 4.41 14.6-4.37 30.93-6.94 35.25-14.25-10.5-21.17-23.12-20.58-37.54 0.37-8.99 3.71-15.99 4.98-18.35 11.82 4.33 19.32 11 22.29 19.86zm-7.06 38.82 1.04 0.74 0.71-1.06c0.56-0.84 13.38-20.39 7.94-38.42-0.09-0.29-0.18-0.57-0.28-0.86-3.31-9.86-11.65-17.18-24.8-21.77l-0.93-0.32-0.52 0.83c-0.22 0.35-5.32 8.62-5.84 20.32-0.21 4.9 0.43 9.41 1.67 13.53 3.73 12.34 12.9 21.25 21.01 27.01" fill="#000061"/><path d="m1972.2 1346.4c4.29-27.96-19.26-33.01-19.26-33.01-12.61 27.12 19.26 33.01 19.26 33.01" fill="#000061"/><g fill="#00ccbe"><path d="m1979 1208c0.47-3.16-1.7-6.1-4.85-6.57-3.15-0.48-6.1 1.69-6.57 4.84-0.48 3.15 1.69 6.1 4.84 6.57 3.16 0.48 6.1-1.69 6.58-4.84"/><path d="m1997.9 1415.7c-14.88 63.74 45.96 75.93 45.96 75.93 36.48-61.58-45.96-75.93-45.96-75.93"/><path d="m2003.8 1417.7c6.77-0.01 40.96 0.95 55.49 20.49 7.72 10.39 8.74 24.47 3.02 41.85-4.69-0.16-27.23-1.77-42.81-17.54-10.65-10.77-15.89-25.82-15.7-44.8zm54.55 15.56c-7.3-7.61-18.57-13.08-32.94-15.92-12.34-2.44-22.45-2.12-22.88-2.1l-1.16 0.04-0.03 1.17c-0.44 20.25 5.1 36.33 16.42 47.8 18.13 18.34 44.34 18.3 45.45 18.28l0.88-0.01 0.28-0.83c6.31-18.59 5.27-33.73-3.1-44.98-0.89-1.2-1.86-2.35-2.92-3.45"/><path d="m1944.8 1480.8c-3.12-45.38 35.3-50.3 35.3-50.3 16.55 45.14-35.3 50.3-35.3 50.3"/></g><path d="m1984.9 1462.3c-0.09 0.27-0.18 0.52-0.28 0.77-5.42 14.26-22.34 21.83-27.02 23.69-4.88-17.01-2.66-31.24 6.62-42.29 5.78-6.89 12.7-10.41 15.14-11.5 6.72 10.64 8.59 20.51 5.54 29.33zm-29.29 26.45 0.37 1.22 1.21-0.41c0.95-0.32 23.05-7.99 29.74-25.59 0.1-0.28 0.21-0.56 0.31-0.85 3.39-9.83 1.25-20.72-6.36-32.37l-0.54-0.83-0.93 0.34c-0.38 0.14-9.47 3.58-17.02 12.53-3.16 3.75-5.41 7.71-6.94 11.74-4.58 12.05-2.74 24.7 0.16 34.22" fill="#000061"/><g fill="#00ccbe"><path d="m2003.3 1503.8c2.3-2.21 2.38-5.86 0.17-8.17-2.2-2.3-5.86-2.38-8.16-0.17s-2.38 5.86-0.17 8.16c2.2 2.31 5.86 2.38 8.16 0.18"/><path d="m1820 1105.4c2.04 21.69 5.72 43.6 13.29 64.44l0.72 1.94c0.26 0.7 0.53 1.4 0.83 2.08 0.55 1.3 1.1 2.55 1.68 3.81 1.15 2.52 2.36 5.01 3.63 7.46 0.63 1.23 1.28 2.45 1.94 3.66 0.65 1.25 1.39 2.43 2.11 3.6l4.31 7.03c6.04 9.16 12.67 17.88 19.89 26.07 7.35 8.08 15.22 15.64 23.61 22.56 8.5 6.79 17.48 12.93 26.86 18.34 9.49 5.23 19.37 9.69 29.53 13.29 10.24 3.41 20.73 5.89 31.33 7.46-10.5-2.18-20.77-5.26-30.67-9.21-9.83-4.15-19.27-9.1-28.25-14.76-8.88-5.82-17.26-12.32-25.13-19.38-7.75-7.2-14.93-14.95-21.55-23.14-12.82-16.59-24.08-34.88-30.16-54.36-5.96-19.92-8.26-40.83-9-61.86-0.15-4.14-3.63-7.38-7.77-7.23-4.14 0.14-7.38 3.62-7.23 7.76 0 0.14 0.02 0.3 0.03 0.44"/><path d="m2010.4 1200.9c24.9-5.56 47.47-18.56 64.29-36.37-19.08 15.36-42.42 24.54-65.83 26.48-2.75 0.23-4.8 2.66-4.58 5.42 0.23 2.76 2.66 4.81 5.42 4.58 0.22-0.02 0.43-0.05 0.64-0.1l0.06-0.01"/></g><path d="m1911.2 1331.3c39.14-11.07 31.69-44.9 31.69-44.9-43-0.31-31.69 44.9-31.69 44.9" fill="#000061"/><g fill="#00ccbe"><path d="m616.86 238.11c-1.511 65.43-63.463 62.04-63.463 62.04-19.943-68.74 63.463-62.04 63.463-62.04"/><path d="m584.28 278.03c-19.019 11.38-41.249 7.31-45.834 6.29-1.192-18.26 3.308-31.63 13.381-39.76 18.953-15.3 52.298-7.69 58.854-5.99-4.56 18.43-13.397 31.69-26.401 39.46zm-34.002-35.41c-10.913 8.81-15.703 23.2-14.237 42.79l0.066 0.87 0.847 0.23c1.069 0.29 26.443 6.89 48.576-6.35 13.822-8.28 23.208-22.47 27.841-42.19l0.267-1.13-1.121-0.34c-0.407-0.12-10.122-2.96-22.681-3.68-14.619-0.83-26.902 1.64-35.864 7.19-1.302 0.81-2.535 1.68-3.694 2.61"/><path d="m528.38 348.19c33.174-31.12 61.288-4.48 61.288-4.48-24.489 41.38-61.288 4.48-61.288 4.48"/><path d="m534.49 411.11c-2.508-30.57 23.343-34.23 23.343-34.23 11.561 30.28-23.343 34.23-23.343 34.23"/></g><path d="m568.07 367.48c-0.258 0.09-0.513 0.18-0.773 0.27-14.468 4.82-31.04-3.49-35.436-5.94 10.088-14.54 22.511-21.82 36.94-21.63 8.994 0.11 16.092 3.25 18.488 4.45-3.992 11.94-10.454 19.62-19.219 22.85zm-39.01-5.96-0.71 1.06 1.082 0.68c0.852 0.53 20.765 12.8 38.63 6.85 0.284-0.1 0.569-0.2 0.852-0.3 9.763-3.59 16.846-12.14 21.053-25.41l0.299-0.94-0.852-0.5c-0.352-0.21-8.765-5.07-20.469-5.26-4.907-0.07-9.393 0.69-13.481 2.06-12.228 4.07-20.869 13.49-26.404 21.76" fill="#000061"/><path d="m564.8 385.08c4.405 6.89 5.673 13.31 3.766 19.09-3.116 9.44-13.907 14.75-17.54 16.31-6.971-23.93 9.577-33.42 13.774-35.4zm0.017-2.71c-0.254 0.1-25.339 10.16-15.759 40.13l0.389 1.22 1.202-0.43c0.657-0.23 16.127-5.83 20.264-18.34 2.243-6.78 0.687-14.22-4.624-22.12l-0.551-0.82-0.921 0.36" fill="#000061"/><path d="m652 314.47c14.356-43.17-21.616-57.53-21.616-57.53-27.305 39.58 21.616 57.53 21.616 57.53" fill="#00ccbe"/><path d="m630.54 259.49c2.095 1.67 7.917 6.8 11.792 14.92 6.218 13.02 4.817 27.35-4.157 42.6-4.065-2.96-18.56-14.53-20.247-29.68-0.03-0.27-0.056-0.54-0.079-0.82-0.743-9.31 3.525-18.4 12.691-27.02zm17.766 26.85c-0.477-4.28-1.663-8.68-3.789-13.1-5.07-10.55-13.012-16.15-13.348-16.38l-0.811-0.57-0.729 0.67c-10.285 9.38-15.078 19.39-14.245 29.76 0.024 0.3 0.053 0.6 0.086 0.9 2.082 18.72 21.563 31.65 22.404 32.2l1.069 0.7 0.665-1.09c5.188-8.49 10.123-20.28 8.698-33.09" fill="#000061"/><path d="m621.21 413.38c-4.289-27.97 19.267-33.01 19.267-33.01 12.603 27.12-19.267 33.01-19.267 33.01" fill="#000061"/><g fill="#00ccbe"><path d="m589.65 322.07c-1.678-2.71-0.841-6.27 1.871-7.95s6.271-0.84 7.95 1.87c1.678 2.71 0.84 6.27-1.871 7.95-2.712 1.68-6.271 0.84-7.95-1.87"/><path d="m737.41 188.26c-0.615 10.11-1.645 20.16-3.435 30.02-0.878 4.94-1.975 9.82-3.254 14.65-0.648 2.41-1.35 4.8-2.111 7.17-0.381 1.19-0.776 2.37-1.186 3.55l-1.239 3.42c-0.409 0.99-0.944 2.23-1.443 3.33-0.511 1.14-1.037 2.27-1.579 3.39-1.083 2.25-2.231 4.47-3.434 6.66l-0.893 1.61-0.993 1.59-1.994 3.19-1.995 3.2c-0.683 1.06-1.439 2.07-2.154 3.11-5.65 8.38-12.189 16.16-19.186 23.52-6.957 7.41-14.671 14.11-22.772 20.31-8.061 6.28-16.792 11.67-25.796 16.57l-6.833 3.54-7.025 3.16c-2.323 1.11-4.738 1.99-7.14 2.91l-3.605 1.39-1.805 0.69-1.837 0.59-7.369 2.34c-1.221 0.43-2.481 0.7-3.729 1.03l-3.752 0.96-3.756 0.95c-1.255 0.32-2.533 0.51-3.799 0.77l-7.625 1.46 7.705-1c1.283-0.18 2.579-0.3 3.853-0.54l3.821-0.73 3.826-0.73c1.274-0.25 2.561-0.45 3.811-0.81l7.563-1.91 1.891-0.48 1.861-0.59 3.724-1.18c2.485-0.78 4.988-1.52 7.404-2.51l7.321-2.77 7.162-3.18c9.461-4.43 18.731-9.41 27.394-15.35 8.704-5.86 17.086-12.3 24.761-19.54 7.717-7.19 15.025-14.89 21.483-23.32 0.818-1.04 1.671-2.06 2.461-3.13l2.319-3.26 2.32-3.26 1.159-1.64 1.1-1.72c1.426-2.26 2.8-4.57 4.111-6.91 0.655-1.17 1.295-2.35 1.92-3.54 0.636-1.22 1.206-2.33 1.866-3.69 8.916-19.84 13.291-40.94 15.842-61.93 0.5-4.11-2.43-7.85-6.544-8.35s-7.854 2.42-8.354 6.54c-0.017 0.14-0.03 0.28-0.04 0.43l-1e-3 0.02"/><path d="m537.46 310.89c-22.286 7.41-47.352 8.15-70.939 1.52 22.469 9.77 48.334 12.84 73.413 8.17l0.027-0.01c2.722-0.51 4.517-3.12 4.009-5.84-0.507-2.73-3.125-4.52-5.846-4.01-0.219 0.04-0.458 0.1-0.664 0.17"/></g><path d="m682.15 398.21c-39.143-11.07-31.692-44.9-31.692-44.9 42.996-0.31 31.692 44.9 31.692 44.9" fill="#000061"/><path d="m1440.6 224.45h-161.76v77.06h161.76v-77.06" fill="#000061"/><path d="m1373.3 159.79h-105.29c-26.08 0-47.22 21.14-47.22 47.22s21.14 47.22 47.22 47.22h105.29c26.08 0 47.22-21.14 47.22-47.22s-21.14-47.22-47.22-47.22" fill="#ff5776"/><path d="m1314.9 210.17s12.12-31.7-20.67-50.38l87.51-1.83v52.21h-66.84" fill="#000061"/><path d="m281.12 824.81c11.775-29.161 40.028-46.72 69.136-55.333 26.777-7.924 66.157-11.357 78.736 20.327 6.743 16.984 3.066 35.435 0.428 52.843-2.954 19.491-2.194 38.031 6.685 55.957 16.884 34.085 52.319 53.118 89.338 56.08 45.558 3.644 88.711-14.869 126.78-38.166 1.651-1.011 3.16 1.583 1.514 2.59-32.065 19.623-67.409 35.914-105.39 38.642-34.403 2.47-70.54-6.619-95.628-31.285-11.053-10.866-19.702-24.334-24.386-39.143-5.487-17.35-3.52-34.467-0.771-52.123 2.844-18.258 5.351-40.398-8.105-55.38-11.401-12.694-30.069-14.175-45.988-12.251-35.522 4.293-75.356 23.113-89.459 58.039-0.714 1.768-3.618 0.995-2.893-0.797" fill="#fff"/><path d="m1882 155.98-489.87 1.28 99.35 393.5 489.87-1.28-99.35-393.5" fill="#fff"/><path d="m1394.7 159.25 485.74-1.27 98.35 389.51-485.75 1.26zm487.3-5.27h-0.01l-489.87 1.28c-0.61 0-1.19 0.28-1.57 0.77s-0.51 1.12-0.36 1.72l99.35 393.5c0.23 0.88 1.03 1.51 1.94 1.51h0.01l489.87-1.28c0.61 0 1.2-0.29 1.57-0.77 0.38-0.49 0.51-1.12 0.36-1.72l-99.35-393.5c-0.23-0.89-1.02-1.51-1.94-1.51" fill="#ffb149"/><path d="m1962.7 304.32-4.85 1.24 23.99 94.15 4.84-1.24-23.98-94.15" fill="#ff5776"/><path d="m2001.4 456.2-4.85 1.23 31.12 122.13-444.67 1.15 0.01 5 447.88-1.15c0.77-0.01 1.5-0.36 1.97-0.97s0.63-1.4 0.44-2.15l-31.9-125.24" fill="#ff5776"/><path d="m1965 485.01-489.87 1.26 16.42 64.49 489.87-1.27-16.42-64.48" fill="#ffb149"/><g fill="#ffe9e9"><path d="m1648.9 387.69-153.88 0.39 17.41 68.34 153.88-0.39-17.41-68.34"/><path d="m1883.4 386.07-150.05 0.39 17.92 70.35 150.05-0.38-17.92-70.36"/><path d="m1849.3 252.22-150.05 0.38 17.92 70.35 150.05-0.39-17.92-70.34"/></g><path d="m1766.1 156.28-422.47 1.1 64.43 255.18 422.47-1.1-64.43-255.18" fill="#fff"/><path d="m1346.2 159.38 418.35-1.09 63.41 251.18-418.34 1.09zm419.9-5.1-422.47 1.1c-0.62 0.01-1.2 0.29-1.57 0.78-0.38 0.48-0.52 1.12-0.37 1.71l64.43 255.18c0.23 0.89 1.03 1.51 1.94 1.51h0.01l422.47-1.1c0.61 0 1.19-0.29 1.57-0.77 0.38-0.49 0.51-1.12 0.36-1.72l-64.43-255.18c-0.22-0.89-1.02-1.51-1.94-1.51" fill="#ff5776"/><path d="m1819.9 370.88-422.47 1.09 10.65 41.82 422.47-1.09-10.65-41.82" fill="#ff5776"/><path d="m836.38 835.93s14.03-5.088 24.085 44.444c10.054 49.531-9.494 46.608-9.494 46.608l-30.275-16.611s-6.128-32.462-4.725-33.611c1.403-1.15-1.665-43.74 20.409-40.83" fill="#000061"/><path d="m807.98 773.98s-1.17-5.43-5.08-7.84c-1.21-0.75-2.7-1.21-4.49-1.12-7.57 0.37-7.66 18.11-7.66 18.11s0.26 0.2 0.68 0.54c1.93 1.51 7.34 5.72 7.94 5.72 0.29 0 1.76-2.54 3.4-5.56 2.34-4.25 5.02-9.47 5.2-9.831 0-9e-3 0-9e-3 0.01-0.019" fill="#000061"/><path d="m875.34 1008.2-2.82-12.989c-0.63-2.89-2.67-5.27-5.43-6.35l-10.95-4.25-37.77-54.24-16.86-24.2-1.27-0.95-17.1-12.77-10.19-7.61-5.53-4.13-1.76 6.79-6.08 23.47 0.41 0.44 12.08 12.74 7.15 7.55 59.54 62.82 5.42 36.969 13.14 7.7 18.02-30.99" fill="#ffb2a8"/><path d="m680.98 761.98s-2.851-10.228 2.145-15.29c4.995-5.063 20.345-12.664 38.503-9.289 18.159 3.375-5.226 33.748-5.226 33.748l-35.422-9.169" fill="#000061"/><path d="m1098.9 972.99-248.48 27.058 19.95 183.2 248.48-27.06-19.96-183.2" fill="#ffb149"/><g fill="#ff5776"><path d="m1123.8 1243.7-269.34-104.07-17.14 44.36 269.34 104.07 17.14-44.36"/><path d="m939.76 1236.4-1.081 2.8 179.55 69.38c0.78 0.29 1.65-0.09 1.94-0.86l13.69-35.43-2.79-1.08-13.15 34.02-178.16-68.83"/><path d="m864.77 1207.4-1.081 2.8 57.573 22.24 1.081-2.79-57.573-22.25"/></g><path d="m816.96 696c-1.72 0.771-107.98-12.019-107.98-12.019 1.49 5.29 2.51 10.83 3.14 16.44 1.41 12.369 0.99 25.11-0.17 36.48-0.96 9.46-2.43 17.97-3.77 24.54-0.56 2.76-1.1 5.17-1.57 7.17-0.96 4.04-1.63 6.37-1.63 6.37s106 47 99 17c-0.58-2.481-0.97-5.22-1.21-8.15-0.12-1.5-0.2-3.05-0.24-4.65-0.11-4.11 0.04-8.5 0.37-13.04 1.17-15.84 4.66-33.47 7.88-47.101 3.07-13.029 5.88-22.399 6.18-23.04" fill="#ffb2a8"/><path d="m1903.4 1057.3v-24l-354.27-3.15c-12.41-0.11-22.54 9.89-22.59 22.29-0.05 12.52 2.76 24.89 8.21 36.15l43.4 89.71 8.32 17.17s44 67 101.18 31.35c1.33-0.82 2.58-1.67 3.78-2.53 50.8-36.66-16.77-139.38-16.77-139.38 148 2 228.74-27.61 228.74-27.61" fill="#000061"/><path d="m1953.9 1058.8v-24l-354.26-3.15c-12.41-0.11-22.54 9.89-22.59 22.3-0.05 12.51 2.76 24.88 8.21 36.15l43.4 89.7 8.31 17.17s44 67 101.19 31.35c1.32-0.82 2.57-1.67 3.77-2.53 50.81-36.66-22.4-127.29-22.4-127.29 148 2 234.37-39.7 234.37-39.7" fill="#ff5776"/><path d="m1490 1226-24-46-103-69-21 3h-34.32c-2.3 0-3.92-2.25-3.2-4.44 0.33-0.98 1.1-1.76 2.08-2.11l15.44-5.45-24.76-1.37c-7.37-0.41-14.5-2.71-20.73-6.67l-1.51-0.96c0-4.81 2.98-9.13 7.49-10.83l25.66-9.71c2.55-0.96 5.25-1.43 7.97-1.36l33.53 0.78c3.5 0.08 6.91 1.14 9.84 3.05l21.51 14.07 114.78 52.76c6.05 2.78 11.32 7.03 15.32 12.36 1.93 2.58 3.54 5.38 4.8 8.34l21.1 49.54-47 14" fill="#ffb2a8"/><path d="m767.98 1035c-0.42-12.7-6.58-20.92-15.29-26.86-11.87-8.1-28.48-11.959-41.78-17.169-1.08-0.67-2.1-1.39-3.05-2.19-2.88-2.46-5-5.6-5.69-9.72-0.8-3.93-0.91-8.3-1.63-12.54 0 0 5.74-5.03 11.47-10.05 4.82-4.23 9.64-8.47 11.04-9.7l0.01-0.01c0.21-0.18 0.34-0.3 0.38-0.34 0.01-0.01 0.01-0.01 0.02-0.01 0 0-6.96-19.5-15.68-42.09-10.95-28.43-24.67-61.75-30.8-67.32-1.26-1.15-3.07-2.36-5.34-3.52-17.43-8.91-62.03-14.35-95.66 40.52-15.2 24.8-12.96 45.12-3.71 60.83 4.62 7.86 11 14.56 17.89 20.07 13.82 13.1 35.82 12.1 47.82 26.1 7.02 9.36 10.38 20.399 12.89 31.639 0.96 4.23 1.79 8.49 2.66 12.69 3.74 18.14 8.35 34.32 25.02 44.64 13.73 8.49 32.55 12.1 48.43 10.03 23-3 42-22 41-45" fill="#000061"/><path d="m1743.3 1224.9s-0.43 0.36-1.36 0.87c-2.24 1.23-7.44 3.32-16.87 3.32-3.68 0-8.02-0.32-13.09-1.14-22.32-3.62-55.9-34.96-83.31-48.17-7.06-3.42-13.73-5.62-19.69-5.83-29-1-45 39-45 39l-15-37s-1.93 2.67-5.86 6.76c-0.64 0.68-1.35 1.4-2.12 2.15-5.39 5.32-13.52 12.33-24.47 19-0.84 0.52-1.71 1.03-2.59 1.55-7.66 4.45-16.61 8.68-26.86 12.08v0.01c-3.85 1.28-7.88 2.44-12.1 3.45 0 0 1.84 5.87 4.92 14.9 0.32 0.91 0.63 1.86 0.97 2.84 2.82 8.16 6.46 18.4 10.6 29.06 0.35 0.93 0.72 1.87 1.1 2.81 8.65 22.02 19.16 45.22 28.41 55.39 20 22 26.19 28 26.19 28s5.16 27.53 37.23 27.33c2.49-0.02 5.17-0.23 8.04-0.66 22.72-3.41 48.2-15.74 70-38.41 0.7-0.72 1.38-1.45 2.06-2.19 6.65-7.19 12.94-15.38 18.66-24.59 0.53-0.84 1.06-1.7 1.57-2.56 6.63-11.1 12.47-23.64 17.19-37.69 0.35-1.02 0.69-2.05 1.02-3.08 0.01-0.05 0.03-0.1 0.04-0.15l38.25-38.24c2.3-2.3 3.1-5.72 2.07-8.81" fill="#00ccbe"/><path d="m1527.5 1312.2s-9.27-84.44 30.5-114.07l6 14.8s-24.52 30.8-36.5 99.27" fill="#000061"/><path d="m1542 1307c1-15-10-16-10-16l-12 25c-5.88 2.52-11.73 4.21-17.29 5.29-20.87 4.08-37.71-0.29-37.71-0.29l8.41 24.68 7.59 22.32 20 13 57-11c-9-8-17-48-16-63" fill="#ffb2a8"/><path d="m822.12 835.95v-0.07c0.04-2.38-0.04-4.85-0.24-7.37-0.03-0.42-0.06-0.85-0.1-1.27-0.19-2.18-0.46-4.4-0.79-6.62-0.18-1.22-0.38-2.44-0.6-3.67-0.29-1.68-0.61-3.36-0.96-5.02l-0.03-0.15c-0.36-1.71-0.74-3.42-1.14-5.09-0.2-0.84-0.4-1.67-0.61-2.5-0.4-1.59-0.81-3.151-1.23-4.68-1.11-4.05-2.27-7.85-3.36-11.23-0.21-0.64-0.41-1.26-0.61-1.86-0.21-0.631-0.41-1.24-0.61-1.83-0.1-0.29-0.2-0.58-0.3-0.86l-0.03-0.09c-0.14-0.41-0.27-0.81-0.41-1.2-0.79-2.27-1.49-4.16-2.02-5.58-0.06-0.15-0.11-0.3-0.16-0.44-0.6-1.57-0.95-2.44-0.95-2.44-0.01 0.01-0.01 0.01-0.01 0.019-1.53 2.031-3.35 3.75-5.44 5.181-3.15 2.15-6.9 3.63-11.1 4.49-14.98 3.079-35.68-1.78-55.45-12.69-5.14-2.83-10.19-4.95-15.01-6.5-4.49-1.45-8.79-2.42-12.79-3.04-15.95-2.49-27.2 0.54-27.2 0.54 12 33 4 57 4 57-5.48 3.42-9.9 8.84-13.34 14.48-6.63 10.84-9.66 22.52-9.66 22.52-9 40 42.58 56.85 42.58 56.85-0.23-4.05 1-6.79 3.22-8.53 8.29-6.53 30.4 0.72 42.32 5.38 4.75 1.86 7.88 3.3 7.88 3.3s0.73-0.53 2.02-1.52c3.92-2.98 13.07-10.08 23.15-18.96 6.36-5.6 13.1-11.91 19.11-18.34 7.79-8.32 14.39-16.84 17.43-24.26 0.01-0.02 0.01-0.03 0.02-0.05 0.38-0.93 0.71-1.85 0.96-2.75 0.01-0.01 0.01-0.01 0.01-0.02 0.11-0.37 0.21-0.74 0.3-1.1 0.74-3.06 1.09-6.44 1.15-10.03" fill="#ff5776"/><path d="m1502.7 1321.3c-20.87 4.08-37.71-0.29-37.71-0.29l8.41 24.68 10.59 12.28s21.07-14.21 18.71-36.67" fill="#000061"/><path d="m1637 1291s2.21-7.08-10.67-22.16c-12.89-15.08-43.32-25.22-54.33-11.84l4.11 20.76 40.35 22.24 20.54-9" fill="#000061"/><path d="m1645.1 1263.8c-8.55 0-15.5-6.95-15.5-15.5 0-8.54 6.95-15.5 15.5-15.5 8.54 0 15.5 6.96 15.5 15.5 0 8.55-6.96 15.5-15.5 15.5zm0-34c-10.21 0-18.5 8.3-18.5 18.5 0 10.21 8.29 18.5 18.5 18.5 10.2 0 18.5-8.29 18.5-18.5 0-10.2-8.3-18.5-18.5-18.5" fill="#fff"/><path d="m1393 1382s8-81 50-80 51 69 51 69l-31 35-70-24" fill="#ffb2a8"/><path d="m1600.8 1362.1s88.54-46.08 32.22-129.38-15.62 14.67-15.62 14.67l-16.6 114.71" fill="#000061"/><path d="m1581 1274 15-41-46-107h-13.26c-3.12 0-6.2-0.67-9.04-1.97l-17.67-8.1c-1.23-0.57-2.03-1.8-2.03-3.16 0-1.62 1.12-3.03 2.7-3.39l15.86 0.96-19.45-16.74-6.58 0.2c-3.57 0.11-6.53-2.76-6.53-6.33 0-2.68 1.69-5.07 4.22-5.96l20.68-7.34c3.91-1.39 8.2-1.15 11.93 0.67l28.17 13.72c3.19 1.56 5.59 4.37 6.6 7.77l7.4 24.67 69.84 94.71c2.01 2.72 2.73 6.19 1.97 9.49l-18.81 81.8-45-33" fill="#ffb2a8"/><path d="m1708 1224c-1.72-34.7-23.35-65.29-44.77-91.15-9.63-11.62-22.08-21.11-30.61-33.58-5.46-7.98-9.24-19.95-4.76-29.19 2.45-5.07 7.07-8.01 12.52-9.02 8.02-1.47 16.57-1.33 24.7-1.47 18.3-0.3 36.6-0.05 54.91-0.47 36.75-0.84 73.49-2.08 110.21-3.71 41.29-1.85 82.57-4.35 123.67-8.79 1.92-0.21 1.91 2.79 0 3-70.01 7.57-140.59 10.01-210.96 11.93-17.48 0.48-34.97 1.03-52.45 1-8.78-0.01-17.57-0.1-26.35 0.06-8.3 0.15-18.7-0.73-26.53 2.34-13.87 5.44-8.37 24.4-1.9 33.48 4.62 6.5 10.52 11.97 16.17 17.54 5.44 5.36 10.46 11.01 15.28 16.93 21.25 26.08 42.15 56.4 43.87 91.1 0.1 1.93-2.9 1.93-3 0" fill="#000061"/><path d="m1479.3 1386.2s-15.27 8.89-43.34 4.37c-2.56-0.41-5.22-0.94-7.99-1.59-20.99-2.97-37.99-22.97-58.99-15.97-20 7-28 33-20 53 10 28 43 9 65.09 13.36 3.51 0.72 6.94 1.8 10.26 3.16 3.31 1.37 6.5 3.02 9.49 4.89 12.53 7.82 23.6 14.71 39.02 9.89 13.33-4.17 21.45-15.72 25.34-28.62 5.78-19.14 11.41-38.36 21.8-55.68 9-15-17-31-30-13s-10.68 26.19-10.68 26.19" fill="#000061"/><g fill="#ffb2a8"><path d="m815.98 857.98c1.727 1.726 100.36 34.016 127.28 42.807 4.222 1.378 7.518 4.707 8.858 8.942l28.865 91.25s6.674 14.38 10.458 22.89c1.679 3.78 1.794 8.07 0.317 11.93l-9.636 25.2c-0.721 1.89-2.249 3.35-4.165 3.99l-4.317 1.44c-2.963 0.99-6.207 0.66-8.919-0.89-1.736-0.99-2.941-2.7-3.292-4.66l-4.446-24.9-8.332 5c-1.091 0.66-2.34 1-3.613 1h-2.895c-1.246 0-2.31-0.9-2.515-2.13-0.412-2.47 0.206-5 1.709-7.01l12.646-16.86v-11l-37-73.999-87-11-14-62"/><path d="m720.98 480.98s-4-129 25-255l34.402-22s-5.402 188 10.598 278l-70-1"/><path d="m910.98 702.98 97.855 16.616c5.16 0.877 10.44-0.588 14.42-3.996l7.57-6.491c4.47-3.83 6.74-9.637 6.04-15.481l-24.83-207.47-31.055 7.82s-21 101-10 146l-38-24-22 87.001"/><path d="m753.98 906.98s-31-21-51 0l5 59 15.7-5.98 26.3-10.02s-2.16-11.65-1.09-24.18c0.56-6.54 2-13.33 5.09-18.82"/></g><path d="m748.88 925.8c-29.24 6.93-25.21 34.2-25.21 34.2l26.3-10.02s-2.16-11.65-1.09-24.18" fill="#000061"/><path d="m771.98 960.98c-1.72-5.37-5.1-9.36-9.49-12.15-9.94-6.3-25.07-6.5-37.96-2.76-0.36 0.1-0.71 0.21-1.07 0.32-0.01 0-0.01 0-0.02 0.01-7.51 2.33-14.17 6-18.46 10.58-7.44 7.94-13.17 24.01-10.56 38.8 2.65 14.999 13.87 28.689 40.56 31.199 0 0 8.66-7.89 17.71-18.86 11.57-14.029 23.78-33.109 19.29-47.139" fill="#ffb2a8"/><path d="m822.12 835.95c0.14-7.5-1-15.89-2.69-24.02-53.81 11.19-60.56 78.11-60.56 78.11l43.38-15.88c7.81-8.34 14.42-16.88 17.45-24.31 0.38-0.94 0.71-1.86 0.97-2.77 0.11-0.37 0.21-0.74 0.3-1.1 0.74-3.06 1.09-6.44 1.15-10.03" fill="#000061"/><path d="m979.45 496.86-10.09 53.13 52.524 1.08-9.85-64.91-32.584 10.7" fill="#000061"/><path d="m1452.7 750.54c2.01 0.07 4.13-0.326 5.97-1.348 1.84-1.003 3.34-2.469 4.67-3.92 1.33-1.461 2.54-2.936 3.86-4.132 1.32-1.205 2.73-2.077 4.26-2.458l1.15-0.219 1.21-0.019c0.4-0.047 0.8 0.077 1.19 0.111 0.39 0.047 0.79 0.086 1.14 0.236 1.48 0.408 2.73 1.22 3.86 2.431 1.15 1.193 2.18 2.689 3.35 4.282 1.18 1.584 2.5 3.322 4.38 4.816 0.5 0.347 0.99 0.712 1.51 1.032 0.56 0.283 1.13 0.559 1.7 0.826 1.18 0.405 2.41 0.773 3.63 0.844l0.92 0.096c0.3 0.022 0.61-0.011 0.92-0.017 0.61-0.04 1.23-0.031 1.85-0.135 0.63-0.128 1.25-0.269 1.88-0.422 0.61-0.195 1.2-0.464 1.8-0.712 2.34-1.119 4.13-2.803 5.57-4.354 1.45-1.567 2.64-3.064 3.8-4.226 1.15-1.186 2.22-1.922 3.28-2.271 0.25-0.141 0.55-0.149 0.83-0.21l0.41-0.094c0.15-0.016 0.31-1e-3 0.46-7e-3 0.31 0.011 0.61-0.051 0.92-0.01 0.3 0.051 0.6 0.092 0.91 0.121 1.13 0.261 2 0.722 2.97 1.597 0.96 0.869 1.96 2.169 3.09 3.713 1.16 1.554 2.47 3.382 4.45 5.115 0.45 0.441 1.01 0.846 1.59 1.245l0.87 0.589 0.96 0.495c0.66 0.32 1.31 0.652 2.01 0.831 0.7 0.191 1.41 0.451 2.1 0.54 0.69 0.092 1.39 0.172 2.09 0.24 0.7 0.056 1.4-0.015 2.1-0.037 0.36-0.025 0.7-0.03 1.06-0.08l1.09-0.223c0.72-0.163 1.45-0.306 2.14-0.615 2.85-1.035 5.14-2.925 6.77-4.596 1.62-1.709 2.85-3.263 3.94-4.427 1.06-1.2 1.95-1.883 2.63-2.223 0.18-0.055 0.34-0.162 0.51-0.229 0.19-0.023 0.37-0.075 0.55-0.148 0.2-0.05 0.45-0.029 0.67-0.071 0.23-0.058 0.46-0.034 0.69-0.017 0.97 0.026 1.54 0.115 2.4 0.651 0.86 0.501 1.93 1.526 3.15 2.886 1.25 1.333 2.63 3.024 4.58 4.658 0.52 0.404 1.04 0.802 1.57 1.186 0.6 0.364 1.21 0.716 1.82 1.05 0.63 0.308 1.32 0.56 1.99 0.805 0.67 0.26 1.39 0.334 2.08 0.484 0.7 0.163 1.38 0.173 2.05 0.181 0.67-7e-3 1.34 0.065 2-0.068 0.67-0.095 1.32-0.2 1.97-0.317 0.66-0.187 1.32-0.412 1.95-0.635 2.58-1.025 4.61-2.842 6-4.616 1.42-1.787 2.38-3.552 3.32-5.148 0.92-1.611 1.87-3.009 3.06-4.149 1.19-1.144 2.75-1.932 4.6-2.417v-1.159c-1.01-0.134-2.08-0.311-3.17-0.166l-0.82 0.079-0.81 0.209c-0.54 0.148-1.1 0.284-1.59 0.538-2.1 0.876-3.84 2.347-5.35 3.707-1.49 1.386-2.83 2.732-4.12 3.695-1.3 0.976-2.47 1.48-3.59 1.626-0.29 0.01-0.57 0.043-0.85 0.069-0.31-0.039-0.62-0.067-0.91-0.085-0.3 0.018-0.59-0.119-0.88-0.167-0.29-0.058-0.58-0.102-0.8-0.244-0.98-0.404-1.68-0.923-2.56-1.957-0.87-1.008-1.82-2.401-2.99-4.062-1.2-1.63-2.65-3.577-4.91-5.359-0.6-0.422-1.19-0.848-1.83-1.231-0.68-0.349-1.38-0.683-2.09-0.995-1.44-0.501-2.97-0.9-4.4-0.973l-1.1-0.091c-0.37-0.02-0.73 0.025-1.1 0.039-0.74 0.06-1.46 0.079-2.2 0.216-0.76 0.166-1.51 0.354-2.25 0.569-0.73 0.254-1.44 0.596-2.14 0.919-2.77 1.434-4.69 3.486-6.13 5.198-1.44 1.754-2.47 3.328-3.43 4.486-0.94 1.191-1.68 1.855-2.42 2.26-0.17 0.152-0.39 0.183-0.6 0.268-0.1 0.04-0.21 0.086-0.31 0.136-0.12 0.035-0.26 0.035-0.38 0.06-0.26 0.025-0.52 0.126-0.78 0.128-0.26-8e-3 -0.53-5e-3 -0.8 0.01-0.99-0.083-1.81-0.307-2.83-1.036-1.01-0.722-2.12-1.93-3.36-3.389-1.26-1.467-2.69-3.205-4.7-4.794-1.99-1.602-4.71-2.837-7.4-3.148-0.66-0.048-1.32-0.085-1.98-0.11-0.65-0.016-1.31 0.095-1.96 0.154-0.33 0.041-0.65 0.065-0.98 0.129l-0.98 0.265c-0.66 0.189-1.32 0.349-1.92 0.671-2.53 1.086-4.5 2.901-5.91 4.579-1.42 1.703-2.5 3.333-3.57 4.686-1.06 1.361-2.09 2.415-3.19 3.072-0.28 0.132-0.55 0.309-0.85 0.439-0.31 0.087-0.61 0.185-0.92 0.297-0.32 0.088-0.68 0.091-1.02 0.154-0.17 0.019-0.35 0.069-0.52 0.067l-0.52-0.02c-1.43 4e-3 -2.67-0.322-3.89-1.141-1.24-0.788-2.44-2.02-3.68-3.427-1.26-1.401-2.56-2.991-4.23-4.441-1.63-1.463-3.85-2.672-6.15-3.056-0.57-0.154-1.14-0.173-1.71-0.191-0.56-5e-3 -1.13-0.093-1.69 0.011l-1.67 0.212c-0.56 0.144-1.11 0.319-1.65 0.486-2.17 0.785-3.96 2.235-5.33 3.78-1.38 1.553-2.47 3.191-3.58 4.712-1.11 1.52-2.28 2.925-3.73 3.94-1.44 1.027-3.18 1.575-5.02 1.727v1.158" fill="#00ccbe"/><path d="m1600.7 693.42c-2.02-0.068-4.13 0.327-5.97 1.349-1.84 1.004-3.35 2.469-4.68 3.92-1.32 1.461-2.53 2.936-3.85 4.133-1.32 1.205-2.74 2.076-4.26 2.457l-1.16 0.22-1.2 0.018c-0.4 0.047-0.8-0.076-1.19-0.111-0.4-0.046-0.79-0.086-1.14-0.237-1.48-0.407-2.73-1.219-3.87-2.43-1.14-1.194-2.18-2.69-3.35-4.282-1.17-1.584-2.49-3.322-4.38-4.815-0.49-0.349-0.98-0.713-1.51-1.032-0.55-0.284-1.12-0.561-1.69-0.826-1.19-0.407-2.42-0.774-3.63-0.844l-0.92-0.096c-0.31-0.023-0.61 0.011-0.92 0.017-0.62 0.039-1.23 0.03-1.85 0.134-0.63 0.129-1.26 0.269-1.88 0.422-0.61 0.195-1.2 0.464-1.8 0.711-2.34 1.12-4.13 2.805-5.57 4.356-1.45 1.565-2.64 3.062-3.8 4.226-1.15 1.185-2.22 1.92-3.29 2.271-0.25 0.141-0.54 0.147-0.82 0.209l-0.41 0.095c-0.15 0.015-0.31 1e-3 -0.46 7e-3 -0.31-0.012-0.62 0.051-0.92 9e-3 -0.31-0.051-0.61-0.091-0.91-0.121-1.13-0.262-2-0.721-2.97-1.597-0.96-0.87-1.96-2.168-3.1-3.713-1.15-1.553-2.47-3.381-4.44-5.116-0.45-0.439-1.02-0.845-1.6-1.243l-0.86-0.591-0.97-0.493c-0.65-0.32-1.3-0.653-2.01-0.831-0.69-0.192-1.41-0.452-2.1-0.541-0.69-0.093-1.38-0.172-2.08-0.24-0.7-0.055-1.4 0.015-2.11 0.038-0.35 0.024-0.7 0.028-1.05 0.079l-1.09 0.223c-0.73 0.163-1.46 0.306-2.14 0.615-2.85 1.036-5.15 2.926-6.77 4.596-1.62 1.709-2.86 3.263-3.94 4.427-1.06 1.2-1.96 1.884-2.64 2.224-0.18 0.054-0.33 0.162-0.51 0.228-0.19 0.023-0.37 0.076-0.55 0.149-0.19 0.049-0.45 0.027-0.67 0.069-0.22 0.059-0.45 0.036-0.68 0.018-0.97-0.026-1.54-0.115-2.4-0.651-0.86-0.501-1.93-1.526-3.15-2.886-1.25-1.333-2.64-3.025-4.59-4.658-0.52-0.405-1.04-0.801-1.57-1.186-0.6-0.364-1.2-0.715-1.81-1.051-0.64-0.307-1.33-0.559-2-0.803-0.66-0.26-1.38-0.335-2.07-0.485-0.71-0.162-1.38-0.174-2.05-0.181-0.68 7e-3 -1.34-0.064-2.01 0.069-0.66 0.094-1.32 0.2-1.97 0.315-0.65 0.189-1.31 0.413-1.95 0.637-2.57 1.024-4.61 2.841-5.99 4.615-1.42 1.786-2.38 3.553-3.33 5.148-0.92 1.612-1.86 3.009-3.06 4.149-1.19 1.145-2.75 1.933-4.59 2.417v1.158c1.01 0.136 2.07 0.312 3.16 0.167l0.83-0.079 0.8-0.21c0.54-0.146 1.11-0.283 1.6-0.536 2.1-0.877 3.83-2.348 5.35-3.708 1.49-1.386 2.83-2.732 4.12-3.694 1.3-0.977 2.47-1.482 3.59-1.626 0.29-0.011 0.57-0.043 0.84-0.07 0.32 0.039 0.62 0.068 0.92 0.085 0.3-0.017 0.59 0.119 0.88 0.167 0.29 0.058 0.58 0.102 0.8 0.245 0.98 0.404 1.68 0.923 2.55 1.956 0.87 1.008 1.83 2.402 3 4.062 1.2 1.63 2.65 3.576 4.9 5.36 0.61 0.42 1.2 0.847 1.84 1.23 0.68 0.35 1.38 0.683 2.08 0.995 1.45 0.501 2.97 0.9 4.41 0.973l1.1 0.092c0.36 0.02 0.73-0.025 1.1-0.04 0.73-0.059 1.46-0.079 2.2-0.216 0.76-0.166 1.51-0.354 2.25-0.569 0.73-0.254 1.44-0.595 2.14-0.92 2.76-1.433 4.69-3.485 6.13-5.197 1.43-1.755 2.47-3.327 3.43-4.485 0.93-1.193 1.67-1.857 2.41-2.261 0.18-0.152 0.4-0.182 0.61-0.267 0.1-0.041 0.21-0.086 0.31-0.137 0.12-0.034 0.25-0.035 0.38-0.06 0.26-0.025 0.51-0.126 0.78-0.129 0.26 9e-3 0.52 6e-3 0.79-9e-3 0.99 0.083 1.82 0.307 2.84 1.036 1.01 0.721 2.12 1.93 3.36 3.389 1.26 1.467 2.69 3.205 4.7 4.793 1.99 1.604 4.71 2.839 7.4 3.149 0.66 0.049 1.32 0.085 1.97 0.11 0.66 0.016 1.31-0.096 1.97-0.153 0.32-0.042 0.65-0.067 0.97-0.129l0.99-0.266c0.66-0.189 1.31-0.349 1.92-0.671 2.53-1.086 4.5-2.901 5.91-4.579 1.42-1.703 2.5-3.333 3.57-4.686 1.06-1.362 2.08-2.414 3.18-3.073 0.29-0.131 0.56-0.308 0.85-0.438 0.31-0.087 0.62-0.186 0.93-0.296 0.32-0.089 0.68-0.092 1.02-0.155 0.17-0.018 0.34-0.069 0.52-0.067l0.52 0.02c1.43-4e-3 2.67 0.322 3.89 1.141 1.23 0.788 2.44 2.02 3.68 3.426 1.25 1.402 2.56 2.992 4.23 4.442 1.63 1.463 3.85 2.673 6.14 3.056 0.58 0.154 1.14 0.173 1.71 0.192 0.57 4e-3 1.13 0.092 1.7-0.012l1.67-0.212c0.55-0.144 1.1-0.319 1.65-0.485 2.16-0.786 3.95-2.236 5.32-3.781 1.39-1.552 2.47-3.191 3.59-4.711 1.11-1.52 2.28-2.925 3.73-3.94 1.44-1.027 3.18-1.575 5.02-1.728v-1.159" fill="#ff5776"/><path d="m418.24 1200c2.014 0.07 4.129-0.33 5.966-1.35 1.846-1 3.348-2.47 4.678-3.92 1.322-1.46 2.537-2.93 3.858-4.13 1.314-1.21 2.732-2.08 4.254-2.46l1.159-0.22 1.207-0.02c0.399-0.04 0.795 0.08 1.188 0.11 0.395 0.05 0.789 0.09 1.142 0.24 1.478 0.41 2.727 1.22 3.863 2.43 1.144 1.2 2.181 2.69 3.351 4.28 1.174 1.59 2.493 3.33 4.378 4.82 0.498 0.35 0.986 0.71 1.511 1.03 0.557 0.28 1.123 0.56 1.695 0.83 1.184 0.4 2.416 0.77 3.63 0.84l0.917 0.1c0.306 0.02 0.614-0.01 0.921-0.02 0.618-0.04 1.232-0.03 1.854-0.13 0.625-0.13 1.252-0.27 1.877-0.43 0.61-0.19 1.202-0.46 1.8-0.71 2.338-1.12 4.132-2.8 5.573-4.35 1.448-1.57 2.639-3.07 3.799-4.23 1.148-1.18 2.218-1.92 3.282-2.27 0.249-0.14 0.549-0.15 0.824-0.21l0.414-0.09c0.147-0.02 0.309 0 0.461-0.01 0.309 0.01 0.614-0.05 0.919-0.01 0.304 0.05 0.605 0.09 0.906 0.12 1.132 0.26 2.004 0.72 2.971 1.6 0.964 0.87 1.962 2.17 3.097 3.71 1.152 1.55 2.469 3.38 4.441 5.12 0.457 0.44 1.02 0.84 1.598 1.24l0.864 0.59 0.967 0.49c0.653 0.32 1.306 0.66 2.011 0.84 0.692 0.19 1.409 0.45 2.098 0.54 0.69 0.09 1.386 0.17 2.085 0.24 0.697 0.05 1.4-0.02 2.104-0.04 0.353-0.03 0.701-0.03 1.059-0.08l1.087-0.22c0.724-0.17 1.456-0.31 2.14-0.62 2.848-1.04 5.145-2.92 6.77-4.59 1.622-1.71 2.854-3.27 3.939-4.43 1.063-1.2 1.958-1.89 2.635-2.23 0.18-0.05 0.335-0.16 0.511-0.22 0.192-0.03 0.371-0.08 0.551-0.15 0.197-0.05 0.449-0.03 0.669-0.07 0.227-0.06 0.457-0.04 0.687-0.02 0.97 0.03 1.541 0.12 2.396 0.65 0.866 0.5 1.93 1.53 3.151 2.89 1.253 1.33 2.637 3.02 4.585 4.66 0.522 0.4 1.041 0.8 1.573 1.18 0.599 0.37 1.205 0.72 1.812 1.05 0.636 0.31 1.327 0.56 1.995 0.81 0.667 0.26 1.387 0.33 2.077 0.48 0.702 0.16 1.376 0.17 2.05 0.18 0.674-0.01 1.342 0.07 2.005-0.07 0.663-0.09 1.32-0.2 1.968-0.31 0.658-0.19 1.313-0.42 1.953-0.64 2.574-1.02 4.609-2.84 5.994-4.61 1.418-1.79 2.378-3.56 3.326-5.15 0.918-1.62 1.861-3.01 3.058-4.15 1.19-1.15 2.75-1.93 4.596-2.42v-1.16c-1.011-0.13-2.076-0.31-3.165-0.16l-0.828 0.07-0.802 0.22c-0.539 0.14-1.102 0.28-1.597 0.53-2.102 0.88-3.832 2.35-5.35 3.71-1.492 1.39-2.829 2.73-4.12 3.69-1.297 0.98-2.471 1.48-3.586 1.63-0.294 0.01-0.57 0.04-0.85 0.07-0.313-0.04-0.616-0.07-0.914-0.09-0.298 0.02-0.591-0.11-0.877-0.16-0.289-0.06-0.579-0.1-0.8-0.25-0.98-0.4-1.679-0.92-2.557-1.95-0.868-1.01-1.826-2.41-2.995-4.07-1.197-1.63-2.652-3.57-4.906-5.36-0.602-0.42-1.196-0.84-1.835-1.23-0.682-0.34-1.379-0.68-2.083-0.99-1.447-0.5-2.972-0.9-4.409-0.97l-1.096-0.09c-0.366-0.03-0.732 0.02-1.099 0.03-0.737 0.06-1.459 0.08-2.205 0.22-0.753 0.17-1.507 0.35-2.249 0.57-0.73 0.25-1.436 0.59-2.141 0.92-2.762 1.43-4.686 3.48-6.128 5.2-1.435 1.75-2.471 3.32-3.429 4.48-0.936 1.19-1.673 1.86-2.416 2.26-0.171 0.15-0.396 0.18-0.602 0.27-0.105 0.04-0.209 0.09-0.314 0.14-0.115 0.03-0.253 0.03-0.378 0.06-0.257 0.02-0.514 0.12-0.778 0.13-0.263-0.01-0.527-0.01-0.797 0-0.988-0.08-1.815-0.3-2.834-1.03-1.009-0.72-2.119-1.93-3.361-3.39-1.259-1.47-2.688-3.21-4.702-4.79-1.985-1.61-4.709-2.84-7.397-3.15-0.659-0.05-1.319-0.09-1.976-0.11-0.656-0.02-1.311 0.09-1.963 0.15-0.327 0.04-0.65 0.07-0.976 0.13l-0.988 0.27c-0.654 0.18-1.314 0.34-1.92 0.67-2.527 1.08-4.495 2.9-5.907 4.58-1.421 1.7-2.5 3.33-3.569 4.68-1.064 1.36-2.087 2.42-3.186 3.07-0.287 0.14-0.557 0.31-0.85 0.44-0.309 0.09-0.616 0.19-0.925 0.3-0.319 0.09-0.679 0.09-1.018 0.15-0.173 0.02-0.346 0.07-0.52 0.07l-0.523-0.02c-1.427 0-2.668-0.32-3.89-1.14-1.236-0.79-2.438-2.02-3.683-3.43-1.252-1.4-2.555-2.99-4.225-4.44-1.633-1.46-3.85-2.67-6.148-3.06-0.57-0.15-1.139-0.17-1.707-0.19-0.568 0-1.132-0.09-1.694 0.02l-1.676 0.21c-0.553 0.14-1.102 0.32-1.645 0.48-2.166 0.79-3.958 2.24-5.326 3.78-1.388 1.56-2.471 3.19-3.587 4.72-1.107 1.51-2.277 2.92-3.729 3.93-1.442 1.03-3.178 1.58-5.019 1.73v1.16" fill="#ffb149"/><path d="m566.27 1142.9c-2.014-0.07-4.128 0.33-5.967 1.35-1.846 1.01-3.348 2.47-4.677 3.92-1.323 1.46-2.537 2.94-3.858 4.13-1.314 1.21-2.732 2.08-4.255 2.46l-1.158 0.22-1.207 0.02c-0.399 0.05-0.795-0.08-1.188-0.11-0.395-0.05-0.79-0.09-1.142-0.24-1.479-0.41-2.727-1.22-3.863-2.43-1.145-1.19-2.182-2.69-3.351-4.28-1.174-1.58-2.493-3.32-4.378-4.82-0.498-0.34-0.986-0.71-1.512-1.03-0.557-0.28-1.123-0.56-1.694-0.82-1.184-0.41-2.416-0.78-3.629-0.85l-0.918-0.09c-0.307-0.03-0.614 0.01-0.922 0.01-0.617 0.04-1.231 0.03-1.854 0.14-0.625 0.13-1.252 0.27-1.876 0.42-0.611 0.19-1.202 0.46-1.8 0.71-2.338 1.12-4.132 2.81-5.573 4.36-1.449 1.56-2.638 3.06-3.799 4.22-1.148 1.19-2.218 1.92-3.282 2.27-0.25 0.14-0.549 0.15-0.825 0.21l-0.413 0.1c-0.147 0.01-0.309 0-0.462 0-0.308-0.01-0.613 0.05-0.918 0.01-0.304-0.05-0.605-0.09-0.907-0.12-1.131-0.26-2.003-0.72-2.97-1.59-0.964-0.88-1.962-2.17-3.097-3.72-1.152-1.55-2.469-3.38-4.442-5.11-0.456-0.44-1.019-0.85-1.597-1.25l-0.864-0.59-0.967-0.49c-0.654-0.32-1.306-0.65-2.011-0.83-0.691-0.19-1.409-0.45-2.098-0.54-0.69-0.1-1.387-0.17-2.085-0.24-0.697-0.06-1.4 0.01-2.104 0.04-0.354 0.02-0.702 0.02-1.059 0.07l-1.087 0.23c-0.724 0.16-1.456 0.3-2.141 0.61-2.847 1.04-5.144 2.93-6.769 4.6-1.622 1.71-2.854 3.26-3.939 4.42-1.063 1.2-1.959 1.89-2.636 2.23-0.18 0.05-0.334 0.16-0.51 0.23-0.192 0.02-0.371 0.07-0.551 0.15-0.197 0.04-0.449 0.02-0.669 0.06-0.228 0.06-0.457 0.04-0.687 0.02-0.97-0.02-1.541-0.11-2.396-0.65-0.866-0.5-1.93-1.52-3.151-2.88-1.254-1.34-2.637-3.03-4.585-4.66-0.522-0.41-1.042-0.8-1.574-1.19-0.599-0.36-1.204-0.71-1.811-1.05-0.636-0.31-1.328-0.56-1.996-0.8-0.666-0.26-1.386-0.34-2.076-0.49-0.702-0.16-1.377-0.17-2.05-0.18-0.674 0.01-1.343-0.06-2.006 0.07-0.663 0.09-1.32 0.2-1.967 0.32-0.658 0.19-1.313 0.41-1.953 0.63-2.574 1.03-4.609 2.84-5.995 4.62-1.417 1.79-2.377 3.55-3.325 5.15-0.918 1.61-1.861 3.01-3.058 4.14-1.191 1.15-2.75 1.94-4.596 2.42v1.16c1.01 0.14 2.076 0.31 3.165 0.17l0.827-0.08 0.802-0.21c0.54-0.15 1.103-0.28 1.598-0.54 2.102-0.87 3.832-2.35 5.35-3.71 1.492-1.38 2.829-2.73 4.12-3.69 1.297-0.98 2.471-1.48 3.586-1.63 0.294-0.01 0.57-0.04 0.849-0.07 0.313 0.04 0.617 0.07 0.915 0.09 0.298-0.02 0.59 0.12 0.877 0.17 0.289 0.05 0.579 0.1 0.8 0.24 0.98 0.41 1.678 0.92 2.557 1.96 0.868 1 1.825 2.4 2.994 4.06 1.198 1.63 2.653 3.58 4.907 5.36 0.602 0.42 1.195 0.85 1.835 1.23 0.682 0.35 1.378 0.68 2.083 0.99 1.447 0.51 2.971 0.9 4.408 0.98l1.097 0.09c0.366 0.02 0.732-0.03 1.099-0.04 0.737-0.06 1.459-0.08 2.204-0.22 0.754-0.16 1.508-0.35 2.25-0.57 0.729-0.25 1.435-0.59 2.14-0.91 2.763-1.44 4.687-3.49 6.129-5.2 1.434-1.76 2.47-3.33 3.429-4.49 0.936-1.19 1.673-1.86 2.416-2.26 0.171-0.15 0.395-0.18 0.602-0.27 0.105-0.04 0.209-0.08 0.313-0.13 0.116-0.04 0.253-0.04 0.379-0.06 0.256-0.03 0.515-0.13 0.778-0.13 0.262 0.01 0.527 0 0.797-0.01 0.988 0.08 1.815 0.31 2.834 1.03 1.008 0.73 2.119 1.94 3.361 3.39 1.259 1.47 2.688 3.21 4.702 4.8 1.984 1.6 4.709 2.84 7.397 3.15 0.659 0.04 1.319 0.08 1.976 0.11 0.655 0.01 1.311-0.1 1.963-0.16 0.327-0.04 0.65-0.06 0.977-0.13l0.986-0.26c0.655-0.19 1.314-0.35 1.92-0.67 2.528-1.09 4.496-2.9 5.907-4.58 1.421-1.7 2.501-3.33 3.57-4.69 1.063-1.36 2.086-2.41 3.186-3.07 0.287-0.13 0.557-0.31 0.85-0.44 0.31-0.09 0.616-0.18 0.924-0.3 0.32-0.08 0.679-0.09 1.019-0.15 0.173-0.02 0.346-0.07 0.52-0.07l0.523 0.02c1.426 0 2.667 0.32 3.89 1.14 1.236 0.79 2.438 2.02 3.682 3.43 1.253 1.4 2.555 2.99 4.226 4.44 1.633 1.46 3.849 2.67 6.148 3.06 0.57 0.15 1.139 0.17 1.707 0.19 0.568 0 1.132 0.09 1.694-0.01l1.676-0.21c0.553-0.15 1.101-0.32 1.645-0.49 2.165-0.78 3.958-2.23 5.326-3.78 1.388-1.55 2.471-3.19 3.587-4.71 1.106-1.52 2.276-2.93 3.728-3.94 1.443-1.03 3.179-1.58 5.02-1.73v-1.16" fill="#ff5776"/><g fill="#ffb149"><path d="m2135 614.78-21.24 21.23 21.24 21.23 21.23-21.23-21.23-21.23"/><path d="m863.45 1333.6-21.23 21.23 21.23 21.23 21.23-21.23-21.23-21.23"/><path d="m421.6 327.77-21.23 21.23 21.23 21.23 21.23-21.23-21.23-21.23"/></g><path d="m700.79 968.51s0.939 34.528 32.562 45.498 17.623 33.97 17.623 33.97l-62-19-13-34.999s3-19 5-20 19.815-5.469 19.815-5.469" fill="#000061"/><path d="m709.98 973.98s-12 4-18 0-2-23 18-17 0 17 0 17" fill="#ffb2a8"/><path d="m1473 1385s5 15 17 12 9-21 0-26-17 14-17 14" fill="#ffb2a8"/><path d="m1456 1397s12-11 9-27c0 0 12 13 11 31s-20-4-20-4" fill="#000061"/><path d="m834.48 835.61c0.4 0.05 0.74 0.1 1.01 0.14 0.59 0.1 0.9 0.18 0.9 0.18s-0.31-0.26-0.83-0.36c-0.3-0.07-0.67-0.08-1.08 0.04" fill="#ff5776"/><path d="m850.98 926.98s-0.01 0-0.02-0.01c-0.02-0.01-0.07-0.03-0.13-0.07-0.1-0.05-0.25-0.13-0.44-0.24-0.07-0.04-0.14-0.07-0.21-0.12-0.07-0.04-0.13-0.08-0.21-0.12-1.21-0.73-3.41-2.21-5.99-4.67-7.31-6.96-17.65-21.81-17-49.77 0.08-3.57 0.22-6.79 0.39-9.7 0.15-2.46 0.33-4.7 0.54-6.73 1.44-14.52 4.13-18.73 6.1-19.75 0.16-0.08 0.32-0.14 0.47-0.19-2.27-0.29-6.52-0.53-12.35 0.34-11.57 1.74-29.34 7.91-50.15 27.03-3.58 3.29-6.69 6.4-9.37 9.34-2.36 2.58-4.39 5.03-6.12 7.35-0.01 0.01-0.01 0.02-0.02 0.03-10.17 13.66-10.26 23.16-6.37 29.98 2.51 4.42 6.7 7.72 10.88 10.3 2.39 1.47 6.25 2.9 11.1 4.22 3.42 0.92 7.32 1.78 11.53 2.56 10.55 1.94 23.06 3.32 34.77 3.66 13.16 0.4 25.33-0.53 32.6-3.44" fill="#ff5776"/><path d="m929.51 424.48-0.062 8 255 2 0.07-8-255-2" fill="#000061"/><path d="m1128.4 150.98-0.02 8 943.63 2 0.01-8-943.62-2" fill="#000061"/><path d="m1637 1291c-27-1-65-34-65-34s-1.83 4.82-4.46 12.35c-0.33 0.9-0.66 1.85-0.99 2.83-2.83 8.1-6.33 18.62-9.54 29.49-0.27 0.96-0.57 1.92-0.84 2.89-4.74 16.42-8.6 33.19-8.23 43.22 0.94 24.78 17.06 35.22 37.06 29.22 0.24-0.07 0.47-0.15 0.71-0.24 1.09-0.42 2.22-1.04 3.38-1.86 5.66-3.99 11.99-12.48 18.12-22.59 0.58-0.94 1.14-1.9 1.71-2.87 14.8-25.23 28.08-58.44 28.08-58.44" fill="#00ccbe"/><path d="m915.04 607.48c-0.33-0.59-0.68-1.18-1.03-1.75-26.67-43.69-107.56-50.66-107.56-50.66l-1.06-26.2-1.16-28.68-83.55 7.18-3.17 0.27-3.82 0.33-9.87 0.85c-2.73 6.65-5.11 13.14-7.16 19.44-0.32 0.97-0.63 1.93-0.92 2.89-6.16 19.64-9.2 37.53-10.17 53.52-0.06 1.03-0.11 2.05-0.16 3.06-0.09 1.97-0.14 3.91-0.17 5.82-0.13 8.97 0.38 17.27 1.33 24.88 0.13 1.03 0.26 2.04 0.4 3.04 5.11 35.77 19.59 55.311 19.59 55.311l1.99 22.969 3.56 0.671 98.66 18.619 3.31 0.621 2.89-23.68 28.62 0.66 50.7 1.18 4.29 0.1 14.46-90.441" fill="#00ccbe"/><path d="m895.5 701.92 19.54-101.57 23.917 16.69-23.917 89.744-19.54-4.867" fill="#ff5776"/><path d="m965.56 460.08s-10.611-16.1 1.579-22.68 26.787 7.65 40.896 3.99c14.11-3.65 30.03-8.76 54.55-8.21 24.52 0.54 33.57 12.78 33.57 12.78l-97.283 30.14-33.312-16.02" fill="#ff5776"/><path d="m965.56 460.08s-5.18 37.99 15.726 42.74c20.909 4.74 24.529-13.46 39.379-14.51 14.85-1.06 36.99-24.61 67.09-29.47 0 0 10.79-0.53 10.23-9.93-0.56-9.39-40.63-8.18-53.48-0.83-12.86 7.34-50.162 25.51-78.945 12" fill="#ffb149"/><path d="m1021.1 483.51c-3.6 4.1-7.23 9.3-6.27 15.08 0.65 3.92 5.89 11.62 10.45 7.7 2.18-1.87 2.68-6.1 2.94-8.76 0.48-4.72-0.84-8.94-5.21-11.43-1.72-0.98-0.21-3.34 1.52-2.59 4.18 1.82 10.74 3.97 15.43 3.67 3.72-0.23 4.01-4.05 7.13-5.33 6.36-2.61 15.3 1.86 19.83 6.23 1.39 1.34-0.73 3.46-2.12 2.12-3.46-3.33-8.8-5.93-13.66-5.96-4.69-0.03-3.76 3.78-7.05 5.42-2.42 1.2-5.78 0.4-8.29-0.05-4.37-0.78-8.7-1.73-12.79-3.51 0.51-0.86 1.01-1.73 1.52-2.59 5.61 3.2 7.34 8.73 6.6 14.87-0.5 4.11-1.75 10.27-6.36 11.69-5.4 1.66-10.63-3.88-12.23-8.44-2.66-7.59 1.55-14.66 6.44-20.25 1.27-1.45 3.39 0.68 2.12 2.13" fill="#ff5776"/><g fill="#fff"><path d="m960.51 455.59c10.129 8.46 24.843 7.13 37.184 6.67 8.44-0.32 16.65-1.46 24.32-5.14 5.77-2.77 11.07-6.31 17.03-8.7 12.21-4.91 25.72-7.88 38.92-7.73 5.34 0.06 11.98 0.22 16.85 2.68 4.81 2.43 7.69 7.35 10.25 11.85 0.95 1.68-1.64 3.2-2.59 1.52-3.64-6.4-7.09-10.94-14.72-12.23-7.66-1.29-15.6-1.01-23.26 0.14-6.74 1-13.4 2.68-19.85 4.88-6.99 2.4-13.07 6.07-19.6 9.42-11.5 5.9-24 6.42-36.682 6.56-10.55 0.12-21.561-0.77-29.974-7.8-1.483-1.24 0.649-3.35 2.122-2.12"/><path d="m1028.3 475.93c2.15 0.94 4.3 1.88 6.45 2.81 1.83 0.8 4.26 2.44 6.24 2.68-0.48 0.36-0.97 0.73-1.45 1.1 1.18-2.92 0.32-7.98 0.32-11.07 0-1.07 0.95-1.58 1.9-1.44 6.68 0.96 13.36 1.92 20.05 2.88 1.9 0.27 1.09 3.16-0.8 2.89-6.68-0.96-13.37-1.92-20.05-2.88 0.63-0.48 1.27-0.96 1.9-1.45 0.01 3.5 0.89 8.6-0.43 11.87-0.22 0.55-0.75 1.18-1.44 1.1-4.64-0.56-9.94-4.04-14.2-5.9-1.77-0.77-0.24-3.35 1.51-2.59"/><path d="m961.8 485.61c12.098 2.76 37.87-2.62 33.717-20.12-0.446-1.87 2.446-2.67 2.893-0.79 4.736 19.93-22.955 27.1-37.407 23.8-1.882-0.43-1.085-3.32 0.797-2.89"/><path d="m969.42 547-0.123 5.99 52.526 1.08 0.12-6-52.523-1.07"/></g><path d="m744.88 220.7-10.09 53.14 52.523 1.08-9.844-64.91-32.589 10.69" fill="#000061"/><path d="m731 183.93s-10.611-16.11 1.579-22.68c12.19-6.58 26.787 7.64 40.896 3.99 14.108-3.66 30.027-8.77 54.548-8.22 24.52 0.55 33.576 12.79 33.576 12.79l-97.288 30.13-33.311-16.01" fill="#ff5776"/><path d="m731 183.93s-5.18 37.98 15.725 42.73c20.906 4.75 24.527-13.45 39.38-14.51 14.853-1.05 36.986-24.6 67.086-29.47 0 0 10.798-0.53 10.235-9.92-0.562-9.39-40.631-8.19-53.485-0.84s-50.158 25.52-78.941 12.01" fill="#ffb149"/><path d="m786.53 207.35c-3.597 4.11-7.227 9.31-6.268 15.08 0.652 3.93 5.886 11.62 10.455 7.71 2.177-1.87 2.671-6.11 2.938-8.77 0.472-4.72-0.839-8.93-5.209-11.43-1.719-0.98-0.21-3.34 1.514-2.58 4.183 1.82 10.743 3.96 15.431 3.67 3.724-0.24 4.008-4.06 7.126-5.33 6.366-2.61 15.307 1.86 19.832 6.23 1.391 1.34-0.731 3.46-2.122 2.12-3.452-3.34-8.792-5.93-13.657-5.96-4.69-0.03-3.759 3.78-7.053 5.42-2.417 1.2-5.773 0.39-8.281-0.06-4.373-0.78-8.706-1.73-12.79-3.51 0.505-0.86 1.01-1.72 1.514-2.58 5.608 3.2 7.339 8.72 6.6 14.86-0.494 4.11-1.745 10.28-6.362 11.7-5.396 1.65-10.624-3.88-12.227-8.45-2.664-7.59 1.551-14.66 6.437-20.24 1.274-1.46 3.389 0.67 2.122 2.12" fill="#ff5776"/><g fill="#fff"><path d="m725.94 179.44c10.129 8.45 24.844 7.12 37.184 6.66 8.44-0.31 16.647-1.46 24.322-5.14 5.766-2.77 11.071-6.3 17.026-8.69 12.212-4.91 25.726-7.89 38.923-7.74 5.344 0.07 11.976 0.23 16.851 2.69 4.807 2.42 7.687 7.34 10.248 11.85 0.955 1.68-1.636 3.19-2.591 1.51-3.636-6.4-7.088-10.94-14.718-12.22-7.657-1.29-15.604-1.01-23.261 0.13-6.743 1.01-13.397 2.68-19.846 4.89-6.997 2.39-13.077 6.06-19.606 9.41-11.495 5.9-23.996 6.43-36.679 6.57-10.55 0.11-21.561-0.78-29.974-7.8-1.484-1.24 0.648-3.35 2.121-2.12"/><path d="m793.72 199.78c2.15 0.94 4.3 1.87 6.45 2.81 1.826 0.8 4.257 2.43 6.238 2.67-0.482 0.37-0.964 0.74-1.446 1.1 1.174-2.92 0.322-7.97 0.317-11.06-2e-3 -1.07 0.956-1.58 1.899-1.45 6.683 0.96 13.366 1.92 20.049 2.88 1.904 0.27 1.094 3.17-0.798 2.89-6.683-0.96-13.366-1.92-20.048-2.88 0.632-0.48 1.265-0.96 1.898-1.44 6e-3 3.49 0.888 8.6-0.425 11.86-0.224 0.56-0.754 1.19-1.446 1.1-4.637-0.56-9.937-4.03-14.202-5.89-1.765-0.77-0.239-3.36 1.514-2.59"/><path d="m727.24 209.45c12.098 2.77 37.87-2.62 33.716-20.11-0.445-1.88 2.447-2.68 2.894-0.8 4.733 19.94-22.956 27.11-37.408 23.81-1.881-0.43-1.085-3.33 0.798-2.9"/><path d="m734.85 270.84-0.123 6 52.522 1.08 0.123-6-52.522-1.08"/><path d="m1753 393.47c-1.15-4.54-5.96-8.21-10.74-8.2-4.77 0.01-7.71 3.7-6.55 8.24 1.15 4.54 5.96 8.21 10.74 8.19 4.77-0.01 7.71-3.7 6.55-8.23"/></g><path d="m1796.3 393.35c-1.15-4.53-5.96-8.2-10.74-8.19-4.77 0.01-7.71 3.7-6.55 8.24 1.15 4.54 5.96 8.2 10.74 8.19 4.77-0.01 7.71-3.7 6.55-8.24" fill="#00ccbe"/><path d="m1891.4 517.02c-1.16-4.54-5.97-8.21-10.74-8.2-4.78 0.02-7.72 3.7-6.56 8.24s5.97 8.21 10.74 8.2c4.78-0.02 7.71-3.7 6.56-8.24" fill="#fff"/><path d="m1936 516.9c-1.15-4.54-5.96-8.2-10.74-8.19s-7.71 3.7-6.55 8.24c1.15 4.53 5.96 8.2 10.74 8.19 4.77-0.01 7.71-3.7 6.55-8.24" fill="#ff5776"/><path d="m1844.2 517.14c-1.16-4.54-5.97-8.21-10.75-8.19-4.77 0.01-7.71 3.7-6.55 8.23 1.16 4.54 5.96 8.21 10.74 8.2 4.78-0.02 7.71-3.7 6.56-8.24" fill="#ff5776"/><path d="m1532 272.02-129.89 0.34 16.69 65.5 129.88-0.34-16.68-65.5" fill="#ffb149"/><path d="m1510 185.94-129.89 0.33 16.69 65.5 129.88-0.33-16.68-65.5" fill="#ffb149"/><g fill="#fff"><path d="m1364.7 187.39-3.02 3.78 191.05 145.74 3.02-3.79-191.05-145.73"/><path d="m980.55 958.22-3.013 3.786 191.05 145.73 3.01-3.78-191.04-145.74"/><path d="m987.44 926.45-3.013 3.786 191.05 145.74 3.01-3.79-191.05-145.73"/><path d="m1391.9 176.75-3.01 3.79 191.04 145.73 3.02-3.78-191.05-145.74"/></g><path d="m1768.1 316.51-164.76 0.43 4.33 17.01 164.77-0.43-4.34-17.01" fill="#00ccbe"/><path d="m1599.8 302.1 51.33-0.13-2.51-9.86-51.33 0.13 2.51 9.86" fill="#ff5776"/><path d="m1733.8 301.75-2.51-9.86-50.91 0.13 2.52 9.87 50.9-0.14" fill="#ffb149"/><path d="m1627.5 210.99-2.52-9.86-50.9 0.13 2.51 9.86 50.91-0.13" fill="#ffb149"/><path d="m1654.6 229.17-73.56 0.19 4.33 17.01 73.56-0.19-4.33-17.01" fill="#00ccbe"/><path d="m1715 229.01-36.78 0.1 4.34 17.01 36.78-0.1-4.34-17.01" fill="#ff5776"/><path d="m1767.8 481.52-301.05 0.77 0.02 8 301.05-0.77-0.02-8" fill="#fff"/><path d="m1667.2 368.84-301.04 0.78 0.02 8 301.05-0.78-0.03-8" fill="#fff"/><path d="m2024.5 161.99h-139v70.54h139v-70.54" fill="#ff5776"/><path d="m2036.7 220.8h-163.34v30.03h163.34v-30.03" fill="#ffb149"/><path d="m1977.7 211.12h-45.3v9.68h45.3v-9.68" fill="#fff"/><g fill="#ff5776"><path d="m1825.4 815.8-3.6 4.803 99.54 74.562 3.59-4.802-99.53-74.563"/><path d="m1860.7 806.81-3.6 4.803 61.76 46.264 3.6-4.802-61.76-46.265"/><path d="m574.8 1330.1-3.598 4.8 99.537 74.56 3.597-4.8-99.536-74.56"/><path d="m610.13 1321.1-3.597 4.8 61.761 46.26 3.598-4.8-61.762-46.26"/></g><g fill="#fff"><path d="m513.1 789.39c0-6.331-5.133-11.464-11.464-11.464s-11.464 5.133-11.464 11.464 5.133 11.464 11.464 11.464 11.464-5.133 11.464-11.464"/><path d="m1266.1 179.25c-10.75 0-20.55 5.91-25.57 15.43l4.42 2.33c4.15-7.87 12.25-12.76 21.15-12.76 13.17 0 23.89 10.72 23.89 23.89s-10.72 23.89-23.89 23.89c-6.99 0-13.61-3.05-18.16-8.36l-3.8 3.25c5.5 6.43 13.51 10.11 21.96 10.11 15.93 0 28.89-12.96 28.89-28.89s-12.96-28.89-28.89-28.89"/><path d="m963.01 584.68c-4.372 35.04 15.564 86.859 16.415 89.047l3.728-1.449c-0.051-0.132-5.187-13.418-9.723-30.758-5.97-22.84-8.201-42.32-6.451-56.34l-3.969-0.5"/><path d="m743.58 939.84c-8.156 0-15.243 2.357-19.865 4.408-0.518 0.218-1.035 0.461-1.521 0.693l-0.323 0.162c-3.385 1.65-5.386 3.061-5.472 3.122l2.314 3.262c0.017-0.012 1.958-1.373 5.198-2.928l0.315-0.155c0.343-0.162 0.703-0.327 1.08-0.486 7.686-3.41 22.719-7.741 37.402 1.415 2.276 1.423 4.502 3.142 6.616 5.108l2.724-2.929c-2.299-2.139-4.729-4.013-7.222-5.572-7.285-4.542-14.619-6.1-21.246-6.1"/></g><path d="m1683.7 1087.1-1.57 3.68c0.47 0.2 48.42 20.16 129.49 10.76l-0.46-3.97c-80.02 9.28-126.99-10.27-127.46-10.47" fill="#ffe9e9"/><path d="m1070.9 885.32c5.92-0.456 11.84-0.268 17.65 0.539 5.8 0.9 11.45 2.466 16.89 4.556 10.85 4.259 20.74 10.741 29.09 18.728 8.41 7.953 15.08 17.507 20.45 27.821 5.43 10.255 9.46 21.215 12.26 32.502 2.87 11.281 4.57 22.877 5.66 34.569 0.54 5.85 0.95 11.72 1.25 17.62 0.28 5.9 0.45 11.81 0.58 17.74l0.69 35.74c0.29 11.96 0.81 23.96 2.09 35.95 0.27 2.98 0.73 6.07 1.25 9.08 0.6 3.02 1.25 6.03 2.13 8.99 1.72 5.92 3.99 11.74 7.24 17.12 3.24 5.36 7.44 10.3 12.68 14.03 5.26 3.65 11.52 6.03 17.95 6.48 3.21 0.24 6.44-0.03 9.6-0.63 3.13-0.74 6.21-1.77 9.04-3.37 5.63-3.14 10.34-8.25 12.6-14.35 0.68-1.49 0.99-3.08 1.4-4.64 0.38-1.58 0.51-3.25 0.54-4.86 0.03-3.23-0.46-6.44-1.5-9.51-1.06-3.06-2.67-6.04-5.2-8.41-1.26-1.16-2.76-2.14-4.4-2.78s-3.4-0.94-5.12-0.92c-1.73 0.01-3.36 0.34-4.95 0.81-1.59 0.46-3.17 1.19-4.57 2.21s-2.61 2.33-3.5 3.82c-0.9 1.48-1.48 3.11-1.8 4.74-0.63 3.29-0.32 6.56 0.43 9.63 0.78 3.07 2.04 5.98 3.72 8.65 0.85 1.34 1.81 2.61 2.91 3.77l0.86 0.85 0.86 0.75 1.74 1.49 1.73 1.49c0.6 0.47 1.23 0.89 1.84 1.34 1.24 0.88 2.45 1.81 3.72 2.63 2.59 1.57 5.13 3.21 7.86 4.52 2.64 1.47 5.44 2.6 8.19 3.82 5.6 2.21 11.29 4.19 17.15 5.54 2.89 0.79 5.87 1.26 8.8 1.85 1.48 0.27 2.97 0.42 4.46 0.64 1.48 0.21 2.96 0.43 4.46 0.52l4.49 0.37c1.49 0.09 2.99 0.08 4.49 0.13l2.25 0.05c0.75 0.01 1.5-0.04 2.25-0.07l4.49-0.17c5.97-0.5 11.91-1.49 17.66-3.21l-0.23-0.77c-5.72 1.58-11.6 2.42-17.51 2.78l-4.43 0.07c-0.74 0.01-1.48 0.04-2.22 0.02l-2.22-0.1c-1.48-0.08-2.96-0.11-4.43-0.23l-4.42-0.46c-1.47-0.12-2.93-0.38-4.39-0.61-1.46-0.25-2.93-0.44-4.37-0.73-2.89-0.65-5.8-1.17-8.64-2.02-5.73-1.45-11.27-3.53-16.7-5.8-2.67-1.26-5.37-2.43-7.91-3.91-2.63-1.34-5.06-2.98-7.53-4.56-1.21-0.82-2.34-1.74-3.52-2.61-0.57-0.44-1.17-0.86-1.74-1.33l-1.62-1.46-1.62-1.45-0.81-0.73-0.71-0.74c-0.92-1.02-1.74-2.16-2.47-3.35-1.43-2.4-2.51-5.05-3.13-7.77-0.61-2.71-0.77-5.52-0.21-8.09 0.55-2.57 1.91-4.8 3.98-6.2 1.01-0.71 2.2-1.24 3.47-1.57 1.27-0.35 2.59-0.57 3.85-0.55 2.53 0 4.85 0.98 6.67 2.73s3.13 4.16 3.96 6.74c0.82 2.58 1.21 5.35 1.13 8.07-0.05 1.36-0.17 2.69-0.52 3.99-0.37 1.31-0.64 2.66-1.24 3.89-1.97 5.06-5.91 9.18-10.69 11.75-2.39 1.31-5.02 2.13-7.68 2.72-2.7 0.46-5.46 0.65-8.19 0.39-5.46-0.48-10.69-2.57-15.16-5.76-4.43-3.28-8.05-7.64-10.89-12.5-2.83-4.88-4.85-10.28-6.36-15.82-0.77-2.76-1.33-5.59-1.84-8.43-0.44-2.86-0.82-5.68-1.04-8.62-2.04-23.5-1.2-47.26-1.23-71.17-0.1-11.97-0.39-23.99-1.46-36.03-0.59-6.007-1.27-12.025-2.31-18.009-1.07-5.977-2.28-11.942-3.9-17.823-3.25-11.744-7.75-23.226-13.8-33.859-3.07-5.304-6.35-10.423-10.18-15.261-3.79-4.847-8-9.368-12.68-13.335-9.23-8.072-20.07-14.274-31.66-18.01-5.83-1.769-11.81-3.018-17.86-3.461-6.05-0.375-12.1-0.019-18.01 1.02l0.11 0.793" fill="#00ccbe"/><path d="m1453.9 1298.5-1.83 3.56c26.62 13.69 34.61 46.87 34.69 47.2l3.9-0.9c-0.34-1.44-8.46-35.3-36.76-49.86" fill="#fff"/><path d="m686.45 784.69-3.8 1.248c7.924 24.12-3.02 56.346-3.132 56.668l3.781 1.306c0.118-0.342 2.92-8.522 4.74-19.92 1.69-10.58 2.786-25.987-1.589-39.302" fill="#ffe9e9"/><path d="m731.89 813.94c-7.093 29.783-29.284 47.562-29.507 47.739l1.857 2.355c0.945-0.746 23.236-18.611 30.568-49.399l-2.918-0.695" fill="#000061"/><path d="m2073.1 1039.7v-6.75l-99.25 42.87 6.7 5.99c3.55 3.19 8.42 3.98 12.67 2.07l23.48-10.6c4.08-1.85 7.61-4.94 10.13-8.9l3.47-5.47 22.61-2.64c2.71-0.31 5.35-1 7.89-2.04l4.17-1.7c4.9-2.01 8.13-7.12 8.13-12.83" fill="#000061"/><path d="m1968.7 1075c16.6-5.1 31.8-14.44 47.81-21.12 17.1-7.13 34.58-13.33 51.97-19.73 1.81-0.67 2.59 2.23 0.79 2.89-17.38 6.4-34.86 12.6-51.97 19.73-16.02 6.69-31.17 16.02-47.8 21.12-1.85 0.57-2.64-2.33-0.8-2.89" fill="#ffe9e9"/><path d="m1403 1027-0.03 8 732 2 0.03-8-136.95-0.37-420.88-1.15-174.17-0.48" fill="#000061"/><path d="m703.31 997.93s3.405-23.748 15.55-29.421c0 0-20.541 0.863-23.294 12.905-2.752 12.043 7.744 16.516 7.744 16.516" fill="#000061"/><g fill="#fff"><path d="m832.57 833.23c-24.357 0-43.233 10.808-55.829 21.315-17.758 14.813-26.873 31.74-27.252 32.453l3.531 1.879c0.09-0.169 9.19-17.037 26.384-31.344 22.879-19.037 48.51-24.769 76.178-17.035l1.077-3.853c-8.533-2.384-16.575-3.415-24.089-3.415"/><path d="m715.81 760.94-0.884 3.9c3.799 0.863 7.541 2.295 11.019 3.716 4.569 1.866 9.006 4.302 13.295 6.656 4.451 2.445 9.054 4.971 13.896 6.925 10.003 4.037 21.211 5.599 32.411 4.512 11.353-1.101 19.245-4.646 23.459-10.535 1.229-1.718 2.086-3.61 2.547-5.623l-3.9-0.893c-0.342 1.495-0.981 2.903-1.9 4.188-3.512 4.91-10.44 7.898-20.592 8.882-10.563 1.025-21.119-0.442-30.528-4.24-4.622-1.865-9.119-4.334-13.468-6.722-4.388-2.409-8.926-4.901-13.708-6.853-3.636-1.485-7.564-2.987-11.647-3.913"/><path d="m915.27 589.77-13.922 71.19 3.926 0.77 13.922-71.19-3.926-0.77"/></g><g fill="#000061"><path d="m629 150.98-0.052 8 300.5 2 0.052-8-300.5-2"/><path d="m1144.5 368.02h-4v60.13h4v-60.13"/><path d="m1141.1 395.91-28.28 28.84 2.86 2.8 28.27-28.84-2.85-2.8"/><path d="m1001.7 368.02h-4.003v60.13h4.003v-60.13"/><path d="m998.31 395.91-28.273 28.84 2.857 2.8 28.277-28.84-2.861-2.8"/><path d="m1999.5 973.7h-4v60.135h4v-60.135"/><path d="m1996.1 1001.6-28.27 28.85 2.85 2.8 28.28-28.85-2.86-2.8"/><path d="m1565.1 973.7h-4v60.135h4v-60.135"/><path d="m1561.7 1001.6-28.27 28.85 2.86 2.8 28.27-28.85-2.86-2.8"/></g><g fill="#fff"><path d="m2061 216.88h-105.91v4h105.91v-4"/><path d="m870.38 589.31c-8.547 0-15.5-6.95-15.5-15.5 0-8.54 6.953-15.5 15.5-15.5s15.5 6.96 15.5 15.5c0 8.55-6.953 15.5-15.5 15.5zm0-34c-10.201 0-18.5 8.3-18.5 18.5 0 10.21 8.299 18.5 18.5 18.5s18.5-8.29 18.5-18.5c0-10.2-8.299-18.5-18.5-18.5"/><path d="m774.27 581.39c-8.546 0-15.5-6.95-15.5-15.5s6.954-15.5 15.5-15.5c8.547 0 15.5 6.95 15.5 15.5s-6.953 15.5-15.5 15.5zm0-34c-10.201 0-18.5 8.3-18.5 18.5s8.299 18.5 18.5 18.5c10.202 0 18.5-8.3 18.5-18.5s-8.298-18.5-18.5-18.5"/><path d="m814.81 650.59c-8.546 0-15.5-6.96-15.5-15.5 0-8.55 6.954-15.5 15.5-15.5 8.547 0 15.5 6.95 15.5 15.5 0 8.54-6.953 15.5-15.5 15.5zm0-34c-10.201 0-18.5 8.3-18.5 18.5s8.299 18.5 18.5 18.5c10.202 0 18.5-8.3 18.5-18.5s-8.298-18.5-18.5-18.5"/><path d="m1724.8 1250.2c-2.84-3.06-6.88-4.97-11.37-4.97-8.55 0-15.5 6.95-15.5 15.5 0 4.51 1.95 8.58 5.03 11.41-0.33 1.03-0.67 2.06-1.02 3.08-4.27-3.4-7.01-8.63-7.01-14.49 0-10.2 8.31-18.5 18.5-18.5 5.32 0 10.12 2.25 13.49 5.85l-2.12 2.12"/><path d="m1683.2 1315.5c-2.39-1.53-5.25-2.42-8.3-2.42-8.54 0-15.5 6.95-15.5 15.5 0 4.56 1.99 8.67 5.14 11.51-0.68 0.74-1.36 1.47-2.06 2.19-3.72-3.39-6.08-8.28-6.08-13.7 0-10.2 8.3-18.5 18.5-18.5 3.62 0 7.01 1.05 9.87 2.86-0.51 0.86-1.04 1.72-1.57 2.56"/><path d="m1561.8 1305.4c-1.98 0-3.87-0.31-5.66-0.88 0.27-0.97 0.57-1.93 0.84-2.89 1.51 0.5 3.13 0.77 4.82 0.77 8.55 0 15.5-6.95 15.5-15.5 0-6.9-4.53-12.77-10.78-14.76 0.33-0.98 0.66-1.93 0.99-2.83 7.42 2.4 12.79 9.38 12.79 17.59 0 10.21-8.31 18.5-18.5 18.5"/><path d="m1492.6 1270.6c-0.38-0.94-0.75-1.88-1.1-2.81 6.42-1.88 11.11-7.83 11.11-14.86 0-8.54-6.94-15.5-15.5-15.5-2.21 0-4.3 0.46-6.21 1.3-0.34-0.98-0.65-1.93-0.97-2.84 2.21-0.94 4.63-1.46 7.18-1.46 10.2 0 18.5 8.3 18.5 18.5 0 8.3-5.47 15.33-13.01 17.67"/><path d="m1528.8 1212.9c-6.06 0-11.46-2.94-14.84-7.47 0.88-0.52 1.75-1.03 2.59-1.55 2.83 3.66 7.28 6.02 12.25 6.02 8.55 0 15.5-6.95 15.5-15.5 0-3.58-1.22-6.89-3.28-9.52 0.77-0.75 1.48-1.47 2.12-2.15 2.61 3.18 4.16 7.25 4.16 11.67 0 10.21-8.3 18.5-18.5 18.5"/><path d="m863.98 706.75c-8.547 0-15.5-6.953-15.5-15.5 0-8.546 6.953-15.5 15.5-15.5s15.5 6.954 15.5 15.5c0 8.547-6.953 15.5-15.5 15.5zm0-34c-10.201 0-18.5 8.299-18.5 18.5 0 10.202 8.299 18.5 18.5 18.5s18.5-8.298 18.5-18.5c0-10.201-8.299-18.5-18.5-18.5"/><path d="m745.06 685.28c-8.547 0-15.5-6.953-15.5-15.5 0-8.545 6.953-15.505 15.5-15.505s15.5 6.96 15.5 15.505c0 8.547-6.953 15.5-15.5 15.5zm0-34.005c-10.201 0-18.5 8.3-18.5 18.505 0 10.201 8.299 18.5 18.5 18.5s18.5-8.299 18.5-18.5c0-10.205-8.299-18.505-18.5-18.505"/><path d="m688.06 621.5c-0.37 0-0.73-0.01-1.09-0.03-0.14-1-0.27-2.01-0.4-3.04 0.49 0.05 0.99 0.07 1.49 0.07 8.55 0 15.5-6.95 15.5-15.5s-6.95-15.5-15.5-15.5c-0.9 0-1.79 0.08-2.65 0.23 0.05-1.01 0.1-2.03 0.16-3.06 0.81-0.11 1.64-0.17 2.49-0.17 10.2 0 18.5 8.3 18.5 18.5s-8.3 18.5-18.5 18.5"/><path d="m703.56 532.89c-2.79 0-5.44-0.62-7.82-1.74 0.29-0.96 0.6-1.92 0.92-2.89 2.08 1.05 4.42 1.63 6.9 1.63 8.55 0 15.5-6.95 15.5-15.5 0-2.42-0.56-4.71-1.55-6.75l3.17-0.27c0.89 2.16 1.38 4.54 1.38 7.02 0 10.2-8.3 18.5-18.5 18.5"/></g><path d="m743.79 603s3.813-51.15 62.669-47.93v-26.29s-76.644 5.36-62.669 74.22" fill="#000061"/><path d="m802.48 552.45c-18.765 0-33.641 5.09-44.376 15.22-20.979 19.8-18.344 51.3-18.222 52.63l3.984-0.36c-0.028-0.31-2.559-30.94 17.004-49.38 13.154-12.39 33.261-16.65 59.76-12.66 82.675 12.47 92.572 27.83 92.662 27.98l3.548-1.84c-0.863-1.73-10.879-17.31-95.613-30.09-6.623-1-12.877-1.5-18.747-1.5" fill="#fff"/><path d="m698.89 509.79 6.823-31.79 103.53-8.02v33.74l-110.35 6.07" fill="#ff5776"/><path d="m817.48 501.24-68.252 3.78 0.222 3.99 68.252-3.78-0.222-3.99" fill="#fff"/><path d="m816.98 695.98h-0.01l-110.4-19.2 1.99 22.969 3.56 0.671 98.66 18.619 3.31 0.621 2.89-23.68" fill="#000061"/><g fill="#fff"><path d="m754.42 683.07-0.708 3.937 105.99 19.07 0.708-3.938-105.99-19.069"/><path d="m1571.2 1253.9-1.02 2.23c-1.79 3.94-43.49 96.71-13.42 120.71l2.49-3.12c-14.23-11.36-9.63-42.06-3.26-65.82 5.77-21.53 14.02-41.34 16.85-47.86l23.99 17.47 2.35-3.24-27.98-20.37"/><path d="m1567.8 1195c-6.16 10.34-33.23 78.95-34.38 81.86l3.73 1.47c0.28-0.71 28.09-71.22 34.08-81.28l-3.43-2.05"/></g><path d="m1670.7 1204-2.6 3.04c0.61 0.52 15.28 12.97 36.91 21.16 10.58 4 21.6 4.61 31.87 1.74 9.59-2.68 17.47-8.15 22.18-15.39l-3.35-2.18c-7.79 11.96-27.71 20.26-49.29 12.09-20.94-7.93-35.58-20.34-35.72-20.46" fill="#ffe9e9"/><g fill="#000061"><path d="m1949.9 1034.6-1.8 30.11 7.99 0.48 1.8-30.11-7.99-0.48"/><path d="m1467.6 1388.3c-12.54 15.16-35.43-4.88-49-8.04-1.88-0.44-1.08-3.34 0.8-2.9 7.12 1.67 13.36 5.2 19.87 8.38 7.85 3.84 19.43 8.63 26.2 0.44 1.24-1.49 3.35 0.64 2.13 2.12"/><path d="m570.07 931.39c-14.601-40.226 4.55-92.075 46.595-106.29 1.833-0.62 2.62 2.276 0.797 2.893-40.573 13.717-58.513 63.991-44.5 102.6 0.66 1.818-2.238 2.601-2.892 0.798"/></g><path d="m1479.6 1172.2-20.1 9.69 1.73 3.6 20.11-9.69-1.74-3.6" fill="#fff"/><path d="m1326 1099.2c2.57-2.19 10.73-7.26 27.85-3.21 0.4 0.09 0.81-0.16 0.89-0.57l1.53-7.66c0.1-0.48-0.29-0.92-0.78-0.87-3.51 0.34-15.74 1.14-25.4-3.09-0.29-0.13-0.61-0.07-0.82 0.16-1.31 1.41-5.69 6.81-4.47 14.77 0.09 0.57 0.76 0.84 1.2 0.47" fill="#000061"/><path d="m1607.2 1352.3c-2.7-4.58-7.67-7.65-13.36-7.65-8.55 0-15.5 6.95-15.5 15.5 0 6.88 4.52 12.73 10.74 14.74-1.16 0.82-2.29 1.44-3.38 1.86-6.12-3.01-10.36-9.32-10.36-16.6 0-10.21 8.31-18.5 18.5-18.5 6.22 0 11.72 3.07 15.07 7.78-0.57 0.97-1.13 1.93-1.71 2.87" fill="#fff"/><path d="m1423.2 1330.3c-0.33 0-0.67 0.12-0.94 0.34-0.37 0.3-0.58 0.76-0.56 1.24l1.34 26.14 3-0.16-1.23-24.06 10.71 2.93 0.8-2.89-12.72-3.48c-0.13-0.04-0.27-0.06-0.4-0.06" fill="#000061"/><path d="m757.48 976.55-1.257 2.724c1.437 0.663 3.971 3.807 5.831 6.438-6.218 1.753-16.252 6.619-16.73 6.852l1.312 2.697c0.129-0.062 12.926-6.269 18.124-7.1 0.501-0.081 0.927-0.408 1.134-0.871 0.206-0.463 0.164-1-0.111-1.425-0.845-1.306-5.215-7.89-8.303-9.315" fill="#000061"/><g fill="#fff"><path d="m1520.3 1105.4-1.37 3.76 13 4.73 1.37-3.76-13-4.73"/><path d="m917.81 925.21-3.657 11.903 3.823 1.175 3.657-11.903-3.823-1.175"/><path d="m909.75 991.58-61.57 6.705 8.166 74.979 3.976-0.43-7.733-71.01 57.593-6.268-0.432-3.976"/><path d="m855.2 1137.7-1.442 3.73 269.34 104.08 1.44-3.74-269.34-104.07"/><path d="m936.5 970.61-3.476 1.981 20.46 35.896c0.207 0.45 0.179 0.96-0.077 1.38l-15.483 25.54c-0.163 0.36-1.532 3.62 0.383 6.19 1.497 2 4.398 2.73 8.63 2.17l0.381-0.06 10.642-5.99-1.962-3.48-9.964 5.61c-2.734 0.31-4.129-0.12-4.523-0.65-0.394-0.52-0.14-1.62 0.027-2.06l15.288-25.19c0.982-1.62 1.063-3.59 0.217-5.29l-0.051-0.09-20.492-35.957"/><path d="m987.49 1010.4-3.325 2.23c7.599 11.36 6.546 19.16 6.374 20.13-3.955 10.56-11.193 28.13-13.973 30.79-2.655 2.55-8.947 0.96-11.148 0.13l-1.413 3.75c1.05 0.39 10.393 3.74 15.327-0.98 4.37-4.19 13.934-29.56 15.01-32.44l0.076-0.25c0.091-0.39 2.115-9.84-6.928-23.36"/><path d="m1126.9 1153.1-142.53 17.32 0.482 3.97 142.53-17.32-0.48-3.97"/><path d="m1347.5 1093.1c-7.65 0-16.57 1.88-26.65 5.62-11.01 4.09-19.17 8.87-19.51 9.07l2.03 3.45c0.32-0.19 32.43-18.89 53.25-12.98l1.09-3.84c-3.1-0.88-6.5-1.32-10.21-1.32"/></g><path d="m1055.3 156.28c0-13.22-10.71-23.93-23.93-23.93s-23.94 10.71-23.94 23.93 10.72 23.94 23.94 23.94 23.93-10.72 23.93-23.94" fill="#00ccbe"/></g></svg>
