<svg width="3333.3" height="2218.6" version="1.1" viewBox="0 0 3333.3 2218.6" xml:space="preserve" xmlns="http://www.w3.org/2000/svg"><g transform="matrix(1.3333 0 0 -1.3333 0 2218.6)"><path d="m920.18 869.37s257.48 67.144 255.11 67.682c-2.38 0.539-127.55 117-127.55 117l-90.327-39.4-37.237-145.28" fill="#ffe9e9"/><path d="m1048.3 1095.2c0-170.66-138.34-309-309-309s-309 138.34-309 309c0 170.65 138.34 309 309 309s309-138.35 309-309" fill="#ffe9e9"/><g fill="#000061"><path d="m937.72 1300.6c12.707-14.59 30.685-21.66 47.899-20.57 16.21 1.02 24.1 20.35 13.437 32.59l-40.978 47.08c-10.662 12.25-30.887 7.09-34.134-8.82-3.449-16.9 1.069-35.68 13.776-50.28"/><path d="m1047.5 1056.6-32.84 8.81c0.09 0.34 9.21 35.29 7.12 82.09-2.74 61.58-22.582 113.69-58.959 154.89l25.488 22.51c41.311-46.79 64.651-108.02 67.491-177.07 2.13-51.77-7.88-89.65-8.3-91.23"/><path d="m1151 956.48c-7.32 2.586-14.43 5.422-21.47 8.348-3.55 1.438-7.01 2.97-10.51 4.455l-10.4 4.599c-6.86 3.147-13.76 6.249-20.47 9.587-6.74 3.306-13.29 6.85-19.87 10.347-3.28 1.766-6.74 3.3-10.3 4.719-3.55 1.418-7.2 2.721-10.68 4.231-3.48 1.52-6.74 3.31-9.63 5.56-2.89 2.24-5.43 4.93-7.69 7.96-4.5 6.08-8.31 13.03-11.15 21.18-1.44 4.05-2.59 8.46-3.46 13.21-0.42 2.41-0.79 4.87-1.01 7.51-0.13 1.3-0.21 2.66-0.27 4.05l-0.03 2.15-0.01 1.08 0.03 1.14 4.08 5.07 1.1 0.28 1.06 0.22 2.11 0.43c1.36 0.23 2.72 0.45 4.01 0.6 2.63 0.35 5.11 0.51 7.55 0.63 4.83 0.16 9.38-0.02 13.65-0.55 8.57-1.03 16.17-3.26 23.08-6.35 3.44-1.57 6.61-3.47 9.42-5.81 2.82-2.34 5.26-5.14 7.49-8.21 2.22-3.08 4.28-6.36 6.43-9.53 2.14-3.17 4.39-6.23 6.81-9.05 4.83-5.68 9.69-11.31 14.37-17.19 4.7-5.84 9.2-11.91 13.75-17.94l6.72-9.168c2.2-3.102 4.44-6.159 6.6-9.31 4.37-6.251 8.67-12.592 12.76-19.183l-4.07-5.065"/><path d="m1553 666.36-38.64 415.93-544.11 256.44 2.131 4.52 546.69-257.65 0.14-1.42 38.77-417.36-4.98-0.462"/></g><path d="m675.62 1416.7c-6.185-107.46 21.415-216.09 77.588-307.88 23.589-38.55 52.823-74.36 85.363-105.68 32.796-31.558 70.21-59.089 112.01-77.478 46.045-20.257 96.469-27.987 146.21-19.173 1.9 0.337 1.09 3.229-0.8 2.893-44.67-7.916-90.24-2.3-132.39 14.104-42.073 16.372-79.974 42.417-113.22 72.707-72.028 65.627-125.04 151.07-151.97 244.67-16.404 57.02-23.194 116.61-19.785 175.84 0.111 1.93-2.89 1.93-3 0" fill="#fff"/><g fill="#000061"><path d="m417.81 227.34-9.891 1.47 75.326 504.24 9.891-1.477-75.326-504.24"/><path d="m840.97 230.98c-0.248 0.79-25.088 79.15-49.59 156.74-49.864 157.88-49.814 158.5-49.695 160l9.969-0.79c0.057 0.71-0.061 1.26-0.085 1.36 1.594-6.75 65.411-208.53 98.933-314.28l-9.532-3.03"/><path d="m643.74 228.08h-10v297.81h10v-297.81"/></g><path d="m2276.3 631.59c0-170.66-138.34-309-309-309-170.65 0-309 138.34-309 309 0 170.65 138.35 309 309 309 170.66 0 309-138.34 309-309" fill="#ffe9e9"/><path d="m2005.9 975.56c25.8-16.606 54.34-34.859 66.12-64.648 10.04-25.413 6.51-55.171-18.1-70.58-27.16-17.011-63.25-14.959-86.53-39.024-15.61-16.144-20.06-39.018-15.68-60.59 4.48-22.022 17.35-42.684 35.22-56.315 10.4-7.933 22.79-13.545 36.11-12.759 14.22 0.84 26.91 8.327 37.07 17.914 11.09 10.462 20.78 22.299 31.72 32.914 12.09 11.733 25.41 20.728 41.23 26.63 28.88 10.765 61.07 14.078 91.73 12.757 53.53-2.307 110.71-20.841 146.22-62.887 4.57-5.408 8.66-11.171 12.35-17.207 1.01-1.645 3.6-0.139 2.59 1.513-28.21 46.13-80.26 70.724-132.22 78.73-27.41 4.221-55.32 3.996-82.71-0.264-16.1-2.505-32.08-6.495-47-13.108-14.03-6.213-25.8-15.518-36.6-26.296-21.04-21.003-43.82-55.816-78.46-46.184-24.5 6.814-43.38 31.07-51.32 54.241-7.86 22.946-6.09 49.465 11 67.873 23.09 24.868 60.22 22.374 87.52 39.939 21.32 13.712 27.93 38.416 22.27 62.315-6.64 28.03-27.72 48.011-50.52 64.029-6.71 4.714-13.6 9.16-20.5 13.597-1.63 1.048-3.13-1.548-1.51-2.59" fill="#fff"/><path d="m1941.8 414.58c-13.87-2.11-28.93-4.8-28.93-4.8s7.81-2.18 16.62-4.35c-18.86-12.87-42.33-24-71.53-32.14 0 0-27.65 150.34 145.58 199.6 0 0 2.7-15.46 0.76-38.06l-44.28-33.78 40.68 9.79c-6.58-30.42-22.48-66.76-58.9-96.26" fill="#fff"/><path d="m1911.8 428.17c-13.88-2.12-28.94-4.81-28.94-4.81s7.81-2.17 16.63-4.34c-18.86-12.87-42.34-24-71.54-32.14 0 0-27.64 150.34 145.59 199.6 0 0 2.69-15.46 0.75-38.06l-44.27-33.79 40.67 9.79c-6.58-30.41-22.47-66.75-58.89-96.25" fill="#00ccbe"/><g fill="#fff"><path d="m413.9 1328.9c23.755 1.38 47.413 4.14 71.206 4.91 24.178 0.78 49.204-0.04 72.283-7.99 23.068-7.95 41.37-24.01 51.063-46.55 13.789-32.07-1.556-64.27-5.771-96.55-1.898-14.53-1.144-29.32 4.688-42.93 5.73-13.37 15.577-24.6 27.188-33.22 25.187-18.7 59.677-26.14 90.601-24.24 30.259 1.85 65.645 13.65 84.182 39.14 19.47 26.78 9.621 57.96-0.684 86.12-5.442 14.87-11.237 30.17-11.92 46.17-0.722 16.9 4.44 33.5 12.964 47.97 18.282 31.04 50.034 49.77 82.276 63.62 8.41 3.61 16.936 6.95 25.48 10.23 1.784 0.68 1.01 3.58-0.798 2.89-31.576-12.13-64.226-25.43-88.95-49.3-22.12-21.34-37.518-51.57-33.288-82.91 4.145-30.72 23.915-58.27 23.464-89.75-0.538-37.62-35.999-59.65-68.949-67.63-32.863-7.96-70.109-3.66-100.07 12.22-14.117 7.49-26.754 18.38-34.892 32.25-8.498 14.48-10.458 30.97-8.538 47.43 3.585 30.75 18.621 61.74 8.403 92.78-7.226 21.96-22.885 40.07-43.644 50.2-20.635 10.06-44.126 12.81-66.825 13.21-24.41 0.44-48.738-2-73.041-3.92-5.473-0.43-10.95-0.83-16.431-1.15-1.919-0.11-1.933-3.11 0-3"/><path d="m2006.9 346.87c-35.05 9.01-54.11 41.82-55.58 76.45-1.67 39.66 18.85 77.05 45.98 104.69 26.45 26.93 59.55 44.15 96.68 50.65 36.44 6.38 74.77 3.56 110.08-7.33 18.83-5.81 37-14.08 53.26-25.28 20.14-13.86 33.4-33.24 46.24-53.64 1.02-1.63 3.62-0.13 2.59 1.52-11.65 18.5-23.65 37-41.3 50.37-14.48 10.98-30.78 19.41-47.77 25.76-36.35 13.57-76.57 17.99-115.02 12.85-37.95-5.06-72.51-20.53-100.63-46.7-29-27-51.98-64.45-53.16-104.95-1.12-38.5 18.54-77.18 57.83-87.29 1.87-0.48 2.67 2.42 0.8 2.9"/><path d="m1930.6 547.68c-10.59-13.14-20.69-26.65-30.48-40.37-9.78-13.73-19.17-27.72-28.04-42.01-8.84-14.3-17.17-28.91-24.45-43.95-3.67-7.51-6.97-15.17-9.91-22.92-2.9-7.76-5.4-15.64-7.03-23.59l-8.78 1.99c2.15 8.5 5.14 16.63 8.51 24.53 3.39 7.88 7.12 15.58 11.2 23.06 8.1 14.99 17.16 29.34 26.69 43.34 9.56 13.97 19.6 27.58 30 40.9 10.42 13.3 21.13 26.36 32.29 39.02"/></g><path d="m743.48 836.01c9.217 11.235 17.955 22.82 25.562 35.037 1.962 3.022 3.708 6.153 5.539 9.244 0.878 1.563 1.709 3.147 2.567 4.721l1.279 2.363 1.187 2.403c3.278 6.364 5.994 12.957 8.471 19.616l1.721 5.038c0.592 1.675 1.003 3.396 1.516 5.092 1.066 3.386 1.724 6.857 2.561 10.295l0.914 5.213c0.144 0.87 0.321 1.736 0.439 2.61l0.3 2.625c0.185 1.748 0.439 3.508 0.573 5.248 0.121 1.736 0.241 3.473 0.265 5.218 0.354 13.942-2.076 28.071-7.138 41.155-5.048 13.063-12.722 25.193-22.965 34.563-5.128 4.65-10.84 8.65-17.053 11.64-6.198 2.99-12.906 5.28-19.219 5.45-3.142 0.06-6.156-0.4-8.689-1.63-1.287-0.62-2.417-1.37-3.381-2.31-0.24-0.24-0.497-0.46-0.734-0.7l-0.638-0.81c-0.474-0.51-0.759-1.17-1.156-1.75-2.72-5-2.743-12 0.02-17.29 0.634-1.36 1.535-2.53 2.474-3.64 0.505-0.54 1.074-1.07 1.63-1.58l0.902-0.71c0.291-0.25 0.6-0.48 0.934-0.68 2.559-1.71 5.533-2.93 8.695-3.53 6.333-1.19 13.214-0.21 18.985 2.88 2.951 1.53 5.679 3.54 8.133 5.88s4.678 4.99 6.584 7.88c1.916 2.89 3.567 5.98 4.958 9.19 0.335 0.81 0.672 1.62 0.981 2.44l0.852 2.5c0.274 0.84 0.595 1.66 0.832 2.51l0.665 2.56c3.502 13.71 2.798 28.45-1.025 42.27-1.909 6.92-4.588 13.66-7.931 20.05-3.335 6.39-7.38 12.41-11.937 18.06-9.112 11.31-20.216 21.01-32.253 29.33-6.023 4.16-12.29 7.99-18.716 11.54-6.421 3.58-13.026 6.8-19.697 9.99-6.66 3.21-13.354 6.43-19.822 10.13-6.455 3.7-12.702 7.89-18.228 12.95-5.508 5.05-10.361 10.89-13.84 17.54-3.474 6.62-5.579 14.06-5.355 21.57 0.123 3.75 0.879 7.46 2.168 10.96 1.282 3.5 3.074 6.81 5.338 9.76 2.263 2.95 5.01 5.54 8.163 7.5 3.147 1.96 6.708 3.26 10.384 3.7-3.666-0.52-7.18-1.89-10.258-3.9-3.086-2.01-5.744-4.63-7.914-7.58-2.171-2.96-3.864-6.25-5.049-9.72-1.193-3.46-1.853-7.1-1.895-10.75-0.063-7.3 2.139-14.51 5.656-20.87 3.522-6.4 8.376-12 13.854-16.81 5.487-4.82 11.684-8.79 18.12-12.3 6.446-3.51 13.146-6.57 19.87-9.63 6.729-3.05 13.486-6.17 20.063-9.65 6.584-3.46 13.029-7.21 19.257-11.33 12.442-8.21 24.067-17.91 33.771-29.45 9.739-11.47 17.327-24.97 21.657-39.54 4.346-14.52 5.501-30.29 1.997-45.36l-0.671-2.82c-0.241-0.94-0.57-1.85-0.851-2.77l-0.882-2.77c-0.32-0.91-0.675-1.82-1.029-2.72-1.467-3.6-3.237-7.1-5.341-10.42-2.094-3.32-4.584-6.43-7.415-9.25-2.829-2.82-6.056-5.32-9.631-7.27-7.208-4.02-15.737-5.478-23.964-4.12-4.116 0.69-8.168 2.2-11.797 4.53-0.465 0.27-0.907 0.58-1.332 0.91l-1.292 0.99c-0.82 0.71-1.624 1.43-2.392 2.22-1.507 1.65-2.88 3.44-3.876 5.41-2.077 3.88-3.195 8.19-3.268 12.54-0.074 4.34 0.744 8.8 2.854 12.85 0.591 0.98 1.081 2.02 1.827 2.92l1.058 1.37c0.388 0.44 0.809 0.85 1.218 1.27 0.789 0.87 1.756 1.54 2.689 2.26 0.463 0.38 0.96 0.65 1.451 0.95 0.487 0.3 0.986 0.58 1.504 0.82 4.103 2.09 8.603 2.8 12.824 2.8 4.248-0.01 8.307-0.74 12.187-1.8 1.956-0.53 3.79-1.21 5.659-1.84 0.928-0.34 1.832-0.73 2.749-1.1 0.919-0.36 1.827-0.74 2.712-1.18 7.186-3.27 13.808-7.7 19.731-12.85 11.84-10.39 20.642-23.75 26.541-38.089 5.904-14.375 8.932-29.887 8.873-45.502 0.012-1.953-0.077-3.906-0.174-5.86-0.108-1.947-0.337-3.855-0.503-5.785l-0.273-2.889c-0.109-0.96-0.279-1.91-0.416-2.866l-0.884-5.727c-0.82-3.765-1.478-7.58-2.547-11.277-0.516-1.853-0.936-3.741-1.533-5.566l-1.746-5.493c-2.516-7.246-5.305-14.405-8.65-21.262l-1.216-2.593-1.304-2.542c-0.875-1.691-1.727-3.398-2.624-5.076-1.863-3.311-3.654-6.675-5.648-9.899-7.756-13.057-16.612-25.315-25.894-37.132-2.559-3.257-7.274-3.823-10.531-1.264-3.258 2.558-3.824 7.274-1.266 10.531 0.025 0.032 0.051 0.063 0.076 0.095l0.053 0.065" fill="#00ccbe"/><path d="m1490.3 989.58s-33.54 18.905-35.2 38.535c-1.66 19.64 13.83 30.09 15.21 30.54 1.38 0.44 48.4 2.35 48.4 2.35l12.17-15.04-13.29-47.676-27.29-8.709" fill="#ffb149"/><path d="m1517.6 1053.4c-15.22 0-29.77 8.73-36.46 23.5-9.11 20.13-0.18 43.83 19.94 52.94l35.71 16.17c20.13 9.12 43.83 0.19 52.94-19.93 9.11-20.13 0.19-43.83-19.94-52.94l-35.71-16.17c-5.35-2.43-10.96-3.57-16.48-3.57" fill="#00ccbe"/><path d="m966.71 802.1-32.782 72.975 567.29 254.83 32.78-72.97-567.29-254.83" fill="#ff5776"/><path d="m1658.3 804.58c-22.32-10.81-42.58-15.67-59.49-17.4-31.58-3.23-51.51 4.4-51.51 4.4-5.13 5.13-9.93 12.64-14.39 21.77-27.77 56.76-42.61 176.23-42.61 176.23l47 15.005s79-73.005 85-73.005 44-24 48-24 52-72-12-103" fill="#fff"/><path d="m850.61 536.33-324.62-49.94-112.09 494.67 290.88 44.752 8.591 1.32 25.15 3.87 4.86-21.47 1.7-7.48 28.12-124.11 4.47-19.72 72.94-321.89" fill="#fff"/><path d="m2057.2 324.45h64c23.43 23.84 23.43 47.84 0 72h-81l17-72" fill="#00ccbe"/><path d="m1818.4 716.58-155.1-2c-18.91 19.9-26.92 57.38-30.21 90.02-3.3 32.96-1.79 60.98-1.79 60.98s13.46 12.22 33.57 28.57c56.41 45.87 165.11 124.26 175.43 56.43 14-92-21.9-234-21.9-234" fill="#fff"/><g fill="#000061"><path d="m2121.2 396.77s23 9.32 42 0.93v-169.62h-21s0 65.24-21 101.59c0 0 13 41.01 0 67.1"/><path d="m1827.3 934.58s-47.49-86.02-194.21-129.98c-3.3 32.96-1.79 60.98-1.79 60.98s13.46 12.22 33.57 28.57l162.43 40.43"/><path d="m2158 345.57-0.27 51.85 11 0.06 0.27-51.85-11-0.06"/></g><path d="m944.6 825.52-9.36 21.009 577.69 257.39 9.36-21.01-577.69-257.39" fill="#ffb149"/><path d="m2086.5 306.34-6.64 2.21c0.02 0.06 2.14 6.48 4.2 16.59 3.63 17.77 6.69 44.43 0.65 70.51l6.82 1.58c6.33-27.31 3.16-55.03-0.61-73.49-2.16-10.56-4.33-17.13-4.42-17.4" fill="#fff"/><path d="m1523.5 1052.2-32.78 72.98 20.98 9.42 32.78-72.97-20.98-9.43" fill="#fff"/><path d="m1359.3 316.59v-64c23.85-23.44 47.85-23.44 72 0v81l-72-17" fill="#00ccbe"/><path d="m1166.9 985.79-86.61-3.352s-1.16-28.637 80.19-25.506l6.42 28.858" fill="#ffb149"/><path d="m1662.3 631.59s-14.52-221.24 29.07-322.66c5.67-13.19 15.08-24.41 27.08-32.3 13.03-8.56 28.46-12.75 44.04-11.93 55.61 2.93 193.27 12.3 264.81 35.89l-3 140-172-65-23 306h-163l-4-49.995" fill="#ff5776"/><path d="m1666.3 681.58-295.97-3.894c-9.4-0.124-18.65-2.735-26.51-7.88-7.45-4.876-14.72-12.521-16.52-24.221-4-26-22-280-22-280l184 16-22 178s104-58 195-56 4 178 4 178" fill="#ff5776"/><path d="m1827.3 915.58c-48.44-34.23-150.71-56.37-217.05-67.75-36.37-6.24-61.95-9.25-61.95-9.25-12.69-0.36-29.98 1.23-49.83 4.09-91.16 13.12-236.17 52.91-236.17 52.91l-4 68 301-34 187.33 79.675c69.34 37.68 88.67-3.67 88.67-3.67 38-47.005-8-90.005-8-90.005" fill="#fff"/><path d="m1683.3 1168.6s-36-2-36 17 15 14 15 14-22 12-7 26 21-1 21-1 6 28 35 25 22-37 22-37 27 33 57 5 0-60 0-60 30-5 28-39-31-21-31-21 13-29-12-35-33.77 40.44-33.77 40.44l-58.23 65.56" fill="#000061"/><path d="m1757.3 1034.6s-51-27-52-29c-0.42-0.85-1.36 10.92-2.31 24.89-1.34 19.41-2.69 43.11-2.69 43.11l17.6 12.57 38.4 27.43 1-79" fill="#ffb149"/><path d="m1744.3 1126.6s9 14 21 9 13-39-28-35 7 26 7 26" fill="#ffb149"/><path d="m1703 1030.5c-1.34 19.41-2.69 43.11-2.69 43.11l17.6 12.57 14.04 8.43s7.92-46.55-28.95-64.11" fill="#000061"/><path d="m1683.3 1179.6s-25-40-10-95 50-12 64 10 15 59 15 59-60 32-69 26" fill="#ffb149"/><path d="m1680.3 983.58 12 29.005 70 29 11-22-93-36.005" fill="#ff5776"/><path d="m1382.3 1261.5h68.52v-24.13h-68.52v24.13" fill="#ffb149"/><path d="m1450.4 1261h-67.55v-23.16h67.55zm-68.51 0.97h69.48v-25.09h-69.48v25.09" fill="#ffb149"/><path d="m1296.5 1261.5h68.51v-24.13h-68.51v24.13" fill="#00ccbe"/><path d="m305.34 693.53h68.516v-24.125h-68.516v24.125" fill="#ffb149"/><path d="m373.38 693.04h-67.551v-23.16h67.551zm-68.515 0.965h69.48v-25.09h-69.48v25.09" fill="#ffb149"/><path d="m219.46 693.53h68.515v-24.125h-68.515v24.125" fill="#00ccbe"/><path d="m384.5 1290.6c2.014 0.07 4.129-0.32 5.967-1.35 1.846-1 3.348-2.46 4.677-3.92 1.323-1.46 2.537-2.93 3.858-4.13 1.314-1.2 2.733-2.08 4.255-2.46l1.158-0.22 1.207-0.01c0.399-0.05 0.795 0.07 1.188 0.11 0.395 0.04 0.79 0.08 1.142 0.23 1.479 0.41 2.727 1.22 3.863 2.43 1.145 1.2 2.182 2.69 3.351 4.29 1.175 1.58 2.493 3.32 4.378 4.81 0.498 0.35 0.986 0.71 1.512 1.03 0.557 0.29 1.123 0.56 1.694 0.83 1.184 0.4 2.416 0.77 3.63 0.84l0.918 0.1c0.306 0.02 0.613-0.01 0.921-0.02 0.617-0.04 1.231-0.03 1.854-0.13 0.625-0.13 1.252-0.27 1.877-0.42 0.61-0.2 1.201-0.47 1.799-0.72 2.338-1.12 4.133-2.8 5.573-4.35 1.449-1.57 2.639-3.06 3.8-4.23 1.147-1.18 2.218-1.92 3.282-2.27 0.249-0.14 0.548-0.15 0.824-0.21l0.413-0.09c0.147-0.02 0.309 0 0.462-0.01 0.308 0.01 0.613-0.05 0.918-0.01 0.304 0.05 0.605 0.09 0.907 0.12 1.131 0.26 2.003 0.72 2.97 1.6 0.965 0.87 1.962 2.17 3.097 3.71 1.152 1.56 2.47 3.38 4.442 5.12 0.456 0.44 1.019 0.84 1.598 1.24l0.863 0.59 0.967 0.5c0.654 0.32 1.306 0.65 2.012 0.83 0.691 0.19 1.409 0.45 2.097 0.54 0.69 0.09 1.387 0.17 2.085 0.24 0.698 0.05 1.4-0.02 2.104-0.04 0.354-0.02 0.702-0.03 1.059-0.08l1.087-0.22c0.725-0.16 1.456-0.31 2.141-0.62 2.848-1.03 5.145-2.92 6.769-4.59 1.623-1.71 2.855-3.27 3.939-4.43 1.063-1.2 1.959-1.88 2.636-2.22 0.18-0.06 0.334-0.17 0.511-0.23 0.191-0.03 0.37-0.08 0.551-0.15 0.196-0.05 0.448-0.03 0.668-0.07 0.228-0.06 0.458-0.04 0.687-0.02 0.97 0.03 1.541 0.12 2.397 0.65 0.865 0.5 1.929 1.53 3.151 2.89 1.253 1.33 2.636 3.02 4.584 4.66 0.522 0.4 1.042 0.8 1.574 1.18 0.599 0.37 1.204 0.72 1.811 1.05 0.636 0.31 1.328 0.56 1.996 0.81 0.667 0.26 1.387 0.33 2.076 0.48 0.703 0.16 1.377 0.18 2.05 0.18 0.674 0 1.343 0.07 2.006-0.07 0.662-0.09 1.32-0.2 1.967-0.31 0.659-0.19 1.313-0.41 1.954-0.64 2.573-1.02 4.608-2.84 5.994-4.61 1.417-1.79 2.378-3.56 3.325-5.15 0.918-1.61 1.862-3.01 3.059-4.15 1.19-1.14 2.75-1.93 4.595-2.42v-1.16c-1.01-0.13-2.075-0.31-3.165-0.16l-0.827 0.08-0.802 0.21c-0.54 0.14-1.103 0.28-1.598 0.53-2.101 0.88-3.831 2.35-5.349 3.71-1.493 1.39-2.83 2.73-4.12 3.69-1.297 0.98-2.472 1.49-3.587 1.63-0.293 0.01-0.569 0.04-0.849 0.07-0.313-0.04-0.617-0.07-0.915-0.08-0.298 0.01-0.59-0.12-0.877-0.17-0.289-0.06-0.579-0.1-0.799-0.25-0.98-0.4-1.68-0.92-2.558-1.95-0.868-1.01-1.825-2.4-2.994-4.07-1.197-1.63-2.653-3.57-4.906-5.35-0.602-0.43-1.196-0.85-1.835-1.23-0.683-0.35-1.379-0.69-2.083-1-1.448-0.5-2.972-0.9-4.409-0.97l-1.097-0.09c-0.366-0.02-0.732 0.02-1.098 0.04-0.738 0.05-1.459 0.07-2.205 0.21-0.754 0.17-1.508 0.36-2.25 0.57-0.729 0.25-1.435 0.6-2.14 0.92-2.762 1.43-4.686 3.49-6.129 5.2-1.434 1.75-2.47 3.32-3.429 4.48-0.936 1.2-1.673 1.86-2.416 2.26-0.17 0.16-0.395 0.19-0.602 0.27-0.104 0.04-0.208 0.09-0.313 0.14-0.116 0.03-0.253 0.03-0.379 0.06-0.256 0.02-0.514 0.12-0.778 0.13-0.262-0.01-0.526-0.01-0.797 0.01-0.988-0.09-1.814-0.31-2.834-1.04-1.008-0.72-2.119-1.93-3.361-3.39-1.259-1.47-2.687-3.2-4.702-4.79-1.984-1.61-4.709-2.84-7.397-3.15-0.659-0.05-1.319-0.09-1.975-0.11s-1.312 0.09-1.964 0.15c-0.327 0.04-0.65 0.07-0.976 0.13l-0.987 0.27c-0.655 0.19-1.314 0.35-1.92 0.67-2.528 1.08-4.496 2.9-5.907 4.58-1.421 1.7-2.5 3.33-3.57 4.68-1.063 1.36-2.086 2.42-3.186 3.07-0.286 0.14-0.556 0.31-0.85 0.44-0.309 0.09-0.616 0.19-0.924 0.3-0.32 0.09-0.679 0.09-1.019 0.16-0.172 0.01-0.345 0.06-0.52 0.06l-0.523-0.02c-1.426 0.01-2.667-0.32-3.89-1.14-1.236-0.79-2.437-2.02-3.682-3.43-1.252-1.4-2.555-2.99-4.226-4.44-1.633-1.46-3.849-2.67-6.147-3.05-0.571-0.16-1.14-0.18-1.708-0.2-0.567 0-1.132-0.09-1.694 0.02l-1.676 0.21c-0.552 0.14-1.101 0.32-1.645 0.48-2.166 0.79-3.957 2.24-5.326 3.79-1.387 1.55-2.47 3.19-3.587 4.71-1.106 1.52-2.276 2.92-3.728 3.94-1.442 1.02-3.178 1.57-5.02 1.72v1.16" fill="#00ccbe"/><path d="m532.53 1233.4c-2.015-0.06-4.129 0.33-5.968 1.35-1.845 1.01-3.347 2.47-4.677 3.92-1.323 1.46-2.537 2.94-3.857 4.13-1.314 1.21-2.733 2.08-4.255 2.46l-1.159 0.22-1.207 0.02c-0.398 0.05-0.794-0.08-1.188-0.11-0.394-0.05-0.789-0.09-1.142-0.24-1.478-0.4-2.727-1.22-3.862-2.43-1.145-1.19-2.182-2.69-3.352-4.28-1.174-1.58-2.493-3.32-4.377-4.82-0.499-0.34-0.987-0.71-1.512-1.03-0.557-0.28-1.123-0.56-1.694-0.82-1.185-0.41-2.416-0.78-3.63-0.85l-0.918-0.09c-0.306-0.03-0.613 0.01-0.921 0.01-0.617 0.04-1.232 0.03-1.854 0.14-0.625 0.13-1.252 0.27-1.877 0.42-0.61 0.2-1.201 0.47-1.8 0.71-2.337 1.12-4.131 2.81-5.573 4.36-1.448 1.56-2.638 3.06-3.799 4.22-1.148 1.19-2.218 1.92-3.282 2.28-0.249 0.13-0.549 0.14-0.824 0.2l-0.414 0.1c-0.146 0.01-0.309 0-0.461 0-0.309-0.01-0.613 0.06-0.918 0.01s-0.605-0.09-0.907-0.12c-1.131-0.26-2.003-0.72-2.97-1.59-0.965-0.87-1.963-2.17-3.098-3.72-1.151-1.55-2.469-3.38-4.441-5.11-0.456-0.44-1.02-0.85-1.598-1.25l-0.863-0.59-0.968-0.49c-0.653-0.32-1.305-0.65-2.011-0.83-0.691-0.19-1.409-0.45-2.098-0.54-0.69-0.09-1.386-0.17-2.085-0.24-0.697-0.06-1.399 0.01-2.104 0.04-0.353 0.02-0.701 0.03-1.059 0.08l-1.087 0.22c-0.724 0.16-1.456 0.31-2.14 0.61-2.848 1.04-5.145 2.93-6.77 4.6-1.622 1.71-2.854 3.26-3.939 4.43-1.063 1.2-1.958 1.88-2.635 2.22-0.18 0.05-0.334 0.16-0.511 0.23-0.192 0.02-0.371 0.07-0.55 0.15-0.198 0.05-0.45 0.03-0.669 0.07-0.228 0.06-0.458 0.03-0.687 0.02-0.97-0.03-1.541-0.12-2.397-0.66-0.866-0.5-1.93-1.52-3.151-2.88-1.253-1.33-2.637-3.03-4.585-4.66-0.521-0.4-1.041-0.8-1.573-1.19-0.599-0.36-1.205-0.71-1.812-1.05-0.636-0.31-1.327-0.56-1.995-0.8-0.667-0.26-1.387-0.34-2.077-0.48-0.702-0.17-1.376-0.18-2.05-0.19-0.673 0.01-1.342-0.06-2.005 0.07-0.663 0.1-1.32 0.2-1.968 0.32-0.658 0.19-1.313 0.41-1.953 0.63-2.574 1.03-4.609 2.85-5.994 4.62-1.417 1.79-2.378 3.55-3.326 5.15-0.918 1.61-1.861 3.01-3.058 4.15-1.19 1.14-2.75 1.93-4.595 2.41v1.16c1.01 0.14 2.075 0.31 3.165 0.17l0.827-0.08 0.802-0.21c0.539-0.15 1.103-0.28 1.598-0.54 2.101-0.87 3.831-2.34 5.349-3.7 1.492-1.39 2.829-2.74 4.12-3.7 1.297-0.98 2.472-1.48 3.586-1.62 0.295-0.02 0.571-0.05 0.85-0.07 0.313 0.03 0.617 0.06 0.914 0.08 0.298-0.02 0.591 0.12 0.877 0.17 0.289 0.06 0.58 0.1 0.8 0.24 0.98 0.41 1.679 0.93 2.557 1.96 0.868 1.01 1.826 2.4 2.995 4.06 1.197 1.63 2.653 3.58 4.907 5.36 0.601 0.42 1.195 0.85 1.834 1.23 0.682 0.35 1.379 0.68 2.083 1 1.447 0.5 2.971 0.9 4.409 0.97l1.097 0.09c0.365 0.02 0.732-0.02 1.098-0.04 0.737-0.06 1.459-0.08 2.205-0.22 0.753-0.16 1.508-0.35 2.25-0.56 0.729-0.26 1.435-0.6 2.139-0.92 2.763-1.44 4.687-3.49 6.129-5.2 1.435-1.76 2.471-3.33 3.429-4.49 0.936-1.19 1.673-1.85 2.417-2.26 0.17-0.15 0.395-0.18 0.602-0.27 0.104-0.04 0.208-0.08 0.313-0.13 0.115-0.04 0.253-0.04 0.378-0.06 0.257-0.03 0.515-0.13 0.778-0.13 0.263 0.01 0.527 0.01 0.798-0.01 0.987 0.08 1.815 0.31 2.834 1.04 1.008 0.72 2.118 1.93 3.36 3.39 1.259 1.46 2.688 3.2 4.703 4.79 1.984 1.6 4.709 2.84 7.397 3.15 0.658 0.05 1.318 0.08 1.975 0.11 0.656 0.01 1.311-0.1 1.964-0.16 0.326-0.04 0.649-0.06 0.976-0.12l0.987-0.27c0.654-0.19 1.314-0.35 1.92-0.67 2.527-1.09 4.495-2.9 5.907-4.58 1.421-1.7 2.5-3.33 3.569-4.69 1.064-1.36 2.087-2.41 3.186-3.07 0.287-0.13 0.557-0.31 0.851-0.44 0.309-0.08 0.615-0.18 0.924-0.29 0.319-0.09 0.679-0.09 1.018-0.16 0.173-0.02 0.346-0.07 0.52-0.07l0.524 0.02c1.426 0 2.667 0.33 3.89 1.15 1.236 0.78 2.438 2.02 3.682 3.42 1.252 1.4 2.555 2.99 4.225 4.44 1.634 1.47 3.85 2.68 6.148 3.06 0.571 0.15 1.139 0.17 1.707 0.19 0.568 0.01 1.133 0.09 1.695-0.01l1.675-0.21c0.553-0.15 1.102-0.32 1.645-0.49 2.166-0.78 3.958-2.23 5.327-3.78 1.387-1.55 2.47-3.19 3.586-4.71 1.107-1.52 2.277-2.93 3.729-3.94 1.442-1.03 3.179-1.57 5.02-1.73v-1.16" fill="#ff5776"/><path d="m2188.9 669.86c2.02 0.068 4.13-0.326 5.97-1.349 1.84-1.004 3.35-2.469 4.68-3.92 1.32-1.456 2.53-2.936 3.85-4.136s2.74-2.07 4.26-2.45l1.16-0.22 1.2-0.02c0.4-0.05 0.8 0.07 1.19 0.11 0.4 0.05 0.79 0.09 1.14 0.24 1.48 0.4 2.73 1.22 3.87 2.43 1.14 1.19 2.18 2.69 3.35 4.279 1.17 1.584 2.49 3.321 4.38 4.815 0.49 0.348 0.98 0.712 1.51 1.032 0.55 0.283 1.12 0.56 1.69 0.825 1.19 0.407 2.42 0.774 3.63 0.845l0.92 0.096c0.31 0.022 0.61-0.011 0.92-0.018 0.62-0.039 1.23-0.03 1.85-0.133 0.63-0.129 1.26-0.27 1.88-0.422 0.61-0.196 1.2-0.465 1.8-0.712 2.34-1.119 4.13-2.805 5.57-4.356 1.45-1.565 2.64-3.061 3.8-4.221 1.15-1.19 2.22-1.93 3.29-2.28 0.24-0.14 0.54-0.14 0.82-0.2l0.41-0.1c0.15-0.01 0.31 0 0.46-0.01 0.31 0.02 0.62-0.05 0.92-0.01 0.31 0.06 0.61 0.1 0.91 0.12 1.13 0.27 2 0.73 2.97 1.6 0.96 0.87 1.96 2.17 3.1 3.716 1.15 1.553 2.47 3.381 4.44 5.115 0.45 0.44 1.02 0.845 1.6 1.243l0.86 0.591 0.97 0.494c0.65 0.319 1.3 0.652 2.01 0.831 0.69 0.191 1.41 0.451 2.1 0.54 0.69 0.093 1.38 0.172 2.08 0.24 0.7 0.056 1.4-0.014 2.11-0.038 0.35-0.023 0.7-0.028 1.05-0.079l1.09-0.223c0.73-0.163 1.46-0.305 2.14-0.615 2.85-1.035 5.15-2.926 6.77-4.596 1.62-1.709 2.86-3.263 3.94-4.427 1.06-1.202 1.96-1.882 2.64-2.222 0.18-0.06 0.33-0.16 0.51-0.23 0.19-0.02 0.37-0.07 0.55-0.15 0.19-0.05 0.45-0.03 0.67-0.07 0.22-0.06 0.45-0.03 0.68-0.02 0.97 0.03 1.54 0.12 2.4 0.66 0.87 0.5 1.93 1.521 3.15 2.881 1.25 1.333 2.64 3.025 4.59 4.659 0.52 0.404 1.04 0.801 1.57 1.185 0.6 0.364 1.2 0.715 1.81 1.051 0.64 0.307 1.33 0.559 2 0.804 0.66 0.259 1.38 0.335 2.07 0.484 0.7 0.162 1.38 0.174 2.05 0.182 0.68-7e-3 1.34 0.064 2.01-0.07 0.66-0.094 1.32-0.2 1.97-0.315 0.65-0.189 1.31-0.413 1.95-0.636 2.57-1.024 4.61-2.842 5.99-4.615 1.42-1.787 2.38-3.554 3.33-5.15 0.92-1.61 1.86-3.01 3.06-4.15 1.19-1.14 2.75-1.93 4.59-2.42v-1.15c-1.01-0.14-2.07-0.31-3.16-0.17l-0.83 0.08-0.8 0.21c-0.54 0.15-1.11 0.28-1.6 0.54-2.1 0.87-3.83 2.34-5.35 3.7-1.49 1.39-2.83 2.74-4.12 3.7-1.3 0.974-2.47 1.479-3.59 1.623-0.29 0.011-0.57 0.044-0.85 0.071-0.31-0.039-0.61-0.068-0.91-0.085-0.3 0.017-0.59-0.119-0.88-0.167-0.29-0.059-0.58-0.103-0.8-0.245-0.98-0.404-1.68-0.927-2.55-1.957-0.87-1.01-1.83-2.4-3-4.06-1.2-1.63-2.65-3.58-4.9-5.36-0.61-0.42-1.2-0.85-1.84-1.23-0.68-0.35-1.38-0.68-2.08-1-1.45-0.5-2.97-0.9-4.41-0.97l-1.1-0.09c-0.36-0.02-0.73 0.02-1.1 0.04-0.73 0.06-1.46 0.08-2.2 0.21-0.75 0.17-1.51 0.36-2.25 0.57-0.73 0.26-1.44 0.6-2.14 0.92-2.76 1.44-4.69 3.49-6.13 5.2-1.43 1.75-2.47 3.33-3.43 4.49-0.93 1.19-1.67 1.85-2.42 2.26-0.17 0.15-0.39 0.18-0.6 0.26-0.1 0.04-0.21 0.09-0.31 0.14-0.12 0.04-0.25 0.04-0.38 0.06-0.25 0.03-0.51 0.126-0.78 0.129-0.26-9e-3 -0.52-6e-3 -0.79 0.01-0.99-0.083-1.82-0.309-2.84-1.039-1.01-0.72-2.12-1.93-3.36-3.39-1.26-1.46-2.69-3.2-4.7-4.79-1.99-1.6-4.71-2.84-7.4-3.15-0.66-0.05-1.32-0.08-1.97-0.11-0.66-0.01-1.32 0.1-1.97 0.16-0.32 0.04-0.65 0.06-0.97 0.12l-0.99 0.27c-0.65 0.19-1.31 0.35-1.92 0.67-2.53 1.09-4.5 2.9-5.91 4.58-1.42 1.7-2.5 3.33-3.57 4.69-1.06 1.36-2.08 2.41-3.18 3.068-0.29 0.132-0.56 0.308-0.85 0.438-0.31 0.087-0.62 0.186-0.93 0.296-0.32 0.089-0.68 0.092-1.02 0.155-0.17 0.019-0.34 0.07-0.52 0.068l-0.52-0.021c-1.43 4e-3 -2.67-0.322-3.89-1.14-1.24-0.788-2.44-2.024-3.68-3.424-1.25-1.4-2.56-2.99-4.23-4.44-1.63-1.47-3.85-2.68-6.14-3.06-0.58-0.15-1.14-0.17-1.71-0.19-0.57-0.01-1.13-0.09-1.7 0.01l-1.67 0.21c-0.55 0.15-1.1 0.32-1.65 0.49-2.16 0.78-3.95 2.23-5.32 3.78-1.39 1.55-2.47 3.19-3.59 4.71-1.11 1.519-2.28 2.923-3.73 3.939-1.44 1.026-3.18 1.575-5.02 1.728v1.158" fill="#ffb149"/><path d="m2336.9 612.73c-2.01-0.07-4.13 0.32-5.97 1.35-1.84 1-3.34 2.46-4.67 3.92s-2.54 2.93-3.86 4.13c-1.31 1.2-2.73 2.07-4.26 2.46l-1.15 0.21-1.21 0.02c-0.4 0.05-0.8-0.07-1.19-0.11s-0.79-0.08-1.14-0.23c-1.48-0.41-2.73-1.22-3.86-2.43-1.15-1.2-2.19-2.69-3.36-4.29-1.17-1.58-2.49-3.32-4.37-4.81-0.5-0.35-0.99-0.71-1.51-1.03-0.56-0.29-1.13-0.56-1.7-0.83-1.18-0.41-2.41-0.77-3.63-0.84l-0.92-0.1c-0.3-0.02-0.61 0.01-0.92 0.02-0.61 0.04-1.23 0.03-1.85 0.13-0.63 0.13-1.25 0.27-1.88 0.42-0.61 0.2-1.2 0.47-1.8 0.71-2.34 1.12-4.13 2.81-5.57 4.36-1.45 1.57-2.64 3.06-3.8 4.23-1.15 1.18-2.22 1.92-3.28 2.27-0.25 0.14-0.55 0.14-0.83 0.21l-0.41 0.09c-0.15 0.02-0.31 0-0.46 0.01-0.31-0.01-0.62 0.05-0.92 0.01-0.3-0.05-0.6-0.1-0.91-0.12-1.13-0.27-2-0.73-2.97-1.6-0.96-0.87-1.96-2.17-3.09-3.71-1.16-1.56-2.47-3.38-4.45-5.12-0.45-0.44-1.01-0.84-1.59-1.24l-0.87-0.59-0.96-0.5c-0.66-0.32-1.31-0.65-2.02-0.83-0.69-0.19-1.4-0.45-2.09-0.54s-1.39-0.17-2.09-0.24c-0.7-0.05-1.4 0.02-2.1 0.04-0.35 0.02-0.7 0.03-1.06 0.08l-1.09 0.22c-0.72 0.16-1.45 0.31-2.14 0.62-2.85 1.03-5.14 2.92-6.77 4.59-1.62 1.71-2.85 3.27-3.94 4.43-1.06 1.2-1.96 1.88-2.63 2.22-0.18 0.06-0.34 0.17-0.51 0.23-0.19 0.02-0.37 0.08-0.55 0.15-0.2 0.05-0.45 0.03-0.67 0.07-0.23 0.06-0.46 0.03-0.69 0.02-0.97-0.03-1.54-0.12-2.4-0.65-0.86-0.5-1.93-1.53-3.15-2.89-1.25-1.33-2.63-3.02-4.58-4.66-0.52-0.4-1.04-0.8-1.58-1.18-0.59-0.37-1.2-0.72-1.81-1.05-0.63-0.31-1.32-0.56-1.99-0.81-0.67-0.26-1.39-0.33-2.08-0.48-0.7-0.16-1.38-0.18-2.05-0.18s-1.34-0.07-2 0.07c-0.67 0.09-1.32 0.2-1.97 0.31-0.66 0.19-1.32 0.41-1.95 0.64-2.58 1.02-4.61 2.84-6 4.61-1.42 1.79-2.38 3.56-3.33 5.15-0.91 1.61-1.86 3.01-3.05 4.15s-2.75 1.93-4.6 2.42v1.15c1.01 0.14 2.08 0.32 3.17 0.17l0.82-0.08 0.81-0.21c0.53-0.14 1.1-0.28 1.59-0.53 2.1-0.88 3.83-2.35 5.35-3.71 1.5-1.39 2.83-2.73 4.12-3.7 1.3-0.97 2.47-1.48 3.59-1.62 0.29-0.01 0.57-0.04 0.85-0.07 0.31 0.04 0.62 0.07 0.91 0.08 0.3-0.01 0.59 0.12 0.88 0.17 0.29 0.06 0.58 0.1 0.8 0.25 0.98 0.4 1.68 0.92 2.56 1.95 0.87 1.01 1.82 2.4 2.99 4.06 1.2 1.63 2.65 3.58 4.91 5.36 0.6 0.42 1.19 0.85 1.83 1.23 0.68 0.35 1.38 0.69 2.09 1 1.44 0.5 2.97 0.9 4.4 0.97l1.1 0.09c0.37 0.02 0.73-0.02 1.1-0.04 0.74-0.06 1.46-0.08 2.2-0.21 0.76-0.17 1.51-0.36 2.25-0.57 0.73-0.26 1.44-0.6 2.14-0.92 2.77-1.43 4.69-3.49 6.13-5.2 1.44-1.75 2.47-3.33 3.43-4.48 0.94-1.2 1.68-1.86 2.42-2.26 0.17-0.16 0.39-0.19 0.6-0.27 0.1-0.04 0.21-0.09 0.31-0.14 0.12-0.03 0.26-0.03 0.38-0.06 0.26-0.02 0.52-0.12 0.78-0.13 0.26 0.01 0.53 0.01 0.8-0.01 0.99 0.09 1.81 0.31 2.83 1.04 1.01 0.72 2.12 1.93 3.36 3.39 1.26 1.47 2.69 3.2 4.7 4.79 1.99 1.6 4.71 2.84 7.4 3.15 0.66 0.05 1.32 0.09 1.98 0.11 0.65 0.02 1.31-0.1 1.96-0.15 0.33-0.04 0.65-0.07 0.98-0.13l0.98-0.27c0.66-0.19 1.32-0.35 1.92-0.67 2.53-1.08 4.5-2.9 5.91-4.58 1.42-1.7 2.5-3.33 3.57-4.68 1.06-1.37 2.09-2.42 3.19-3.08 0.28-0.13 0.55-0.3 0.85-0.43 0.31-0.09 0.61-0.19 0.92-0.3 0.32-0.09 0.68-0.09 1.02-0.16 0.17-0.01 0.35-0.07 0.52-0.06l0.52 0.02c1.43-0.01 2.67 0.32 3.89 1.14 1.24 0.79 2.44 2.02 3.68 3.42 1.26 1.41 2.56 3 4.23 4.45 1.63 1.46 3.85 2.67 6.15 3.05 0.57 0.16 1.14 0.18 1.7 0.19 0.57 0.01 1.14 0.1 1.7-0.01l1.68-0.21c0.55-0.14 1.1-0.32 1.64-0.48 2.17-0.79 3.96-2.24 5.33-3.79 1.38-1.55 2.47-3.19 3.58-4.71s2.28-2.92 3.73-3.94c1.44-1.02 3.18-1.57 5.02-1.72v-1.16" fill="#ff5776"/><path d="m2226.2 1036.5-21.23 21.23 21.23 21.22 21.23-21.22-21.23-21.23" fill="#ff5776"/><path d="m1087.3 480.9-21.23 21.23 21.23 21.23 21.23-21.23-21.23-21.23" fill="#ffb149"/><path d="m281.32 1089.9-21.23 21.23 21.23 21.23 21.23-21.23-21.23-21.23" fill="#ffb149"/><path d="m1756.3 1149.6s-21 45-74 41l-6.08-21.96s33.08 14.96 78.08-24.04l2 5" fill="#fff"/><path d="m1682.9 1193c1.09 0.16 2 0.22 2.98 0.28 0.96 0.05 1.92 0.07 2.88 0.08 1.91 0 3.81-0.09 5.7-0.24 3.78-0.32 7.51-0.94 11.17-1.84 7.32-1.81 14.34-4.72 20.71-8.63 3.17-1.98 6.25-4.09 9.07-6.51 0.74-0.58 1.43-1.2 2.11-1.82 0.69-0.63 1.39-1.24 2.06-1.88 1.29-1.33 2.66-2.59 3.87-3.99 4.99-5.47 9.27-11.51 12.89-17.9-3.98 6.17-8.58 11.93-13.79 17.03-1.27 1.31-2.68 2.47-4.02 3.7-0.69 0.59-1.42 1.15-2.12 1.72-0.7 0.58-1.41 1.15-2.15 1.66-2.89 2.21-6 4.09-9.16 5.82-6.36 3.43-13.23 5.81-20.26 7.13-3.52 0.66-7.07 1.04-10.63 1.15-1.77 0.04-3.55 0.01-5.31-0.09-0.88-0.05-1.76-0.12-2.62-0.22-0.85-0.09-1.77-0.22-2.49-0.36l-0.07-0.02c-1.35-0.27-2.67 0.62-2.94 1.97-0.26 1.36 0.62 2.67 1.97 2.94 0.05 0.01 0.1 0.02 0.15 0.02" fill="#ff5776"/><path d="m1703.3 1093.1h-9.83c-3.12 0-5.67 2.54-5.67 5.66v41.84h3v-41.84c0-1.47 1.2-2.66 2.67-2.66h9.83v-3" fill="#000061"/><path d="m1748.8 1153.1s-11-1-12-13 8-17 16-10 8 19 8 19-1 9-12 4" fill="#000061"/><path d="m1291.3 365.59 205 19 6-71-206-5-5 57" fill="#ffb149"/><path d="m2023.8 294.09-19 158.85 71 4.65 5-159.63-57-3.87" fill="#ffb149"/><path d="m1431.3 252.59s10-23 1-42h-182v21s70 0 109 21c0 0 44-13 72 0" fill="#000061"/><path d="m1380.5 204.81-0.06 11 51.85 0.28 0.06-11-51.85-0.28" fill="#000061"/><path d="m1398.6 278.58c-30.8 0-55.82 8.16-57.38 8.68l2.21 6.65c0.56-0.19 56.39-18.36 102.61-0.07l2.57-6.51c-16.58-6.56-34.07-8.75-50.01-8.75" fill="#fff"/><g fill="#ff5776"><path d="m1610.3 847.84c-36.37-6.24-61.95-9.25-61.95-9.25-12.69-0.36-29.98 1.23-49.83 4.09 2.28 23.45 26.63 41.91 56.33 41.91 27.48 0 50.39-15.81 55.45-36.75"/><path d="m1598.8 787.18c-31.58-3.23-51.51 4.4-51.51 4.4-5.13 5.13-9.93 12.64-14.39 21.77 12.14 7.78 27.09 9.841 40.6 4.21 13.06-5.43 21.98-16.89 25.3-30.38"/><path d="m1915.9 1320.7-3.19 3.85 92 76 3.19-3.85-92-76"/><path d="m1956.4 1323.2-3.23 3.81 45.5 38.5 3.23-3.81-45.5-38.5"/><path d="m186.92 347.66-3.184 3.85 92 76 3.184-3.85-92-76"/><path d="m227.44 350.18-3.23 3.81 45.5 38.5 3.23-3.81-45.5-38.5"/></g><g fill="#000061"><path d="m1512.2 640.59c-12.71 14.6-17.23 33.377-13.78 50.276 3.25 15.913 23.48 21.068 34.14 8.819l40.98-47.075c10.66-12.25 2.77-31.57-13.44-32.59-17.22-1.09-35.19 5.97-47.9 20.57"/><path d="m1517.5 665.23c-35.8 41.709-84.68 68.539-145.29 79.745-46.07 8.518-81.94 4.3-82.3 4.257l-4.2 33.739c1.63 0.206 40.53 4.897 91.51-4.348 67.99-12.331 125.42-43.883 166.08-91.249l-25.8-22.144"/><path d="m1194.6 927.84c6.47-6.05 12.67-12.261 18.77-18.53 3.07-3.118 6.05-6.297 9.07-9.446l8.91-9.538c5.85-6.411 11.76-12.793 17.39-19.327 5.68-6.513 11.09-13.18 16.55-19.816 2.71-3.33 5.68-6.509 8.78-9.616 3.1-3.105 6.32-6.139 9.32-9.304 2.99-3.169 5.68-6.512 7.85-10.153 2.18-3.635 3.87-7.56 5.18-11.699 2.59-8.299 4.22-17.158 4.52-26.784 0.17-4.802-0.05-9.832-0.66-15.082-0.34-2.646-0.73-5.323-1.32-8.118-0.28-1.384-0.62-2.811-0.99-4.248l-0.64-2.207-0.32-1.107-0.39-1.145-5.63-3.258-1.19 0.23-1.12 0.27-2.23 0.545c-1.43 0.397-2.84 0.805-4.18 1.256-2.72 0.874-5.23 1.866-7.7 2.89-4.85 2.087-9.33 4.395-13.41 6.932-8.2 5.051-15.07 10.868-20.98 17.246-2.94 3.199-5.51 6.614-7.57 10.317-2.08 3.696-3.64 7.692-4.9 11.861-1.26 4.173-2.29 8.478-3.44 12.711-1.15 4.232-2.43 8.391-3.97 12.399-3.04 8.041-6.13 16.051-8.96 24.214-2.86 8.143-5.46 16.438-8.11 24.703l-3.84 12.477c-1.23 4.189-2.51 8.35-3.68 12.569-2.4 8.408-4.71 16.874-6.74 25.5l5.63 3.258"/></g><path d="m1258.8 955.04-48.27 34.474-53.9-4.595-24.85-46.177 5.46-16.176 16.78-8.612 5.68-12.109 29.19-13.991c4.34-2.08 9.36-2.225 13.81-0.4l10.42 4.274c4.79 1.961 6.61 2.723 7.75 7.766l-7.9 10.13 7.9 6.656 3.51-5.309s5.87-23.923 37.91-15.384l-3.49 59.453" fill="#ffb149"/><path d="m1537.3 1004.6 10.03 46.67c0.33 1.57 0.29 3.19-0.12 4.74l-5.56 20.9c-0.64 2.37-2.37 4.3-4.66 5.18l-1.09 0.41c-2.4 0.92-5.11 0.41-7.01-1.32l-2.9-2.64c-1.59-1.45-2.5-3.51-2.5-5.66v-17.09s-18.61-1.66-13.08-25.3l7.18-32.186 19.71 6.296" fill="#ffb149"/><path d="m966.71 802.1-119.95-13.11c-5.5-0.6-8.44 6.3-4.19 9.85l37.4 31.21 53.96 45.03 32.78-72.98" fill="#fff"/><path d="m894.45 794.2-47.69-5.211c-5.5-0.6-8.44 6.3-4.19 9.85l37.4 31.21 14.48-35.849" fill="#ff5776"/><path d="m2246.3 909.6c-57.82-56.164-97.2-130.48-111.92-209.69-14.77-79.462-3.28-162.14 31.05-235.19 19.41-41.29 45.97-79.11 78.41-111.2 1.38-1.36 3.5 0.76 2.12 2.12-57.08 56.45-95.49 130.76-109.36 209.79-13.88 79.1-1.48 161.37 33.56 233.52 19.6 40.373 46.06 77.249 78.26 108.53 1.38 1.347-0.74 3.468-2.12 2.121" fill="#fff"/><g fill="#000061"><path d="m2000.9 224.58h-600.24v7h600.24v-7"/><path d="m1173.1 224.58h-852.9v7h852.9v-7"/><path d="m1559.3 928.08c-0.06 0-0.12 4e-3 -0.18 0.011l-184.83 22.165 0.36 2.978 184.43-22.117 156.81 67.285 1.18-2.757-157.17-67.443c-0.19-0.081-0.39-0.122-0.6-0.122"/><path d="m1545.5 837.13c-46.98 0-272.36 37.913-282.4 39.606l0.5 2.958c2.58-0.434 257.86-43.394 287.11-39.305l132.29 19.489 0.43-2.968-132.29-19.49c-1.41-0.197-3.31-0.29-5.64-0.29"/><path d="m1646 740.04c-22.16 45.154-12.96 95.753-12.86 96.258l2.94-0.556c-0.09-0.496-9.09-50.145 12.61-94.38l-2.69-1.322"/></g><path d="m1661.8 440.16-7 0.15 3.77 176.53 7-0.15-3.77-176.53" fill="#fff"/><path d="m1802.5 593.52c-10.16 0-19.53 1.8-28 5.39-17.58 7.45-29.36 24.73-30 44.03l-1.71 51.919 6.99 0.232 1.72-51.921c0.55-16.58 10.65-31.42 25.73-37.81 11.54-4.89 25.07-6.08 40.22-3.53l1.17-6.9c-5.57-0.94-10.95-1.41-16.12-1.41" fill="#ffb149"/><g fill="#000061"><path d="m441.16 228.08h-53.954v8.83h53.954v-8.83"/><path d="m872.72 228.08h-53.954v8.83h53.954v-8.83"/><path d="m665.72 401.54h-53.953v8.84h53.953v-8.84"/><path d="m655.75 228.08h-34.019v8.83h34.019v-8.83"/><path d="m517.32 475.95-2.737 17.79 343.78 52.89 2.738-17.79-343.78-52.89"/><path d="m627.63 509.14-2.689 17.8 138.27 20.9 2.689-17.8-138.27-20.9"/><path d="m530.27 981.76-5.17 33.601 104.57 16.09 5.17-33.604-104.57-16.087"/><path d="m601.92 1023.2c0-13.44-10.896-24.335-24.338-24.335-13.441 0-24.337 10.895-24.337 24.335s10.896 24.34 24.337 24.34c13.442 0 24.338-10.9 24.338-24.34"/></g><path d="m774.18 655.8c0-23.43-18.996-42.43-42.429-42.43s-42.429 19-42.429 42.43c0 23.436 18.996 42.432 42.429 42.432s42.429-18.996 42.429-42.432" fill="#ffb149"/><path d="m492.97 835.39 69.426-19.939-29.129 92.21z" fill="#ff5776"/><g fill="#fff"><path d="m2143.1 581.55c0-5.96-4.84-10.8-10.8-10.8-5.97 0-10.8 4.84-10.8 10.8 0 5.97 4.83 10.81 10.8 10.81 5.96 0 10.8-4.84 10.8-10.81"/><path d="m1691.6 1052.2c-2.72 0-4.32 0.67-4.57 0.78l1.62 3.66c0.22-0.09 21.42-8.07 50.19 52.72l3.62-1.71c-23.22-49.06-42.43-55.45-50.86-55.45"/><path d="m1680.4 1207.3c-0.54 0.42-13.1 10.53-1.99 37.59l3.7-1.52c-9.97-24.27 0.63-32.82 0.73-32.91l-2.44-3.16"/><path d="m1808.3 1152.7c-16.09 5.77-29.42 1.37-29.55 1.33l-1.29 3.78c0.59 0.21 14.79 4.89 32.19-1.34l-1.35-3.77"/></g><g fill="#000061"><path d="m1495.6 936.65-14.33 52.537c-0.1 0.388-0.05 0.802 0.15 1.15 0.2 0.347 0.54 0.599 0.93 0.698l62.73 15.961c0.58 0.14 1.2-0.07 1.56-0.54l47.28-61.61-2.38-1.826-46.67 60.816-60.3-15.332 13.92-51.065-2.89-0.789"/><path d="m1589.6 785.3c-23.1 0-42.32 4.758-42.62 4.836-5.82 1.634-17.14 19.905-29.22 40.111-2.78 4.661-5.41 9.062-5.99 9.665 0.01-5e-3 0.1-0.097 0.26-0.184l1.39 2.661c0.76-0.398 1.41-1.389 6.92-10.602 7.24-12.113 22.31-37.318 27.41-38.752 0.45-0.116 49.32-12.203 84.27 2.634l1.18-2.761c-13.68-5.805-29.38-7.607-43.6-7.608"/><path d="m1775.9 883.24-1.33 2.686c0.7 0.353 70.8 35.713 74.23 77.501l2.99-0.245c-1.5-18.322-14.77-37.363-39.43-56.595-18.23-14.217-36.28-23.257-36.46-23.347"/><path d="m1851.8 971.04-2.96 0.517c0.01 0.035 0.66 4.103-1.08 10.644-5.5 17.618-18.84 37.932-39.76 41.912-21.6 3.09-41.13-6.05-55.72-14.37l-1.49 2.61c15.01 8.55 35.14 17.94 57.71 14.72 22.28-4.24 36.37-25.53 42.15-44.041 1.93-7.299 1.18-11.803 1.15-11.992"/><path d="m1499.8 1018.4c-0.25 28.05 17 36.5 22.01 38.36-1.7 10.15-0.74 17.8 2.85 22.76 3.09 4.27 7.03 4.85 7.2 4.87l0.41-2.97c-0.12-0.02-2.93-0.48-5.25-3.75-2.19-3.08-4.32-9.34-2.03-21.65 0.15-0.79-0.35-1.55-1.12-1.73-0.87-0.22-21.34-5.68-21.07-35.86l-3-0.03"/></g><g fill="#fff"><path d="m1315.4 461.5c-3.31 0-6.53 0.93-9.31 2.69l2.13 3.38c2.15-1.35 4.63-2.07 7.18-2.07 7.42 0 13.46 6.04 13.46 13.46 0 7.43-6.04 13.47-13.46 13.47-5.43 0-10.3-3.23-12.41-8.23l-3.68 1.56c2.74 6.48 9.05 10.67 16.09 10.67 9.63 0 17.46-7.84 17.46-17.47s-7.83-17.46-17.46-17.46"/><path d="m1433.8 423.74c-6.39 2.93-10.4 9.36-10.2 16.39 0.28 9.62 8.34 17.21 17.96 16.96 4.66-0.14 8.99-2.08 12.19-5.47 3.21-3.39 4.9-7.83 4.76-12.49-0.09-3.31-1.11-6.5-2.95-9.23l-3.32 2.23c1.42 2.11 2.2 4.57 2.27 7.12 0.11 3.59-1.2 7.01-3.66 9.62-2.47 2.62-5.81 4.11-9.41 4.22-3.58 0.12-7.01-1.2-9.63-3.67-2.61-2.47-4.11-5.81-4.21-9.41-0.15-5.42 2.93-10.38 7.87-12.63l-1.67-3.64"/><path d="m1678 330c-6.4 2.93-10.4 9.36-10.2 16.39 0.13 4.66 2.07 8.99 5.47 12.19 3.39 3.21 7.82 4.9 12.49 4.76 4.66-0.13 8.99-2.07 12.19-5.46s4.9-7.83 4.76-12.49c-0.09-3.31-1.11-6.5-2.95-9.23l-3.32 2.23c1.41 2.11 2.2 4.57 2.27 7.11 0.11 3.6-1.2 7.02-3.67 9.63-2.47 2.62-5.8 4.11-9.4 4.22-3.57 0.11-7.01-1.21-9.63-3.67-2.61-2.47-4.11-5.81-4.21-9.41-0.16-5.42 2.93-10.38 7.86-12.63l-1.66-3.64"/><path d="m1938.2 364.19c-0.66 0-1.32 0.04-1.99 0.12-3.28 0.37-6.38 1.66-8.94 3.72l2.5 3.12c1.98-1.59 4.36-2.58 6.89-2.87 7.38-0.84 14.06 4.48 14.9 11.86 0.41 3.57-0.6 7.09-2.84 9.9-2.24 2.82-5.44 4.59-9.02 4.99-5.38 0.62-10.59-2.04-13.25-6.77l-3.49 1.97c3.46 6.13 10.22 9.58 17.19 8.78 9.57-1.09 16.47-9.76 15.38-19.32-1.01-8.9-8.58-15.5-17.33-15.5"/><path d="m1396.2 530.36c-2.94 0-5.82 0.73-8.4 2.15l1.93 3.51c2.22-1.22 4.74-1.79 7.28-1.64 3.59 0.21 6.88 1.81 9.27 4.5s3.59 6.15 3.37 9.74c-0.44 7.41-6.86 13.07-14.23 12.64-5.42-0.32-10.09-3.83-11.9-8.95l-3.77 1.34c2.35 6.63 8.41 11.18 15.43 11.6 4.64 0.28 9.14-1.28 12.63-4.37 3.49-3.1 5.56-7.37 5.84-12.02 0.27-4.66-1.28-9.15-4.38-12.63-3.09-3.49-7.36-5.57-12.02-5.84-0.35-0.02-0.7-0.03-1.05-0.03"/><path d="m1330.4 602.45c-2.94-0.01-5.82 0.73-8.4 2.15l1.93 3.51c2.22-1.23 4.74-1.79 7.29-1.64 3.59 0.21 6.88 1.81 9.26 4.5 2.39 2.69 3.59 6.15 3.38 9.74-0.44 7.41-6.87 13.07-14.24 12.64-5.42-0.33-10.08-3.84-11.9-8.95l-3.77 1.34c2.35 6.63 8.41 11.18 15.43 11.6 4.64 0.28 9.14-1.28 12.63-4.37 3.49-3.1 5.56-7.37 5.84-12.03 0.28-4.65-1.28-9.14-4.37-12.63-3.1-3.48-7.37-5.56-12.03-5.83-0.35-0.02-0.7-0.03-1.05-0.03"/><path d="m1445.4 654.48c-1.6 0-3.2 0.22-4.77 0.66-3.18 0.9-6.03 2.67-8.23 5.11l2.97 2.68c1.7-1.89 3.89-3.25 6.34-3.94 7.15-2.02 14.6 2.16 16.62 9.3 2.01 7.145-2.16 14.597-9.3 16.614-5.23 1.472-10.79-0.311-14.18-4.545l-3.12 2.5c4.4 5.491 11.61 7.805 18.38 5.894 9.27-2.615 14.68-12.282 12.07-21.549-1.27-4.484-4.21-8.214-8.28-10.494-2.64-1.48-5.56-2.23-8.5-2.23"/><path d="m1550.3 540.65c-2.94 0-5.83 0.74-8.4 2.16l1.93 3.5c2.22-1.22 4.73-1.79 7.28-1.64 3.59 0.22 6.88 1.81 9.27 4.5s3.59 6.15 3.37 9.74c-0.44 7.41-6.86 13.08-14.24 12.64-5.41-0.32-10.08-3.83-11.89-8.94l-3.77 1.33c2.35 6.63 8.41 11.19 15.43 11.6 9.61 0.59 17.89-6.78 18.46-16.39 0.28-4.66-1.27-9.14-4.37-12.63s-7.36-5.56-12.02-5.84c-0.35-0.02-0.7-0.03-1.05-0.03"/><path d="m1818.5 525.76c-2.66 0-5.3 0.61-7.76 1.83-4.17 2.08-7.29 5.66-8.78 10.08-1.48 4.42-1.15 9.16 0.92 13.34 1.48 2.96 3.74 5.42 6.55 7.13l2.08-3.41c-2.16-1.32-3.91-3.22-5.04-5.51-1.61-3.21-1.86-6.87-0.71-10.27 1.14-3.41 3.54-6.17 6.76-7.77 6.65-3.31 14.75-0.59 18.05 6.05 2.42 4.86 1.7 10.66-1.83 14.77l3.03 2.61c4.58-5.34 5.52-12.86 2.38-19.16-2.07-4.18-5.65-7.29-10.07-8.78-1.83-0.61-3.71-0.91-5.58-0.91"/><path d="m1630.5 623.55c-2.94 0-5.83 0.74-8.41 2.16l1.93 3.51c2.22-1.23 4.74-1.79 7.29-1.64 3.59 0.21 6.88 1.81 9.26 4.5 2.39 2.69 3.59 6.15 3.38 9.74-0.45 7.41-6.86 13.07-14.24 12.64-5.42-0.33-10.09-3.84-11.9-8.95l-3.77 1.34c2.35 6.63 8.41 11.18 15.43 11.6 4.64 0.28 9.14-1.28 12.63-4.37 3.49-3.1 5.56-7.37 5.84-12.03 0.28-4.65-1.28-9.14-4.37-12.63-3.1-3.48-7.37-5.56-12.03-5.83-0.35-0.03-0.69-0.04-1.04-0.04"/><path d="m1793.5 407.62c-5.87 0-11.41 2.95-14.66 8.01-5.22 8.09-2.88 18.92 5.22 24.14 8.09 5.21 18.92 2.87 24.13-5.23 1.79-2.77 2.76-5.98 2.79-9.27l-4-0.04c-0.03 2.53-0.77 5-2.15 7.15-4.02 6.24-12.37 8.04-18.61 4.02s-8.04-12.37-4.02-18.61c2.93-4.56 8.29-6.9 13.63-5.97l0.68-3.94c-1-0.18-2.01-0.26-3.01-0.26"/><path d="m1810.9 290.21c-0.52 0-1.03 0.03-1.55 0.07l0.35 3.99c2.53-0.23 5.06 0.26 7.33 1.43 6.61 3.38 9.23 11.51 5.85 18.12-3.39 6.6-11.51 9.22-18.12 5.84-4.83-2.47-7.69-7.56-7.29-12.97l-3.99-0.3c-0.52 7.02 3.19 13.62 9.45 16.83 8.57 4.39 19.12 0.99 23.51-7.58s0.99-19.12-7.58-23.5c-2.48-1.27-5.2-1.93-7.96-1.93"/><path d="m1955.7 276.62c-5.39 0-10.56 2.5-13.92 6.93-2.81 3.73-4 8.32-3.36 12.94s3.04 8.71 6.76 11.53c3.73 2.81 8.32 4.01 12.94 3.36 4.62-0.64 8.71-3.04 11.53-6.76 1.99-2.64 3.19-5.77 3.47-9.05l-3.99-0.34c-0.21 2.53-1.14 4.94-2.68 6.97-4.47 5.93-12.93 7.1-18.85 2.62-2.87-2.16-4.72-5.32-5.22-8.88s0.43-7.1 2.59-9.97c3.27-4.33 8.78-6.27 14.04-4.94l0.98-3.88c-1.42-0.36-2.86-0.53-4.29-0.53"/><path d="m1703.4 490.66c-2.94 0-5.83 0.74-8.41 2.16l1.93 3.5c2.22-1.22 4.74-1.79 7.29-1.64 7.41 0.44 13.08 6.83 12.64 14.24-0.21 3.59-1.81 6.88-4.5 9.27s-6.16 3.57-9.74 3.37c-5.41-0.32-10.08-3.83-11.9-8.94l-3.76 1.33c2.35 6.63 8.4 11.19 15.42 11.6 4.64 0.29 9.14-1.27 12.63-4.37s5.57-7.37 5.84-12.02c0.57-9.61-6.78-17.9-16.39-18.47-0.35-0.02-0.7-0.03-1.05-0.03"/></g><path d="m2027.3 454.41 7.28-64.38 24.05 66.43z" fill="#000061"/><path d="m1497.9 365.59-115.47-19 118.17-13z" fill="#000061"/><path d="m2013.4 351.53-14.09 117.74 6.96 0.83 14.08-117.74-6.95-0.83" fill="#ffe9e9"/><path d="m1372.6 369.6-0.78 6.96 132.37 14.86 0.78-6.96-132.37-14.86" fill="#fff"/><path d="m1804.3 700.22-0.94 2.846c20.53 6.843 33.23 111.17 36.4 150.79l2.99-0.238c-0.03-0.36-2.94-36.346-8.99-72.927-8.21-49.619-18.12-76.693-29.46-80.473" fill="#000061"/><path d="m1829.3 681.58v35l-166-2v-33.187l166 0.187" fill="#ffb149"/><g fill="#000061"><path d="m1615.7 506.64c-39.62 6.88-96.05 20.92-139.93 48.78-26.38 16.76-35.58 30.42-35.96 30.99l2.5 1.66c0.09-0.14 9.36-13.83 35.3-30.26 43.43-27.51 99.35-41.4 138.6-48.21l-0.51-2.96"/><path d="m1809.5 353.19-1.13 2.78 152.66 62.3 1.13-2.78-152.66-62.3"/><path d="m863.28 789.28-0.326 2.982 103.6 11.323 0.326-2.982-103.6-11.323"/><path d="m490.77 635.04-78.334 345.68c-0.092 0.406-0.012 0.832 0.222 1.176 0.235 0.344 0.601 0.575 1.013 0.638l62.642 9.638 0.456-2.965-61.052-9.393 77.978-344.12-2.925-0.66"/><path d="m849.15 536-43.395 191.5 2.925 0.662 43.395-191.5-2.925-0.66"/></g><g fill="#fff"><path d="m677.38 628.17c37.563 28.5 91.506 31.26 131.71 6.57 1.65-1.01 3.159 1.58 1.514 2.59-41.029 25.19-96.372 22.55-134.74-6.57-1.518-1.15-0.025-3.76 1.514-2.59"/><path d="m758.14 703.41c-33.895-41.021-45.15-98.481-29.02-149.23 0.583-1.83 3.48-1.05 2.893 0.8-15.789 49.67-4.97 106.11 28.248 146.31 1.221 1.478-0.89 3.612-2.121 2.121"/><path d="m499.59 896.85c11.014-29.159 25.489-56.837 43.209-82.483 1.09-1.579 3.691-0.08 2.59 1.514-17.569 25.427-31.984 52.852-42.906 81.766-0.677 1.789-3.578 1.014-2.893-0.797"/><path d="m486.87 859.65c43.181 10.193 86.669 19.032 130.4 26.507 1.899 0.325 1.093 3.216-0.798 2.893-43.733-7.475-87.22-16.314-130.4-26.507-1.878-0.443-1.083-3.337 0.798-2.893"/><path d="m501.36 813.45c38.171 23.63 76.342 47.261 114.51 70.892 1.638 1.015 0.134 3.611-1.514 2.59-38.17-23.63-76.341-47.261-114.51-70.892-1.638-1.014-0.134-3.611 1.514-2.59"/></g><path d="m625.08 742.99c8.433 2.668 19.367-2.709 19.95-11.536 0.674-10.212-11.492-18.125-10.309-28.291 0.726-6.234 6.298-10.708 11.802-13.726 7.077-3.881 16.275-6.417 22.87-1.763 7.161 5.055 7.236 15.564 5.698 24.193-1.538 8.63-3.793 18.183 0.806 25.646 5.865 9.514 19.481 10.169 30.397 7.767 6.122-1.346 12.984-3.189 18.282 0.162 5.573 3.525 6.61 11.868 3.361 17.606-3.25 5.739-9.683 9.059-16.156 10.32-6.473 1.263-13.138 0.779-19.732 0.703-8.014-0.093-16.036 0.426-23.971 1.55-1.52 0.216-3.106 0.482-4.329 1.409-2.381 1.804-2.49 5.351-1.83 8.264 3.478 15.358 21.472 26.515 19.215 42.099-0.575 3.973-2.513 7.663-5.07 10.759-9.942 12.031-28.056 14.297-43.082 10.079-8.806-2.472-18.109-8.246-19.143-17.333-0.989-8.704 5.947-16.102 8.77-24.394 3.533-10.375-1.442-24.032-12.106-26.566-1.972-0.469-3.989-0.547-6.016-0.465-2.277 0.374-4.548 0.655-6.782 0.867-7.179 1.32-14.803 0.628-21.734-0.759-9.01-2.772-15.247-12.475-9.01-20.792 5.545-6.931 15.248-6.238 20.535-12.485 1.413-2.522 1.305-5.444 0.234-8.124s-3.105-5.117-5.544-6.669c-4.878-3.102-10.867-3.705-16.554-4.741s-11.708-2.856-15.196-7.464c-3.942-5.207-3.41-12.951 0.286-18.335 3.695-5.384 9.994-8.567 16.426-9.694 13.948-2.446 28.579 5.393 35.709 17.343 7.133 11.953 6.171 29.291 22.223 34.37" fill="#00ccbe"/><g fill="#000061"><path d="m1250 892.28c-7.95 0-14.66 2.481-19.97 7.391-12.23 11.29-12.76 31.279-12.77 32.124l3 0.06c0-0.195 0.53-19.579 11.81-29.989 5.22-4.813 12-7.01 20.14-6.518l0.18-2.995c-0.81-0.049-1.61-0.073-2.39-0.073"/><path d="m1192.8 906.06-1.92 2.304c16.8 14.017 10.98 25.104 10.92 25.215l2.63 1.447c0.29-0.539 7.06-13.382-11.63-28.966"/><path d="m1219.6 893.11c-0.33 0.658-0.47 1.556-0.67 2.799-0.88 5.521-2.53 15.799-20.85 15.985l0.03 3c20.86-0.212 22.91-13.035 23.78-18.511 0.13-0.752 0.27-1.687 0.4-1.935l-2.69-1.338"/><path d="m1158.4 901.21-5.69 12.109c-0.17 0.361-0.19 0.775-0.05 1.15l12.84 35.318 2.82-1.024-12.63-34.733 5.42-11.546-2.71-1.274"/><path d="m1146.3 916.26-6.93 5.551c-2.86 2.286-5.02 5.313-6.25 8.753-1.9 5.273-1.46 11.126 1.2 16.058l1.9 3.534c1.1 2.045 2.54 3.864 4.27 5.406l21.22 18.863 1.99-2.242-21.22-18.863c-1.47-1.308-2.69-2.851-3.62-4.586l-1.9-3.534c-2.25-4.184-2.63-9.149-1.02-13.622 1.05-2.919 2.88-5.486 5.3-7.425l6.94-5.551-1.88-2.342"/><path d="m1984.8 778.99c0.1 0.34 0.19 0.676 0.28 1.016 4.9 18.988-7.24 39.51-10.77 44.931-17.76-14.234-25.99-30.817-24.47-49.31 0.95-11.527 5.6-20.353 7.36-23.321 14.96 6.182 24.24 15.154 27.6 26.684zm-11.11 49.514 1.3 1.006 0.96-1.328c0.76-1.045 18.27-25.5 12.22-48.947-0.1-0.372-0.2-0.748-0.31-1.121-3.74-12.842-14.08-22.689-30.72-29.264l-1.19-0.467-0.71 1.048c-0.3 0.433-7.29 10.794-8.56 25.792-0.53 6.288 0.05 12.111 1.43 17.475 4.14 16.049 15.47 27.972 25.58 35.806"/></g><g fill="#00ccbe"><path d="m2097.3 959.04c11.7 56.698 65.06 43.918 65.06 43.918 6.45-62.975-65.06-43.918-65.06-43.918"/><path d="m2102.8 958.47c5.43-2.519 33.24-14.432 52.16-4.13 10.05 5.476 16.09 16.401 17.95 32.48-3.83 1.61-22.53 8.68-40.88 1.793-12.55-4.691-22.34-14.831-29.23-30.143zm49.57-7.743c-8.68-3.405-19.76-3.612-32.35-0.564-10.81 2.618-18.81 6.631-19.15 6.8l-0.92 0.467 0.41 0.947c7.16 16.425 17.58 27.279 30.92 32.294 21.36 8.001 42.39-1.763 43.27-2.183l0.7-0.332-0.08-0.772c-1.83-17.274-8.28-29.04-19.17-34.97-1.16-0.629-2.37-1.192-3.63-1.687"/><path d="m2100.5 843.05c33.76 20.988 52.63-11.626 52.63-11.626-28.3-32.988-52.63 11.626-52.63 11.626"/><path d="m2104.2 844.8c2.58 0.408 15.51 2.853 19.85 11.164 2.3 4.418 1.83 9.83-1.4 16.089-1.77-0.347-10.24-2.331-15.2-9.272-3.39-4.739-4.47-10.778-3.25-17.981zm19.79 9.231c-2.31-3.335-6.26-6.099-11.55-8.052-4.54-1.678-8.4-2.171-8.56-2.191l-0.45-0.055-0.08 0.443c-1.4 7.669-0.27 14.118 3.33 19.167 5.77 8.073 15.74 9.649 16.16 9.712l0.34 0.05 0.15-0.299c3.53-6.684 4.06-12.5 1.56-17.284-0.26-0.509-0.56-1.006-0.9-1.491"/><path d="m2122.1 870.91c-2.6-0.618-9.6-2.771-13.85-8.71-3.06-4.28-4.14-9.74-3.22-16.24 3.83 0.73 14.41 3.342 18.12 10.467 2.06 3.952 1.71 8.823-1.05 14.483zm-19.5-28.287-0.25 1.374c-1.44 7.936-0.27 14.641 3.51 19.927 6.02 8.416 16.38 10.054 16.82 10.12l1.04 0.154 0.49-0.923c3.69-6.993 4.22-13.121 1.56-18.216-0.28-0.54-0.61-1.077-0.97-1.596-2.42-3.498-6.57-6.411-12.02-8.422-4.66-1.721-8.63-2.224-8.79-2.245l-1.39-0.173"/></g><path d="m2092.7 1049.3c21.34-28.97-2.22-48.56-2.22-48.56-30.2 23.11 2.22 48.56 2.22 48.56" fill="#000061"/><g fill="#00ccbe"><path d="m2134.3 1027.8c1.03-2.62-0.26-5.59-2.89-6.62s-5.59 0.27-6.62 2.89c-1.03 2.63 0.26 5.59 2.89 6.62s5.59-0.26 6.62-2.89"/><path d="m895.44 582.5c-4.242 57.73 50.589 60.02 50.589 60.02 23.408-58.82-50.589-60.02-50.589-60.02"/><path d="m900.84 583.43c5.916-0.94 35.92-4.8 51.304 10.28 8.175 8.02 10.998 20.18 8.394 36.15-4.123 0.5-24.04 2.19-39.814-9.44-10.787-7.95-17.438-20.38-19.884-36.99zm49.802 6.1c-7.418-5.65-18.02-8.87-30.962-9.38-11.116-0.44-19.911 1.24-20.28 1.31l-1.015 0.19 0.138 1.03c2.4 17.75 9.455 31.04 20.919 39.51 18.358 13.53 41.257 9.89 42.223 9.72l0.765-0.12 0.133-0.77c2.958-17.12-0.034-30.2-8.891-38.88-0.941-0.92-1.953-1.79-3.03-2.61"/></g><path d="m866.32 668.02c28.441-22.04 11.133-47.31 11.133-47.31-35.367 13.97-11.133 47.31-11.133 47.31" fill="#000061"/><g fill="#00ccbe"><path d="m912.25 658.73c1.709-2.24 1.274-5.45-0.97-7.16-2.245-1.71-5.449-1.27-7.158 0.97-1.709 2.25-1.274 5.45 0.97 7.16 2.245 1.71 5.449 1.27 7.158-0.97"/><path d="m794.92 1034c-4.242 57.74 50.588 60.03 50.588 60.03 23.408-58.82-50.588-60.03-50.588-60.03"/><path d="m800.32 1034.9c5.916-0.94 35.919-4.8 51.303 10.28 8.176 8.01 10.999 20.17 8.395 36.15-4.123 0.5-24.041 2.19-39.815-9.45-10.787-7.94-17.437-20.37-19.883-36.98zm49.801 6.1c-7.417-5.65-18.02-8.88-30.961-9.38-11.117-0.44-19.912 1.23-20.28 1.31l-1.016 0.19 0.139 1.03c2.399 17.75 9.455 31.04 20.918 39.51 18.358 13.53 41.258 9.88 42.224 9.72l0.765-0.13 0.132-0.76c2.958-17.12-0.034-30.2-8.891-38.88-0.941-0.92-1.952-1.79-3.03-2.61"/><path d="m811.73 1110.2c1.708-2.25 1.274-5.45-0.97-7.16-2.245-1.71-5.45-1.28-7.159 0.97-1.708 2.24-1.274 5.45 0.971 7.16 2.244 1.71 5.449 1.27 7.158-0.97"/><path d="m1963.3 650.22c37.28 56.705 89.88 19.687 89.88 19.687-20.23-71.387-89.88-19.687-89.88-19.687"/><path d="m1965 652.37c4.83-5.1 29.96-30.11 55.03-27.07 13.32 1.61 24.62 10.9 33.6 27.61-3.47 3.41-20.78 19.204-43.75 19.645-15.7 0.317-30.75-6.49-44.88-20.185zm50.64-29.89c-10.92 0.05-23.08 4.62-35.47 13.39-10.65 7.53-17.63 15.36-17.92 15.69l-0.81 0.91 0.86 0.85c14.91 14.795 30.95 22.11 47.66 21.799 26.72-0.525 45.41-20.259 46.19-21.099l0.62-0.67-0.42-0.8c-9.47-18.03-21.59-28.05-36.02-29.8-1.54-0.18-3.1-0.27-4.69-0.27"/></g><path d="m1930.7 820.91c0.34 0.546 0.75 1.276 1.13 1.941 0.39 0.665 0.75 1.389 1.13 2.087 0.77 1.392 1.49 2.834 2.2 4.278 0.74 1.432 1.43 2.892 2.1 4.368s1.4 2.925 2.02 4.427c1.27 2.994 2.61 5.963 3.75 9.021l1.77 4.562c0.59 1.525 1.09 3.079 1.64 4.619l1.62 4.632c0.54 1.546 0.99 3.122 1.48 4.683 0.95 3.135 2.01 6.245 2.8 9.429 0.83 3.173 1.74 6.334 2.51 9.528l2.16 9.625c0.39 1.602 0.67 3.222 0.96 4.843l0.88 4.862 0.87 4.868c0.31 1.622 0.46 3.263 0.7 4.895l1.32 9.818c0.35 3.283 0.59 6.579 0.89 9.873 0.72 6.588 0.75 13.208 1.05 19.836l0.1 2.487c0.01 0.829-0.02 1.657-0.02 2.485l-0.07 4.975-0.13 9.965 0.88-9.93 0.44-4.974c0.07-0.83 0.16-1.659 0.21-2.489l0.09-2.494c0.2-6.651 0.67-13.323 0.45-19.994-0.05-3.336-0.04-6.68-0.15-10.021l-0.58-10.013c-0.12-1.668-0.16-3.347-0.34-5.01l-0.51-4.995-0.52-5.001c-0.17-1.669-0.33-3.339-0.6-4.993l-1.47-9.964c-0.54-3.315-1.22-6.606-1.83-9.916-0.56-3.319-1.4-6.579-2.13-9.869-0.39-1.639-0.72-3.293-1.16-4.923l-1.3-4.888c-0.45-1.628-0.85-3.269-1.34-4.888l-1.48-4.852c-0.94-3.251-2.09-6.441-3.17-9.658-0.54-1.612-1.18-3.19-1.77-4.788-0.58-1.597-1.2-3.189-1.86-4.769-0.64-1.584-1.29-3.17-2.01-4.748-0.36-0.792-0.68-1.577-1.07-2.378-0.39-0.806-0.73-1.561-1.2-2.466l-0.01-0.033c-1.53-2.943-5.16-4.092-8.1-2.564-2.94 1.527-4.09 5.152-2.56 8.096 0.07 0.139 0.15 0.285 0.23 0.415" fill="#fff"/><path d="m2035.5 735.46c-0.02-4.509-3.69-8.148-8.2-8.13-4.51 0.019-8.15 3.69-8.13 8.198s3.69 8.148 8.2 8.129c4.51-0.018 8.15-3.688 8.13-8.197" fill="#00ccbe"/><path d="m1874.8 624.59c2.71 32.76 6.24 65.782 13.92 98.224 3.79 16.211 8.74 32.228 15.06 47.75 6.39 15.492 14.27 30.46 23.94 44.262 4.85 6.886 10.12 13.479 15.79 19.711l4.32 4.607 4.5 4.437c3.03 2.885 6.08 5.707 9.2 8.439 12.41 10.997 25.25 21.157 37.49 31.825 6.11 5.331 12.05 10.804 17.7 16.517 1.39 1.447 2.84 2.851 4.18 4.334l4.04 4.442 3.85 4.583 0.96 1.15 0.9 1.186 1.81 2.374c4.76 6.365 8.98 13.093 12.48 20.205 3.44 7.138 6.18 14.604 8.09 22.275 3.94 15.318 4.04 31.596-0.09 46.809l-0.84 2.83-0.63 2.13-0.27 0.69-2.14 5.51c-0.82 1.79-1.73 3.55-2.59 5.32l-0.65 1.33-0.76 1.28-1.52 2.54-1.53 2.54c-0.54 0.82-1.1 1.62-1.67 2.39-1.14 1.56-2.36 3.01-3.67 4.31-1.32 1.29-2.75 2.41-4.27 3.29-0.78 0.44-1.53 0.79-2.33 1.1-0.81 0.28-1.63 0.5-2.47 0.65-3.36 0.59-6.89-0.12-9.04-2.33-2.22-2.09-3.05-5.62-2.51-9.08 0.26-1.72 0.82-3.43 1.64-4.99 0.42-0.78 0.89-1.52 1.42-2.21 0.26-0.35 0.57-0.65 0.84-0.98 0.29-0.33 0.69-0.66 1.03-0.99 2.76-2.69 5.88-4.97 9.33-6.34 3.43-1.37 7.16-1.77 10.79-1.12 3.64 0.62 7.11 2.37 10.23 4.61 6.25 4.56 11.13 11.11 14.77 18.16 3.61 7.07 6.1 14.85 6.65 22.72 0.04 0.98 0.07 1.97 0.07 2.95-0.06 0.98-0.04 1.93-0.17 2.94-0.11 0.99-0.19 1.99-0.35 2.98-0.13 0.99-0.29 1.98-0.48 2.96-0.72 3.95-1.75 7.85-3.05 11.67-2.59 7.65-6.07 15.03-9.93 22.2-3.85 7.15-8.27 14.08-12.13 21.35-1.92 3.65-3.68 7.4-5.17 11.26-1.41 3.9-2.51 7.92-3.08 12.05-0.45 4.14-0.38 8.33 0.37 12.43 0.2 1.02 0.5 2.01 0.75 3.02l0.39 1.51c0.17 0.49 0.36 0.97 0.54 1.46 0.66 1.97 1.59 3.83 2.54 5.66 4 7.3 10.24 13.1 17.23 17.38 7.04 4.25 14.88 7.06 22.9 8.65-7.99-1.74-15.75-4.69-22.65-9.05-6.85-4.38-12.89-10.22-16.66-17.42-0.89-1.81-1.76-3.64-2.37-5.57-0.16-0.48-0.34-0.95-0.49-1.43l-0.35-1.48c-0.22-0.98-0.5-1.95-0.68-2.94-0.64-3.99-0.64-8.04-0.12-12.03 0.63-3.99 1.76-7.87 3.21-11.65 1.53-3.75 3.33-7.39 5.29-10.95 3.95-7.12 8.48-13.94 12.54-21.12 4.03-7.17 7.71-14.59 10.53-22.41 1.4-3.9 2.55-7.92 3.38-12.01 0.22-1.02 0.41-2.05 0.56-3.09 0.18-1.03 0.3-2.07 0.43-3.11 0.15-1.03 0.16-2.12 0.24-3.18 0.02-1.07 0.01-2.13-0.01-3.2-0.44-8.49-2.91-16.68-6.58-24.23-1.85-3.78-4.04-7.4-6.62-10.78-2.57-3.36-5.54-6.48-9-9.09-3.46-2.59-7.44-4.74-11.88-5.59-4.42-0.9-9.14-0.48-13.34 1.12-4.21 1.59-7.86 4.19-11.01 7.13-0.4 0.38-0.8 0.69-1.21 1.13-0.39 0.44-0.82 0.86-1.18 1.32-0.73 0.92-1.38 1.9-1.95 2.92-1.12 2.04-1.91 4.26-2.3 6.57-0.39 2.32-0.38 4.75 0.2 7.14 0.56 2.39 1.78 4.74 3.59 6.57 0.9 0.92 1.92 1.69 3.03 2.33 1.11 0.61 2.28 1.07 3.48 1.4 2.4 0.62 4.86 0.69 7.22 0.34 1.18-0.19 2.34-0.48 3.47-0.85 1.13-0.4 2.24-0.9 3.25-1.45 2.05-1.13 3.89-2.54 5.52-4.08 1.64-1.54 3.08-3.22 4.4-4.93 0.66-0.87 1.29-1.74 1.89-2.61l3.38-5.38 0.84-1.35 0.72-1.41c0.96-1.89 1.97-3.76 2.89-5.68l2.42-5.88 0.3-0.74 0.25-0.76 0.48-1.52 0.96-3.03c4.78-16.319 4.97-33.873 1.08-50.339-1.89-8.252-4.67-16.283-8.19-23.97-3.59-7.657-7.97-14.94-12.88-21.777l-1.87-2.547-0.93-1.274-0.99-1.229-3.95-4.897-4.14-4.725c-1.37-1.578-2.84-3.058-4.25-4.591-5.76-6.04-11.76-11.784-17.88-17.332-12.25-11.088-24.91-21.51-36.81-32.47-2.99-2.724-5.9-5.523-8.74-8.334l-4.17-4.269-3.99-4.426c-5.24-5.983-10.09-12.295-14.55-18.884-8.88-13.209-16.08-27.529-21.89-42.42-5.75-14.923-10.22-30.38-13.58-46.125-6.83-31.494-9.7-63.881-11.76-96.401v-0.01c-0.26-4.14-3.82-7.28-7.96-7.02-4.13 0.27-7.27 3.83-7.01 7.96 0 0.04 0.01 0.11 0.01 0.15" fill="#00ccbe"/><path d="m2088.9 777.7c0-11.273-9.14-20.412-20.41-20.412-11.28 0-20.42 9.139-20.42 20.412 0 11.272 9.14 20.411 20.42 20.411 11.27 0 20.41-9.139 20.41-20.411" fill="#ffb149"/><path d="m903.08 966c0-11.273-9.138-20.411-20.411-20.411-11.272 0-20.411 9.138-20.411 20.411s9.139 20.411 20.411 20.411c11.273 0 20.411-9.138 20.411-20.411" fill="#ff5776"/><path d="m1967.5 659.42c15.67 14.557 33.04 27.024 51.48 37.27 18.44 10.264 37.92 18.315 57.82 24.554-19.22-8.117-37.66-17.925-54.66-29.653-17-11.708-32.53-25.332-46.06-40.551v-0.01c-2.21-2.48-6.01-2.7-8.48-0.5-2.49 2.21-2.71 6-0.5 8.48 0.12 0.14 0.26 0.29 0.4 0.41" fill="#00ccbe"/><path d="m1941.6 834.45c0.38 0.518 0.84 1.214 1.27 1.848 0.44 0.632 0.86 1.328 1.29 1.993 0.88 1.33 1.7 2.712 2.53 4.096 0.84 1.372 1.64 2.774 2.43 4.194 0.78 1.421 1.61 2.809 2.35 4.259 1.49 2.888 3.05 5.745 4.42 8.707l2.12 4.413c0.71 1.475 1.33 2.985 2 4.478l1.97 4.494c0.65 1.5 1.22 3.037 1.83 4.555 1.19 3.053 2.48 6.073 3.51 9.187 1.08 3.1 2.22 6.182 3.24 9.306l2.9 9.431c0.51 1.568 0.91 3.161 1.32 4.755l1.25 4.781 1.25 4.786c0.43 1.594 0.71 3.218 1.07 4.827l2.07 9.687c0.6 3.247 1.09 6.514 1.65 9.776 1.22 6.512 1.76 13.111 2.57 19.696l0.29 2.472c0.08 0.826 0.11 1.653 0.17 2.48l0.32 4.964 0.63 9.947 0.11-9.969 0.06-4.993c0.01-0.832 0.03-1.666 0.02-2.498l-0.1-2.493c-0.31-6.646-0.36-13.335-1.09-19.969-0.31-3.322-0.56-6.657-0.92-9.98l-1.35-9.939c-0.25-1.654-0.41-3.325-0.72-4.969l-0.9-4.941-0.9-4.946c-0.29-1.651-0.59-3.304-0.98-4.933l-2.23-9.821c-0.79-3.264-1.72-6.493-2.58-9.746-0.82-3.267-1.91-6.453-2.89-9.677-0.51-1.604-0.97-3.227-1.53-4.819l-1.68-4.774c-0.57-1.588-1.1-3.193-1.7-4.77l-1.85-4.725c-1.19-3.169-2.59-6.26-3.91-9.385-0.66-1.565-1.42-3.09-2.13-4.639-0.71-1.546-1.44-3.086-2.22-4.61-0.77-1.531-1.53-3.061-2.37-4.581-0.42-0.762-0.8-1.519-1.25-2.288-0.45-0.775-0.85-1.501-1.38-2.366l-0.02-0.032c-1.75-2.817-5.45-3.684-8.27-1.935s-3.69 5.452-1.94 8.27c0.08 0.133 0.18 0.272 0.27 0.396" fill="#00ccbe"/><path d="m1964.8 1140.2c0-7.35-5.96-13.3-13.3-13.3-7.35 0-13.3 5.95-13.3 13.3 0 7.34 5.95 13.3 13.3 13.3 7.34 0 13.3-5.96 13.3-13.3" fill="#ffb149"/><path d="m679.02 1126.9c0-7.35-5.955-13.3-13.301-13.3-7.345 0-13.3 5.95-13.3 13.3 0 7.34 5.955 13.3 13.3 13.3 7.346 0 13.301-5.96 13.301-13.3" fill="#ffb149"/><path d="m844.84 1002c-32.285-12.958-44.917 13.84-44.917 13.84 28.945 22.68 44.917-13.84 44.917-13.84" fill="#000061"/><path d="m1866.2 743.97c26.06-31.066 0.96-54.768 0.96-54.768-35.62 23.845-0.96 54.768-0.96 54.768" fill="#000061"/><path d="m2043 845.96c-39.42 0.502-41.82-32.986-41.82-32.986 39.87-12.141 41.82 32.986 41.82 32.986" fill="#00ccbe"/><path d="m2008.9 811.88c9.24-5.037 17.58-6.093 24.82-3.135 11.84 4.838 17.7 19.153 19.37 23.951-31.32 6.818-42.03-15.254-44.19-20.816zm-3.47-0.261c0.1 0.334 10.78 33.408 50.08 23.782l1.6-0.391-0.44-1.58c-0.24-0.863-6.05-21.206-21.73-27.624-8.5-3.48-18.19-2.146-28.79 3.966l-1.1 0.634 0.38 1.213" fill="#000061"/><path d="m1892.9 963.07c42.66-40.023 78.81-5.764 78.81-5.764-31.49 53.208-78.81 5.764-78.81 5.764" fill="#00ccbe"/><path d="m1900.8 1044c-3.22-39.3 30.02-44.008 30.02-44.008 14.86 38.938-30.02 44.008-30.02 44.008" fill="#00ccbe"/><path d="m1944 987.87c-0.33 0.121-0.66 0.236-0.99 0.348-18.61 6.199-39.92-4.493-45.57-7.641 12.97-18.699 28.95-28.056 47.5-27.815 11.57 0.149 20.69 4.182 23.78 5.727-5.14 15.351-13.45 25.232-24.72 29.381zm-50.16-7.66-0.91 1.364 1.39 0.87c1.09 0.686 26.7 16.457 49.67 8.801 0.37-0.121 0.73-0.25 1.1-0.383 12.55-4.616 21.66-15.609 27.07-32.673l0.38-1.21-1.09-0.643c-0.46-0.266-11.27-6.521-26.32-6.755-6.31-0.097-12.08 0.885-17.34 2.637-15.72 5.239-26.83 17.358-33.95 27.992" fill="#000061"/><path d="m1932.4 1007.6c5.66 8.87 7.29 17.12 4.84 24.55-4.01 12.14-17.89 18.97-22.56 20.97-8.96-30.77 12.32-42.98 17.72-45.52zm0.02-3.48c-0.33 0.12-32.59 13.06-20.27 51.61l0.5 1.56 1.55-0.55c0.84-0.3 20.74-7.49 26.06-23.58 2.88-8.72 0.88-18.29-5.95-28.45l-0.71-1.05-1.18 0.46" fill="#000061"/><path d="m311.17 933.49c42.658-40.023 78.811-5.765 78.811-5.765-31.492 53.208-78.811 5.765-78.811 5.765" fill="#00ccbe"/><path d="m319.03 1014.4c-3.225-39.302 30.016-44.008 30.016-44.008 14.867 38.938-30.016 44.008-30.016 44.008" fill="#00ccbe"/><path d="m362.21 958.29c-0.332 0.121-0.661 0.237-0.994 0.347-18.604 6.2-39.915-4.492-45.568-7.64 12.972-18.699 28.947-28.056 47.502-27.815 11.564 0.149 20.692 4.182 23.773 5.726-5.133 15.352-13.442 25.233-24.713 29.382zm-50.164-7.66-0.912 1.363 1.391 0.871c1.095 0.686 26.701 16.457 49.674 8.801 0.365-0.121 0.732-0.25 1.096-0.383 12.554-4.616 21.663-15.609 27.072-32.673l0.384-1.21-1.095-0.643c-0.453-0.266-11.271-6.521-26.321-6.755-6.31-0.097-12.08 0.885-17.336 2.636-15.723 5.24-26.836 17.359-33.953 27.993" fill="#000061"/><path d="m350.68 978.02c5.665 8.868 7.294 17.121 4.843 24.552-4.008 12.14-17.884 18.97-22.555 20.97-8.965-30.769 12.315-42.976 17.712-45.522zm0.022-3.48c-0.327 0.126-32.583 13.066-20.265 51.612l0.5 1.56 1.547-0.55c0.844-0.3 20.737-7.49 26.056-23.58 2.885-8.723 0.884-18.293-5.945-28.445l-0.708-1.054-1.185 0.457" fill="#000061"/><path d="m703.89 1239.7c-24.33-22.83-44.949-3.29-44.949-3.29 17.961 30.35 44.949 3.29 44.949 3.29" fill="#00ccbe"/><path d="m699.4 1285.8c1.839-22.41-17.12-25.1-17.12-25.1-8.479 22.21 17.12 25.1 17.12 25.1" fill="#00ccbe"/><path d="m660.68 1237.1c1.758-0.88 6.963-3.18 13.559-3.27 10.582-0.13 19.694 5.2 27.093 15.87-3.224 1.79-15.379 7.89-25.99 4.36-0.19-0.07-0.377-0.13-0.566-0.2-6.429-2.37-11.168-8-14.096-16.76zm23.341-3.58c-2.998-1-6.288-1.56-9.888-1.5-8.583 0.13-14.753 3.7-15.012 3.85l-0.624 0.37 0.219 0.69c3.085 9.73 8.28 16 15.44 18.63 0.208 0.08 0.417 0.15 0.625 0.22 13.103 4.37 27.707-4.63 28.332-5.02l0.793-0.49-0.521-0.78c-4.058-6.07-10.397-12.98-19.364-15.97" fill="#000061"/><path d="m691.46 1291.1c-2.664-1.14-10.578-5.03-12.864-11.96-1.398-4.24-0.468-8.94 2.762-14 3.079 1.45 15.215 8.41 10.102 25.96zm-10.79-28.21-0.404 0.6c-3.895 5.8-5.036 11.25-3.391 16.23 3.034 9.17 14.38 13.28 14.862 13.45l0.881 0.31 0.286-0.89c7.025-21.98-11.372-29.36-11.559-29.44l-0.675-0.26" fill="#000061"/><path d="m745.08 1002c-5.29-1.54-10.94-1.89-16.44-0.97-4.12 0.68-8.17 2.2-11.8 4.52-0.47 0.27-0.91 0.58-1.331 0.92l-1.299 0.98c-0.82 0.71-1.62 1.43-2.39 2.22-1.5 1.66-2.88 3.44-3.87 5.41-1.78 3.33-2.86 6.96-3.171 10.68l8.591 1.32c0.09-2.82 0.77-5.63 2.05-8.08 0.629-1.36 1.53-2.53 2.47-3.63 0.51-0.55 1.07-1.07 1.63-1.59l0.9-0.71c0.29-0.25 0.6-0.48 0.94-0.67 2.56-1.72 5.53-2.94 8.689-3.53 4.361-0.82 8.991-0.61 13.331 0.61l1.7-7.48" fill="#00ccbe"/><path d="m1143.4 955.19c-21.42 0-49 2.768-60.23 15.779-5.17 6.003-4.42 11.462-4.38 11.691l2.96-0.448-1.48 0.224 1.48-0.212c-0.02-0.18-0.54-4.468 3.8-9.42 5.86-6.679 20.65-14.614 57.81-14.614 0.23 0 0.45 1e-3 0.67 1e-3l0.01-3c-0.21 0-0.42-1e-3 -0.64-1e-3" fill="#000061"/></g></svg>
