<svg width="3332.3" height="2217.8" version="1.1" viewBox="0 0 3332.3 2217.8" xml:space="preserve" xmlns="http://www.w3.org/2000/svg"><g transform="matrix(1.3333 0 0 -1.3333 0 2217.8)"><path d="m647.06 122.42h-115.32l-40.84 117h197l-40.841-117" fill="#ff5873"/><g fill="#fff"><path d="m509.58 145.11c2.137 13.92 18.243 21.45 29.642 12.18 3.898-3.17 6.26-7.78 10.845-10.16 3.895-2.02 8.392-2.3 12.678-1.81 11.964 1.4 23.524 10.95 35.845 8.61 17.172-3.26 15.141-24.2 12.581-36.85-0.381-1.89 2.51-2.69 2.893-0.8 2.513 12.43 4.614 28.63-7.149 37.29-12.153 8.95-26.619-0.81-38.835-4.13-8.619-2.35-16.246-1.71-22.307 5.32-4 4.64-8.177 8.19-14.389 9.31-11.968 2.17-22.885-6.36-24.697-18.16-0.29-1.89 2.6-2.7 2.893-0.8"/><path d="m560.98 107.82c13.478 24.13 37.984 39.11 62.892 49.36 28.047 11.55 58.128 17.56 88.446 17.85 1.929 0.02 1.934 3.02 0 3-31.315-0.3-62.421-6.62-91.285-18.81-24.893-10.51-49.138-25.71-62.643-49.88-0.942-1.69 1.648-3.2 2.59-1.52"/><path d="m496.7 184.29c5.509-4.58 12.087-8.57 19.547-7.63 5.497 0.69 10.606 4.09 11.958 9.7 1.295 5.36-1.159 10.44-6.225 12.6-8.401 3.58-19.001 4.14-28.006 5.23-1.912 0.23-1.896-2.77 0-3 5.952-0.72 11.873-1.63 17.758-2.78 5.461-1.07 13.8-1.93 13.818-9.18 0.014-5.78-5.31-9.43-10.669-9.7-6.145-0.3-11.522 3.11-16.059 6.88-1.475 1.23-3.608-0.88-2.122-2.12"/></g><path d="m2029.9 386.42h-345v207h345v-207" fill="#ffe9e9"/><path d="m1685.4 386.92h344v206h-344zm345-1h-346v208h346v-208" fill="#fff"/><path d="m474.97 1078.4h156.86v92.11h-156.86zm161.86-5h-166.86v102.11h166.86v-102.11" fill="#ffdbda"/><path d="m635.25 1053.6h-70.195v21.8h70.195v-21.8" fill="#ffe9e9"/><path d="m565.56 1054.1h69.195v20.8h-69.195zm70.195-1h-71.195v22.8h71.195v-22.8" fill="#fff"/><path d="m635.25 1053.6v70.2h21.802v-70.2h-21.802" fill="#ffe9e9"/><path d="m635.75 1054.1h20.802v69.2h-20.802zm21.802-1h-22.802v71.2h22.802v-71.2" fill="#fff"/><path d="m519.9 813.42h-71v25h71v-25" fill="#ffe9e9"/><path d="m449.4 813.92h70v24h-70zm71-1h-72v26h72v-26" fill="#fff"/><path d="m608.9 813.42h-71v25h71v-25" fill="#00c8bc"/><path d="m1696.3 1438.4h-71v25h71v-25" fill="#ffe9e9"/><path d="m1625.8 1438.9h70v24h-70zm71-1h-72v26h72v-26" fill="#fff"/><path d="m1785.3 1438.4h-71v25h71v-25" fill="#00c8bc"/><path d="m1524.4 1270.9h389v149h-389v-149" fill="#ffe9e9"/><path d="m1524.9 1271.4h388v148h-388zm389-1h-390v150h390v-150" fill="#fff"/><path d="m763.9 1254.4 670-21 5-1108-466-4-75 773.69-161 165.31 27 194" fill="#ffe9e9"/><path d="m737.43 1060.6 160.95-165.26 0.017-0.175 74.956-773.23 465.04 3.99-5 1107-669.06 20.97zm235.02-939.68-0.044 0.46-74.983 773.51-161.05 165.36 27.096 194.69 0.448-0.02 670.48-21.01v-0.48l5-1108.5-0.49-0.01-466.46-4" fill="#fff"/><path d="m611.9 225.91-1.006 221.35 40.119 26.74 2.773-4.16-37.88-25.25 0.994-218.65-5-0.03" fill="#ffbe58"/><path d="m1316.9 451.42 162-87v86.5z" fill="#03015f"/><g fill="#ffbe58"><path d="m585.91 228.68-27 277 4.977 0.49 27-277-4.977-0.49"/><path d="m558.48 224.81-50.36 198.03 4.846 1.24 50.36-198.04-4.846-1.23"/><path d="m503.5 440.99-19.024 74.82 4.846 1.23 19.024-74.81-4.846-1.24"/></g><g fill="#00c8bc"><path d="m566.47 491.9c-40.95-2.42-77.049 33.16-85.7 81.76l43.131 29.76s-44 8-44.08 8.35c5.79 45.26 36.109 80.504 74.67 82.774 44.979 2.66 84.129-40.554 87.43-96.514 3.31-55.96-30.471-103.48-75.451-106.13"/><path d="m754.6 470.11c-38.277-30-85.4-33.79-105.25-8.46-19.852 25.34-4.916 70.19 33.361 100.19s85.4 33.78 105.25 8.45 4.916-70.18-33.361-100.18"/><path d="m663.9 329.42 25.509-12.37c-5.859-22.28-19.089-38.92-37.489-43.69-32.83-8.5-69.66 24.04-82.261 72.68-2.96 11.43-4.319 22.73-4.23 33.44l121.09 4.35c0.731-2.29 1.41-4.63 2.02-7 2.671-10.3 4.031-20.49 4.211-30.25l-28.85-17.16"/><path d="m489.56 516.9c-1.94-4.38-4.299-8.62-7.09-12.7-26.2-38.23-80.209-46.77-120.64-19.07-40.429 27.7-51.96 81.15-25.759 119.39 2.18 3.19 4.56 6.17 7.12 8.94l146.37-96.56"/></g><path d="m1318.9 284.42c0-81.73-66.26-148-148-148s-148 66.27-148 148c0 81.74 66.26 148 148 148s148-66.26 148-148" fill="#fff"/><path d="m1170.9 432.42c-81.74 0-148-66.26-148-148 0-81.73 66.26-148 148-148s148 66.27 148 148c0 81.74-66.26 148-148 148zm0-26c32.59 0 63.23-12.69 86.27-35.73s35.73-53.68 35.73-86.27c0-32.58-12.69-63.22-35.73-86.26-23.04-23.05-53.68-35.74-86.27-35.74s-63.22 12.69-86.27 35.74c-23.04 23.04-35.73 53.68-35.73 86.26 0 32.59 12.69 63.23 35.73 86.27 23.05 23.04 53.68 35.73 86.27 35.73" fill="#ff5873"/><path d="m950.41 193.42 2.495-43h31l-3.237 43h-30.258" fill="#feb2a8"/><path d="m864.41 193.42 2.495-43h31l-3.237 43h-30.258" fill="#feb2a8"/><g fill="#00c8bc"><path d="m2002.9 428.51h-576.58v5h574.08v501.35h5v-503.85c0-1.38-1.12-2.5-2.5-2.5"/><path d="m1346.4 451.42h-5v829.59c0 1.39 1.12 2.5 2.5 2.5h659c1.38 0 2.5-1.11 2.5-2.5v-278.59h-5v276.09h-654v-827.09"/><path d="m1975.9 451.42h-659v850h659v-850"/></g><path d="m1346.4 1071.9h-5v209.15c0 1.39 1.12 2.5 2.5 2.5h469.78v-5h-467.28v-206.65" fill="#03015f"/><path d="m1346.4 451.42h-5v590h5v-590" fill="#03015f"/><path d="m1640.9 673.42h-743v220h743v-220" fill="#fff"/><path d="m949.4 704.92h191v157h-191zm196-5h-201v167h201v-167" fill="#ffbe58"/><path d="m1571.9 1142.4h-815v323h815v-323" fill="#ffbe58"/><path d="m1099.9 1169.9h-268v268h268v-268" fill="#fff"/><path d="m729.9 1142.4h842v-18h-842v18" fill="#fff"/><path d="m1423.4 704.92h157v157h-157zm162-5h-167v167h167v-167" fill="#ffbe58"/><path d="m1362.9 702.42h-162v162h162v-162" fill="#ff5873"/><path d="m1044.9 730.71-52.715 52.716 52.715 52.716 52.72-52.716-52.72-52.716" fill="#00c8bc"/><path d="m1927.9 506.42h-250v663h250v-663" fill="#fff"/><path d="m866.65 989.69-45.75-72.27-26.971 29.67-83.029 91.326 22 135 31-13-2-99 99.159-67.896 5.591-3.83" fill="#ff5873"/><path d="m866.65 989.69-45.75-72.27-26.971 29.67c20.94 28.93 50.94 41.49 67.13 46.43l5.591-3.83" fill="#03015f"/><path d="m729.71 1153.9 33.831-11.1 0.357 22.65-31 11-3.188-22.55" fill="#03015f"/><path d="m503.48 1376.5c2.485 0.05 5.046-0.22 7.453-1.16 2.417-0.92 4.529-2.47 6.406-4.08 1.883-1.61 3.608-3.27 5.472-4.55 1.853-1.29 3.849-2.14 5.964-2.51 2.098-0.42 4.378-0.25 6.456 0.11 2.107 0.37 3.948 1.3 5.644 2.57 1.702 1.27 3.245 2.94 4.979 4.72 1.725 1.77 3.722 3.67 6.231 5.08 2.489 1.42 5.415 2.26 8.191 2.4l1.053 0.09c0.352 0.03 0.704 0 1.057-0.01 0.705-0.02 1.411-0.04 2.12-0.08l2.154-0.36c0.361-0.04 0.717-0.13 1.069-0.25l1.062-0.33c2.827-0.93 5.35-2.6 7.383-4.31 2.053-1.71 3.751-3.4 5.41-4.65 1.653-1.27 3.208-2.15 4.948-2.55 0.419-0.14 0.895-0.14 1.334-0.24 0.226-0.03 0.44-0.08 0.674-0.1l0.716-0.01c0.477 0 0.951-0.06 1.425-0.02l1.416 0.14c1.837 0.29 3.423 0.84 4.909 1.82 1.497 0.97 2.948 2.4 4.638 4.14 1.684 1.73 3.673 3.78 6.323 5.47 2.629 1.71 5.82 2.82 8.893 3.23l2.292 0.22c0.766 0.05 1.536-0.01 2.307-0.02l1.157-0.04c0.391-0.03 0.792-0.11 1.189-0.17 0.793-0.15 1.594-0.22 2.383-0.46 3.223-0.76 6.217-2.53 8.511-4.31 2.299-1.83 4.07-3.6 5.626-4.88 1.544-1.33 2.845-2.09 4.2-2.58l0.512-0.18 0.255-0.1 0.283-0.05c0.376-0.06 0.747-0.14 1.118-0.23 0.83-0.02 1.664-0.2 2.501-0.11 1.737 0 3.109 0.32 4.5 0.95 1.404 0.61 2.872 1.7 4.614 3.22 1.755 1.47 3.77 3.39 6.4 5.01 2.601 1.62 5.822 2.86 8.905 3.07 3.066 0.24 5.965 0.09 8.918-0.82 2.93-0.86 5.662-2.5 7.716-4.4 2.086-1.9 3.611-3.92 5.101-5.7 1.465-1.81 2.95-3.36 4.779-4.54 1.822-1.19 4-1.92 6.353-2.44v-1.2c-2.484-0.39-5.165-0.37-7.793 0.4-2.644 0.74-5.003 2.27-7.066 3.76-2.057 1.52-3.883 3.03-5.667 4.06-1.785 1.04-3.491 1.59-5.291 1.78-0.462 0.02-0.893 0.1-1.362 0.1l-1.421-0.07c-0.469 0.01-0.933-0.12-1.394-0.18-0.453-0.09-0.939-0.1-1.338-0.27-1.738-0.41-3.075-1.19-4.456-2.3-1.377-1.12-2.792-2.66-4.545-4.52-1.756-1.82-3.979-3.95-6.88-5.58-1.436-0.84-3.034-1.43-4.63-1.93-0.802-0.19-1.612-0.36-2.422-0.52-0.811-0.16-1.582-0.17-2.378-0.25l-1.186-0.08c-0.396-0.02-0.792 0.02-1.188 0.03-0.793 0.04-1.584 0.08-2.378 0.15-1.635 0.27-3.265 0.57-4.864 1.2-3.21 1.16-5.967 3.19-8.035 5.07-2.082 1.92-3.624 3.71-5.059 4.97-1.419 1.3-2.63 2.17-4.108 2.68-0.352 0.16-0.774 0.2-1.157 0.33-0.2 0.05-0.388 0.12-0.598 0.16l-0.656 0.07c-0.437 0.03-0.877 0.14-1.32 0.14l-1.334-0.01c-1.733-0.11-3.268-0.45-4.783-1.27-1.52-0.81-3.071-2.13-4.86-3.77-1.783-1.62-3.87-3.56-6.541-5.09-2.657-1.56-5.795-2.46-8.763-2.7l-2.211-0.08c-0.736-0.02-1.47 0.09-2.202 0.14l-1.097 0.1c-0.367 0.05-0.742 0.14-1.112 0.22-0.739 0.18-1.485 0.28-2.208 0.55-2.964 0.87-5.613 2.63-7.676 4.43-2.075 1.84-3.692 3.7-5.275 5.2-1.578 1.5-3.11 2.63-4.847 3.36l-0.656 0.26c-0.213 0.1-0.439 0.17-0.68 0.21l-1.41 0.35-1.506 0.15c-0.252 0.02-0.504 0.07-0.757 0.07l-0.76-0.02c-2.066 0.04-3.956-0.39-5.741-1.24-1.797-0.82-3.493-2.14-5.265-3.71-1.774-1.55-3.661-3.34-5.964-4.81-2.284-1.47-5.001-2.55-7.714-2.82-2.695-0.27-5.356-0.22-7.978 0.51-2.614 0.68-5.057 2.01-7.043 3.67-2.006 1.65-3.632 3.52-5.295 5.2-1.651 1.69-3.382 3.22-5.437 4.23-2.042 1.02-4.34 1.5-6.693 1.67v1.2" fill="#00c8bc"/><path d="m703.48 1317.3c-2.485-0.04-5.046 0.23-7.453 1.17-2.417 0.91-4.529 2.47-6.406 4.07-1.883 1.61-3.607 3.28-5.471 4.55-1.854 1.29-3.849 2.15-5.965 2.52-2.098 0.41-4.377 0.25-6.456-0.12-2.107-0.36-3.948-1.3-5.644-2.56-1.701-1.27-3.245-2.94-4.978-4.72-1.726-1.77-3.723-3.67-6.232-5.08-2.489-1.42-5.415-2.26-8.191-2.41l-1.053-0.09c-0.352-0.02-0.704 0.01-1.056 0.01-0.706 0.03-1.412 0.05-2.121 0.09l-2.154 0.35c-0.361 0.05-0.717 0.14-1.069 0.26l-1.062 0.33c-2.827 0.93-5.35 2.6-7.383 4.31-2.053 1.7-3.751 3.39-5.41 4.65-1.653 1.27-3.208 2.15-4.947 2.54-0.42 0.14-0.895 0.15-1.334 0.24-0.226 0.03-0.441 0.09-0.674 0.11l-0.717 0.01c-0.477-0.01-0.951 0.06-1.425 0.01l-1.415-0.14c-1.838-0.28-3.424-0.84-4.91-1.82-1.497-0.96-2.948-2.4-4.638-4.13-1.683-1.73-3.673-3.78-6.322-5.47-2.63-1.71-5.821-2.82-8.894-3.24l-2.292-0.21c-0.766-0.05-1.536 0.01-2.307 0.02l-1.157 0.04c-0.39 0.03-0.792 0.11-1.188 0.17-0.794 0.14-1.595 0.21-2.384 0.46-3.223 0.76-6.217 2.53-8.51 4.31-2.3 1.83-4.071 3.6-5.627 4.88-1.544 1.32-2.845 2.09-4.2 2.58l-0.512 0.18-0.255 0.1-0.282 0.04c-0.377 0.06-0.747 0.15-1.119 0.24-0.83 0.02-1.664 0.2-2.501 0.1-1.737 0.01-3.109-0.31-4.5-0.95-1.403-0.61-2.872-1.7-4.614-3.21-1.755-1.48-3.77-3.39-6.4-5.01-2.601-1.62-5.822-2.86-8.904-3.07-3.066-0.24-5.965-0.09-8.919 0.82-2.93 0.86-5.662 2.49-7.716 4.4-2.086 1.9-3.611 3.92-5.101 5.69-1.465 1.81-2.95 3.36-4.779 4.54-1.821 1.19-4 1.93-6.353 2.44v1.2c2.484 0.39 5.165 0.38 7.793-0.39 2.644-0.74 5.003-2.28 7.066-3.76 2.057-1.53 3.883-3.03 5.667-4.06 1.785-1.04 3.491-1.59 5.291-1.79 0.462-0.02 0.893-0.1 1.363-0.09l1.42 0.07c0.469-0.02 0.934 0.12 1.394 0.18 0.453 0.08 0.939 0.09 1.338 0.26 1.738 0.42 3.075 1.2 4.456 2.31 1.377 1.12 2.792 2.66 4.545 4.52 1.756 1.82 3.979 3.95 6.88 5.58 1.436 0.83 3.034 1.43 4.631 1.93 0.801 0.19 1.611 0.36 2.421 0.52 0.811 0.16 1.582 0.17 2.378 0.25l1.186 0.08c0.396 0.02 0.792-0.02 1.188-0.04 0.793-0.04 1.584-0.08 2.378-0.14 1.636-0.27 3.265-0.57 4.865-1.2 3.209-1.16 5.966-3.19 8.034-5.08 2.082-1.92 3.624-3.7 5.059-4.96 1.419-1.3 2.63-2.17 4.108-2.68 0.352-0.17 0.774-0.2 1.158-0.33 0.199-0.05 0.387-0.12 0.597-0.16l0.656-0.07c0.437-0.03 0.877-0.14 1.32-0.14l1.334 0.01c1.734 0.11 3.269 0.45 4.783 1.27 1.52 0.81 3.071 2.13 4.86 3.76 1.783 1.63 3.871 3.57 6.542 5.1 2.657 1.55 5.794 2.45 8.763 2.7l2.21 0.08c0.736 0.01 1.47-0.09 2.203-0.14l1.096-0.1c0.367-0.05 0.742-0.15 1.112-0.22 0.739-0.18 1.485-0.28 2.209-0.55 2.963-0.87 5.612-2.63 7.675-4.44 2.075-1.83 3.692-3.69 5.275-5.19 1.578-1.51 3.111-2.64 4.847-3.36l0.656-0.26c0.214-0.1 0.44-0.17 0.68-0.21l1.411-0.35 1.505-0.15c0.252-0.02 0.504-0.07 0.757-0.07l0.76 0.02c2.066-0.04 3.957 0.39 5.741 1.23 1.798 0.83 3.493 2.15 5.265 3.72 1.774 1.55 3.661 3.34 5.964 4.81 2.284 1.46 5.002 2.55 7.715 2.81 2.694 0.27 5.356 0.23 7.977-0.51 2.614-0.67 5.057-2.01 7.043-3.66 2.007-1.65 3.632-3.52 5.295-5.2 1.651-1.7 3.383-3.23 5.437-4.23 2.042-1.03 4.34-1.5 6.693-1.68v-1.2" fill="#ffbe58"/><path d="m1718.8 332.46c2.09 0.07 4.28-0.33 6.18-1.4 1.91-1.03 3.47-2.55 4.85-4.06 1.37-1.51 2.63-3.04 4-4.28 1.36-1.25 2.83-2.15 4.41-2.55l1.2-0.22 1.25-0.02c0.41-0.05 0.82 0.08 1.23 0.11 0.41 0.05 0.82 0.09 1.18 0.25 1.53 0.42 2.83 1.26 4 2.52 1.19 1.23 2.27 2.78 3.48 4.43s2.58 3.45 4.53 4.99c0.52 0.37 1.03 0.74 1.57 1.07 0.58 0.3 1.16 0.58 1.76 0.86 1.22 0.42 2.5 0.8 3.76 0.87l0.95 0.1c0.32 0.03 0.63-0.01 0.95-0.01 0.64-0.04 1.28-0.04 1.92-0.14 0.65-0.14 1.3-0.28 1.95-0.44 0.63-0.2 1.24-0.48 1.86-0.74 2.43-1.16 4.29-2.9 5.78-4.51 1.5-1.62 2.73-3.18 3.94-4.38 1.19-1.23 2.29-1.99 3.4-2.35 0.26-0.15 0.57-0.16 0.85-0.22l0.43-0.1c0.15-0.01 0.32 0 0.48-0.01 0.32 0.02 0.63-0.05 0.95-0.01 0.31 0.06 0.63 0.1 0.94 0.13 1.17 0.27 2.08 0.75 3.08 1.66 1 0.9 2.03 2.24 3.21 3.84 1.19 1.61 2.56 3.51 4.6 5.3 0.47 0.46 1.06 0.88 1.66 1.29l0.89 0.61 1 0.52c0.68 0.33 1.36 0.67 2.09 0.86 0.71 0.2 1.46 0.46 2.17 0.56 0.72 0.09 1.44 0.18 2.16 0.25 0.72 0.05 1.45-0.02 2.18-0.04 0.37-0.03 0.73-0.03 1.1-0.09l1.13-0.23c0.75-0.17 1.5-0.31 2.21-0.63 2.95-1.08 5.34-3.04 7.02-4.77 1.68-1.77 2.96-3.38 4.08-4.58 1.1-1.25 2.03-1.96 2.73-2.31 0.19-0.05 0.35-0.17 0.53-0.23 0.2-0.03 0.39-0.08 0.57-0.16 0.21-0.05 0.47-0.03 0.69-0.07 0.24-0.06 0.48-0.04 0.72-0.02 1 0.03 1.59 0.12 2.48 0.68 0.9 0.51 2 1.58 3.27 2.99 1.29 1.38 2.73 3.13 4.75 4.82 0.54 0.42 1.08 0.83 1.63 1.23 0.62 0.38 1.25 0.74 1.87 1.09 0.66 0.32 1.38 0.58 2.07 0.83 0.69 0.27 1.44 0.35 2.15 0.51 0.73 0.16 1.43 0.17 2.13 0.18 0.7 0 1.39 0.07 2.08-0.07 0.68-0.1 1.36-0.21 2.03-0.33 0.69-0.19 1.37-0.42 2.03-0.65 2.67-1.07 4.77-2.95 6.21-4.79 1.47-1.85 2.46-3.68 3.45-5.33 0.95-1.67 1.93-3.12 3.17-4.3 1.23-1.19 2.85-2 4.76-2.51v-1.2c-1.05-0.14-2.15-0.32-3.28-0.17l-0.86 0.08-0.83 0.22c-0.56 0.15-1.14 0.29-1.66 0.56-2.17 0.9-3.97 2.43-5.54 3.84-1.55 1.43-2.93 2.83-4.27 3.83-1.34 1.01-2.56 1.53-3.72 1.68-0.3 0.01-0.59 0.05-0.87 0.07-0.33-0.04-0.64-0.07-0.95-0.08-0.31 0.01-0.61-0.13-0.91-0.18-0.3-0.06-0.6-0.1-0.83-0.25-1.02-0.42-1.74-0.96-2.65-2.03-0.9-1.04-1.89-2.49-3.1-4.21-1.24-1.69-2.75-3.7-5.09-5.55-0.62-0.44-1.24-0.88-1.9-1.28-0.71-0.36-1.43-0.7-2.16-1.03-1.5-0.52-3.08-0.93-4.57-1.01l-1.13-0.09c-0.38-0.02-0.76 0.02-1.14 0.04-0.77 0.06-1.51 0.08-2.29 0.22-0.78 0.18-1.56 0.37-2.33 0.59-0.75 0.27-1.48 0.62-2.21 0.96-2.87 1.48-4.86 3.61-6.36 5.38-1.48 1.82-2.56 3.45-3.55 4.65-0.97 1.24-1.73 1.92-2.5 2.34-0.18 0.16-0.41 0.19-0.63 0.28-0.11 0.04-0.21 0.09-0.32 0.14-0.12 0.04-0.26 0.04-0.39 0.06-0.27 0.03-0.54 0.13-0.81 0.14-0.27-0.01-0.55-0.01-0.83 0.01-1.02-0.09-1.88-0.32-2.93-1.08-1.05-0.74-2.2-2-3.49-3.51-1.3-1.52-2.78-3.32-4.87-4.97-2.06-1.66-4.88-2.94-7.66-3.26-0.69-0.05-1.37-0.09-2.05-0.11s-1.36 0.1-2.04 0.16c-0.33 0.04-0.67 0.07-1.01 0.13l-1.02 0.27c-0.68 0.2-1.36 0.37-1.99 0.7-2.62 1.13-4.66 3.01-6.12 4.75-1.47 1.76-2.59 3.45-3.7 4.85-1.1 1.41-2.16 2.5-3.3 3.19-0.3 0.13-0.58 0.32-0.88 0.45-0.32 0.09-0.64 0.19-0.96 0.31-0.33 0.09-0.7 0.09-1.06 0.16-0.17 0.02-0.35 0.07-0.53 0.07l-0.55-0.02c-1.47 0-2.76-0.34-4.03-1.19-1.28-0.81-2.52-2.09-3.81-3.55-1.3-1.45-2.65-3.1-4.38-4.6-1.69-1.52-3.99-2.77-6.37-3.17-0.59-0.16-1.18-0.18-1.77-0.2-0.59 0-1.18-0.09-1.76 0.02l-1.73 0.22c-0.58 0.15-1.15 0.33-1.71 0.5-2.24 0.81-4.1 2.32-5.52 3.92-1.44 1.61-2.56 3.3-3.72 4.88-1.14 1.57-2.35 3.03-3.86 4.08-1.49 1.07-3.29 1.63-5.2 1.79v1.2" fill="#00c8bc"/><path d="m1872.2 273.26c-2.09-0.07-4.28 0.34-6.19 1.4-1.91 1.04-3.46 2.56-4.84 4.06-1.37 1.52-2.63 3.05-4 4.29-1.36 1.24-2.83 2.15-4.41 2.54l-1.2 0.23-1.25 0.02c-0.41 0.05-0.82-0.08-1.23-0.12s-0.82-0.09-1.19-0.24c-1.53-0.42-2.82-1.27-4-2.52-1.18-1.24-2.26-2.79-3.47-4.44-1.22-1.64-2.58-3.44-4.54-4.99-0.51-0.36-1.02-0.74-1.56-1.07-0.58-0.29-1.17-0.58-1.76-0.85-1.23-0.42-2.5-0.8-3.76-0.88l-0.95-0.1c-0.32-0.02-0.64 0.01-0.96 0.02-0.64 0.04-1.27 0.03-1.92 0.14-0.65 0.13-1.3 0.28-1.94 0.44-0.64 0.2-1.25 0.48-1.87 0.73-2.42 1.16-4.28 2.91-5.77 4.52-1.5 1.62-2.74 3.17-3.94 4.38-1.19 1.23-2.3 1.99-3.4 2.35-0.26 0.15-0.57 0.15-0.86 0.22l-0.42 0.09c-0.16 0.02-0.32 0.01-0.48 0.01-0.32-0.01-0.64 0.06-0.95 0.01-0.32-0.05-0.63-0.09-0.94-0.12-1.18-0.27-2.08-0.75-3.08-1.66-1-0.9-2.03-2.25-3.21-3.85-1.19-1.61-2.56-3.5-4.6-5.3-0.48-0.45-1.06-0.87-1.66-1.29l-0.89-0.61-1.01-0.51c-0.67-0.33-1.35-0.68-2.08-0.86-0.72-0.2-1.46-0.47-2.17-0.56-0.72-0.1-1.44-0.18-2.16-0.25-0.73-0.06-1.46 0.02-2.19 0.04-0.36 0.03-0.72 0.03-1.09 0.08l-1.13 0.23c-0.75 0.17-1.51 0.32-2.22 0.64-2.95 1.07-5.33 3.03-7.01 4.76-1.68 1.77-2.96 3.38-4.08 4.59-1.11 1.24-2.03 1.95-2.73 2.31-0.19 0.05-0.35 0.16-0.53 0.23-0.2 0.03-0.39 0.08-0.58 0.16-0.2 0.05-0.46 0.03-0.69 0.07-0.23 0.06-0.47 0.03-0.71 0.02-1.01-0.03-1.6-0.12-2.48-0.68-0.9-0.52-2-1.58-3.27-2.99-1.3-1.38-2.73-3.13-4.75-4.83-0.54-0.42-1.08-0.83-1.63-1.23-0.62-0.37-1.25-0.74-1.88-1.08-0.66-0.32-1.37-0.58-2.07-0.84-0.69-0.27-1.43-0.34-2.15-0.5-0.73-0.17-1.42-0.18-2.12-0.19-0.7 0.01-1.39-0.06-2.08 0.07-0.69 0.1-1.37 0.21-2.04 0.33-0.68 0.2-1.36 0.43-2.02 0.66-2.67 1.06-4.78 2.95-6.21 4.78-1.47 1.86-2.47 3.69-3.45 5.34-0.95 1.67-1.93 3.12-3.17 4.3-1.23 1.18-2.85 2-4.76 2.5v1.2c1.05 0.14 2.15 0.33 3.28 0.18l0.85-0.09 0.84-0.21c0.55-0.16 1.14-0.3 1.65-0.56 2.18-0.91 3.97-2.43 5.55-3.84 1.54-1.44 2.93-2.83 4.26-3.83 1.35-1.01 2.57-1.53 3.72-1.68 0.31-0.02 0.59-0.05 0.88-0.08 0.33 0.04 0.64 0.07 0.95 0.09 0.31-0.02 0.61 0.12 0.91 0.17 0.3 0.06 0.6 0.11 0.83 0.26 1.01 0.42 1.74 0.95 2.65 2.02 0.9 1.05 1.89 2.49 3.1 4.21 1.24 1.69 2.75 3.71 5.08 5.56 0.63 0.43 1.24 0.88 1.91 1.27 0.7 0.37 1.42 0.71 2.15 1.03 1.5 0.52 3.08 0.94 4.57 1.01l1.14 0.1c0.38 0.02 0.76-0.03 1.14-0.04 0.76-0.06 1.51-0.09 2.28-0.23 0.78-0.17 1.56-0.36 2.33-0.59 0.76-0.26 1.49-0.61 2.22-0.95 2.86-1.49 4.86-3.61 6.35-5.39 1.49-1.81 2.56-3.44 3.56-4.64 0.97-1.24 1.73-1.93 2.5-2.35 0.18-0.15 0.41-0.19 0.62-0.27 0.11-0.05 0.22-0.09 0.33-0.15 0.12-0.03 0.26-0.03 0.39-0.06 0.27-0.02 0.53-0.13 0.81-0.13 0.27 0.01 0.54 0.01 0.82-0.01 1.03 0.09 1.88 0.32 2.94 1.07 1.04 0.75 2.19 2 3.48 3.52 1.31 1.52 2.79 3.32 4.88 4.96 2.05 1.66 4.87 2.94 7.66 3.26 0.68 0.06 1.37 0.09 2.05 0.12 0.68 0.02 1.36-0.1 2.03-0.16 0.34-0.04 0.67-0.07 1.01-0.13l1.03-0.28c0.67-0.19 1.36-0.36 1.99-0.69 2.61-1.13 4.65-3.01 6.12-4.75 1.47-1.76 2.59-3.45 3.7-4.86 1.1-1.41 2.16-2.5 3.3-3.18 0.29-0.14 0.57-0.32 0.88-0.45 0.32-0.09 0.64-0.2 0.96-0.31 0.33-0.09 0.7-0.09 1.05-0.16 0.18-0.02 0.36-0.07 0.54-0.07l0.54 0.02c1.48 0 2.77 0.33 4.03 1.18 1.28 0.82 2.53 2.1 3.82 3.55 1.3 1.46 2.65 3.1 4.38 4.61 1.69 1.51 3.99 2.77 6.37 3.16 0.59 0.16 1.18 0.18 1.77 0.2 0.59 0.01 1.17 0.1 1.75-0.01l1.74-0.22c0.57-0.15 1.14-0.33 1.71-0.5 2.24-0.82 4.1-2.32 5.52-3.92 1.43-1.61 2.55-3.31 3.71-4.88 1.15-1.58 2.36-3.03 3.87-4.09 1.49-1.06 3.29-1.63 5.2-1.79v-1.2" fill="#ff5873"/><path d="m2017.9 1315.4c0-57.99-47.01-105-105-105s-105 47.01-105 105 47.01 105 105 105 105-47.01 105-105" fill="#fff"/><path d="m2017.9 1315.4c0-1.34-0.03-2.68-0.08-4h-104.92v109c57.99 0 105-47.01 105-105" fill="#03015f"/><path d="m2032.9 1334.4c0-1.34-0.03-2.68-0.08-4h-104.92v109c57.99 0 105-47.01 105-105" fill="#ffbe58"/><path d="m2049.5 1342.4h-104.92c-1.38 0-2.5 1.12-2.5 2.5v45.61h5v-43.11h99.99c0.01 0.51 0.01 1.01 0.01 1.5 0 55.69-44.63 101.14-100 102.47v-35.83h-5v38.36c0 1.39 1.12 2.5 2.5 2.5 59.27 0 107.5-48.22 107.5-107.5 0-1.29-0.03-2.63-0.08-4.09-0.05-1.34-1.16-2.41-2.5-2.41" fill="#ff5873"/><path d="m1571.9 1301.4h81.79l-81.79 91z" fill="#fff"/><path d="m849.9 727.42v-13l-20-59.004 31-486h40l22 437v121h-73" fill="#ffbe58"/><path d="m866.9 604.42 54.44-236.5-12.44 236.5z" fill="#03015f"/><path d="m944.9 169.42h46l-20 558h-67l-37-123 31-39 47-396" fill="#ffbe58"/><path d="m680.04 1493.3 3.875 3.88 213.6-213.6-3.875-3.88-213.6 213.6" fill="#fff"/><path d="m680.04 1453.3 3.875 3.87 213.6-213.6-3.875-3.88-213.6 213.61" fill="#fff"/><path d="m1756.3 116.18v8l420.19 0.24v-8l-420.19-0.24" fill="#03015f"/><path d="m1604.6 116.09v8l80.32 0.05v-8l-80.32-0.05" fill="#ffbe58"/><g fill="#03015f"><path d="m1087.9 115.79-0.01 8 483.05 0.28v-8l-483.04-0.28"/><path d="m446.9 115.42-5e-3 8 351.5 0.21 5e-3 -8-351.5-0.21"/><path d="m952.74 153.19h30.952l11.209-13.77 45.998-4 6-5 1-8-96.998-1 1.839 31.77"/><path d="m866.3 155.59c-0.398-0.17 31.602 0 31.602 0l6-33.17h-62l4 11 19 15 1.398 7.17"/></g><path d="m688.9 211.42h-202v28h202v-28" fill="#ffbe58"/><path d="m500.68 211.42 170.77-19.14 6.683 19.14z" fill="#03015f"/><path d="m1864.4 547.42h-123v439h123v-439" fill="#ff5873"/><path d="m1802.9 1115.5-109.95-142.17h219.9l-109.95 142.17" fill="#ff5873"/><g fill="#00c8bc"><path d="m947.37 1190.4c-26.653 4.32-51.068 18.04-68.747 38.63-17.875 20.82-27.719 47.41-27.719 74.88 0 36.58 16.812 70.16 46.127 92.11l13.786-18.41c-23.459-17.57-36.913-44.43-36.913-73.7 0-21.97 7.873-43.25 22.169-59.9 14.149-16.47 33.674-27.45 54.979-30.9l-3.682-22.71"/><path d="m973.45 1189.2-1.489 22.95c37.328 2.42 69.178 26.91 81.138 62.39l21.8-7.35c-7.22-21.41-20.51-40.1-38.42-54.04-18.22-14.17-40.012-22.46-63.029-23.95"/><path d="m1080.1 1290.4-22.84 2.69c0.42 3.59 0.63 7.25 0.63 10.88 0 50.73-41.27 92-91.998 92-10.118 0-20.056-1.62-29.538-4.84l-7.38 21.79c11.864 4.02 24.285 6.05 36.918 6.05 63.408 0 115-51.58 115-115 0-4.53-0.27-9.09-0.79-13.57"/></g><path d="m956.66 1189.3c-28.74 2.29-55.403 15.23-75.078 36.43-19.784 21.33-30.68 49.1-30.68 78.2 0 20.19 5.307 40.05 15.349 57.44 9.734 16.86 23.695 31.08 40.373 41.13l11.87-19.7c-27.922-16.83-44.592-46.31-44.592-78.87 0-23.28 8.715-45.5 24.541-62.55 15.742-16.97 37.066-27.32 60.043-29.15l-1.826-22.93" fill="#ffbe58"/><path d="m1079.5 1285.9-22.72 3.58c0.38 2.35 0.66 4.75 0.85 7.15l22.93-1.81c-0.24-2.98-0.59-5.98-1.06-8.92" fill="#ff5873"/><path d="m1080.6 1294.8-22.93 1.79c0.19 2.42 0.28 4.88 0.28 7.31 0 50.73-41.27 92-91.998 92-12.426 0-24.473-2.43-35.807-7.22l-8.96 21.18c14.184 6 29.246 9.04 44.767 9.04 63.408 0 115-51.58 115-115 0-3.03-0.12-6.09-0.35-9.1" fill="#ff5873"/><g fill="#fff"><path d="m1224.4 1318.4h-64v64h64v-64"/><path d="m1224.4 1225.4h-64v64h64v-64"/><path d="m1507.9 1384.4h-251v30h251v-30"/></g><path d="m1368.9 1337.4h-112v24h112v-24" fill="#ff5873"/><path d="m1433.9 1233.4h-177v30h177v-30" fill="#fff"/><path d="m1328.9 1186.4h-72v24h72v-24" fill="#fff"/><g fill="#ff5873"><path d="m1385.9 1186.4h-36v24h36v-24"/><path d="m1446.9 235.42h-293v55h293v-55"/><path d="m1472.9 180.42h-293v55h293v-55"/><path d="m1438.9 125.42h-293v55h293v-55"/></g><g fill="#ffbe58"><path d="m1325.4 235.42h-50v55h50v-55"/><path d="m1397.9 180.42h-50v55h50v-55"/><path d="m1280.5 125.42h-50v55h50v-55"/><path d="m2075.9 1128.4-22 22 22 22 22-22-22-22"/><path d="m602.9 1154.4-22 22 22 22 22-22-22-22"/></g><path d="m1166.3 1085.2 5.16 11.66 36.46 16.6 28.96 29h-48.96l-29-16-13 16h-11.38l7.38-31-2.86-18.6 27.24-7.66" fill="#feb2a8"/><path d="m759.46 1167 11.439 6.42 10 31s-11-1-16-11l-8-5.97v52.72l-16-24.75-3-26 3.384-16 18.177-6.42" fill="#feb2a8"/><path d="m1618.2 928.42h-30v174h30v-174" fill="#fff"/><path d="m1580.2 928.42h-30v73.996h30v-73.996" fill="#fff"/><path d="m1542.2 928.42h-30v107h30v-107" fill="#ff5873"/><path d="m1504.2 928.42h-30v54h30v-54" fill="#fff"/><path d="m1466.2 928.42h-30v113h30v-113" fill="#fff"/><path d="m1428.2 928.42h-30v57h30v-57" fill="#ff5873"/><path d="m1362.9 506.42 284 2v113s-47 0-76-45-71-24-71-24-79 45-137-46" fill="#ffbe58"/><g fill="#ff5873"><path d="m2057.9 795.79 0.36 0.418c1.23 1.421 3.34 1.618 4.83 0.467 4.57-3.552 10.26-5.762 16.35-5.762 8.85 0 13.97 4.228 13.97 10.127 0 6.884-5.02 8.85-11.51 11.604l-9.34 4.129c-6.39 2.556-13.86 7.08-13.86 16.617 0 9.834 8.85 17.109 21.14 17.109 6.63 0 12.61-2.198 17.14-5.609 1.58-1.185 1.81-3.468 0.57-4.997-1.17-1.432-3.23-1.693-4.75-0.646-3.65 2.515-7.88 3.977-13.26 3.977-7.47 0-12.49-3.541-12.49-9.342 0-6.194 6-8.456 11.51-10.619l9.04-4.031c7.97-3.147 14.26-7.67 14.26-17.208 0-10.226-8.65-18.387-22.81-18.387-8.05 0-15.18 2.72-20.7 7.12-1.55 1.238-1.74 3.53-0.45 5.033"/><path d="m2085.4 786.85-4.46-17.278-5.53 16.962z"/><path d="m2078 864.57 5.54-16.931-9.99-0.316z"/><path d="m565.91 928.79 0.36 0.417c1.225 1.421 3.341 1.618 4.823 0.468 4.575-3.552 10.259-5.763 16.357-5.763 8.85 0 13.963 4.228 13.963 10.127 0 6.884-5.015 8.85-11.504 11.604l-9.342 4.129c-6.39 2.556-13.864 7.08-13.864 16.617 0 9.834 8.849 17.109 21.14 17.109 6.639 0 12.609-2.198 17.146-5.609 1.577-1.185 1.81-3.468 0.564-4.997-1.166-1.432-3.227-1.693-4.748-0.646-3.649 2.515-7.881 3.977-13.256 3.977-7.473 0-12.488-3.541-12.488-9.342 0-6.194 5.998-8.456 11.504-10.619l9.046-4.031c7.965-3.147 14.258-7.67 14.258-17.208 0-10.226-8.652-18.387-22.812-18.387-8.053 0-15.175 2.72-20.696 7.12-1.553 1.238-1.747 3.53-0.451 5.034"/><path d="m593.42 919.85-4.457-17.279-5.538 16.963z"/><path d="m585.96 997.57 5.537-16.931-9.994-0.316z"/></g><g fill="#fff"><path d="m1864.3 615.1c-20.57 7.97-43.17 18.04-49.87 41.09-2.83 9.773-2.81 21.342 3.06 30.041 6.21 9.207 18.06 11.98 25.1 20.429 11.07 13.288 13.99 35.177-1.52 46.256-8.43 6.014-19.54 7.935-29.5 9.679-12.55 2.2-25.28 3.161-37.98 4.101-6.92 0.511-13.84 1.01-20.74 1.712-6.81 0.691-14.15 1.034-20.68 3.23-11.31 3.806-21.37 14.481-15.97 26.885 0.76 1.753-1.82 3.282-2.59 1.514-3.52-8.082-2.13-16.153 3.92-22.61 6.37-6.795 14.71-9.349 23.64-10.615 27.78-3.936 56.26-2.905 83.53-10.142 10.53-2.794 21.26-8.053 23.72-19.724 2.62-12.413-3.93-26.568-14.03-33.815-8.39-6.015-17.59-9.896-21.94-19.938-3.77-8.696-3.5-18.817-0.91-27.793 6.99-24.17 30.36-34.82 51.96-43.19 1.8-0.7 2.58 2.2 0.8 2.89"/><path d="m1830.8 535.23c6.26 7.83 13.33 17 13.26 27.56-0.05 8.22-4.84 15.11-11.84 19.11-7.43 4.25-16.44 5.47-24.86 4.7-9.64-0.88-25.38-4.62-29.74 7.42-4.08 11.26 4.46 23.06 9.05 32.74 3.95 8.31 6.13 16.96 3.77 26.08-4.57 17.627-22.39 30.674-40.33 31.196-22.83 0.665-42.82-14.769-54.64-33.206-1.05-1.63 1.55-3.13 2.59-1.51 10.6 16.542 28 30.633 48.32 31.677 18.75 0.963 38.54-12.435 41.73-31.597 3.25-19.48-17.17-33.66-14.15-52.93 2.96-18.88 24.2-12.84 37.29-12.64 9.64 0.15 21.38-2.73 26.95-11.34 7.85-12.11-2.01-25.74-9.53-35.14-1.19-1.49 0.92-3.63 2.13-2.12"/><path d="m1877.1 899.03c-62.99-41.784-117.04-100.43-138.08-174.48-5.93-20.899-8.97-42.55-8.8-64.282 0.01-1.93 3.01-1.93 3 0-0.61 76.901 39.76 146.99 95.51 197.61 15.58 14.153 32.35 26.925 49.89 38.558 1.6 1.062 0.1 3.661-1.52 2.59"/><path d="m1808.4 830.92c0-4.418-3.58-8-8-8s-8 3.582-8 8c0 4.419 3.58 8 8 8s8-3.581 8-8"/><path d="m558.91 515.77-14 133 2.983 0.31 14-133-2.983-0.31"/><path d="m555.16 574-1.977 2.26 84.232 73.79 1.977-2.25-84.232-73.8"/><path d="m555.96 561.6-1.976 2.26 84.232 73.79 1.976-2.25-84.232-73.8"/><path d="m659.22 474.67-1.647 2.51 140 92 1.647-2.51-140-92"/><path d="m780.98 490.49-67.972 20.16 0.853 2.87 67.972-20.16-0.853-2.87"/><path d="m778.76 481.55-74.972 22.16 0.851 2.88 74.972-22.16-0.851-2.88"/><path d="m302.13 530.47-1.088 2.79 115.82 45.06 1.088-2.79-115.82-45.06"/><path d="m302.13 539-1.088 2.79 115.82 45.06 1.088-2.79-115.82-45.06"/><path d="m430.89 505.78-2.985 0.29 6 61 2.985-0.29-6-61"/><path d="m379.4 490.42c-8.547 0-15.5-6.95-15.5-15.5 0-8.54 6.953-15.5 15.5-15.5s15.5 6.96 15.5 15.5c0 8.55-6.953 15.5-15.5 15.5zm0-34c-10.201 0-18.5 8.3-18.5 18.5 0 10.21 8.299 18.5 18.5 18.5s18.5-8.29 18.5-18.5c0-10.2-8.299-18.5-18.5-18.5"/><path d="m596.4 696.42c-8.547 0-15.5-6.953-15.5-15.5s6.953-15.5 15.5-15.5 15.5 6.953 15.5 15.5-6.953 15.5-15.5 15.5zm0-34.004c-10.201 0-18.5 8.303-18.5 18.504s8.299 18.5 18.5 18.5 18.5-8.299 18.5-18.5-8.299-18.504-18.5-18.504"/><path d="m675.4 561.42c-8.547 0-15.5-6.95-15.5-15.5 0-8.54 6.953-15.5 15.5-15.5s15.5 6.96 15.5 15.5c0 8.55-6.953 15.5-15.5 15.5zm0-34c-10.201 0-18.5 8.3-18.5 18.5 0 10.21 8.299 18.5 18.5 18.5s18.5-8.29 18.5-18.5c0-10.2-8.299-18.5-18.5-18.5"/><path d="m635.92 292.7-14 93 2.967 0.45 14-93-2.967-0.45"/><path d="m569.58 335.12-1.503 2.6 57 33 1.503-2.6-57-33"/><path d="m570.55 326.63-1.503 2.59 57 33 1.503-2.59-57-33"/><path d="m867.22 604.67c5.576-6.17 11.056-12.42 16.507-18.7l8.141-9.44c2.709-3.15 5.416-6.3 8.09-9.47l0.428-0.51 0.123-0.82c1.243-8.22 2.47-16.44 3.621-24.67l1.755-12.34 1.668-12.35c2.28-16.46 4.323-32.95 6.205-49.46l10.562-99.14 10.654-99.13 10.33-99.17-0.795-0.09-13.169 98.83-12.846 98.87-12.938 98.86c-2.036 16.49-3.91 33-5.546 49.54l-1.269 12.4-1.183 12.4c-0.808 8.27-1.539 16.55-2.254 24.84l0.551-1.33c-2.492 3.33-4.952 6.67-7.41 10.02l-7.359 10.06c-4.883 6.73-9.736 13.48-14.493 20.31l0.627 0.49"/></g><path d="m931.9 1019.4v-33.996l-45 4 2 51.996 43-22" fill="#feb2a8"/><path d="m926.68 1118.3s8.895-25.93 37.647-28.75c0.672-0.06 1.015-0.83 0.598-1.36l-10.027-12.77-6-23-10-27-39 30s-26 35-24 36 50.782 26.88 50.782 26.88" fill="#feb2a8"/><path d="m895.9 1090.4 36 31s16.665 15.91 7.14 38.5c-5.454 12.93-21.022 18.52-33.064 11.31-2.017-1.21-4.055-2.78-6.076-4.81-16-16-18-21-33-24-12.748-2.54-23-18-22-28s11-23 22-23c0 0-13-6-11-23s22-18 26-23 5-16 5-16 0-9 11-8 11 10 11 10 21-37.996 50-26c14.569 6.03 19.295 14.84 20.39 22.11 0.909 6.03-0.865 12.14-4.629 16.94-5.605 7.14-16.798 22.07-19.761 30.95 0 0-22-5-19-30 0 0-22 15-40 45" fill="#03015f"/><path d="m880.9 996.78v17.798l60-14v-8.999l-60 5.201" fill="#ffbe58"/><path d="m880.9 998.42s-38-5-61-54 30-217 30-217h121l38.998 170 105.13 20 47.87 148-34 10-55.39-106.52-132.75 24.703c-2.567 0.549-5.169 0.918-7.787 1.105l-52.068 3.719" fill="#ff5873"/><path d="m1126.6 1071.3 34.56-11.28 7.75 24.4-32 9-10.31-22.12" fill="#03015f"/><path d="m893.9 1075.4 5.573-17.51s-13.573-5.49-18.573 5.51 5 16 13 12" fill="#feb2a8"/><path d="m1009.9 897.42-43.998-9 25-73.82z" fill="#03015f"/><path d="m849.9 714.42h121.46l-0.465 13h-121v-13" fill="#03015f"/><path d="m879.9 711.42h-5v18h5v-18" fill="#ffbe58"/><path d="m933.9 711.42h-5v18h5v-18" fill="#ffbe58"/><path d="m955.41 875.21c0.527 2.209 1.097 4.402 1.695 6.584l0.916 3.264c0.298 1.092 0.638 2.166 0.955 3.25l0.236 0.808 1.134 0.328c6.317 1.828 12.678 3.431 19.045 4.997l9.578 2.216c3.201 0.693 6.404 1.382 9.621 1.995 6.423 1.253 12.903 2.248 19.383 3.266l19.39 3.193 38.77 6.476c12.95 2.061 25.87 4.199 38.83 6.178l0.13-0.688c-12.76-2.987-25.55-5.813-38.33-8.718l-38.4-8.421-19.19-4.255c-6.39-1.465-12.77-2.952-19.203-4.182-3.214-0.629-6.442-1.181-9.672-1.729l-9.714-1.509c-6.493-0.917-12.994-1.796-19.538-2.451l1.369 1.136c-0.509-1.007-0.996-2.024-1.525-3.024l-1.564-3.009c-1.055-2-2.139-3.989-3.265-5.963l-0.651 0.258" fill="#fff"/><path d="m911.51 1112.7c4.036 3.02 7.746 6.49 10.906 10.32 1.594 1.9 3.046 3.91 4.305 6 1.279 2.08 2.366 4.26 3.199 6.5 0.858 2.23 1.29 4.58 1.472 6.88 0.179 2.31 0.249 4.6 0.065 6.9-0.226 4.65-1.582 9.28-3.106 14.28l0.42 0.27c1.926-1.8 3.637-3.88 4.895-6.25 1.358-2.33 2.246-4.96 2.752-7.68 0.532-2.71 0.432-5.56-0.132-8.26-0.584-2.7-1.513-5.28-2.681-7.7-1.158-2.43-2.564-4.7-4.137-6.81-1.595-2.1-3.355-4.04-5.227-5.84-1.889-1.78-3.889-3.42-5.967-4.94-2.076-1.52-4.226-2.91-6.509-4.1l-0.255 0.43" fill="#ff5873"/><path d="m1336.8 783.42c0-30.342-24.6-54.939-54.94-54.939s-54.94 24.597-54.94 54.939 24.6 54.94 54.94 54.94 54.94-24.598 54.94-54.94" fill="#fff"/><path d="m902.85 1049c1.088-2.8 2.088-5.61 3.196-8.38l3.2-8.32c0.548-1.38 1.176-2.72 1.818-4.05 0.615-1.34 1.132-2.69 1.507-4.1 0.399-1.39 0.708-2.82 1.025-4.23 0.287-1.47 0.569-2.81 0.931-4.4l-0.365-0.34c-1.528 0.71-2.771 1.96-3.741 3.19-1.013 1.25-1.801 2.6-2.511 3.97-1.467 2.74-1.776 5.84-2.483 8.77-0.335 1.47-0.666 2.94-0.971 4.41-0.293 1.48-0.555 2.96-0.821 4.44-0.465 2.97-0.957 5.93-1.271 8.93l0.486 0.11" fill="#feb2a8"/><path d="m873.87 1091.1 34.6 2.5v-5z" fill="#feb2a8"/><path d="m1069.4 967.44s-9.15 17.319 11.22 7.196c20.36-10.123-7.81-17.196-11.22-7.196" fill="#ff5873"/><path d="m758.56 1066.7s16.692 4.16 5.339-11.21c-11.354-15.37-5.339 11.21-5.339 11.21" fill="#ff5873"/><path d="m1450 790.8c4.8-1.753 9.45-3.743 14.04-5.828 4.6-2.077 9.11-4.296 13.59-6.553 4.47-2.286 8.9-4.614 13.28-7.05 2.19-1.204 4.38-2.424 6.54-3.679 2.17-1.239 4.34-2.488 6.48-3.776l-7.69-1.37c4.26 5.828 8.67 11.535 13.16 17.183 4.53 5.612 9.09 11.202 13.87 16.629 4.75 5.442 9.63 10.79 14.69 15.996 5.07 5.194 10.25 10.305 15.88 15.068-3.2-6.644-6.85-12.939-10.61-19.151-3.78-6.201-7.73-12.26-11.81-18.225-4.06-5.978-8.33-11.796-12.63-17.59-4.35-5.759-8.77-11.46-13.35-17.038l-3.41-4.154-4.28 2.785c-2.09 1.362-4.16 2.765-6.22 4.179-2.08 1.396-4.13 2.827-6.17 4.275-4.1 2.868-8.14 5.843-12.15 8.86-3.99 3.047-7.95 6.13-11.83 9.358-3.88 3.219-7.7 6.531-11.38 10.081" fill="#ffbe58"/><path d="m1864.4 973.34h-54.27l54.27-22.82z" fill="#03015f"/><path d="m998.4 141.35h-1e-3 1e-3zm10.097-5.93c-0.8 0.79-1.33 1.66-1.84 2.51-0.57 0.93-1.06 1.74-1.82 2.31-1.12 0.85-2.4 0.95-3.98 0.85-0.1-0.01-0.25-0.01-0.44-0.02-1.388-0.05-2.026-0.14-2.312-0.22-0.393-0.44-1.024-0.62-1.614-0.42-0.781 0.27-1.195 1.13-0.924 1.91 0.91 2.63 2.707 5.02 5.65 7.51 0.48 0.41 1 0.8 1.52 1.19 1.48 1.11 2.87 2.17 3.41 3.68 0.41 1.15 0.21 2.42-0.02 3.28-1.16 4.22-2.31 3.93-2.8 3.79-1.69-0.44-3.378-2.86-4.014-3.77-1.373-1.96-2.454-4.28-3.213-6.89-1.08-3.71-1.377-7.89-0.908-12.78l-2.986-0.29c-0.507 5.28-0.175 9.83 1.014 13.91 0.851 2.92 2.073 5.54 3.634 7.77 1.463 2.09 3.283 4.32 5.713 4.95 2.99 0.79 5.16-1.2 6.45-5.9 0.5-1.82 0.49-3.58-0.04-5.07-0.84-2.37-2.75-3.81-4.44-5.08-0.47-0.35-0.94-0.71-1.38-1.08-1.42-1.2-2.52-2.36-3.345-3.51 0.167 0.01 0.335 0.01 0.505 0.02 0.15 0 0.26 0.01 0.34 0.01 1.85 0.12 4.02 0.04 5.99-1.45 1.21-0.91 1.93-2.1 2.57-3.14 0.44-0.72 0.86-1.41 1.4-1.95l-2.12-2.12" fill="#ff5873"/><path d="m832.64 139.16-2.709 1.29c1.925 4.05 6.737 5.73 10.621 5.57 3.475-0.13 6.694-1.35 9.808-2.53l1.183-0.45c0.736-0.27 1.388-0.49 1.938-0.45 0.359 0.03 0.632 0.23 0.656 0.33 0.029 0.13-0.198 0.54-0.66 0.82-0.335 0.2-0.745 0.36-1.18 0.54-0.486 0.19-0.989 0.39-1.495 0.68-1.974 1.14-3.261 3.34-3.279 5.62-0.019 2.27 1.234 4.5 3.19 5.66 3.11 1.86 6.897 0.74 9.269-1.18 2.291-1.86 3.675-4.43 5.006-7.12l-2.689-1.33c-1.223 2.47-2.383 4.64-4.207 6.12-1.513 1.22-3.985 2.04-5.844 0.94-1.042-0.62-1.735-1.86-1.725-3.07 9e-3 -1.21 0.722-2.43 1.774-3.04 0.321-0.18 0.706-0.34 1.112-0.5 0.505-0.2 1.077-0.43 1.625-0.76 1.298-0.79 2.428-2.35 2.022-4.07-0.336-1.42-1.709-2.5-3.337-2.63-1.158-0.1-2.186 0.25-3.224 0.63l-1.199 0.45c-3.02 1.15-5.872 2.23-8.854 2.34-2.916 0.12-6.462-1.04-7.802-3.86" fill="#ff5873"/><path d="m971.28 185.61-28.376 472.1 3.993 0.24 28.376-472.1-3.993-0.24" fill="#03015f"/><g fill="#fff"><path d="m1472.9 232.92h-325.12v5h325.12v-5"/><path d="m1477.5 179.69h-339.62v5h339.62v-5"/><path d="m1355.3 503.92-0.04 5c1.76 0.02 290.93 2.39 293.85 2.41l0.04-5c-2.92-0.02-292.09-2.39-293.85-2.41"/><path d="m1644.6 508.41-0.5 123.2 5 0.02 0.5-123.2-5-0.02"/><path d="m1367.2 499.78h-5v24.32h5v-24.32"/><path d="m1449.4 551.76h-4v24.32h4v-24.32"/><path d="m1534 536.29h-4v24.32h4v-24.32"/><path d="m1618.4 602.99h-4v24.32h4v-24.32"/></g></g></svg>
