<svg width="3333.3" height="2218.6" version="1.1" viewBox="0 0 3333.3 2218.6" xml:space="preserve" xmlns="http://www.w3.org/2000/svg"><g transform="matrix(1.3333 0 0 -1.3333 0 2218.6)"><g fill="#ffe9e9"><path d="m1088.6 1358.2h-331.7v17.62h331.7v-17.62"/><path d="m2075.9 1094.6h-403.41v291.41h403.41v-291.41"/><path d="m1700 1070.1h398.41v286.41h-398.41zm403.41-5h-408.41v296.41h408.41v-296.41"/><path d="m728.73 489.45h-247.97v382.65h247.97v-382.65"/><path d="m457.82 514.76h242.97v377.65h-242.97zm247.97-5h-252.97v387.65h252.97v-387.65"/></g><path d="m1966.9 669.14h-5v505.55h5v-505.55" fill="#ff5873"/><path d="m902.78 180.83h805.75v22.52h-805.75v-22.52" fill="#ff5873"/><path d="m1662.7 269.93h-715.14l-45.792-66.58h806.72l-45.79 66.58" fill="#ffbe58"/><path d="m1900.8 333.58h-1304.1c-23.883 0-43.242 19.36-43.242 43.24v892.71c0 23.88 19.359 43.25 43.242 43.25h1304.1c23.88 0 43.24-19.37 43.24-43.25v-892.71c0-23.88-19.36-43.24-43.24-43.24" fill="#ff5873"/><g fill="#ffe9e9"><path d="m1881.3 361.94h-578.08v4h578.08c14.71 0 26.67 12.85 26.67 28.64v411.42h4v-411.42c0-18-13.76-32.64-30.67-32.64"/><path d="m1234.1 361.94h-617.92c-16.909 0-30.665 14.64-30.665 32.64v589.52h4v-589.52c0-15.79 11.962-28.64 26.665-28.64h617.92v-4"/><path d="m589.49 1018.5h-4v223.52c0 18 13.756 32.64 30.665 32.64h235.07c10.714 0 20.793-6.08 26.301-15.86l6.442-11.43-3.486-1.97-6.441 11.44c-4.801 8.52-13.543 13.82-22.816 13.82h-235.07c-14.703 0-26.665-12.85-26.665-28.64v-223.52"/><path d="m913.09 1179.1-17.005 28.43c-4.903 8.19-13.715 13.2-23.221 13.2h-222.27c-14.97 0-27.104-12.21-27.104-27.27v-754.27c0-15.06 12.134-27.27 27.104-27.27h1196.3c14.97 0 27.1 12.21 27.1 27.27v699.43c0 15.07-12.13 27.28-27.1 27.28h-910.55c-9.506 0-18.318 5.01-23.221 13.2"/></g><path d="m817.15 1012.2h-138.18v139.05h138.18v-139.05" fill="#03015f"/><path d="m830.77 1026.8h-138.18v139.05h138.18v-139.05" fill="#ffbe58"/><path d="m1203.5 613.63v-201.71h-540.09v201.71h540.09" fill="#00c8bc"/><path d="m1123.4 411.92h-2.87c-2.22 8.25-3.12 17.13-4.48 25.32-3.06 18.6-14.09 40.37-36.45 33.59-12.69-3.86-31.89-16.36-42.47-1.31-4.54 6.47-0.24 13.75-2.2 20.83-2.32 8.42-9.92 14.49-17.47 18.1-17.734 8.46-39.921 6.16-57.038-2.62-1.665-0.85-3.144 1.69-1.47 2.54 17.536 8.99 39.645 11.36 58.068 3.48 6.51-2.78 12.68-7.05 16.86-12.85 2.1-2.89 3.67-6.22 4.31-9.76 0.73-4.07-0.41-7.64-0.5-11.67-0.27-12.96 15.51-13.39 24.24-10.5 9.23 3.06 18.07 8.93 28.19 8.05 16-1.39 24.71-17.69 27.75-31.76 2.12-9.81 2.68-21.23 5.53-31.44" fill="#ffe9e9"/><path d="m712.42 246.1c-2.533 0-4.593 2.07-4.593 4.62v415.42c0 2.549 2.06 4.622 4.593 4.622h258.12c2.532 0 4.592-2.073 4.592-4.622v-415.42c0-2.55-2.06-4.62-4.592-4.62h-258.12" fill="#fff"/><path d="m970.54 677.28h-258.12c-6.114 0-11.07-4.987-11.07-11.139v-415.42c0-6.15 4.956-11.14 11.07-11.14h258.12c6.113 0 11.069 4.99 11.069 11.14v415.42c0 6.152-4.956 11.139-11.069 11.139zm-1.884-13.035v-411.63h-254.35v411.63h254.35" fill="#03015f"/><path d="m1162.6 922.08h-303.62v64.627h303.62v-64.627" fill="#fff"/><path d="m846.87 911.83h300.61v61.627h-300.61zm303.61-3h-306.61v67.627h306.61v-67.627" fill="#fff"/><path d="m1203.5 503.9v-3.81c-6.92-5.89-15.12-9.93-24.85-10.63-8.61-0.62-17.74 1.46-24.71 6.74-6.46 4.89-11.88 13.68-9.7 22.07 1.46 5.59 6.25 9.58 7.75 15.14 2.07 7.65-3.27 14.64-10.63 16.11-12.58 2.5-23.9-6.89-36.32-7.05-20.51-0.25-37.02 18.15-34.41 38.56 1.23 9.7 6.18 18.13 13.95 23.94 3.36 2.51 8.36 5.33 12.93 8.66h4.98c-0.75-0.66-1.53-1.3-2.33-1.89-5.48-4.07-11.87-6.94-16.91-11.62-4.59-4.28-7.71-9.92-9.14-16.04-2.59-11.09 0.71-22.66 9.18-30.3 9.64-8.7 21.98-9.86 33.91-5.93 9.12 3.01 19.29 7.55 28.82 3.25 7.64-3.45 11.21-12.32 8.19-20.17-2.07-5.43-7.31-9.85-7.54-15.94-0.21-5.29 2.77-10.56 6.41-14.19 6.9-6.89 17.35-9.28 26.8-8.29 9.34 0.97 17.12 5.3 23.62 11.39" fill="#ffe9e9"/><path d="m1515.8 707.63h-107.04v92.044h107.04v-92.044" fill="#ff5873"/><path d="m1481.8 681.2h-417.47v92.044h417.47v-92.044" fill="#fff"/><path d="m1530.3 533.18v88.45h331.18v-88.45h-331.18" fill="#ffe9e9"/><g fill="#fff"><path d="m1874 634.19h-356.16v-113.58h356.16zm-24.98-25.13v-63.31h-306.2v63.31h306.2"/><path d="m1860 648.66h-356.17v-113.59h356.17zm-2.78-2.8v-108h-350.61v108h350.61"/><path d="m1828.1 674.55h-254.96v82.252h254.96v-82.252"/></g><path d="m1910.9 1078.8v-224.24h-604.31v224.24h604.31" fill="#ffbe58"/><path d="m1937.8 832.43h-609.31v89.648h5v-84.648h599.31v219.23h-599.31v-116.96h-5v121.96h609.31v-229.23" fill="#ff5873"/><path d="m1478.9 904.45h-123.58v124.36h123.58v-124.36" fill="#fff"/><path d="m967.98 613.63h-253.01v49.94h253.01v-49.94" fill="#ffe9e9"/><path d="m899.86 431.5h-116.78v117.5h116.78v-117.5" fill="#ff5873"/><path d="m792.37 425.17h113.78v114.5h-113.78zm116.78-3h-119.78v120.5h119.78v-120.5" fill="#ffbe58"/><path d="m1789.3 983.77h-282.21v30.354h282.21v-30.354" fill="#ff5873"/><path d="m1727 921.1h-219.93v30.355h219.93v-30.355" fill="#fff"/><path d="m899.86 363.94h-116.78v41.12h116.78v-41.12" fill="#ffbe58"/><path d="m1396.5 972.5s0.6 8.332-9.13 11.269c-9.73 2.938-9.73 9.792-8.76 13.709 0.97 3.915 9.73 13.705 22.38 3.915 0 0 1.95 11.75 13.63 8.82 11.67-2.94 11.67-12.735 12.65-18.61 0 0 4.86 9.79 14.59 2.937 9.74-6.854 0-16.646 0-16.646s9.74 0 7.79-8.813c-1.95-8.812-10.7-14.688-16.54-10.771s-36.61 14.19-36.61 14.19" fill="#ff5873"/><path d="m1478.9 904.45h-123.58v16.646s18.72 16.927 53.15 16.787c34.43-0.141 44.16 0.578 70.43-14.469v-18.964" fill="#00c8bc"/><path d="m1391.3 942.64 27.25-36.23 31.14 36.23z" fill="#fff"/><path d="m1431.2 951.45v-19.604c0-1.243-0.49-2.428-1.36-3.309l-7.03-7.07c-1.81-1.821-4.77-1.821-6.58 0l-7.02 7.07c-0.88 0.881-1.37 2.066-1.37 3.309v19.604h23.36" fill="#ffbe58"/><path d="m872.73 643.01h-62.515c-5.847 0-10.587 4.74-10.587 10.58v12.918h83.689v-12.918c0-5.84-4.74-10.58-10.587-10.58" fill="#03015f"/><path d="m1429.2 946.56s-4.14-10.82-21.41-9.959v8.98l21.41 0.979" fill="#ff5873"/><path d="m1438 961.24c0-11.898-10.02-21.542-22.38-21.542s-22.38 9.644-22.38 21.542c0 11.897 10.02 21.542 22.38 21.542s22.38-9.645 22.38-21.542" fill="#ffbe58"/><path d="m1242.6 1366.5-1.18 4.86c44.97 10.89 90.64 32.56 135.75 64.42l2.89-4.09c-45.63-32.22-91.88-54.15-137.46-65.19" fill="#03015f"/><path d="m1172.1 1357.9c-29.33 0-58.45 4.46-87.09 13.37-37.92 11.81-75.06 31.39-110.37 58.22-60.065 45.63-94.546 97.18-94.887 97.7l4.169 2.76c0.337-0.51 34.435-51.46 93.867-96.58 34.844-26.44 71.444-45.74 108.8-57.35 46.63-14.5 94.59-16.99 142.55-7.42l0.98-4.91c-19.37-3.86-38.74-5.79-58.02-5.79" fill="#03015f"/><path d="m1936.3 401.82c-0.09 0.28-9.69 28.23-36.7 52.59-15.82 14.26-34.45 24.53-55.37 30.53-26.21 7.51-56.13 8.31-88.94 2.38-4.08-1.05-73.71-18.37-115.58 4.16l2.37 4.4c11.64-6.26 33.44-13.1 71.24-10.11 22.75 1.8 40.63 6.37 40.81 6.41l0.18 0.04c33.67 6.1 64.44 5.26 91.45-2.52 21.68-6.24 40.98-16.92 57.37-31.74 27.9-25.24 37.52-53.37 37.92-54.55l-4.75-1.59" fill="#00c8bc"/><path d="m955.33 628.99c-19.484 0-35.335 15.95-35.335 35.56 0 19.605 15.851 35.556 35.335 35.556s35.336-15.951 35.336-35.556c0-19.61-15.852-35.56-35.336-35.56" fill="#fff"/><path d="m955.33 715.47c-27.947 0-50.603-22.796-50.603-50.918 0-28.119 22.656-50.919 50.603-50.919s50.598 22.8 50.598 50.919c0 28.122-22.651 50.918-50.598 50.918zm0-30.724c11.066 0 20.069-9.059 20.069-20.194 0-11.139-9.003-20.189-20.069-20.189s-20.069 9.05-20.069 20.189c0 11.135 9.003 20.194 20.069 20.194" fill="#ff5873"/><g fill="#03015f"><path d="m397.73 670.42c0-14.604-11.763-26.434-26.274-26.434s-26.274 11.83-26.274 26.434c0 14.602 11.763 26.439 26.274 26.439s26.274-11.837 26.274-26.439"/><path d="m688.7 831.99c0-9.734-7.843-17.625-17.516-17.625-9.675 0-17.517 7.891-17.517 17.625 0 9.735 7.842 17.626 17.517 17.626 9.673 0 17.516-7.891 17.516-17.626"/><path d="m375.94 682.96-3.122 6.266 356.65 177.72 3.122-6.266-356.65-177.72"/><path d="m408.3 593.86-4.598 5.27 268.74 234.18 4.598-5.277-268.74-234.17"/><path d="m543.79 177.26-166.4 492.53 6.631 2.24 166.4-492.53-6.632-2.24"/><path d="m371.36 178.36-2.919 482.74 7 0.04 2.919-482.74-7-0.04"/><path d="m491.18 174.47-0.042 7 149.37 0.9 0.042-7-149.37-0.9"/><path d="m314.55 173.41-0.042 7 149.39 0.9 0.042-7-149.39-0.9"/></g><path d="m847.32 661.61c0-3.24-2.614-5.87-5.838-5.87-3.225 0-5.839 2.63-5.839 5.87 0 3.247 2.614 5.877 5.839 5.877 3.224 0 5.838-2.63 5.838-5.877" fill="#fff"/><path d="m1142.7 727.22c0-11.357-9.15-20.563-20.44-20.563-11.28 0-20.43 9.206-20.43 20.563s9.15 20.563 20.43 20.563c11.29 0 20.44-9.206 20.44-20.563" fill="#00c8bc"/><path d="m1107.4 726.2c-0.57 1.812-0.72 3.733-0.56 5.695l0.23 1.468 0.38 1.463c0.34 0.951 0.74 1.908 1.3 2.792 0.24 0.471 0.54 0.892 0.85 1.328 0.31 0.428 0.59 0.906 0.96 1.278 0.38 0.381 0.76 0.763 1.18 1.091 0.44 0.294 0.91 0.521 1.39 0.732l0.73 0.289c0.26 0.067 0.51 0.119 0.77 0.167 0.51 0.093 1.02 0.164 1.53 0.198 1.03 3e-3 2.08-0.171 3.1-0.571l0.09-0.455c-0.71-0.905-1.42-1.48-2.08-2.069-0.32-0.316-0.64-0.592-0.95-0.848-0.33-0.237-0.63-0.496-0.91-0.766-0.29-0.254-0.6-0.462-0.92-0.659-0.28-0.234-0.6-0.416-0.93-0.598-0.37-0.149-0.65-0.392-0.97-0.604l-0.47-0.338c-0.15-0.118-0.27-0.269-0.41-0.404-0.56-0.54-1.02-1.18-1.47-1.849l-0.62-1.053-0.53-1.137c-0.65-1.557-1.07-3.297-1.24-5.079l-0.45-0.071" fill="#fff"/><path d="m1203 727.22c0-11.357-9.15-20.563-20.43-20.563-11.29 0-20.44 9.206-20.44 20.563s9.15 20.563 20.44 20.563c11.28 0 20.43-9.206 20.43-20.563" fill="#00c8bc"/><path d="m1167.7 726.2c-0.57 1.812-0.71 3.733-0.55 5.695l0.22 1.468 0.38 1.463c0.35 0.951 0.74 1.908 1.3 2.792 0.24 0.471 0.55 0.892 0.85 1.328 0.31 0.428 0.59 0.906 0.97 1.278 0.37 0.381 0.75 0.763 1.17 1.091 0.44 0.294 0.92 0.521 1.4 0.732l0.73 0.289c0.25 0.067 0.5 0.119 0.76 0.167 0.51 0.093 1.02 0.164 1.53 0.198 1.04 3e-3 2.08-0.171 3.1-0.571l0.1-0.455c-0.71-0.905-1.43-1.48-2.09-2.069-0.32-0.316-0.63-0.592-0.95-0.848-0.33-0.237-0.63-0.496-0.91-0.766-0.29-0.254-0.6-0.462-0.91-0.659-0.29-0.234-0.61-0.416-0.94-0.598-0.36-0.149-0.64-0.392-0.96-0.604l-0.48-0.338c-0.15-0.118-0.27-0.269-0.41-0.404-0.56-0.54-1.01-1.18-1.46-1.849l-0.63-1.053-0.52-1.137c-0.65-1.557-1.07-3.297-1.24-5.079l-0.46-0.071" fill="#fff"/><path d="m1263.3 727.22c0-11.357-9.15-20.563-20.44-20.563s-20.44 9.206-20.44 20.563 9.15 20.563 20.44 20.563 20.44-9.206 20.44-20.563" fill="#00c8bc"/><path d="m1228.1 726.2c-0.57 1.812-0.71 3.733-0.55 5.695l0.23 1.468 0.37 1.463c0.35 0.951 0.75 1.908 1.3 2.792 0.24 0.471 0.55 0.892 0.86 1.328 0.3 0.428 0.58 0.906 0.96 1.278 0.37 0.381 0.75 0.763 1.18 1.091 0.43 0.294 0.91 0.521 1.39 0.732l0.73 0.289c0.25 0.067 0.51 0.119 0.76 0.167 0.52 0.093 1.03 0.164 1.54 0.198 1.03 3e-3 2.08-0.171 3.09-0.571l0.1-0.455c-0.71-0.905-1.42-1.48-2.08-2.069-0.32-0.316-0.64-0.592-0.96-0.848-0.33-0.237-0.63-0.496-0.9-0.766-0.29-0.254-0.61-0.462-0.92-0.659-0.28-0.234-0.6-0.416-0.94-0.598-0.36-0.149-0.64-0.392-0.96-0.604l-0.47-0.338c-0.16-0.118-0.27-0.269-0.41-0.404-0.56-0.54-1.02-1.18-1.47-1.849l-0.62-1.053-0.53-1.137c-0.65-1.557-1.07-3.297-1.24-5.079l-0.46-0.071" fill="#fff"/><path d="m1323.7 727.22c0-11.357-9.15-20.563-20.44-20.563-11.28 0-20.43 9.206-20.43 20.563s9.15 20.563 20.43 20.563c11.29 0 20.44-9.206 20.44-20.563" fill="#00c8bc"/><path d="m1288.4 726.2c-0.57 1.812-0.72 3.733-0.56 5.695l0.23 1.468 0.38 1.463c0.34 0.951 0.74 1.908 1.3 2.792 0.24 0.471 0.54 0.892 0.85 1.328 0.31 0.428 0.59 0.906 0.97 1.278 0.37 0.381 0.75 0.763 1.17 1.091 0.44 0.294 0.92 0.521 1.4 0.732l0.73 0.289c0.25 0.067 0.5 0.119 0.76 0.167 0.51 0.093 1.02 0.164 1.53 0.198 1.04 3e-3 2.08-0.171 3.1-0.571l0.09-0.455c-0.71-0.905-1.42-1.48-2.08-2.069-0.32-0.316-0.64-0.592-0.95-0.848-0.33-0.237-0.63-0.496-0.91-0.766-0.29-0.254-0.6-0.462-0.92-0.659-0.28-0.234-0.6-0.416-0.93-0.598-0.37-0.149-0.64-0.392-0.97-0.604l-0.47-0.338c-0.15-0.118-0.27-0.269-0.41-0.404-0.56-0.54-1.02-1.18-1.47-1.849l-0.62-1.053-0.53-1.137c-0.65-1.557-1.06-3.297-1.23-5.079l-0.46-0.071" fill="#fff"/><path d="m1384 727.22c0-11.357-9.15-20.563-20.43-20.563-11.29 0-20.44 9.206-20.44 20.563s9.15 20.563 20.44 20.563c11.28 0 20.43-9.206 20.43-20.563" fill="#00c8bc"/><path d="m1348.7 726.2c-0.57 1.812-0.71 3.733-0.55 5.695l0.22 1.468 0.38 1.463c0.35 0.951 0.75 1.908 1.3 2.792 0.24 0.471 0.55 0.892 0.85 1.328 0.31 0.428 0.59 0.906 0.97 1.278 0.37 0.381 0.75 0.763 1.17 1.091 0.44 0.294 0.92 0.521 1.4 0.732l0.73 0.289c0.25 0.067 0.51 0.119 0.76 0.167 0.51 0.093 1.02 0.164 1.54 0.198 1.03 3e-3 2.08-0.171 3.09-0.571l0.1-0.455c-0.71-0.905-1.43-1.48-2.09-2.069-0.31-0.316-0.63-0.592-0.95-0.848-0.33-0.237-0.63-0.496-0.91-0.766-0.29-0.254-0.6-0.462-0.91-0.659-0.29-0.234-0.61-0.416-0.94-0.598-0.36-0.149-0.64-0.392-0.96-0.604l-0.48-0.338c-0.15-0.118-0.27-0.269-0.41-0.404-0.55-0.54-1.01-1.18-1.46-1.849l-0.63-1.053-0.52-1.137c-0.65-1.557-1.07-3.297-1.24-5.079l-0.46-0.071" fill="#fff"/><path d="m1444.3 727.22c0-11.357-9.15-20.563-20.44-20.563-11.28 0-20.43 9.206-20.43 20.563s9.15 20.563 20.43 20.563c11.29 0 20.44-9.206 20.44-20.563" fill="#00c8bc"/><path d="m1409.1 726.2c-0.57 1.812-0.72 3.733-0.56 5.695l0.23 1.468 0.37 1.463c0.35 0.951 0.75 1.908 1.3 2.792 0.24 0.471 0.55 0.892 0.86 1.328 0.31 0.428 0.59 0.906 0.96 1.278 0.37 0.381 0.76 0.763 1.18 1.091 0.43 0.294 0.91 0.521 1.39 0.732l0.73 0.289c0.26 0.067 0.51 0.119 0.76 0.167 0.52 0.093 1.03 0.164 1.54 0.198 1.03 3e-3 2.08-0.171 3.09-0.571l0.1-0.455c-0.71-0.905-1.42-1.48-2.08-2.069-0.32-0.316-0.64-0.592-0.96-0.848-0.33-0.237-0.62-0.496-0.9-0.766-0.29-0.254-0.6-0.462-0.92-0.659-0.28-0.234-0.6-0.416-0.93-0.598-0.37-0.149-0.65-0.392-0.97-0.604l-0.47-0.338c-0.16-0.118-0.27-0.269-0.41-0.404-0.56-0.54-1.02-1.18-1.47-1.849l-0.62-1.053-0.53-1.137c-0.65-1.557-1.07-3.297-1.24-5.079l-0.45-0.071" fill="#fff"/><path d="m1034.2 1229.8c0-16.22-13.08-29.38-29.2-29.38-16.122 0-29.192 13.16-29.192 29.38s13.07 29.37 29.192 29.37c16.12 0 29.2-13.15 29.2-29.37" fill="#fff"/><path d="m1101.7 796.74h-355.97c-8.653 0-15.667 7.014-15.667 15.667 0 8.652 7.014 15.667 15.667 15.667h355.97c8.65 0 15.67-7.015 15.67-15.667 0-8.653-7.02-15.667-15.67-15.667" fill="#ffbe58"/><path d="m1570.7 1205.8h-439.55c-13.25 0-23.99 10.74-23.99 23.99s10.74 23.99 23.99 23.99h439.55c13.25 0 23.99-10.74 23.99-23.99s-10.74-23.99-23.99-23.99" fill="#fff"/><path d="m1110.2 871.16h-373.03c-6.306 0-11.975-3.868-14.309-9.763l-16.236-41.014c-1.141-2.884 0.97-6.016 4.054-6.016h426.01c3.08 0 5.2 3.132 4.05 6.016l-16.23 41.014c-2.34 5.895-8.01 9.763-14.31 9.763" fill="#03015f"/><path d="m1849.2 1272.7c2.42 0.04 4.91-0.22 7.25-1.14 2.36-0.9 4.41-2.42 6.24-3.99 1.83-1.58 3.51-3.21 5.32-4.46 1.81-1.26 3.75-2.1 5.81-2.46 2.04-0.41 4.26-0.24 6.28 0.11 2.05 0.36 3.84 1.27 5.49 2.51 1.66 1.25 3.16 2.88 4.85 4.62 1.68 1.74 3.62 3.6 6.06 4.98 2.42 1.39 5.27 2.21 7.97 2.35l1.03 0.09c0.34 0.02 0.68-0.01 1.02-0.01 0.69-0.02 1.38-0.04 2.07-0.08l2.09-0.35c0.36-0.05 0.7-0.13 1.04-0.25l1.04-0.33c2.75-0.91 5.2-2.54 7.18-4.21 2-1.67 3.65-3.33 5.27-4.56 1.61-1.24 3.12-2.1 4.81-2.49 0.41-0.14 0.87-0.14 1.3-0.23 0.22-0.03 0.43-0.09 0.66-0.1l0.69-0.01c0.47 0 0.93-0.06 1.39-0.02l1.38 0.14c1.78 0.28 3.33 0.82 4.77 1.78 1.46 0.95 2.87 2.35 4.52 4.05 1.64 1.69 3.57 3.7 6.15 5.35 2.56 1.68 5.66 2.77 8.65 3.17l2.24 0.21c0.74 0.05 1.49-0.01 2.24-0.02l1.13-0.04c0.38-0.03 0.77-0.1 1.15-0.16 0.77-0.15 1.55-0.21 2.32-0.45 3.14-0.75 6.05-2.48 8.28-4.23 2.24-1.78 3.96-3.52 5.48-4.77 1.5-1.3 2.77-2.05 4.09-2.53l0.49-0.18 0.25-0.09 0.28-0.05c0.36-0.06 0.72-0.14 1.09-0.23 0.8-0.01 1.61-0.19 2.43-0.1 1.69 0 3.03 0.31 4.38 0.93 1.36 0.6 2.79 1.67 4.49 3.15 1.71 1.44 3.67 3.32 6.23 4.91 2.53 1.58 5.66 2.79 8.66 3 2.99 0.23 5.81 0.09 8.68-0.81 2.85-0.83 5.51-2.44 7.51-4.3 2.03-1.86 3.51-3.84 4.96-5.58 1.43-1.77 2.87-3.29 4.65-4.44 1.78-1.17 3.9-1.89 6.19-2.39v-1.18c-2.42-0.38-5.03-0.37-7.59 0.39-2.57 0.73-4.87 2.23-6.87 3.69-2 1.48-3.78 2.96-5.52 3.97-1.74 1.02-3.4 1.56-5.15 1.74-0.45 0.02-0.87 0.1-1.32 0.1l-1.39-0.07c-0.45 0.01-0.9-0.12-1.35-0.18-0.44-0.08-0.92-0.09-1.3-0.26-1.7-0.4-3-1.17-4.34-2.25-1.34-1.1-2.72-2.61-4.42-4.43-1.71-1.78-3.87-3.87-6.7-5.47-1.4-0.81-2.95-1.39-4.5-1.88-0.78-0.19-1.57-0.36-2.36-0.51-0.79-0.16-1.54-0.17-2.31-0.24l-1.16-0.09c-0.38-0.01-0.77 0.03-1.15 0.04-0.78 0.04-1.55 0.08-2.32 0.14-1.59 0.27-3.18 0.56-4.73 1.18-3.13 1.13-5.81 3.12-7.82 4.97-2.03 1.87-3.53 3.62-4.92 4.86-1.38 1.27-2.56 2.13-4 2.62-0.34 0.16-0.76 0.2-1.13 0.32-0.19 0.05-0.38 0.12-0.58 0.16l-0.64 0.07c-0.42 0.03-0.85 0.13-1.28 0.14l-1.3-0.01c-1.69-0.11-3.18-0.44-4.66-1.24-1.47-0.8-2.98-2.09-4.72-3.69-1.74-1.59-3.77-3.49-6.37-4.99-2.59-1.53-5.64-2.41-8.53-2.65l-2.15-0.08c-0.71-0.01-1.43 0.09-2.14 0.14l-1.07 0.1c-0.36 0.05-0.72 0.14-1.08 0.22-0.72 0.17-1.45 0.27-2.15 0.53-2.88 0.85-5.46 2.58-7.47 4.35-2.02 1.79-3.59 3.62-5.13 5.08-1.54 1.48-3.03 2.59-4.72 3.29l-0.64 0.25c-0.21 0.1-0.43 0.18-0.66 0.22l-1.37 0.33-1.47 0.15c-0.24 0.02-0.49 0.07-0.73 0.07l-0.74-0.02c-2.01 0.04-3.85-0.38-5.59-1.2-1.75-0.81-3.4-2.11-5.12-3.64-1.73-1.52-3.57-3.28-5.81-4.71-2.22-1.44-4.86-2.5-7.5-2.76-2.63-0.26-5.22-0.22-7.77 0.5-2.54 0.66-4.92 1.97-6.85 3.59-1.95 1.62-3.54 3.44-5.15 5.09-1.61 1.66-3.3 3.16-5.29 4.14-1.99 1.01-4.23 1.47-6.52 1.64v1.18" fill="#3fccbe"/><path d="m2043.8 1214.7c-2.42-0.05-4.91 0.22-7.26 1.14-2.35 0.9-4.4 2.42-6.23 3.99-1.83 1.58-3.51 3.2-5.32 4.45-1.81 1.27-3.75 2.11-5.81 2.46-2.04 0.41-4.26 0.25-6.28-0.1-2.05-0.36-3.84-1.28-5.49-2.52-1.66-1.24-3.16-2.88-4.85-4.62-1.68-1.73-3.62-3.59-6.06-4.97-2.42-1.39-5.27-2.22-7.97-2.36l-1.03-0.09c-0.34-0.02-0.68 0.01-1.03 0.01-0.68 0.03-1.37 0.05-2.06 0.08l-2.09 0.35c-0.36 0.05-0.7 0.14-1.05 0.26l-1.03 0.32c-2.75 0.91-5.21 2.55-7.18 4.22-2 1.67-3.65 3.32-5.27 4.55-1.61 1.25-3.12 2.11-4.81 2.49-0.41 0.14-0.87 0.15-1.3 0.24-0.22 0.03-0.43 0.08-0.66 0.1l-0.69 0.01c-0.47 0-0.93 0.06-1.39 0.02l-1.38-0.14c-1.79-0.28-3.33-0.83-4.78-1.78s-2.86-2.35-4.51-4.05c-1.64-1.7-3.57-3.71-6.15-5.36-2.56-1.67-5.67-2.76-8.66-3.17l-2.23-0.21c-0.74-0.05-1.49 0.01-2.24 0.02l-1.13 0.04c-0.38 0.03-0.77 0.11-1.15 0.17-0.78 0.14-1.56 0.21-2.32 0.45-3.14 0.74-6.05 2.47-8.28 4.22-2.24 1.79-3.97 3.52-5.48 4.78-1.5 1.29-2.77 2.04-4.09 2.52l-0.5 0.18-0.24 0.1-0.28 0.04c-0.37 0.06-0.73 0.14-1.09 0.24-0.81 0.01-1.62 0.18-2.43 0.09-1.69 0.01-3.03-0.3-4.38-0.93-1.37-0.59-2.8-1.66-4.49-3.15-1.71-1.44-3.67-3.31-6.23-4.9-2.53-1.58-5.66-2.8-8.66-3-2.99-0.24-5.81-0.09-8.68 0.8-2.85 0.84-5.51 2.44-7.51 4.31-2.03 1.86-3.51 3.84-4.96 5.57-1.43 1.77-2.88 3.29-4.65 4.45-1.78 1.16-3.9 1.88-6.19 2.39v1.17c2.42 0.38 5.03 0.37 7.59-0.39 2.57-0.72 4.86-2.22 6.87-3.68 2-1.49 3.78-2.96 5.52-3.97 1.73-1.02 3.39-1.56 5.15-1.75 0.45-0.02 0.86-0.1 1.32-0.09l1.38 0.07c0.46-0.02 0.91 0.12 1.36 0.17 0.44 0.09 0.91 0.1 1.3 0.26 1.69 0.41 3 1.17 4.34 2.26s2.72 2.6 4.42 4.42c1.71 1.78 3.87 3.87 6.7 5.47 1.39 0.82 2.95 1.39 4.5 1.89 0.78 0.19 1.57 0.35 2.36 0.51s1.54 0.16 2.31 0.24l1.16 0.08c0.38 0.02 0.77-0.02 1.15-0.03 0.77-0.04 1.54-0.08 2.32-0.14 1.59-0.27 3.17-0.56 4.73-1.18 3.12-1.13 5.81-3.12 7.82-4.97 2.03-1.88 3.53-3.62 4.92-4.86 1.38-1.27 2.56-2.13 4-2.62 0.34-0.17 0.75-0.2 1.13-0.33 0.19-0.05 0.37-0.12 0.58-0.15l0.64-0.07c0.42-0.04 0.85-0.14 1.28-0.14l1.3 0.01c1.69 0.11 3.18 0.44 4.65 1.24 1.48 0.79 2.99 2.09 4.73 3.69 1.74 1.59 3.77 3.49 6.37 4.99 2.58 1.52 5.64 2.4 8.53 2.64l2.15 0.08c0.71 0.01 1.43-0.09 2.14-0.14l1.07-0.1c0.36-0.04 0.72-0.14 1.08-0.21 0.72-0.18 1.45-0.28 2.15-0.54 2.88-0.85 5.46-2.57 7.47-4.34 2.02-1.8 3.59-3.62 5.13-5.09s3.03-2.58 4.72-3.28l0.64-0.26c0.2-0.1 0.42-0.17 0.66-0.21l1.37-0.34 1.47-0.15c0.24-0.02 0.49-0.07 0.73-0.07l0.74 0.02c2.01-0.03 3.85 0.38 5.59 1.21 1.75 0.81 3.4 2.11 5.12 3.64 1.73 1.52 3.57 3.27 5.81 4.71 2.22 1.43 4.86 2.5 7.5 2.75 2.63 0.27 5.22 0.23 7.77-0.49 2.54-0.67 4.92-1.97 6.85-3.6 1.95-1.61 3.53-3.44 5.15-5.09 1.61-1.66 3.29-3.15 5.29-4.14 1.99-1 4.23-1.46 6.52-1.64v-1.17" fill="#ffbe58"/><path d="m1250.3 593.77c1.66 0.03 3.37-0.15 4.97-0.78 1.61-0.62 3.02-1.66 4.27-2.74 1.26-1.08 2.41-2.19 3.65-3.05 1.23-0.86 2.56-1.44 3.97-1.68 1.4-0.28 2.92-0.17 4.31 0.07 1.4 0.25 2.63 0.87 3.76 1.72 1.14 0.86 2.16 1.98 3.32 3.17 1.15 1.19 2.48 2.46 4.15 3.41 1.66 0.95 3.61 1.51 5.46 1.61l0.71 0.06c0.23 0.01 0.46-0.01 0.7-0.01 0.47-0.01 0.94-0.03 1.41-0.05l1.44-0.24c0.24-0.03 0.48-0.09 0.71-0.17l0.71-0.23c1.88-0.62 3.57-1.74 4.92-2.88 1.37-1.15 2.5-2.28 3.61-3.13 1.1-0.85 2.14-1.44 3.29-1.7 0.28-0.1 0.6-0.1 0.89-0.16 0.15-0.02 0.3-0.06 0.45-0.07l0.48-0.01c0.32 0 0.64-0.04 0.95-0.01l0.94 0.09c1.23 0.19 2.29 0.57 3.28 1.22 1 0.65 1.96 1.61 3.09 2.78 1.12 1.16 2.45 2.53 4.21 3.67s3.88 1.89 5.93 2.17l1.53 0.14c0.51 0.04 1.02 0 1.54-0.01l0.77-0.03c0.26-0.02 0.53-0.07 0.79-0.11 0.53-0.1 1.06-0.15 1.59-0.31 2.15-0.51 4.14-1.7 5.67-2.89 1.53-1.23 2.72-2.42 3.75-3.28 1.03-0.88 1.9-1.4 2.8-1.73l0.51-0.18 0.19-0.03c0.25-0.05 0.5-0.1 0.75-0.16 0.55-0.01 1.11-0.13 1.66-0.07 1.16-0.01 2.08 0.21 3 0.63 0.94 0.41 1.92 1.15 3.08 2.16 1.17 0.99 2.51 2.28 4.27 3.36 1.73 1.09 3.88 1.92 5.93 2.06 2.05 0.16 3.98 0.06 5.95-0.55 1.95-0.58 3.77-1.67 5.14-2.95 1.39-1.27 2.41-2.63 3.4-3.82 0.98-1.21 1.97-2.25 3.19-3.05 1.21-0.79 2.66-1.29 4.23-1.63v-0.81c-1.66-0.26-3.44-0.25-5.19 0.27-1.77 0.5-3.34 1.52-4.71 2.52-1.37 1.02-2.59 2.03-3.78 2.72-1.19 0.7-2.33 1.07-3.53 1.2-0.31 0.01-0.59 0.07-0.91 0.06l-0.94-0.04c-0.32 0.01-0.63-0.08-0.93-0.12-0.3-0.06-0.63-0.07-0.89-0.18-1.16-0.28-2.05-0.8-2.97-1.55s-1.87-1.78-3.03-3.03c-1.17-1.22-2.66-2.65-4.59-3.74-0.96-0.56-2.02-0.96-3.09-1.29-0.53-0.13-1.07-0.25-1.61-0.36-0.54-0.1-1.06-0.11-1.59-0.16l-0.79-0.06c-0.26-0.01-0.53 0.02-0.79 0.03-0.53 0.02-1.05 0.05-1.58 0.09-1.09 0.19-2.18 0.39-3.25 0.81-2.14 0.77-3.97 2.14-5.35 3.4-1.39 1.29-2.42 2.49-3.37 3.34-0.95 0.87-1.76 1.45-2.74 1.79-0.24 0.11-0.52 0.14-0.77 0.22-0.14 0.03-0.26 0.08-0.4 0.11l-0.44 0.04c-0.29 0.03-0.59 0.1-0.88 0.1l-0.89-0.01c-1.16-0.07-2.18-0.3-3.19-0.85-1.01-0.54-2.04-1.43-3.24-2.52-1.19-1.09-2.58-2.39-4.36-3.42-1.77-1.04-3.86-1.65-5.84-1.81l-1.47-0.06c-0.49-0.01-0.98 0.07-1.47 0.1l-0.73 0.07c-0.25 0.03-0.5 0.09-0.74 0.14-0.5 0.12-0.99 0.19-1.47 0.37-1.98 0.58-3.75 1.77-5.12 2.98-1.38 1.23-2.46 2.48-3.52 3.48-1.05 1.01-2.07 1.77-3.23 2.25l-0.44 0.18c-0.14 0.07-0.29 0.12-0.45 0.14l-0.94 0.23-1 0.11c-0.17 0.01-0.34 0.04-0.51 0.04l-0.5-0.01c-1.38 0.03-2.64-0.26-3.83-0.83-1.2-0.55-2.33-1.44-3.51-2.49-1.18-1.04-2.44-2.24-3.98-3.23-1.52-0.98-3.33-1.71-5.14-1.88-1.79-0.19-3.57-0.16-5.32 0.34-1.74 0.45-3.37 1.34-4.69 2.46-1.34 1.1-2.42 2.35-3.53 3.48-1.1 1.14-2.26 2.17-3.62 2.84-1.37 0.69-2.9 1.01-4.47 1.12v0.81" fill="#ff5873"/><path d="m1383.6 554.06c-1.66-0.03-3.36 0.15-4.97 0.78-1.61 0.62-3.02 1.66-4.27 2.73-1.25 1.08-2.4 2.2-3.64 3.06s-2.57 1.44-3.98 1.68c-1.4 0.28-2.92 0.17-4.3-0.07-1.41-0.25-2.63-0.88-3.77-1.72-1.13-0.86-2.16-1.98-3.31-3.17s-2.49-2.46-4.16-3.41c-1.66-0.95-3.61-1.51-5.46-1.61l-0.7-0.06c-0.23-0.02-0.47 0-0.7 0.01-0.47 0.01-0.95 0.02-1.42 0.05l-1.43 0.24c-0.24 0.03-0.48 0.09-0.72 0.17l-0.7 0.23c-1.89 0.62-3.57 1.74-4.93 2.88-1.36 1.15-2.5 2.28-3.6 3.12-1.1 0.86-2.14 1.45-3.3 1.71-0.28 0.09-0.6 0.1-0.89 0.16-0.15 0.02-0.29 0.06-0.45 0.07l-0.48 0.01c-0.31 0-0.63 0.04-0.95 0.01l-0.94-0.09c-1.22-0.2-2.28-0.57-3.27-1.23-1-0.64-1.97-1.61-3.09-2.77-1.13-1.16-2.45-2.54-4.22-3.67-1.75-1.15-3.88-1.89-5.93-2.17l-1.52-0.14c-0.52-0.04-1.03 0-1.54 0.01l-0.77 0.03c-0.26 0.02-0.53 0.07-0.8 0.11-0.52 0.1-1.06 0.15-1.58 0.31-2.15 0.51-4.15 1.69-5.68 2.89-1.53 1.23-2.71 2.42-3.75 3.27-1.03 0.89-1.89 1.41-2.8 1.74l-0.51 0.18-0.19 0.03c-0.25 0.04-0.49 0.1-0.74 0.16-0.56 0.01-1.11 0.13-1.67 0.07-1.16 0-2.07-0.21-3-0.64-0.94-0.4-1.91-1.14-3.08-2.15-1.17-0.99-2.51-2.28-4.26-3.36-1.74-1.09-3.88-1.92-5.94-2.06-2.04-0.16-3.97-0.06-5.94 0.55-1.95 0.57-3.78 1.67-5.15 2.95-1.39 1.27-2.4 2.63-3.4 3.82-0.97 1.21-1.96 2.25-3.18 3.04-1.22 0.8-2.67 1.29-4.24 1.64v0.81c1.66 0.26 3.45 0.25 5.2-0.27 1.76-0.5 3.33-1.53 4.71-2.52 1.37-1.02 2.59-2.03 3.78-2.72 1.19-0.7 2.32-1.07 3.52-1.2 0.31-0.02 0.6-0.07 0.91-0.06l0.95 0.04c0.31-0.01 0.62 0.08 0.93 0.12 0.3 0.06 0.62 0.07 0.89 0.18 1.16 0.28 2.05 0.8 2.97 1.55s1.86 1.78 3.03 3.03c1.17 1.22 2.65 2.65 4.59 3.74 0.95 0.56 2.02 0.96 3.08 1.29 0.54 0.13 1.08 0.25 1.62 0.36 0.54 0.1 1.05 0.11 1.58 0.16l0.79 0.05c0.27 0.02 0.53-0.01 0.79-0.02 0.53-0.02 1.06-0.05 1.59-0.09 1.09-0.19 2.18-0.39 3.24-0.81 2.14-0.78 3.98-2.14 5.36-3.41 1.38-1.28 2.41-2.48 3.37-3.33 0.95-0.87 1.75-1.45 2.74-1.79 0.23-0.11 0.51-0.14 0.77-0.22 0.13-0.04 0.26-0.08 0.4-0.11l0.43-0.05c0.3-0.02 0.59-0.09 0.88-0.09h0.89c1.16 0.08 2.18 0.31 3.19 0.86 1.02 0.54 2.05 1.42 3.24 2.52 1.19 1.09 2.58 2.39 4.36 3.42 1.77 1.04 3.87 1.65 5.84 1.81l1.48 0.06c0.49 0 0.98-0.07 1.47-0.1l0.73-0.07c0.24-0.03 0.49-0.09 0.74-0.14 0.49-0.13 0.99-0.19 1.47-0.37 1.98-0.59 3.74-1.77 5.12-2.98 1.38-1.23 2.46-2.48 3.51-3.48 1.05-1.01 2.08-1.77 3.23-2.25l0.44-0.18c0.14-0.07 0.29-0.12 0.45-0.14l0.94-0.23 1.01-0.11c0.17-0.01 0.33-0.04 0.5-0.04l0.51 0.01c1.38-0.03 2.64 0.26 3.83 0.83 1.19 0.55 2.32 1.44 3.51 2.49 1.18 1.04 2.44 2.24 3.97 3.23 1.52 0.98 3.34 1.71 5.14 1.88 1.8 0.18 3.57 0.16 5.32-0.34 1.74-0.45 3.37-1.35 4.7-2.46 1.33-1.1 2.42-2.36 3.53-3.49 1.1-1.13 2.25-2.16 3.62-2.83 1.36-0.69 2.89-1.01 4.46-1.12v-0.81" fill="#ffbe58"/><path d="m1056.1 1006.7h-90.496v17.62h90.496v-17.62" fill="#ff5874"/><path d="m1158.3 1006.7h-84.11v17.62h84.11v-17.62" fill="#3fccbe"/><path d="m1483.3 494.6h90.5v-17.63h-90.5v17.63" fill="#ff5874"/><path d="m1445.8 494.6h19.47v-17.63h-19.47v17.63" fill="#3fccbe"/><path d="m738.89 1358.2h-90.5v17.62h90.5v-17.62" fill="#ffe9e9"/><path d="m480.9 958.46-25.48 25.639 25.48 25.636 25.481-25.636-25.481-25.639" fill="#ffb152"/><path d="m2026.2 874.25-25.48 25.639 25.48 25.64 25.48-25.64-25.48-25.639" fill="#ffe9e9"/><path d="m1637.5 976.91h-33.08v45.048h33.08v-45.048" fill="#ffbe58"/><path d="m1691 907.39h-48.65v48.96h48.65v-48.96" fill="#ffbe58"/><path d="m801.58 1047.4h-79.796v46.03h79.796v-46.03" fill="#fff"/><path d="m735.47 1090.1h52.414v20.69c0 14.45-11.756 26.21-26.207 26.21s-26.207-11.76-26.207-26.21zm57.414-5h-62.414v25.69c0 17.21 14 31.21 31.207 31.21 17.208 0 31.207-14 31.207-31.21v-25.69" fill="#fff"/><path d="m1431.2 970.06s-16.77 10.755-34.66 2.44l2.55 14.207 23.35 2.937 11.68-7.833 3.89-4.896-6.81-6.855" fill="#ff5873"/><path d="m1441.9 968.1c0-3.785-3.05-6.854-6.81-6.854s-6.81 3.069-6.81 6.854c0 3.786 3.05 6.854 6.81 6.854s6.81-3.068 6.81-6.854" fill="#ffbe58"/><path d="m1417.6 970.02c-3.73 0-6.76-3.056-6.76-6.813 0-3.756 3.03-6.813 6.76-6.813 3.72 0 6.75 3.057 6.75 6.813 0 3.757-3.03 6.813-6.75 6.813zm0-17.626c-5.94 0-10.76 4.851-10.76 10.813s4.82 10.813 10.76 10.813c5.93 0 10.75-4.851 10.75-10.813s-4.82-10.813-10.75-10.813" fill="#fff"/><g fill="#03015f"><path d="m728.99 858.34c-0.04 0-0.081 1e-3 -0.123 3e-3 -1.379 0.067-2.443 1.239-2.376 2.618 0.934 19.295-5.642 37.323-17.593 48.226-9.369 8.548-21.418 12.065-34.842 10.175-4.761-0.671-12.982-3.216-14.562-12.714-1.354-8.159 2.061-13.723 10.149-16.538 5.139-1.789 10.315-2.614 15.319-3.412 12.035-1.919 23.401-3.732 31.968-17.928 0.714-1.182 0.333-2.718-0.849-3.432-1.182-0.712-2.719-0.333-3.432 0.849-7.367 12.207-17.148 13.767-28.474 15.573-5.22 0.833-10.617 1.693-16.175 3.628-10.426 3.628-15.199 11.47-13.439 22.079 1.537 9.238 8.388 15.378 18.797 16.846 14.95 2.108 28.405-1.847 38.91-11.432 13.039-11.896 20.223-31.396 19.217-52.162-0.065-1.338-1.17-2.379-2.495-2.379"/><path d="m522.48 614.06c-6.246 0-12.428 0.84-18.331 2.56-15.542 4.51-27.36 14.51-34.178 28.93-3.755 7.93-6.161 16.79-8.488 25.354-4.317 15.886-8.396 30.891-20.327 41.302-10.985 9.585-31.343 11.126-46.35 3.508-6.721-3.411-17.787-11.542-16.394-27.675 0.118-1.375-0.9-2.587-2.276-2.705-1.371-0.128-2.587 0.9-2.706 2.276-1.201 13.919 5.765 25.788 19.112 32.563 16.974 8.615 39.285 6.809 51.901-4.199 13.073-11.406 17.542-27.854 21.865-43.759 2.27-8.355 4.617-16.995 8.183-24.525 6.188-13.09 16.926-22.17 31.052-26.27 17.006-4.94 37.415-1.79 53.257 8.23 41.082 25.97 51.913 77.891 61.469 123.7l0.784 3.755c4.3 20.768 17.562 40.462 40.542 60.201 2.984 2.609 6.133 5.133 9.343 7.486 1.113 0.815 2.677 0.575 3.494-0.538 0.816-1.114 0.575-2.679-0.538-3.495-3.095-2.268-6.131-4.701-9.024-7.231-22.127-19.006-34.853-37.791-38.922-57.442l-0.784-3.758c-9.759-46.78-20.82-99.798-63.692-126.91-11.798-7.46-25.537-11.36-38.992-11.36"/><path d="m333.3 678.69c-6.425 0-12.864 0.278-19.237 0.834-2.718 0.236-5.359 0.559-7.794 1.894-4.287 2.351-6.875 7.581-6.441 13.015 0.342 4.271 2.404 8.601 5.964 12.524 8.809 9.702 23.479 13.194 35.676 8.485 12.19-4.703 20.774-17.161 20.875-30.291 0.011-1.381-1.1-2.509-2.481-2.52h-0.019c-1.372 0-2.489 1.107-2.5 2.481-0.084 10.952-7.517 21.746-17.675 25.666-10.151 3.917-22.84 0.896-30.174-7.182-1.959-2.158-4.362-5.57-4.682-9.562-0.276-3.449 1.312-6.834 3.86-8.231 1.586-0.869 3.576-1.103 5.825-1.299 9.05-0.787 18.239-1.006 27.316-0.646 1.361 0.046 2.542-1.02 2.597-2.4 0.054-1.38-1.02-2.542-2.4-2.596-2.894-0.115-5.801-0.172-8.71-0.172"/><path d="m1862.2 174.73-0.02 7 261.83 0.64 0.01-7-261.82-0.64"/><path d="m1323.2 173.41-0.02 7 432.93 1.06 0.02-7-432.93-1.06"/></g><path d="m842.94 465.23c-0.555 0-1.098 0.19-1.541 0.53l-35.032 27.42 3.082 3.94 32.963-25.8 35.464 50.24 4.085-2.88-36.979-52.39c-0.395-0.56-1.001-0.93-1.678-1.03-0.121-0.02-0.243-0.03-0.364-0.03" fill="#fff"/><path d="m765.57 1077.8c0-2.16-1.743-3.92-3.893-3.92s-3.892 1.76-3.892 3.92 1.742 3.92 3.892 3.92 3.893-1.76 3.893-3.92" fill="#ffbe58"/><path d="m768.25 1063.1h-13.138l3.65 13.71h5.839l3.649-13.71" fill="#ffbe58"/><path d="m2083.2 331.62-1.91-9.79h-217.2l-1.9 9.79h221.01" fill="#fff"/><path d="m745.14 880.3 10.38-6.528h20.76v-3.917h-31.14v10.445" fill="#03015f"/><path d="m1738.7 485.36c0-4.87-3.92-8.82-8.76-8.82s-8.76 3.95-8.76 8.82c0 4.86 3.92 8.81 8.76 8.81s8.76-3.95 8.76-8.81" fill="#00c8bc"/><g fill="#ff5873"><path d="m1821.4 176.91c0-7.57-6.1-13.71-13.62-13.71s-13.62 6.14-13.62 13.71 6.1 13.71 13.62 13.71 13.62-6.14 13.62-13.71"/><path d="m1398.8 973.22c0.46 2.933-0.6 5.636-3.56 6.724-5.32 1.959-10.88-3.011-14.95 2.825-1.1 1.572-3.7 0.074-2.59-1.514 1.52-2.178 3.49-3.812 6.12-4.438 2.59-0.615 12.94 2.601 12.09-2.8-0.3-1.889 2.59-2.702 2.89-0.797"/><path d="m1426.9 972.4c1.49-2.058 2.25-4.326 2.23-6.874-0.02-1.93 2.98-1.932 3 0 0.03 3.026-0.86 5.933-2.64 8.388-1.12 1.549-3.72 0.053-2.59-1.514"/></g><path d="m1396.2 970.02c-3.73 0-6.76-3.056-6.76-6.813 0-3.756 3.03-6.813 6.76-6.813 3.72 0 6.76 3.057 6.76 6.813 0 3.757-3.04 6.813-6.76 6.813zm0-17.626c-5.93 0-10.76 4.851-10.76 10.813s4.83 10.813 10.76 10.813 10.76-4.851 10.76-10.813-4.83-10.813-10.76-10.813" fill="#fff"/><g fill="#03015f"><path d="m1481.4 901.95h-23.56v5h18.56v82.689h5v-87.689"/><path d="m1484.3 676.74h-23.58v5h18.54l-0.46 54.271 5 0.043 0.5-59.314"/><path d="m1435.1 901.95h-79.79v5h79.79v-5"/></g><path d="m967.98 253.29h-253.01v56.79h253.01v-56.79" fill="#ffe9e9"/><path d="m887.21 251.33h-91.473v7.83h91.473v-7.83" fill="#fff"/><path d="m887.21 259.16h-91.473v-7.83h91.473v7.83" fill="#03015f"/><g fill="#fff"><path d="m841.48 292.43c-3.466 0-6.286-2.85-6.286-6.34s2.82-6.33 6.286-6.33c3.465 0 6.284 2.84 6.284 6.33s-2.819 6.34-6.284 6.34zm0-15.67c-5.12 0-9.286 4.18-9.286 9.33s4.166 9.34 9.286 9.34c5.119 0 9.284-4.19 9.284-9.34s-4.165-9.33-9.284-9.33"/><path d="m753.21 286.49 13.778-7.62v14.56zm15.278-11.67c-0.25 0-0.5 0.07-0.726 0.19l-18.49 10.23c-0.487 0.27-0.784 0.79-0.773 1.35 0.011 0.55 0.328 1.06 0.825 1.31l18.49 9.3c0.465 0.23 1.018 0.21 1.461-0.06 0.443-0.28 0.713-0.76 0.713-1.28v-19.54c0-0.53-0.281-1.02-0.738-1.29-0.235-0.14-0.498-0.21-0.762-0.21"/><path d="m909.64 293.31v-14.55l13.778 6.93zm-1.5-18.49c-0.273 0-0.546 0.08-0.787 0.23-0.443 0.27-0.713 0.75-0.713 1.27v19.54c0 0.53 0.281 1.02 0.738 1.29 0.458 0.27 1.023 0.28 1.488 0.02l18.49-10.23c0.487-0.27 0.785-0.79 0.773-1.34-0.01-0.56-0.328-1.06-0.825-1.31l-18.489-9.31c-0.213-0.1-0.444-0.16-0.675-0.16"/><path d="m819.1 384.5c0-3.79-3.05-6.85-6.812-6.85-3.763 0-6.812 3.06-6.812 6.85s3.049 6.85 6.812 6.85c3.762 0 6.812-3.06 6.812-6.85"/><path d="m848.29 384.5c0-3.79-3.05-6.85-6.811-6.85-3.763 0-6.813 3.06-6.813 6.85s3.05 6.85 6.813 6.85c3.761 0 6.811-3.06 6.811-6.85"/><path d="m877.48 384.5c0-3.79-3.05-6.85-6.812-6.85s-6.812 3.06-6.812 6.85 3.05 6.85 6.812 6.85 6.812-3.06 6.812-6.85"/><path d="m1130.1 811.87h-171.28v5h171.28v-5"/><path d="m943.24 811.87h-112.47v5h112.47v-5"/></g><path d="m1088.6 556.84c0-4.87-3.92-8.81-8.76-8.81-4.83 0-8.76 3.94-8.76 8.81s3.93 8.81 8.76 8.81c4.84 0 8.76-3.94 8.76-8.81" fill="#ffe9e9"/><path d="m1436.5 676.25h-112.88v5h112.88v-5" fill="#03015f"/><g fill="#fff"><path d="m1910.9 1030.7v-6.75l-177.33-169.41h-7.06l184.39 176.16"/><path d="m1910.9 998.85v-6.737l-144.02-137.6h-7.07l151.09 144.33"/><path d="m1721.2 217.52-429.15 8.81c-0.8 0.02-1.45 0.67-1.47 1.47-0.01 0.81 0.62 1.48 1.42 1.53l163.01 8.59 0.16-2.99-122.1-6.44 388.19-7.97-0.06-3"/><path d="m1695.9 251.3-487.54 0.49 0.01 3 487.53-0.49v-3"/></g><path d="m1846.7 1163.4h-910.84c-1.381 0-2.5 1.11-2.5 2.5 0 1.38 1.119 2.5 2.5 2.5h910.84c1.39 0 2.5-1.12 2.5-2.5 0-1.39-1.11-2.5-2.5-2.5" fill="#03015f"/><g fill="#fff"><path d="m1306.6 981.81h-53.52v112.61h53.52v-112.61"/><path d="m1253.1 1078.8v53.85h111.91v-53.85h-111.91"/><path d="m1690 1121.8c0-8.11-6.53-14.69-14.6-14.69-8.06 0-14.59 6.58-14.59 14.69s6.53 14.69 14.59 14.69c8.07 0 14.6-6.58 14.6-14.69"/><path d="m1752.3 1121.8c0-8.11-6.53-14.69-14.6-14.69-8.06 0-14.59 6.58-14.59 14.69s6.53 14.69 14.59 14.69c8.07 0 14.6-6.58 14.6-14.69"/><path d="m1814.6 1121.8c0-8.11-6.53-14.69-14.6-14.69-8.06 0-14.59 6.58-14.59 14.69s6.53 14.69 14.59 14.69c8.07 0 14.6-6.58 14.6-14.69"/><path d="m833.47 1087.6h-5v75.79l-71.526 0.05 4e-3 5 76.522-0.06v-80.78"/><path d="m1225.6 904.69c0-5.141-4.15-9.31-9.26-9.31s-9.25 4.169-9.25 9.31c0 5.142 4.14 9.311 9.25 9.311s9.26-4.169 9.26-9.311"/><path d="m1189.5 891.66c0-4.114-3.31-7.448-7.4-7.448s-7.4 3.334-7.4 7.448c0 4.113 3.31 7.448 7.4 7.448s7.4-3.335 7.4-7.448"/><path d="m1679.9 452.21c0-4.11-3.31-7.45-7.4-7.45s-7.4 3.34-7.4 7.45 3.31 7.45 7.4 7.45 7.4-3.34 7.4-7.45"/><path d="m1703 780.86c0-4.115-3.31-7.449-7.4-7.449s-7.4 3.334-7.4 7.449c0 4.113 3.31 7.448 7.4 7.448s7.4-3.335 7.4-7.448"/><path d="m991.51 1109.5c0-8.74-7.042-15.83-15.729-15.83s-15.73 7.09-15.73 15.83 7.043 15.82 15.73 15.82 15.729-7.08 15.729-15.82"/><path d="m1020.2 1093.7c0-5.14-4.14-9.31-9.25-9.31s-9.26 4.17-9.26 9.31 4.15 9.31 9.26 9.31 9.25-4.17 9.25-9.31"/></g><g fill="#03015f"><path d="m1237 1058.7-5 0.02 1.41 345.52 5-0.02-1.41-345.52"/><path d="m1238.6 1427.4-5 0.02 0.44 107.26 5-0.02-0.44-107.26"/><path d="m1239.9 1073.4h-10.7v10.77h10.7v-10.77"/></g><path d="m1271.4 1007.8c0-20.548-16.56-37.207-36.98-37.207-20.43 0-36.98 16.659-36.98 37.207 0 20.55 16.55 37.21 36.98 37.21 20.42 0 36.98-16.66 36.98-37.21" fill="#ffbe58"/><path d="m1234.4 1042.5c-19.01 0-34.48-15.57-34.48-34.71 0-19.136 15.47-34.707 34.48-34.707s34.48 15.571 34.48 34.707c0 19.14-15.47 34.71-34.48 34.71zm0-74.417c-21.77 0-39.48 17.814-39.48 39.707 0 21.9 17.71 39.71 39.48 39.71s39.48-17.81 39.48-39.71c0-21.893-17.71-39.707-39.48-39.707" fill="#fff"/><path d="m1243.2 1045h-17.52v31.34h17.52v-31.34" fill="#03015f"/><path d="m1211 1001c1.06-2.458 2.44-4.755 4.05-6.768 0.4-0.501 0.84-0.977 1.24-1.46 0.43-0.468 0.91-0.891 1.35-1.333 0.42-0.458 0.94-0.814 1.4-1.222 0.45-0.419 0.98-0.74 1.49-1.077 2.05-1.376 4.39-1.856 6.48-2.911 1.05-0.596 2.19-1.001 3.34-1.63l0.44-0.242 0.45-0.2 0.92-0.43c0.62-0.329 1.26-0.652 1.92-1.114v-0.558c-0.67-0.381-1.38-0.624-2.1-0.873-0.72-0.189-1.46-0.475-2.19-0.49-1.48-0.106-3.02-0.167-4.49 0.224-0.37 0.083-0.74 0.169-1.11 0.271-0.37 0.09-0.73 0.217-1.06 0.398-0.7 0.326-1.35 0.722-2 1.12-0.62 0.437-1.19 0.97-1.77 1.445-0.59 0.466-1.12 1-1.64 1.53-0.54 0.522-1.08 1.025-1.53 1.616-0.45 0.58-0.96 1.11-1.35 1.725-0.4 0.619-0.81 1.215-1.16 1.843-0.34 0.641-0.69 1.268-1 1.91-1.17 2.61-1.98 5.317-2.22 8.106l0.54 0.12" fill="#fff"/><g fill="#03015f"><path d="m1554.6 1373.4c-48.2 13.39-92.48 34.99-128.04 62.45-35.76 27.61-62.82 61.27-78.27 97.32l4.6 1.97c15.11-35.27 41.64-68.24 76.73-95.34 35.05-27.07 78.73-48.36 126.32-61.58l-1.34-4.82"/><path d="m1677.6 1357c-28.33 0-56.5 2.5-83.72 7.44l0.89 4.92c26.93-4.88 54.8-7.36 82.83-7.36 78.89 0 155.77 20.03 216.48 56.41 59.72 35.79 101.1 85.6 116.5 140.25l4.81-1.35c-15.74-55.89-57.92-106.74-118.74-143.19-61.47-36.84-139.26-57.12-219.05-57.12"/><path d="m1817 1234.7h-5v137.01h5v-137.01"/><path d="m1817 1388h-5v142.35h5v-142.35"/><path d="m1792 1272.9h-5v142.92h5v-142.92"/><path d="m1908.4 914-0.18 161.84-102.92 0.46 0.03 5 107.88-0.48 0.19-166.82-5-6e-3"/></g><path d="m1064.6 673.79h-24.06v60.518h24.06v-60.518" fill="#ffbe58"/><path d="m1040.5 657.04v24.202h60.15v-24.202h-60.15" fill="#ffbe58"/></g></svg>
