<svg width="3333.3" height="2218.6" version="1.1" viewBox="0 0 3333.3 2218.6" xml:space="preserve" xmlns="http://www.w3.org/2000/svg"><g transform="matrix(1.3333 0 0 -1.3333 0 2218.6)"><g fill="#ffe9e9"><path d="m2252.4 848.48h-70.19v21.801h70.19v-21.801"/><path d="m2182.7 848.98h69.19v20.801h-69.19zm70.19-1h-71.19v22.801h71.19v-22.801"/><path d="m2252.4 848.48v70.193h21.8v-70.193h-21.8"/><path d="m2252.9 848.98h20.8v69.193h-20.8zm21.8-1h-22.8v71.193h22.8v-71.193"/></g><path d="m1881.1 901.94-40.16-24.05-28.2 13.62-5.54 2.68-0.69 5.4-2.16 16.83-0.76 5.96c-0.26 2.07-0.39 4.15-0.39 6.22 0 7.19 1.58 14.33 4.65 20.88 2.07 4.42 7.75 5.72 11.53 2.64l39.97-32.5 21.75-17.68" fill="#ffb2a8"/><path d="m1881.1 901.94-40.16-24.05-28.2 13.62c-2.07 2.62-4.2 5.39-6.23 8.08l-2.16 16.83 64.01-4.12 12.74-10.36" fill="#000061"/><g fill="#ffe9e9"><path d="m2276.6 534.35h-322.01v125.49h322.01v-125.49"/><path d="m2255.7 510.65h-39.55v5h34.55v120.5h-317.02v-39.06h-5v44.06h327.02v-130.5"/><path d="m2176 510.65h-247.29v69.09h5v-64.09h242.29v-5"/><path d="m804.94 268.61h-426.44v145.89h426.44v-145.89"/><path d="m780.45 311.59h-5v70.45h-421.44v-49.1h-5v54.1h431.44v-75.45"/><path d="m564.73 236.15h-215.72v51.01h5v-46.01h210.72v-5"/><path d="m651.46 236.15h-46.703v5h46.703v-5"/><path d="m2113.9 1131.7h-630.67v260.64h630.67v-260.64"/><path d="m2140.7 1104h-203.9v5h198.9v157.27h5v-162.27"/><path d="m1842.2 1104h-337.16v265.64h512.81v-5h-507.81v-255.64h332.16v-5"/><path d="m1163.4 989.71h-732.19v362.61h732.19v-362.61"/><path d="m947.82 1383.2h-343.28v5h343.28v-5"/><path d="m398.22 1141.8h-5v246.46h117.29v-5h-112.29v-241.46"/><path d="m1130.4 1020.6h-737.19v85.92h5v-80.92h727.19v357.6h-95.75v5h100.75v-367.6"/></g><path d="m737.53 1177.3c0-62.69-50.822-113.52-113.51-113.52-62.69 0-113.51 50.83-113.51 113.52s50.821 113.51 113.51 113.51c62.691 0 113.51-50.82 113.51-113.51" fill="#fff"/><path d="m1421.5 1268-39.486 16.353 2.4297 33.97 35.126 7.393 12.732-4.2737-10.802-53.441" fill="#000061"/><path d="m658.06 1215.6c0-18.05-14.634-32.68-32.686-32.68s-32.686 14.63-32.686 32.68 14.634 32.69 32.686 32.69 32.686-14.64 32.686-32.69" fill="#ffe9e9"/><path d="m710.16 1111.9c0-47.57-38.566-86.14-86.139-86.14-47.572 0-86.137 38.57-86.137 86.14s38.565 86.14 86.137 86.14c47.573 0 86.139-38.57 86.139-86.14" fill="#ffe9e9"/><path d="m1538.7 1370.4-4.41-127.05h-102.77l-25.11 91.76 32.83 52.9s51.67 8.6 52.77 8.6 46.69-26.21 46.69-26.21" fill="#ffb2a8"/><path d="m1363.9 1426.5 0.56 5.82c0.51 5.33 5.05 9.35 10.4 9.21l11.34-0.31c8.82-0.24 16.9 4.94 20.36 13.05l2.94 6.88c3.31 7.77 12.31 11.37 20.07 8.03l19.98-8.59c5.92-2.55 12.68-2.18 18.28 1l10.44 5.92c7.24 4.11 16.45 0.97 19.67-6.71l1.59-3.81c1.91-4.54 6.72-7.13 11.55-6.22l7.43 1.39c6.64 1.25 13.31-1.95 16.52-7.89 3.07-5.7 8.75-9.52 15.2-10.21 8.17-0.87 15.08-6.43 17.68-14.22 1.13-3.38 0.37-7.1-1.98-9.77l-6.68-7.57c-3.46-3.93-3.62-9.78-0.37-13.88l5.17-6.51c5.58-7.05 4.65-17.49-2.48-22.97-3.74-2.87-9.15-4.37-16.96-2.26-7.02 1.9-13.17 6.17-17.72 11.85l-8.83 11s-2.93 1.47-2.93-2.14c0-3.06-0.08-10.85-7.71-10.28-2.62 0.2-5.05 1.41-6.95 3.23l-5.54 5.32c-3.28 3.15-8.66 2.33-10.85-1.65-6.45-11.68-19.31-18.47-32.56-16.88-0.86 0.11-1.75 0.23-2.66 0.39-3.05 0.5-5.4-2.69-3.98-5.43 6.29-12.18 9.44-35.33-52.87-40.47l-14.48-59.2s-25.98-1.43-31.29 13.72c-1.48 4.21-0.81 8.89 1.46 12.73l2.83 4.8c2.05 3.46 0.3 7.92-3.54 9.08l-23.31 7.01c-9.38 2.83-17.06 9.86-20.2 19.14-1.64 4.85-2.18 10.58-0.25 16.93 2.76 9.12 9.95 16.22 18.93 19.38l9.75 3.43c3.48 1.22 5.81 4.51 5.81 8.2 0 2.16-0.8 4.23-2.24 5.83l-6.47 7.18c-2.98 3.31-4.53 7.67-4.3 12.11 0.33 6.25 4.93 11.44 11.09 12.51l3.62 0.63c7.95 1.39 15.16 5.5 20.41 11.62 2.31 2.7 3.74 6.04 4.07 9.58" fill="#000061"/><path d="m1713.1 152.1-1273.6 328.82 187.54 726.4 1273.6-328.83-187.55-726.39" fill="#ffb149"/><g fill="#ffe9e9"><path d="m1666.1 335.9-263.21 67.96 59.85 231.8 3.87-1-58.84-227.93 255.46-65.96 30.87 119.59 3.88-1-31.88-123.46"/><path d="m1702.6 477.1-3.88 1 33.07 128.08-174.9 45.15 1 3.88 178.77-46.16-34.06-131.95"/><path d="m591.7 910.12-3.873 1 38.33 148.46 201.96-52.14-1-3.87-198.08 51.14-37.33-144.59"/><path d="m922.65 791.38-321.73 83.065 1 3.873 317.86-82.065 44.388 171.93-101.1 26.102 1 3.873 104.97-27.102-46.388-179.67"/></g><g fill="#fff"><path d="m934.1 774.64-339.01 87.527 45.388 175.8 339.01-87.529-45.388-175.8"/><path d="m1272 618.2-144.19 37.23 5 19.365 144.19-37.225-5-19.37"/><path d="m1094.3 664.08-56.53 14.594 5 19.366 56.53-14.595-5-19.365"/><path d="m1179.6 598.16-152.49 39.37 5 19.37 152.49-39.37-5-19.37"/><path d="m1357.5 665.34-301.02 77.719 45.39 175.8 301.02-77.718-45.39-175.8"/><path d="m1348.6 401.36-232.73 60.09 23.86 92.39 232.72-60.09-23.85-92.39"/><path d="m1640 326.12-259.33 66.96 69.52 269.27 259.34-66.95-69.53-269.28"/><path d="m881.39 570.51-339.01 87.52 40.712 157.69 339.01-87.527-40.712-157.68"/><path d="m1674 207.35-1173.5 302.97 18.059 69.95 1173.5-302.97-18.06-69.95"/></g><path d="m595.09 862.17 105.33 48.455 20.173-42.665 112.63 54.667 52.954-60.61-35.89-65.734-255.2 65.887" fill="#ffe9e9"/><path d="m1070.8 760.59 274.77-71.866 29.36 109.12s-45.39 12.214-85.08-23.705c-39.7-35.919-74.8-4.726-74.8-4.726s-64.59 63.982-144.25-8.821" fill="#ffe9e9"/><g fill="#ffb149"><path d="m1059.9 760.95 1.26 4.839c1.72-0.449 284.51-74.091 287.37-74.835l-1.26-4.839c-2.85 0.744-285.65 74.387-287.37 74.835"/><path d="m1343.4 689.3 31.53 119.1 4.83-1.28-31.53-119.1-4.83 1.28"/><path d="m1166.1 781.9-3.87 1.039 6.32 23.484 3.87-1.039-6.32-23.484"/><path d="m1243.8 744.96-3.87 1.04 6.32 23.485 3.87-1.039-6.32-23.486"/><path d="m1342.6 787.44-3.86 1.04 6.32 23.484 3.86-1.039-6.32-23.485"/></g><path d="m605.7 1124.6 1273.6-328.83 21.36 82.73-1273.6 328.83-21.359-82.73" fill="#ff5776"/><path d="m1135.4 482.96 63.77 11.28 50.82-52.84 46.82 24.18 17.07-24.18 58.55 52.35-23.85-92.39-232.73 60.09 19.55 21.51" fill="#ffe9e9"/><path d="m1307.6 1031.6 33.01-8.52c-19.37-72.392-70.26-155.15-278.17-257.01l76.38-260.75-166.03 257.44 56.924 156.83 277.89 112.01" fill="#ff5776"/><path d="m1170.1 453.16c1.81-0.7 90.42-89.02 110.83-109.38 2.65-2.64 4.05-6.29 3.85-10.02-0.34-6.53-4.64-12.18-10.84-14.25-3.62-1.2-7.56-1.07-11.09 0.38l-48.81 17.35s30.16-30.45 34.37-61.98l53.36-16.96-55.44-22.2s-37.35-16.51-63.57-6.14c0 0-36.09-3.12-47.65 22.65 0 0-45.45 2.01-49.79 38.43l-8.57 124.32 93.35 37.8" fill="#ffb2a8"/><path d="m1146.4 430.75s-21.1-33.36-67.57-45.55l-2.08 34.26 69.65 11.29" fill="#000061"/><path d="m1813.8 892.13 82.96 22.258c8.43 2.26 17.42 0.894 24.79-3.768 4.29-2.715 6.89-7.44 6.89-12.52 0-9.052 4.29-17.57 11.55-22.968 4.41-3.276 6.14-9.067 4.24-14.223l-3.31-8.986c-2.27-6.183-1.93-13.027 0.96-18.952l0.44-0.908c3.12-6.407 2.24-14.04-2.25-19.574l-1.33-1.643c-4.21-5.19-5.64-12.099-3.83-18.534 2-7.122 0.38-14.771-4.32-20.48-5.9-7.163-13.57-12.655-22.25-15.929l-58.32-21.992c-10.11-3.81-21.56-2.69-30.38 3.532-0.33 0.227-0.65 0.463-0.97 0.706-8.78 6.71-12.04 18.457-8.47 28.918l5.51 16.156s-35.23 28.632-3.71 51.946c0 0-29.17 18.713-17.3 41.869 3.86 7.527 10.93 12.9 19.1 15.092" fill="#ffb2a8"/><path d="m1050.3 466.72 20.27-53.75s63.09-8.41 99.54 40.19l-31.33 52.19-72.75-34.32-15.73-4.31" fill="#ff5776"/><path d="m1664.2 939.54-356.69 92.092c-74.41-161.15-277.85-251.46-281.02-252.86-0.03-0.011-0.04-0.02-0.04-0.02l112.28-273.4c-22.1-40.16-78.25-43.62-88.48-38.63-219.16 190.14-221.83 408.56-221.83 408.56 105.56 147.38 247.65 263.9 307.1 309.47 23.76 18.21 51.15 31.15 80.38 37.62 25.01 5.54 50.42 8.26 73.35 9.4 47.93 2.4 85.03-2.09 85.03-2.09l89.44-34.15c11.64-3.54 22.62-7.59 32.94-12.06 162.09-70 167.54-243.93 167.54-243.93" fill="#00ccbe"/><path d="m1440.4 1029c-84.98 78.76-133.94 168.02-151.07 202.77 47.93 2.4 85.03-2.09 85.03-2.09l89.45-34.15c11.63-3.55 22.61-7.59 32.93-12.06 5.81-66.67-3.65-114.11-13.27-143.22-6.05-18.28-28.95-24.33-43.07-11.25" fill="#fff"/><path d="m1477.3 1152-13.63-48.85c-2.4-8.61-13.32-11.22-19.35-4.63l-72.46 79.16c-5.21 5.69-7.35 13.55-5.76 21.11l20.51 97.26 81.07-63.03-3.16-29.97c-0.52-4.85 0.67-9.75 3.35-13.83l4.78-7.28c0.96-1.47 1.81-2.98 2.54-4.54 3.69-7.89 4.48-16.9 2.11-25.4" fill="#ffb2a8"/><path d="m1475.2 1177.4c-93.37 0.76-65.45 96.36-65.45 96.36s9.53-5.28 22.75-13.38l35.19-27.36-3.16-29.97c-0.52-4.85 0.67-9.75 3.35-13.83l4.78-7.28c0.96-1.47 1.81-2.98 2.54-4.54" fill="#ff5776"/><path d="m1749.1 1227.8c-1.46 0-2.97-0.33-4.55-1.01-8.42-3.6-16.25-15.77-19.12-23.27-1.75-4.55-1.99-10.34-0.01-14.98 9.76 1.96 18.52 6.08 24.68 11.74 4.89 4.48 9.37 13.6 8.25 20.03-0.55 3.19-2.38 5.39-5.57 6.74-1.2 0.5-2.42 0.75-3.68 0.75zm-8.42-51.66c-4.4 0-8.88 0.7-12.67 3.19-1.96 1.29-3.52 2.92-4.73 4.77-1.48-0.23-2.98-0.42-4.5-0.55-10.72-0.96-21.53 0.15-31.99 1.21-5.54 0.57-11.26 1.16-16.86 1.42l0.19 4c5.71-0.27 11.49-0.86 17.07-1.44 10.28-1.05 20.89-2.13 31.24-1.21 1 0.09 1.99 0.21 2.98 0.34-2.01 5.49-1.68 11.95 0.28 17.08 2.91 7.6 11.26 21.24 21.29 25.52 3.94 1.68 7.76 1.77 11.35 0.27 4.42-1.86 7.18-5.23 7.96-9.75 1.39-7.97-3.84-18.49-9.48-23.66-6.38-5.86-15.27-10.19-25.17-12.4 0.73-0.85 1.58-1.61 2.56-2.25 4.42-2.9 10.45-2.76 15.76-2.24 15.63 1.52 30.93 5.74 45.47 12.54 5.76 2.68 11.34 6.5 16.74 10.2 7.51 5.13 15.27 10.44 23.93 13.11 7.95 2.46 19.1 1.55 24.78-6.25 1.19-1.64 2.14-3.51 3.05-5.33 1.87-3.71 3.49-6.92 6.58-7.41 2.53-0.41 5.04 1.35 7.7 3.21 3.01 2.1 6.41 4.49 10.5 3.93 3.03-0.42 5.33-2.36 7.36-4.07 0.68-0.58 1.33-1.12 1.99-1.6 7.85-5.77 18.66-3.47 29.12-1.25 1.87 0.39 3.8 0.8 5.66 1.15 28.79 5.43 57.97-3.66 83.7-11.67l-1.18-3.82c-25.3 7.88-53.97 16.8-81.78 11.56-1.83-0.34-3.69-0.74-5.57-1.14-10.79-2.29-23.02-4.89-32.32 1.94-0.77 0.56-1.5 1.18-2.2 1.77-1.77 1.5-3.44 2.91-5.33 3.17-2.52 0.34-5.01-1.4-7.65-3.25-3.05-2.13-6.5-4.54-10.63-3.88-5.11 0.81-7.45 5.46-9.52 9.56-0.88 1.75-1.71 3.4-2.71 4.77-4.53 6.22-13.74 6.84-20.37 4.79-8.08-2.5-15.59-7.63-22.85-12.59-5.53-3.79-11.26-7.7-17.3-10.53-14.96-6.99-30.7-11.33-46.78-12.9-1.83-0.17-3.74-0.31-5.67-0.31" fill="#ff5776"/><path d="m2092.1 873.22h156.86v92.119h-156.86zm161.86-5h-166.86v102.12h166.86v-102.12" fill="#ffdbda"/><path d="m1068.3 1434h-68.406v24.09h68.406v-24.09" fill="#ffb149"/><path d="m1000.4 1434.5h67.44v23.12h-67.44zm68.4-0.96h-69.367v25.05h69.367v-25.05" fill="#ffb149"/><path d="m1154.1 1434h-68.4v24.09h68.4v-24.09" fill="#00ccbe"/><path d="m754.86 211.04h68.403v-24.08h-68.403v24.08" fill="#ffb149"/><path d="m822.78 210.56h-67.44v-23.12h67.44zm-68.403 0.97h69.367v-25.05h-69.367v25.05" fill="#ffb149"/><path d="m669.11 211.04h68.403v-24.08h-68.403v24.08" fill="#00ccbe"/><path d="m1967.1 300.55c2.03 0.06 4.12-0.27 6.09-1.42 1.97-1.12 3.7-3.02 5.24-4.98 1.53-1.97 2.94-4 4.47-5.56 1.51-1.57 3.14-2.62 4.87-3.07 1.72-0.51 3.58-0.3 5.28 0.14 1.72 0.45 3.23 1.59 4.61 3.13 1.4 1.56 2.66 3.6 4.07 5.77 1.41 2.16 3.05 4.48 5.1 6.21 2.03 1.73 4.42 2.76 6.69 2.93l0.86 0.11c0.29 0.03 0.58-0.01 0.87-0.01 0.57-0.03 1.15-0.05 1.73-0.1l1.76-0.44c0.3-0.06 0.59-0.16 0.88-0.31l0.86-0.41c2.31-1.13 4.38-3.17 6.04-5.25 1.68-2.09 3.07-4.15 4.42-5.69 1.35-1.55 2.62-2.62 4.05-3.1 0.34-0.18 0.73-0.18 1.09-0.3 0.18-0.03 0.36-0.1 0.55-0.12l0.58-0.02c0.39 0.01 0.78-0.07 1.17-0.02l1.15 0.17c1.51 0.35 2.8 1.03 4.02 2.23 1.22 1.18 2.41 2.93 3.79 5.05 1.38 2.11 3 4.62 5.17 6.68 2.15 2.09 4.76 3.45 7.27 3.95l1.87 0.26c0.63 0.07 1.26-0.01 1.89-0.02l0.94-0.05c0.32-0.04 0.65-0.14 0.97-0.21 0.65-0.17 1.31-0.26 1.95-0.56 2.64-0.93 5.08-3.09 6.96-5.27 1.88-2.22 3.33-4.39 4.6-5.96 1.26-1.61 2.32-2.55 3.43-3.15l0.42-0.22 0.21-0.12 0.23-0.05c0.31-0.08 0.61-0.18 0.91-0.29 0.68-0.02 1.36-0.24 2.05-0.13 1.42 0 2.54 0.38 3.68 1.16 1.14 0.75 2.34 2.08 3.77 3.93 1.43 1.8 3.08 4.14 5.23 6.12 2.13 1.97 4.76 3.49 7.28 3.75 2.51 0.29 4.87 0.11 7.29-1.01 2.39-1.04 4.63-3.04 6.31-5.37 1.7-2.32 2.95-4.79 4.17-6.95 1.19-2.21 2.41-4.11 3.9-5.55 1.49-1.45 3.27-2.35 5.2-2.98v-1.47c-2.03-0.47-4.23-0.46-6.37 0.49-2.17 0.9-4.09 2.78-5.78 4.59-1.68 1.86-3.17 3.7-4.63 4.96-1.46 1.27-2.86 1.94-4.33 2.18-0.38 0.02-0.73 0.12-1.11 0.11l-1.16-0.08c-0.39 0.02-0.77-0.15-1.14-0.22-0.37-0.1-0.77-0.12-1.1-0.32-1.42-0.51-2.51-1.46-3.64-2.82-1.12-1.36-2.28-3.25-3.71-5.52-1.44-2.22-3.26-4.82-5.63-6.82-1.17-1.02-2.48-1.74-3.78-2.35-0.66-0.24-1.32-0.44-1.98-0.64s-1.3-0.2-1.95-0.3l-0.97-0.1c-0.32-0.02-0.64 0.03-0.97 0.04-0.64 0.05-1.29 0.1-1.94 0.18-1.34 0.33-2.67 0.69-3.98 1.46-2.62 1.42-4.87 3.9-6.56 6.2-1.71 2.35-2.97 4.53-4.14 6.07-1.16 1.58-2.15 2.65-3.36 3.27-0.29 0.2-0.63 0.25-0.94 0.4-0.17 0.06-0.32 0.15-0.49 0.2l-0.54 0.08c-0.36 0.05-0.72 0.17-1.08 0.18l-1.09-0.01c-1.42-0.14-2.67-0.55-3.91-1.55-1.24-0.99-2.51-2.61-3.97-4.6s-3.16-4.36-5.35-6.23c-2.17-1.9-4.73-3-7.16-3.3l-1.81-0.1c-0.6-0.01-1.2 0.12-1.8 0.17l-0.9 0.13c-0.29 0.06-0.6 0.18-0.9 0.27-0.61 0.22-1.22 0.34-1.81 0.67-2.42 1.06-4.59 3.21-6.27 5.42-1.7 2.24-3.02 4.51-4.32 6.34-1.29 1.84-2.54 3.22-3.96 4.1l-0.53 0.32c-0.18 0.12-0.36 0.21-0.56 0.26l-1.15 0.42-1.23 0.19c-0.21 0.03-0.42 0.09-0.62 0.09l-0.62-0.03c-1.69 0.05-3.24-0.47-4.7-1.51-1.47-1.01-2.85-2.62-4.3-4.54-1.45-1.89-2.99-4.08-4.88-5.87-1.86-1.79-4.08-3.12-6.3-3.44-2.2-0.33-4.38-0.27-6.52 0.62-2.14 0.83-4.14 2.46-5.76 4.49-1.64 2.01-2.97 4.29-4.33 6.34-1.35 2.07-2.76 3.94-4.44 5.17-1.67 1.25-3.55 1.83-5.47 2.05v1.46" fill="#00ccbe"/><path d="m2130.6 228.24c-2.03-0.06-4.12 0.27-6.09 1.42-1.97 1.12-3.7 3.02-5.23 4.98-1.54 1.97-2.95 4-4.48 5.56-1.51 1.58-3.14 2.62-4.87 3.07-1.72 0.51-3.58 0.3-5.28-0.14-1.72-0.45-3.23-1.59-4.61-3.13-1.4-1.56-2.66-3.6-4.07-5.77-1.41-2.16-3.05-4.48-5.1-6.2-2.03-1.74-4.42-2.76-6.69-2.94l-0.86-0.11c-0.29-0.03-0.58 0.01-0.87 0.01-0.57 0.03-1.15 0.05-1.73 0.1l-1.76 0.44c-0.3 0.06-0.59 0.16-0.88 0.31l-0.86 0.41c-2.31 1.13-4.38 3.17-6.04 5.26-1.68 2.08-3.06 4.15-4.42 5.68-1.35 1.55-2.62 2.63-4.05 3.11-0.34 0.17-0.73 0.18-1.09 0.29-0.18 0.04-0.36 0.11-0.55 0.13l-0.58 0.01c-0.39-0.01-0.78 0.07-1.17 0.02l-1.15-0.17c-1.51-0.35-2.8-1.03-4.02-2.23-1.22-1.18-2.41-2.93-3.79-5.05-1.38-2.11-3-4.62-5.17-6.67-2.15-2.1-4.76-3.45-7.27-3.96l-1.87-0.26c-0.63-0.07-1.26 0.01-1.89 0.02l-0.94 0.05c-0.32 0.04-0.65 0.14-0.97 0.21-0.65 0.18-1.31 0.26-1.95 0.56-2.64 0.93-5.08 3.09-6.96 5.27-1.88 2.23-3.33 4.39-4.6 5.96-1.26 1.61-2.32 2.55-3.43 3.15l-0.42 0.22-0.21 0.12-0.23 0.05c-0.31 0.08-0.61 0.18-0.91 0.29-0.68 0.02-1.36 0.24-2.05 0.13-1.42 0.01-2.54-0.38-3.68-1.16-1.14-0.75-2.34-2.08-3.77-3.93-1.43-1.8-3.08-4.14-5.23-6.12-2.13-1.97-4.76-3.49-7.28-3.74-2.5-0.3-4.87-0.12-7.29 1-2.39 1.04-4.63 3.04-6.31 5.37-1.7 2.32-2.95 4.79-4.17 6.96-1.19 2.2-2.41 4.1-3.9 5.54-1.49 1.45-3.27 2.35-5.2 2.98v1.47c2.03 0.47 4.23 0.46 6.38-0.49 2.16-0.9 4.08-2.77 5.77-4.59 1.68-1.86 3.17-3.7 4.63-4.96 1.46-1.27 2.86-1.94 4.33-2.18 0.38-0.02 0.73-0.12 1.11-0.11l1.16 0.08c0.39-0.02 0.77 0.15 1.14 0.22 0.37 0.11 0.77 0.12 1.1 0.32 1.42 0.51 2.51 1.46 3.64 2.82 1.12 1.36 2.28 3.25 3.71 5.52 1.44 2.22 3.26 4.83 5.63 6.82 1.17 1.02 2.48 1.74 3.78 2.35 0.66 0.24 1.32 0.45 1.98 0.64 0.67 0.2 1.3 0.21 1.95 0.3l0.97 0.1c0.32 0.03 0.64-0.02 0.97-0.04 0.64-0.05 1.29-0.1 1.94-0.17 1.34-0.34 2.67-0.7 3.98-1.47 2.62-1.42 4.87-3.9 6.56-6.2 1.71-2.35 2.97-4.52 4.14-6.07 1.16-1.58 2.15-2.65 3.36-3.26 0.29-0.21 0.63-0.26 0.94-0.41 0.17-0.06 0.32-0.15 0.49-0.19l0.54-0.09c0.36-0.04 0.72-0.17 1.08-0.17l1.09 0.01c1.42 0.13 2.67 0.55 3.91 1.55 1.24 0.99 2.51 2.6 3.97 4.6 1.46 1.98 3.17 4.35 5.35 6.22 2.17 1.9 4.74 3 7.16 3.3l1.81 0.1c0.6 0.02 1.2-0.11 1.8-0.17l0.89-0.13c0.31-0.05 0.61-0.17 0.91-0.26 0.61-0.22 1.22-0.35 1.81-0.67 2.42-1.07 4.59-3.22 6.27-5.43 1.7-2.23 3.02-4.51 4.32-6.34 1.29-1.84 2.54-3.22 3.96-4.1l0.53-0.32c0.18-0.12 0.36-0.21 0.56-0.26l1.15-0.42 1.23-0.19c0.21-0.02 0.42-0.08 0.62-0.08l0.62 0.02c1.69-0.05 3.24 0.48 4.7 1.51 1.47 1.01 2.85 2.62 4.3 4.54 1.45 1.89 2.99 4.08 4.88 5.87 1.86 1.79 4.08 3.12 6.3 3.44 2.2 0.33 4.38 0.28 6.52-0.62 2.14-0.83 4.14-2.46 5.76-4.48 1.64-2.02 2.97-4.3 4.33-6.35 1.35-2.07 2.76-3.94 4.44-5.17 1.67-1.25 3.55-1.83 5.47-2.04v-1.47" fill="#ffb149"/><path d="m270.38 905.23c1.68 0.054 3.412-0.252 5.039-1.311 1.635-1.031 3.063-2.781 4.331-4.586 1.274-1.813 2.44-3.684 3.7-5.121 1.253-1.455 2.603-2.415 4.033-2.829 1.419-0.47 2.96-0.282 4.365 0.125 1.425 0.414 2.67 1.465 3.816 2.888 1.151 1.431 2.195 3.312 3.367 5.315 1.166 1.989 2.517 4.127 4.213 5.717 1.683 1.599 3.661 2.543 5.539 2.706l0.712 0.102c0.238 0.025 0.476-0.01 0.714-0.014 0.477-0.025 0.954-0.045 1.433-0.091l1.457-0.401c0.245-0.055 0.485-0.154 0.723-0.29l0.718-0.373c1.911-1.047 3.617-2.927 4.992-4.845 1.388-1.922 2.536-3.825 3.658-5.239 1.118-1.429 2.169-2.42 3.345-2.862 0.284-0.158 0.605-0.166 0.902-0.269 0.153-0.035 0.298-0.099 0.456-0.117l0.485-0.013c0.322 5e-3 0.642-0.066 0.963-0.017l0.957 0.156c1.242 0.321 2.315 0.948 3.319 2.049 1.013 1.089 1.994 2.702 3.136 4.657 1.139 1.943 2.484 4.254 4.276 6.151 1.777 1.927 3.935 3.179 6.013 3.643l1.55 0.243c0.518 0.06 1.038-9e-3 1.559-0.021l0.783-0.046c0.264-0.037 0.536-0.125 0.803-0.19 0.537-0.165 1.078-0.243 1.612-0.516 2.179-0.859 4.204-2.847 5.754-4.856 1.555-2.054 2.753-4.05 3.805-5.492 1.043-1.49 1.923-2.353 2.84-2.904l0.346-0.202 0.172-0.11 0.191-0.052c0.255-0.069 0.505-0.162 0.757-0.269 0.561-0.015 1.125-0.218 1.69-0.114 1.175-5e-3 2.103 0.352 3.043 1.069 0.949 0.686 1.942 1.913 3.12 3.62 1.186 1.658 2.549 3.815 4.327 5.64 1.759 1.817 3.937 3.214 6.021 3.45 2.073 0.269 4.033 0.104 6.031-0.924 1.98-0.963 3.827-2.806 5.216-4.952 1.411-2.134 2.442-4.412 3.45-6.407 0.99-2.035 1.994-3.781 3.231-5.108 1.232-1.34 2.704-2.165 4.295-2.748v-1.35c-1.679-0.438-3.492-0.424-5.269 0.446-1.788 0.833-3.383 2.56-4.777 4.235-1.391 1.711-2.626 3.404-3.832 4.563-1.207 1.175-2.361 1.794-3.578 2.01-0.312 0.024-0.604 0.115-0.921 0.106l-0.961-0.079c-0.317 0.018-0.631-0.135-0.942-0.199-0.306-0.098-0.635-0.109-0.905-0.299-1.175-0.469-2.079-1.346-3.013-2.596-0.93-1.256-1.888-2.993-3.073-5.085-1.187-2.047-2.69-4.446-4.652-6.285-0.971-0.938-2.051-1.603-3.131-2.167-0.541-0.217-1.089-0.408-1.637-0.59-0.548-0.179-1.07-0.188-1.608-0.276l-0.802-0.093c-0.267-0.022-0.535 0.025-0.803 0.038-0.536 0.045-1.071 0.091-1.608 0.163-1.106 0.309-2.207 0.641-3.289 1.352-2.17 1.302-4.034 3.589-5.432 5.713-1.408 2.16-2.451 4.166-3.421 5.592-0.959 1.458-1.778 2.441-2.778 3.008-0.237 0.191-0.523 0.231-0.782 0.373-0.135 0.056-0.263 0.138-0.404 0.179l-0.444 0.079c-0.296 0.041-0.593 0.157-0.893 0.161l-0.901-9e-3c-1.173-0.125-2.21-0.508-3.234-1.429-1.028-0.912-2.077-2.398-3.286-4.239-1.206-1.829-2.618-4.014-4.424-5.736-1.796-1.751-3.918-2.763-5.925-3.037l-1.495-0.095c-0.497-0.015-0.993 0.104-1.488 0.16l-0.742 0.112c-0.248 0.055-0.502 0.165-0.752 0.248-0.5 0.204-1.004 0.32-1.493 0.617-2.004 0.979-3.795 2.963-5.19 4.996-1.403 2.063-2.496 4.16-3.567 5.842-1.067 1.697-2.103 2.97-3.277 3.781l-0.443 0.294c-0.145 0.113-0.298 0.197-0.46 0.243l-0.954 0.388-1.018 0.171c-0.17 0.023-0.341 0.08-0.512 0.078l-0.514-0.023c-1.396 0.045-2.675-0.436-3.881-1.387-1.216-0.932-2.362-2.42-3.56-4.183-1.2-1.748-2.475-3.762-4.033-5.415-1.544-1.648-3.382-2.871-5.216-3.166-1.822-0.303-3.621-0.256-5.394 0.573-1.767 0.762-3.419 2.262-4.762 4.129-1.357 1.856-2.456 3.956-3.581 5.851-1.115 1.907-2.286 3.628-3.676 4.759-1.381 1.154-2.934 1.687-4.525 1.885v1.351" fill="#00ccbe"/><path d="m405.61 838.59c-1.68-0.053-3.411 0.252-5.039 1.311-1.635 1.031-3.063 2.782-4.331 4.586-1.274 1.813-2.44 3.685-3.701 5.122-1.253 1.453-2.602 2.414-4.032 2.828-1.419 0.471-2.96 0.283-4.366-0.125-1.424-0.414-2.669-1.464-3.816-2.887-1.15-1.431-2.194-3.313-3.366-5.315-1.167-1.99-2.517-4.128-4.214-5.718-1.682-1.599-3.661-2.542-5.538-2.706l-0.712-0.102c-0.238-0.025-0.476 0.01-0.714 0.014-0.477 0.025-0.954 0.045-1.434 0.091l-1.456 0.402c-0.245 0.054-0.485 0.154-0.723 0.29l-0.718 0.373c-1.912 1.046-3.617 2.926-4.992 4.844-1.388 1.921-2.536 3.826-3.658 5.239-1.118 1.43-2.169 2.421-3.346 2.862-0.283 0.158-0.605 0.166-0.901 0.27-0.153 0.034-0.298 0.099-0.456 0.116l-0.485 0.013c-0.322-5e-3 -0.642 0.066-0.963 0.018l-0.957-0.157c-1.242-0.32-2.315-0.947-3.32-2.048-1.012-1.089-1.993-2.703-3.135-4.658-1.139-1.943-2.484-4.254-4.276-6.151-1.778-1.927-3.935-3.178-6.013-3.643l-1.55-0.242c-0.518-0.06-1.038 9e-3 -1.559 0.02l-0.783 0.047c-0.264 0.037-0.536 0.125-0.803 0.189-0.537 0.166-1.078 0.244-1.612 0.516-2.179 0.859-4.204 2.848-5.754 4.857-1.555 2.054-2.753 4.049-3.805 5.491-1.044 1.491-1.923 2.353-2.84 2.904l-0.346 0.203-0.172 0.109-0.191 0.052c-0.255 0.069-0.505 0.163-0.757 0.269-0.561 0.016-1.125 0.219-1.69 0.114-1.175 6e-3 -2.103-0.351-3.043-1.068-0.949-0.687-1.943-1.914-3.12-3.621-1.186-1.658-2.549-3.815-4.327-5.639-1.759-1.817-3.937-3.214-6.021-3.451-2.073-0.269-4.033-0.104-6.031 0.925-1.98 0.963-3.827 2.805-5.217 4.951-1.41 2.134-2.441 4.412-3.449 6.408-0.99 2.035-1.994 3.78-3.231 5.108-1.232 1.34-2.704 2.165-4.296 2.747v1.351c1.68 0.438 3.493 0.424 5.27-0.447 1.788-0.833 3.383-2.559 4.777-4.234 1.391-1.711 2.626-3.405 3.832-4.563 1.207-1.176 2.361-1.795 3.577-2.01 0.313-0.024 0.604-0.115 0.922-0.106l0.961 0.078c0.317-0.018 0.631 0.135 0.942 0.2 0.306 0.097 0.635 0.109 0.904 0.298 1.176 0.47 2.08 1.346 3.014 2.596 0.93 1.256 1.888 2.994 3.072 5.086 1.188 2.046 2.691 4.445 4.653 6.284 0.97 0.939 2.05 1.603 3.131 2.167 0.541 0.217 1.089 0.408 1.637 0.59 0.548 0.18 1.07 0.188 1.608 0.276l0.802 0.093c0.267 0.022 0.535-0.025 0.803-0.038 0.536-0.045 1.071-0.091 1.608-0.162 1.106-0.309 2.207-0.642 3.289-1.353 2.17-1.302 4.034-3.589 5.432-5.713 1.408-2.16 2.451-4.165 3.421-5.591 0.959-1.458 1.778-2.442 2.778-3.009 0.237-0.19 0.523-0.231 0.782-0.373 0.135-0.055 0.262-0.137 0.404-0.179l0.443-0.079c0.297-0.041 0.594-0.157 0.893-0.16l0.902 9e-3c1.172 0.125 2.21 0.507 3.234 1.429 1.028 0.911 2.077 2.397 3.286 4.239 1.206 1.828 2.618 4.013 4.423 5.736 1.797 1.75 3.919 2.763 5.926 3.037l1.495 0.094c0.497 0.015 0.993-0.104 1.488-0.159l0.742-0.113c0.248-0.055 0.502-0.165 0.752-0.249 0.5-0.202 1.003-0.318 1.493-0.616 2.004-0.979 3.795-2.962 5.19-4.995 1.403-2.064 2.496-4.161 3.567-5.843 1.066-1.697 2.103-2.97 3.277-3.781l0.443-0.293c0.145-0.114 0.298-0.198 0.46-0.243l0.954-0.388 1.017-0.172c0.171-0.023 0.342-0.079 0.513-0.078l0.514 0.024c1.396-0.046 2.675 0.435 3.881 1.386 1.215 0.932 2.362 2.42 3.561 4.184 1.199 1.747 2.474 3.762 4.032 5.414 1.544 1.649 3.382 2.871 5.216 3.166 1.822 0.304 3.621 0.256 5.394-0.572 1.767-0.762 3.419-2.263 4.762-4.13 1.357-1.855 2.456-3.956 3.581-5.851 1.115-1.907 2.286-3.629 3.675-4.759 1.382-1.153 2.935-1.687 4.526-1.885v-1.351" fill="#ff5776"/><path d="m1871.8 1461.8 3.88 3.87 255.92-255.93-3.87-3.87-255.93 255.93" fill="#fff"/><path d="m1875.8 1417.8 3.87 3.88 255.93-255.93-3.88-3.88-255.92 255.93" fill="#fff"/><path d="m1250.6 1435.4-21.19 21.2 21.19 21.19 21.2-21.19-21.2-21.2" fill="#ffb149"/><path d="m387.78 686.11-21.195 21.195 21.195 21.196 21.195-21.196-21.195-21.195" fill="#ff5776"/><path d="m2220 949.28-22 22 22 22 22-22-22-22" fill="#ffb149"/><path d="m1651.8 901.83c-2.38-9.213-11.78-14.753-20.99-12.374-9.21 2.378-14.75 11.774-12.37 20.987s11.77 14.753 20.98 12.374c9.22-2.379 14.76-11.775 12.38-20.987" fill="#fff"/><path d="m1718.1 884.72c-2.38-9.212-11.77-14.752-20.99-12.374-9.21 2.379-14.75 11.775-12.37 20.988 2.38 9.212 11.77 14.752 20.99 12.374 9.21-2.379 14.75-11.775 12.37-20.988" fill="#ffb149"/><path d="m1784.4 867.61c-2.38-9.213-11.77-14.753-20.98-12.374-9.22 2.378-14.76 11.775-12.38 20.988 2.38 9.212 11.78 14.752 20.99 12.374 9.21-2.379 14.75-11.776 12.37-20.988" fill="#00ccbe"/><path d="m815.02 665.92c-5.793-22.437-28.677-35.927-51.114-30.137s-35.929 28.679-30.136 51.115c5.793 22.437 28.677 35.929 51.114 30.137 22.436-5.793 35.929-28.678 30.136-51.115" fill="#ff5776"/><path d="m596.06 673.24 77.003 87.724 123.23-93.377z" fill="#00ccbe"/><g fill="#fff"><path d="m1747.9 731.15-195.72 50.533 5 19.365 195.72-50.533-5-19.365"/><path d="m1518.7 790.33-56.53 14.594 5 19.365 56.53-14.594-5-19.365"/><path d="m1737.3 690.02-105.41 27.216 5 19.365 105.41-27.216-5-19.365"/></g><path d="m1604 724.42-152.48 39.37 5 19.365 152.48-39.369-5-19.366" fill="#ff5776"/><g fill="#00ccbe"><path d="m1662.9 568.22-137.72 35.56 3 11.62 137.72-35.56-3-11.62"/><path d="m1615.7 493.82-174.82 45.14 3 11.62 174.82-45.14-3-11.62"/><path d="m1501.6 609.86-39.77 10.27 3 11.62 39.77-10.27-3-11.62"/><path d="m1621.1 356.71-39.78 10.27 3 11.62 39.78-10.27-3-11.62"/><path d="m1568.3 370.34-28.11 7.25 3 11.62 28.11-7.25-3-11.62"/><path d="m1558.5 551.29-107.29 27.7 3 11.62 107.29-27.7-3-11.62"/></g><path d="m1685.2 659.58-112.84 29.135 5 19.366 112.84-29.133-5-19.368" fill="#ff5776"/><path d="m1517.2 702.97-76.24 19.685 5 19.365 76.24-19.684-5-19.366" fill="#fff"/><path d="m1440.5 1335.2s-23.158-58.264 17.836-81.807c0 0 12.203-5.9254 25.289 8.0451 12.288 13.116 30.602 21.936 47.649 4.1365 2.281-2.3817 3.661-5.8115 3.8581-9.4466 0.8167-14.415-0.92-52.076-39.802-60.418-32.311-6.9283-54.042 10.791-64.903 23.292-5.7167 6.5864-9.9316 14.814-12.438 23.873-4.7124 17.059-10.026 49.398 2.5626 85.476l19.948 6.8485" fill="#ffb2a8"/><g fill="#000061"><path d="m1515.8 1279.3h-0.11l-26.03 1.79 0.21 2.99 23.96-1.64-7.82 30.75 2.91 0.74 8.33-32.76c0.12-0.47 0.01-0.96-0.3-1.33-0.29-0.34-0.71-0.54-1.15-0.54"/><path d="m1523.6 1313.6c0-3.07-1.43-5.55-3.18-5.55-1.76 0-3.18 2.48-3.18 5.55 0 3.06 1.42 5.55 3.18 5.55 1.75 0 3.18-2.49 3.18-5.55"/><path d="m1468.9 1314.6c0-3.06-1.42-5.54-3.17-5.54-1.76 0-3.18 2.48-3.18 5.54 0 3.07 1.42 5.55 3.18 5.55 1.75 0 3.17-2.48 3.17-5.55"/></g><g fill="#fff"><path d="m1456 1298.6c12.67-6.6 29.79-1.6 32.29-0.81 10.02 8.06 10.29 24.17 10.14 28.86-26.82 8.38-44.09 3.42-47.94 2.07-4.7-15.84 3.99-28.14 5.51-30.12zm15.63-7.39c-5.81 0-12.19 0.97-17.89 4.06-0.22 0.12-0.41 0.28-0.57 0.47-0.52 0.61-12.68 15.28-6.2 35.12 0.17 0.55 0.57 0.99 1.09 1.22 0.82 0.35 20.24 8.58 52.92-2.04 0.76-0.25 1.3-0.93 1.37-1.73 0.08-0.94 1.87-23.22-11.88-33.89-0.17-0.14-0.36-0.24-0.57-0.31-0.53-0.19-8.59-2.9-18.27-2.9"/><path d="m1520.9 1295.5c12.67-6.6 29.79-1.6 32.29-0.81 10.03 8.06 10.29 24.17 10.15 28.86-26.72 8.35-44.08 3.41-47.95 2.07-4.72-15.9 3.99-28.14 5.51-30.12zm15.63-7.39c-5.8 0-12.19 0.98-17.89 4.06-0.21 0.12-0.41 0.28-0.57 0.47-0.52 0.61-12.68 15.28-6.2 35.13 0.17 0.54 0.57 0.98 1.1 1.21 0.81 0.35 20.24 8.58 52.91-2.04 0.76-0.25 1.3-0.93 1.37-1.73 0.09-0.94 1.88-23.21-11.87-33.89-0.18-0.14-0.37-0.24-0.58-0.31-0.53-0.19-8.59-2.9-18.27-2.9"/><path d="m1511.9 1318.3-10.88 0.77 0.28 3.99 10.88-0.77-0.28-3.99"/><path d="m1384.6 1306.1-1.02 3.86 63.02 16.71 1.02-3.86-63.02-16.71"/><path d="m1446.6 1320.9-3.99 0.26 0.45 7.11 3.99-0.25-0.45-7.12"/></g><path d="m1401.8 1307.7s-12.6 10.69-24.23 2.56c-11.64-8.14-6.07-29.85 28.89-29.42l-4.66 26.86" fill="#ffb2a8"/><path d="m1531.4 1340.8c-4.63 2.93-10.33 0.54-10.39 0.52l-1.19 2.75c0.29 0.13 7.2 3.06 13.19-0.74l-1.61-2.53" fill="#000061"/><path d="m1482.2 1340.8c-4.63 2.94-10.32 0.54-10.38 0.52l-1.2 2.75c0.29 0.13 7.2 3.06 13.19-0.74l-1.61-2.53" fill="#000061"/><path d="m1492.3 1259.5c-1.84-8.47 2.16-16.53 8.94-18 6.78-1.48 13.76 4.19 15.6 12.66l-24.54 5.34" fill="#fff"/><path d="m2147.2 1392.3c0-29.71-24.08-53.79-53.79-53.79s-53.79 24.08-53.79 53.79 24.08 53.79 53.79 53.79 53.79-24.08 53.79-53.79" fill="#ffb149"/><path d="m2111.6 1392.3c0-10.04-8.14-18.18-18.18-18.18s-18.18 8.14-18.18 18.18 8.14 18.18 18.18 18.18 18.18-8.14 18.18-18.18" fill="#fff"/><g fill="#ffb149"><path d="m1988.3 1338.4h-174.51v13h174.51v-13"/><path d="m1755.4 1338.4h-127.01v13h127.01v-13"/><path d="m1855.3 1289.6h-226.84v13h226.84v-13"/></g><g fill="#fff"><path d="m1101 1259.2h-141.76v13h141.76v-13"/><path d="m911.79 1259.2h-103.18v13h103.18v-13"/><path d="m992.88 1210.4h-184.28v13h184.28v-13"/><path d="m2242.1 618.23h-193.25v13h193.25v-13"/><path d="m2035.1 618.23h-47.03v13h47.03v-13"/><path d="m777.95 349.78h-147.97v13h147.97v-13"/><path d="m604.76 349.78h-54.887v13h54.887v-13"/><path d="m2082.2 569.4h-94.05v13h94.05v-13"/><path d="m2158.9 569.4h-56.99v13h56.99v-13"/><path d="m506.36 341.56c0-20.48-16.601-37.08-37.08-37.08s-37.081 16.6-37.081 37.08c0 20.47 16.602 37.08 37.081 37.08s37.08-16.61 37.08-37.08"/></g><g fill="#ff5776"><path d="m1871.8 362.52-2.91 4.07 107.04 76.72 2.92-4.06-107.05-76.73"/><path d="m1900.8 349.6-2.91 4.07 68.05 48.78 2.92-4.07-68.06-48.78"/><path d="m605.99 1328.2-2.913 4.07 107.04 76.72 2.913-4.06-107.04-76.73"/><path d="m634.99 1315.2-2.913 4.06 68.058 48.78 2.913-4.06-68.058-48.78"/></g><g fill="#fff"><path d="m1250.8 1240c25.71-62.77 58.93-122.26 98.95-177.03 1.13-1.54 3.73-0.05 2.59 1.51-39.85 54.55-73.04 113.81-98.65 176.32-0.72 1.76-3.62 0.99-2.89-0.8"/><path d="m1516.8 1173.1c1.33-35.46-2.4-70.87-11.07-105.29-0.47-1.87 2.42-2.67 2.89-0.79 8.74 34.65 12.52 70.36 11.18 106.08-0.07 1.93-3.07 1.94-3 0"/><path d="m906.25 971.84c30.746-21.545 50.483-58.201 50.775-95.848 0.286-36.932-19.938-70.812-50.087-91.388-16.813-11.474-36.337-18.701-56.658-20.313-1.912-0.152-1.928-3.154 0-3 36.995 2.935 71.605 23.913 91.931 54.9 21.331 32.521 22.756 73.2 6.858 108.31-9.047 19.98-23.345 37.344-41.306 49.93-1.584 1.111-3.085-1.489-1.513-2.59"/></g><path d="m1330.1 1310.6c-11.58 2.65-17.06 14.84-11.22 25.25 0.94 1.69-1.65 3.21-2.6 1.52-6.73-12.04-0.49-26.57 13.03-29.66 1.88-0.43 2.68 2.46 0.79 2.89" fill="#ffb149"/><path d="m1510.9 1374.7c0.19 2.02 2.84 3.86 4.75 3.82 2.08-0.04 4.17-1.73 5.3-3.35 1.54-2.19 2.16-4.93 2.62-7.52 0.68-3.82 0.99-7.69 2.66-11.25 2.88-6.13 8.78-10.49 15.25-12.21 14.26-3.79 27.41 6.17 32.47 19.04 0.7 1.8-2.2 2.58-2.9 0.8-3.55-9.04-11.66-16.84-21.71-17.63-9.92-0.78-19.54 5.67-21.77 15.46-1.49 6.55-1.42 16.26-9.05 19.11-4.82 1.8-10.13-1.14-10.62-6.27-0.19-1.92 2.81-1.9 3 0" fill="#000061"/><path d="m1425.3 1446.7c2.46 9.51 13.53 1.96 18.05-1.12 3.79-2.57 7.75-4.51 12.44-4.13 4.39 0.35 7.91 2.7 11.01 5.66 4.3 4.1 11.25 13.03 18.03 7.71 1.5-1.18 3.64 0.93 2.12 2.12-4.12 3.24-9.04 2.79-13.49 0.22-7.22-4.18-11.03-14.05-20.81-12.56-7.27 1.11-11.8 8.33-19.12 9.51-4.96 0.81-9.83-1.6-11.12-6.62-0.48-1.87 2.41-2.66 2.89-0.79" fill="#ffb149"/><path d="m1335 1404.6c-9.1-3.03-18.25-9.47-16.85-20.29 1.77-13.6 24.57-16.29 16.99-32.13-0.83-1.73 1.76-3.26 2.59-1.51 4.19 8.76 0.81 16.02-6.51 21.72-5.9 4.6-12.49 9.4-9.61 17.99 2.08 6.23 8.39 9.4 14.18 11.33 1.83 0.6 1.05 3.5-0.79 2.89" fill="#000061"/><g fill="#fff"><path d="m1893 872.76c23.46 7.11 44.69 19.94 61.87 37.415 1.35 1.378-0.77 3.501-2.12 2.121-16.83-17.116-37.57-29.678-60.54-36.643-1.85-0.559-1.06-3.455 0.79-2.893"/><path d="m1907 824.07c26.02 10.099 49.43 25.735 68.65 45.97 1.33 1.399-0.78 3.524-2.12 2.121-18.86-19.845-41.8-35.29-67.33-45.198-1.78-0.691-1-3.593 0.8-2.893"/><path d="m1891.2 779.82c30.37 6.344 58.72 19.833 82.87 39.291 1.5 1.211-0.63 3.322-2.12 2.121-23.74-19.127-51.71-32.287-81.55-38.52-1.88-0.394-1.09-3.287 0.8-2.892"/><path d="m1123 297.69c6.11-25.91 13.45-51.5 22-76.71 0.62-1.82 3.52-1.04 2.89 0.8-8.55 25.2-15.89 50.79-21.99 76.7-0.45 1.88-3.34 1.08-2.9-0.79"/><path d="m1163.3 282.88c11.04-28.37 14.81-62.53 40.21-82.67 1.5-1.19 3.64 0.92 2.13 2.12-24.98 19.8-28.6 53.45-39.45 81.35-0.69 1.78-3.59 1.01-2.89-0.8"/><path d="m1266.8 359.9c-2.95-5.15-5.29-11.14-0.91-16.23 4.48-5.2 11.67-5.25 17.98-4.98 1.93 0.08 1.94 3.08 0 3-4.76-0.2-10.06-0.5-14.09 2.48-5.27 3.91-3.11 9.47-0.39 14.22 0.96 1.67-1.63 3.19-2.59 1.51"/></g><g fill="#000061"><path d="m1325.3 1300.2c5.34-1.21 13.61-3.07 14.39-9.74 0.67-5.61-5.27-8.03-7.44-12.55-3.23-6.71-0.17-15.41 4.43-20.7 4.91-5.64 12.3-8.27 19.57-6.07 9.32 2.82 14.9 11.44 19.74 19.24 1.02 1.65-1.57 3.15-2.59 1.51-5.19-8.36-12.24-19.28-23.55-18.56-9.72 0.61-18.84 13.06-15.15 22.48 2.51 6.4 10.59 9.06 7.43 17.17-2.59 6.64-9.72 8.68-16.03 10.11-1.88 0.43-2.69-2.46-0.8-2.89"/><path d="m1495.5 1441.7c9.71 1.18 14.76 9.09 21.72 14.94 4.15 3.5 10.27 6.35 15.5 3.23 4.99-2.98 2.83-9.27 5.68-13.57 5.66-8.53 20.27-1.84 24.06-12.24 4.63-12.71-10.41-20.17-19.67-24.01-1.76-0.73-0.99-3.64 0.8-2.9 9.58 3.98 21.08 9.25 22.37 20.91 0.44 4.07-0.46 8.42-3.34 11.46-4.07 4.3-10.14 3.69-15.44 4.9-5.34 1.22-6.97 4.05-7.81 9.2-0.39 2.41-0.81 4.61-2.39 6.54-2.49 3.04-6.59 4.18-10.39 3.96-13.42-0.78-18.05-17.83-31.09-19.42-1.9-0.23-1.92-3.24 0-3"/><path d="m1446.1 1359.4c4.45-4.03 7.15-9.99 13.32-11.72 5.01-1.42 12.18-0.4 16.11 3.17 5.01 4.57 4.66 11.6 6.33 17.62 2.28 8.24 9.61 13.2 18.12 12.09 1.91-0.25 1.89 2.75 0 3-10.58 1.38-19.23-5.77-21.37-15.89-1.67-7.85-2.04-15.74-11.8-17.28-9.69-1.52-12.53 5.63-18.59 11.13-1.43 1.29-3.56-0.82-2.12-2.12"/></g><path d="m1901.7 1106.5c0-8.26-6.7-14.95-14.95-14.95-8.26 0-14.95 6.69-14.95 14.95 0 8.25 6.69 14.94 14.95 14.94 8.25 0 14.95-6.69 14.95-14.94" fill="#ffe9e9"/><path d="m1794.1 445.69-9.68 2.5 30.72 119.02 9.69-2.5-30.73-119.02" fill="#000061"/><path d="m1716.7 145.96-282.78 75.75 2.58 9.66 273.04-73.14 58.46 226.42 9.68-2.5-60.98-236.19" fill="#000061"/><g fill="#fff"><path d="m1213.3 335.94c10.61-6.55 17.91-19.22 23.21-30.2 5.85-12.1 9.48-25.11 11.41-38.39 0.27-1.9 3.17-1.09 2.89 0.8-2.04 14.06-6.04 27.77-12.39 40.5-5.47 10.96-12.95 23.31-23.61 29.88-1.65 1.02-3.15-1.57-1.51-2.59"/><path d="m1800.5 802.84c2.32-16.6 22.52-23.293 36.96-21.217 1.9 0.273 1.09 3.164-0.8 2.892-13.02-1.87-31.19 4.259-33.26 19.123-0.27 1.904-3.16 1.094-2.9-0.798"/><path d="m1817.6 786.07c-7.17-7.232-11.93-20.413-10.51-30.561 1.82-13.044 11.33-21.1 23.95-23.271 6.72-1.157 12.86-0.117 19.46 1.32 8.35 1.82 16.58 4.162 24.71 6.809 15.33 4.99 30.23 11.157 45.42 16.546 1.81 0.641 1.03 3.541-0.8 2.893-25.52-9.059-51.37-21.649-78.52-24.937-12.95-1.57-26.59 4.234-30.42 17.379-2.98 10.242 1.39 24.194 8.83 31.701 1.36 1.372-0.76 3.495-2.12 2.121"/></g><g fill="#000061"><path d="m1073.2 462.62-0.92 5.92c0.48 0.08 47.83 7.82 63.18 36.94l-101.5 247.17 5.55 2.279 102.54-249.69-0.59-1.21c-16.06-32.92-66.13-41.08-68.26-41.41"/><path d="m1155.1 852.28-3.58 4.809c46.04 34.353 107.44 86.983 138.4 142.62 9.65 17.336 13.82 30.576 15.62 38.626 1.95 8.7 1.62 13.37 1.62 13.42l5.98 0.5c0.07-0.81 1.48-20.17-17.54-54.674-17.29-31.371-55.7-82.045-140.5-145.31"/><path d="m1717.9 922.58-173.58 44.816 1.5 5.809 173.58-44.816-1.5-5.809"/><path d="m599.93 1082.2-9.683 2.5 33.222 128.67 325.6-84.06-2.5-9.68-315.92 81.56-30.722-118.99"/></g><path d="m1180.1 1189.2-21.25 24.76 6.83 5.86 11.05-12.88 8.46 24.36 8.5-2.95-13.59-39.15" fill="#00ccbe"/><path d="m1665.8 976.74-34.25 8.091 35.13 15.3 3.59-8.25-10.34-4.506 7.94-1.876-2.07-8.759" fill="#00ccbe"/><g fill="#fff"><path d="m1444.7 1007.9c14.89-7.45 32.5-1.88 40.07 13.04 0.88 1.72-1.71 3.24-2.59 1.51-6.8-13.39-22.45-18.72-35.97-11.96-1.72 0.86-3.24-1.73-1.51-2.59"/><path d="m1146.5 1131.4c-1.18 2.88-0.63 6.41 2.95 7.49 2.61 0.78 4.62-0.98 6.29-2.68 1.43-1.45 2.53-2.68 4.63-3.11 3.54-0.74 7.05 1.11 8.59 4.33 0.82 1.73-1.76 3.26-2.59 1.51-0.97-2.04-3.34-3.58-5.69-2.86-1.99 0.6-3 2.81-4.5 4.06-1.91 1.6-4.46 2.22-6.9 1.75-5.21-1.02-7.61-6.56-5.68-11.29 0.72-1.76 3.63-0.99 2.9 0.8"/><path d="m1230.4 1200c-1.18 2.88-0.63 6.41 2.94 7.49 2.62 0.78 4.63-0.98 6.3-2.68 1.43-1.45 2.53-2.68 4.62-3.11 3.55-0.74 7.06 1.11 8.59 4.33 0.83 1.73-1.75 3.26-2.59 1.51-0.97-2.04-3.33-3.58-5.68-2.86-1.99 0.61-3 2.81-4.5 4.06-1.91 1.6-4.46 2.22-6.9 1.75-5.21-1.02-7.61-6.56-5.68-11.29 0.72-1.76 3.63-0.99 2.9 0.8"/><path d="m1558.9 1090.4c-1.18 2.89-0.63 6.41 2.94 7.49 2.61 0.79 4.63-0.98 6.3-2.68 1.43-1.45 2.52-2.68 4.62-3.11 3.55-0.74 7.06 1.11 8.59 4.33 0.83 1.73-1.75 3.26-2.59 1.51-0.97-2.03-3.33-3.58-5.68-2.86-1.99 0.61-3 2.81-4.5 4.06-1.91 1.6-4.47 2.23-6.9 1.75-5.21-1.02-7.61-6.55-5.68-11.28 0.72-1.77 3.62-1 2.9 0.79"/><path d="m1019.3 1023.1c0.64 3.33 3.19 5.18 6.52 4.7 3.54-0.51 3.41-4.09 3.99-6.5 0.46-1.96 1.11-3.52 2.76-4.79 2.69-2.06 6.18-2.06 8.99-0.33 1.64 1.02 0.14 3.61-1.51 2.59-3.4-2.09-6.31-0.18-7.35 3.33-0.49 1.63-0.36 3.24-1.24 4.77-1.03 1.81-2.85 3.23-4.84 3.82-4.88 1.45-9.3-2.08-10.21-6.79-0.36-1.89 2.53-2.7 2.89-0.8"/><path d="m996.34 565.58c0.64 3.33 3.191 5.18 6.516 4.7 3.55-0.51 3.42-4.09 3.99-6.5 0.46-1.96 1.11-3.52 2.76-4.79 2.69-2.06 6.18-2.06 8.99-0.33 1.64 1.02 0.14 3.61-1.51 2.59-3.39-2.09-6.31-0.18-7.35 3.33-0.49 1.63-0.36 3.24-1.23 4.77-1.04 1.81-2.86 3.23-4.85 3.82-4.876 1.45-9.303-2.08-10.209-6.79-0.363-1.89 2.528-2.7 2.893-0.8"/><path d="m1125.9 1044.7c3.07 0.07 5.9-1.38 7.48-4.09 2.15-3.68 0.45-7.18-1.82-10.19-2.33-3.11-5.26-6.07-5.79-10.11-0.64-4.82 3.66-9.7 8.6-7.78 1.78 0.69 1.01 3.59-0.79 2.89-3.89-0.41-5.42 1.47-4.6 5.62 0.5 1.41 1.19 2.71 2.08 3.9 1.21 1.77 2.78 3.29 3.96 5.09 1.6 2.44 2.71 5.06 2.35 8.03-0.69 5.72-5.88 9.77-11.47 9.64-1.93-0.05-1.93-3.05 0-3"/><path d="m1612.9 1029.8c3.07 0.07 5.9-1.38 7.48-4.09 2.15-3.68 0.45-7.18-1.82-10.2-2.33-3.1-5.26-6.07-5.79-10.1-0.64-4.82 3.66-9.702 8.6-7.782 1.78 0.692 1.01 3.592-0.79 2.892-3.88-0.41-5.42 1.46-4.6 5.62 0.5 1.41 1.19 2.71 2.08 3.9 1.21 1.77 2.78 3.29 3.96 5.09 1.6 2.44 2.71 5.06 2.35 8.03-0.69 5.72-5.88 9.77-11.47 9.64-1.93-0.05-1.93-3.05 0-3"/><path d="m1029.7 870.43c5.57 3.081 12.02-1.061 11.85-7.312-0.11-4.419-2.33-8.636-1.38-13.118 1.11-5.231 7.51-9.01 11.64-4.394 1.28 1.436-0.83 3.564-2.12 2.122-1.49-0.194-2.97-0.388-4.45-0.582-0.76 1.609-1.52 3.219-2.28 4.828-0.27 1.351 0.22 3.111 0.45 4.421 0.36 1.981 0.9 3.919 1.07 5.931 0.24 2.902-0.27 5.724-2.13 8.035-3.42 4.241-9.49 5.245-14.16 2.66-1.69-0.936-0.18-3.528 1.51-2.591"/><path d="m923.41 724.72c5.564 3.081 12.014-1.06 11.852-7.311-0.115-4.419-2.329-8.636-1.381-13.119 1.106-5.231 7.505-9.009 11.636-4.393 1.284 1.435-0.831 3.564-2.122 2.121-1.482-0.194-2.964-0.388-4.447-0.582-0.761 1.609-1.522 3.219-2.284 4.828-0.265 1.351 0.223 3.112 0.459 4.421 0.357 1.981 0.898 3.919 1.064 5.931 0.24 2.902-0.264 5.724-2.127 8.036-3.418 4.239-9.494 5.245-14.165 2.658-1.689-0.935-0.177-3.527 1.515-2.59"/><path d="m1258.9 1059.4c-0.58 2.82 0.82 5.36 3.55 6.23 2.29 0.73 4.11-0.26 6.2-1.22 1.9-0.88 3.73-1.87 5.86-1.97 3.2-0.15 6.5 1.41 7.02 4.78 0.29 1.89-2.6 2.71-2.89 0.8-0.84-5.48-8.23-0.94-10.71 0.02-2.22 0.86-4.53 1.35-6.84 0.46-4.01-1.55-5.91-5.83-5.08-9.89 0.39-1.89 3.28-1.09 2.89 0.79"/><path d="m1166.1 958.06c-0.58 2.819 0.82 5.359 3.55 6.228 2.29 0.73 4.11-0.259 6.2-1.221 1.9-0.876 3.72-1.87 5.86-1.969 3.2-0.149 6.5 1.403 7.02 4.782 0.28 1.89-2.61 2.704-2.9 0.798-0.83-5.485-8.22-0.945-10.71 0.018-2.21 0.857-4.53 1.35-6.83 0.461-4.01-1.553-5.92-5.831-5.08-9.895 0.38-1.89 3.28-1.09 2.89 0.798"/><path d="m1019.2 656.89c-0.57 2.82 0.82 5.36 3.55 6.23 2.29 0.73 4.11-0.26 6.2-1.22 1.9-0.88 3.73-1.87 5.86-1.97 3.21-0.15 6.5 1.4 7.02 4.783 0.29 1.889-2.6 2.704-2.89 0.798-0.84-5.481-8.23-0.946-10.71 0.018-2.22 0.857-4.53 1.35-6.83 0.461-4.02-1.553-5.92-5.83-5.09-9.89 0.39-1.9 3.28-1.09 2.89 0.79"/><path d="m1336.8 245.75-88.86 28.08 0.91 2.86 88.85-28.08-0.9-2.86"/></g></g></svg>
